<?xml version="1.0" encoding="utf-8"?>
<!-- Generator: Adobe Illustrator 22.0.0, SVG Export Plug-In . SVG Version: 6.00 Build 0)  -->
<svg version="1.1" xmlns="http://www.w3.org/2000/svg" xmlns:xlink="http://www.w3.org/1999/xlink" x="0px" y="0px"
	 viewBox="0 0 2069.8 2069.8" style="enable-background:new 0 0 2069.8 2069.8;" xml:space="preserve">
<style type="text/css">
	.st0{fill:#FFFFFF;}
</style>
<g id="Layer_1">
	<path class="st0" d="M539.5,1486.1c-29.7,0-52.8-4.4-69.7-13.4c-1.2,1-2.4,2-3.7,3c-9.4,6.9-21.7,10.4-36.4,10.4
		c-23.9,0-45-9-61.4-26.1c-8.7,12.4-24.2,16.8-30.2,18.5l-0.7,0.2l-0.7,0.2c-18.8,4.3-43.9,6.5-76.8,6.5c-27.8,0-45.5-3.3-57.5-10.8
		c-2.4-1.5-4.8-3.3-7.1-5.5c-3.3,4.2-6.8,6.9-8.7,8.2c-9.5,6.3-22.4,8.9-44.7,8.9h-0.4l-0.4,0c-29.5-0.8-54.5-8.1-74.2-21.5
		l-0.7-0.5l-0.6-0.5c-14.8-11.4-23.2-23.1-25.6-35.9c-1.6-8.8-0.6-19,3.7-33.7c-6.7-5.3-12-13.9-13.7-26.7l-0.1-1.1l-2.2-39.1v-0.8
		c0-26.5,1.9-44.6,6.1-57.1c2.1-6.3,4.9-12,8.5-17c-6.8-5-11.6-12.5-13.1-21.7c-1.4-6.6-2.3-18.2,0.6-58.1l0-0.3l0-0.3
		c3.1-32.2,9.8-58.5,20.5-79.5c-8.2-3.7-15.8-11.1-19.6-23.8c-2.1-7.1-3.1-15.9-3.1-27.5c0-17.8,4.8-32.6,14.3-44
		c1.5-1.8,3.1-3.5,4.9-5.2c-7.2-7.2-11.6-16.3-12.8-26.8c-1.4-12.6,2.2-24.9,10.4-35.2c-7.3-7.6-10.5-17.5-12.3-24.8
		c-2.2-9-3.5-19.7-3.9-32.9c-0.4-11.3-0.5-27.5-0.5-49.5c0-28.3,0.7-49.1,2.2-63.7c0.9-8.8,2-15.3,3.6-20.5
		c2.8-9.2,7.3-15.1,12-18.8c-3.4-5.5-6.2-10.4-8.5-15c-10.1-19.7-15.6-41.8-16.5-65.8c-2.5-36.3,1.3-61.3,12-78.5
		c9.5-15.3,24-23.8,41-23.8c7.5,0,15.2,1.7,23.2,5.1c6.3-7.1,16.6-12.4,31.9-12.4c11.1,0,22.5,4.5,36.1,14
		c10.3,7.3,19.7,16.1,28.2,26.2l0.1,0.2c15.6,18.9,48.7,57,98.6,113c46.5,52,80.5,89.4,101,111.3l0.3,0.3l0.3,0.3
		c13.5,15.4,22.3,32,26.1,49.5c3.3,15.3,4.5,38.6,3.7,73.4l0,0.2c-2,73-8.6,93.1-20.2,104.7c-3.6,3.6-7.8,6.4-12.4,8.3
		c2.2,3.6,4.4,7.5,6.7,11.8l0.3,0.5l0.2,0.5c6.7,14,11.4,25,14.5,33.5c4.8,13.1,5.4,26.6,1.8,40.1c-2.2,8.4-5.7,15.9-10.5,22.4
		c4.9,2.1,9.9,4.8,14.8,8c6.3,4.2,13,9.5,20.2,15.9c7.2,6.4,14.1,13.5,20.4,21c0.4,0.5,0.8,1,1.2,1.5c7-8.3,17.4-13.1,29.8-13.1
		c5.7,0,11.7,1,18.3,3.2l-5.8-14.6l74,2.5c14,0,24.5,0.4,32,1.2c10.1,1.1,20.2,4.2,29.9,9.3c11.5,6,19.5,13.3,24.7,22.2
		c4.2,7.2,7.3,17.1,10.1,31.8c2.3,12.4,3.7,25.2,4.1,38c0.3,10.6,0.8,25.9,1.4,45.9l0.1,4.6l0,0.3c0.3,36.2,0.1,64.8-0.8,84.8
		c-1.4,30.8-4,40.7-8.4,48l-0.3,0.6l-0.4,0.6c-6,9-16.2,14.4-27.2,14.4c-3.9,0-7.8-0.6-11.9-1.9l14.2,22.5H539.5z M485.3,1431.2
		L485.3,1431.2z"/>
	<path d="M283.9,943.7c-49.7-37.3-107-97.3-171.8-180.1c-24.8-31.7-41.4-55.7-49.7-71.9s-12.8-34.3-13.5-54.4
		c-2.1-29.7,0.5-50.4,7.8-62.1s18.5-13.5,33.6-5.2c13.8,6.9,26.2,20.7,37.3,41.4c8.3,14.5,13.5,21.7,15.5,21.7
		c4.8,0,0-14.1-14.5-42.4c-8.3-14.5-12.3-23.6-11.9-27.4c0.3-3.8,4.3-5.7,11.9-5.7c4.8,0,11.4,2.9,19.7,8.8s15.9,12.9,22.8,21.2
		c15.9,19.3,49,57.3,99.4,113.9c46.9,52.4,80.7,89.7,101.4,111.8c10.4,11.7,16.9,24,19.7,36.8c2.8,12.8,3.8,35,3.1,66.8
		c-1.4,50.4-5.4,78.9-11.9,85.4c-6.6,6.6-19.1,2.4-37.8-12.4C326.3,974.9,305.9,959.6,283.9,943.7z M56.1,822.6
		c0-58,3.1-84.9,9.3-80.7c9.7,11,22.8,27.3,39.3,48.7s31.1,41.1,43.5,59s18.6,28.3,18.6,31.1c0,4.8-11.4,11.6-34.2,20.2
		s-41.4,12.9-55.9,12.9c-4.8,0-8.5-0.9-10.9-2.6c-2.4-1.7-4.5-6-6.2-12.9s-2.8-15.9-3.1-26.9C56.3,860.2,56.1,844,56.1,822.6z
		 M56.1,1041c0-11,2.6-19.7,7.8-25.9c5.2-6.2,14.7-12.4,28.5-18.6c17.3-7.6,26.2-12.1,26.9-13.5c0.7-0.7-0.7-1.4-4.1-2.1
		c-2.1,0-7.6,0-16.6,0c-22.8-0.7-34.9-7.1-36.2-19.1c-1.4-12.1,8.6-22.3,30-30.5c26.9-11,47.1-17.8,60.6-20.2s26.2-1.7,38.3,2.1
		c12.1,3.8,28.1,12.2,48.1,25.4c15.2,10.4,28.5,20.2,39.8,29.5c11.4,9.3,17.4,15.7,18.1,19.1c2.1,6.9-2.6,13.5-14,19.7
		c-11.4,6.2-26,10.5-44,12.9s-35.2,2.6-51.8,0.5c-11.7-2.8-22.1-3.8-31.1-3.1c-9,0.7-17.1,2.8-24.3,6.2c-7.2,3.5-16,9.3-26.4,17.6
		c-22.8,17.3-36.8,25.9-41.9,25.9C58.7,1066.9,56.1,1058.2,56.1,1041z M83,1441.2c-9-6.9-14-13.1-15-18.6s1.2-16.2,6.7-32.1
		c6.9-18.6,9.3-27.9,7.2-27.9s-5.2,2.1-9.3,6.2c-8.3,6.9-13.1,5.2-14.5-5.2l-2.1-37.3c0-22.8,1.5-38.8,4.7-48.1s8.8-16.1,17.1-20.2
		c14.5-7.6,25.2-11.4,32.1-11.4c2.1,0,4.8,2.6,8.3,7.8c3.5,5.2,6.9,12.2,10.4,21.2s7.2,19.3,11.4,31.1c4.1,11.7,7.9,24.5,11.4,38.3
		c3.5,13.8,6.9,27.3,10.4,40.4c4.1,22.1,8.3,39.7,12.4,52.8c2.1,7.6,1,12.8-3.1,15.5c-4.1,2.8-13.8,4.1-29,4.1
		C117.9,1457.1,98.2,1451.6,83,1441.2z M58.2,1174.5c4.1-43.5,15.7-74.5,34.7-93.2s51.9-30.7,98.9-36.2c46.2-4.8,84.9-10,115.9-15.5
		c22.1-3.5,36.2-4,42.4-1.5c6.2,2.4,13.5,11.6,21.7,27.4c6.2,13.1,10.7,23.5,13.5,31.1c2.8,7.6,3.1,15.4,1,23.3
		c-2.1,7.9-6,14.3-11.9,19.1c-5.9,4.8-16.6,10.5-32.1,17.1c-15.5,6.6-32.8,12.4-51.8,17.6c-19,5.2-45,12.2-78.1,21.2
		c-77.3,20-123.2,33.8-137.7,41.4c-11,5.5-16.9,5.2-17.6-1C55.8,1219.7,56.1,1202.8,58.2,1174.5z M191.7,1409.8
		c-11.7-24.8-24.8-60.2-39.3-106.1c-14.5-45.9-20-69.9-16.6-72c2.8-1.4,23.1-7.9,61.1-19.7l56.9-17.6l12.4,41.4
		c8.3,28.3,25.2,70,50.7,125.3c21.4,48.3,31.1,75.2,29,80.7c-0.7,3.5-5.9,6.6-15.5,9.3c-16.6,3.8-40,5.7-70.4,5.7
		c-21.4,0-35.5-2.2-42.4-6.5S202.1,1432.6,191.7,1409.8z M354.2,899.2c-25.5-48.3-64.9-94.2-118-137.7c-20-16.6-30-23.8-30-21.7
		c0,3.5,21.7,30.7,65.2,81.8c58.7,69,89.4,103.5,92.1,103.5C365.6,923.7,362.5,915,354.2,899.2z M324.2,1307.7
		c-20.7-51.1-32.6-83.2-35.7-96.3c-3.1-13.1-0.2-22.8,8.8-29c4.1-2.8,7.6-4.7,10.4-5.7c2.8-1,6-1.2,9.8-0.5s7.4,2.4,10.9,5.2
		c3.5,2.8,8.3,6.9,14.5,12.4c15.9,14.5,23.8,20.4,23.8,17.6c0-1.4-1.4-6.9-4.1-16.6c-1.4-4.1-2.1-7.9-2.1-11.4s0.5-6.4,1.5-8.8
		c1-2.4,2.6-4.5,4.7-6.2c2.1-1.7,4.8-3.3,8.3-4.7s7.6-1.4,12.4,0s9.8,3.8,15,7.2c5.2,3.5,10.9,7.9,17.1,13.5
		c6.2,5.5,12.1,11.6,17.6,18.1s11.2,13.6,17.1,21.2c5.9,7.6,11,15.4,15.5,23.3c4.5,7.9,8.6,16,12.4,24.3c3.8,8.3,6.4,16.2,7.8,23.8
		c8.3,30.4,20.9,54.9,37.8,73.5c16.9,18.6,31.9,38,45,58l19.7,31.1h-52.8c-35.2,0-58-6.6-68.3-19.7c-6.9-9.7-11-14.5-12.4-14.5
		c-1.4,0-2.1,4.8-2.1,14.5c-0.7,13.1-9.7,19.7-26.9,19.7s-31.6-6.6-43-19.7C375.5,1425,354.6,1381.5,324.2,1307.7z M593.4,1399.2
		c-22.1-22.8-46.8-56.1-74-99.9c-27.3-43.8-40.9-72-40.9-84.4c0-14.5,9.3-17.6,27.9-9.3c14.5,6.2,28.3,17.3,41.4,33.1l30,36.2
		l-16.6-42.4l-16.6-41.4l31.1,1c13.1,0,22.9,0.3,29.5,1c6.6,0.7,13.1,2.8,19.7,6.2c6.6,3.5,11,7.2,13.5,11.4
		c2.4,4.1,4.7,11.7,6.7,22.8c2.1,11,3.3,22.3,3.6,33.6c0.3,11.4,0.9,28.1,1.6,50.2c0.7,71.8-1,111.1-5.2,118
		c-4.1,6.2-19-3.5-44.5-29C597.9,1403.6,595.4,1401.2,593.4,1399.2z"/>
	<path class="st0" d="M812.9,1601.8c-21.4,0-46.5-0.9-74.8-2.8c-16.7-0.5-36.3-10.6-42.5-38.1c-3.3-14.6-3.5-27-0.6-37.7
		c-3.6-6.9-6.1-18.1,2.8-32.8c0.2-0.4,0.5-0.8,0.8-1.2c-7.2-9.5-7.1-21.8-6.2-47.6l0-0.7l0.1-0.7c0.6-7,0.6-16.3-0.1-27.7
		c-0.6-11.9-1.6-22.4-2.9-31.2l-0.1-0.4l0-0.4c-4.1-35.8-1.5-53.5,9.4-65.4c9.9-10.7,24.9-15.9,82.9-15.9h115.9l-4,5
		c0.5,0,1,0,1.5,0c11,0,21.2,4.6,28.1,12.8c8,9,9,20.3,9.6,46c0.4,17.6,0.5,37.6,0.5,59.6v0.5l-6.1,174.8l-84.1,3
		C833.9,1601.5,823.8,1601.8,812.9,1601.8z"/>
	<path d="M720.7,1442.6c0.7-8.3,0.7-18.8,0-31.6c-0.7-12.8-1.7-24-3.1-33.6c-2.8-24.2-2.1-38.5,2.1-43c4.1-4.5,24.8-6.7,62.1-6.7
		h56.9l-58,72.5c-38,48.3-57.6,72.5-59,72.5C720.4,1472.7,720,1462.6,720.7,1442.6z M722.8,1529.3c0.7-2.1,3.1-3.6,7.2-4.7
		c4.1-1,10-2.8,17.6-5.2c7.6-2.4,15.2-6,22.8-10.9c24.2-16.5,35.2-25.2,33.1-25.8c-53.8,20.7-81.6,29.8-83.3,27.4
		c-1.7-2.4,13.3-21.9,45-58.5c31.7-36.6,57.6-64.5,77.6-83.8c32.4-30.4,52.1-41.1,59-32.1c1.4,1.4,2.2,10.7,2.6,27.9
		s0.5,36.9,0.5,59l-5.2,147.9l-58,2.1c-26.2,1.4-60.4,0.7-102.5-2.1c-8.3,0-13.6-5.3-16.1-16
		C720.9,1543.9,720.7,1535.5,722.8,1529.3z"/>
	<path class="st0" d="M1062.1,1507.8c-0.7,0-1.4,0-2,0c-9.1-0.4-22.4-3.3-58-21.1c-21.3-10.7-34.9-20.8-42.6-31.9
		c-8.4-12.1-12.4-28.4-12.4-51.5V1339l8.5-1.1l-8-43.5c-5.5-30-6.5-52.8-3-69.7c2.7-14.2,11.3-24.8,22.4-33
		c-9.8-9.6-14.3-24.7-17.7-40l-0.1-0.5l-0.1-0.5c-4.4-25.2-6.5-49.3-6.1-71.6c0.4-24.2,3.3-48.1,21.4-59c1.7-1.1,3.5-1.9,5.5-2.6
		c-1.7-2.2-3.2-4.4-4.7-6.8c-10.5-17.4-14.3-41.4-11.7-73.3l0-0.3l0-0.3c1.6-15,0.4-27.1-3.5-36c-4.5-10.4-16.5-37.9,2.3-56.7
		c5.9-5.9,13.9-9.1,22.7-9.1c0,0,0.1,0,0.1,0c-10.1-19.2-18-48.9-24.6-91.8c-8-51.8-8.9-96.5-2.5-132.9c3.6-20.7,9.1-36.5,16.7-48.2
		c10.7-16.4,26.2-25.5,43.8-25.5c16.2,0,30.2,6.5,40.2,18.5c1.1-1.2,2.2-2.3,3.3-3.3c11.1-10.1,27.2-14.8,50.7-14.8
		c8.5,0,18.3,0.6,29.1,1.8l78,9.2v3.6l34.4,6.2l0.4,0.1c21.6,4.5,46.9,12.7,75.3,24.3l0.4,0.2c26.9,11.6,41.4,22.4,48.2,36.1
		c3.1,6.2,5.5,14.6,6.9,30.9c1.9-0.3,3.8-0.5,5.8-0.5c7.5,0,15.2,2.3,24.9,7.6c10.1,5.5,21.1,13.3,33.8,24
		c11.5,9.7,22.9,20.1,34,30.8c11.6,11.2,21.5,22.1,29.6,32.5c2.8,3.6,5.2,7,7.3,10.2c2-6.3,5-12.3,9-17.7c1.9-2.6,6.3-8.7,13.6-13.1
		l-11-8.2l57.5-91.8l0.2-0.2c13.7-20.9,26.5-38.5,38.3-52.4c13.2-15.6,24.7-26.4,35.4-32.9c8.5-5.1,16.9-7.8,25.2-7.8
		c10.7,0,20.5,4.2,27.8,12c1.4,1.4,2.7,2.9,3.9,4.7c1-0.9,1.9-1.7,2.8-2.4c7.6-5.9,17.5-9.3,32.3-11c10.2-1.2,25.1-1.7,45.7-1.7
		c53.9,0,82.5,6.6,97.7,22.8c4.2-3.8,9.6-6.8,16.2-8.9c7.1-2.4,15.1-3.5,24.5-3.5c10.5,0,20.1,1.7,28.6,5.1
		c9.8,3.9,18.3,10.4,25.2,19.2c5.9,7.5,10.6,16.8,14,27.6c2.9,9.2,5.3,20.8,7.3,35.3c1.9,13.8,3,29.5,3.4,46.7
		c0.4,16.5,0.5,37.1,0.5,61.2c0,51.4-1.1,84.8-3.3,102c-1.5,11.5-3.9,20.2-7.6,27.3c-0.7,1.3-1.4,2.5-2.1,3.7l13.1,3.3v103.9
		c0,14.9-0.4,29.2-1.1,42.4c-0.8,14.2-1.9,25.2-3.6,33.8c-1,5.1-2,8.9-3.3,12.2c-0.4,1-0.8,2-1.3,2.9l16.2,4.9l7.2,64.8
		c5.7,41.8,3.1,63.5-9,77.2l-1.9,2.1c6.9,8.4,15,23.8,23,67.1l0.1,0.4l0.1,0.4c2.6,16.9,4.2,38.3-7.5,53.1
		c-4.8,6.1-11.3,10.4-18.6,12.4c13.9,13.2,22.9,28.1,26.8,44.3l0.1,0.4l0.1,0.4c3.9,19,7.9,34.8,11.7,46.9l0.2,0.5
		c3.9,13.1,1.9,25.9-5.4,35.9c-13.2,17.9-36.8,18.4-44.5,18.5c-0.8,0-1.5,0-2.2,0c-21.7,0-53.8-5.5-98-17l-0.4-0.1l-0.4-0.1
		c-9.2-2.7-19.9-6.3-32.4-11c-1.2,8-6.6,23.6-30.6,27.8c-6.7,1.2-15.4,1.7-27.3,1.7c-16.3,0-38.1-1.1-66.6-3.3l-0.4,0
		c-43.3-3.9-58.2-7.9-66.3-11c-20.6-7.5-30.5-20.1-35.2-29.4c-5.6-11.1-8.2-25.7-8.2-45.8c0-14.7,0.6-25.8,1.9-33.9
		c1-6.1,2.3-10.9,4.3-15.1c2.2-4.6,5.2-8.5,8.8-11.5c-7.1-10.4-11.4-22-12.8-34.4c-4.2-35.4,10.4-49.8,22.3-55.5
		c-5.3-6.2-9.4-12.9-12.2-20.1c-8.3-20.7-12.2-40.4-11.8-58.7c0.3-11.3,1.9-20,5.2-27.3c1.6-3.6,3.6-6.8,6-9.6
		c-14-10.2-29-21.1-45-32.8l-52.4,52.4c-6.7,7.4-13.7,14.4-20.8,20.8c-6.9,6.2-13.3,11.7-19.1,16.4c-6.4,5.2-11.9,9.2-16.6,12.3
		c-5.4,3.5-13.8,8-24,8h-1.2l-1.2-0.1c-16.2-1.3-33.6-12.7-60.1-39.3c-1.6-1.6-3.2-3.5-5-6c-7.8-7.9-12.7-13.9-15.9-19.1
		c-2.6-4.3-5.2-9.2-7.6-14.6c-5.3-11.5-4.3-23.7-2.1-33.7c-4.2,1.4-8.8,2.3-13.6,2.3c-8.8,0-25.5-3.1-38.4-23.7
		c-1.2-1.8-2.2-3.7-3-5.7c-2.3,0.4-4.7,0.6-7.1,0.6c-2.2,0-4.5-0.2-6.6-0.5c1.7,11.7-1.2,22.8-8.2,31.4c-9,11.2-23.5,16.8-43,16.8
		c-0.6,0-1.3,0-2,0l-2.2,13.5l51.8-3.6v156.3l10.4-1.2v85.6c0,43.9-8.2,71.8-25.9,87.8c-13.5,12.3-33.6,18.2-61.3,18.2
		c-8.7,0-18.3-0.6-28.7-1.7c-8.1-0.9-16-1.4-23.4-1.4c-19.3,0-36.5,3.1-51.1,9.2l-0.1,0C1084.1,1505.8,1070.7,1507.8,1062.1,1507.8z
		 M1906.7,847.5c2.2,0.6,4.4,1.1,6.6,1.7c-0.3-1.6-0.7-3.4-1.1-5.4C1910.6,845.2,1908.7,846.4,1906.7,847.5z M1508.2,830.5
		c0.3,0,0.6,0,0.9,0c-0.2-0.4-0.4-0.8-0.5-1.2C1508.5,829.7,1508.4,830.1,1508.2,830.5z"/>
	<path d="M1176.2,1085.5c-36.6-11.7-63.8-24.5-81.8-38.3c-4.8-3.5-11-7.2-18.6-11.4c-7.6-4.1-15.4-7.6-23.3-10.4
		c-7.9-2.8-15.3-4.8-22.2-6.2c-20-3.5-33.6-11.2-40.9-23.3c-7.2-12.1-9.8-30.9-7.8-56.4c2.1-20,0.2-36.7-5.7-50.2
		c-5.9-13.5-7.1-21.9-3.6-25.4c2.8-2.8,15.3,1.7,37.8,13.5c22.4,11.7,47.5,26.2,75.1,43.5c27.6,17.3,55.2,35.5,82.8,54.9
		c27.6,19.3,47.3,34.9,59,46.6c38.6,37.3,53.6,61.3,45,72C1263.3,1105,1231.4,1102.1,1176.2,1085.5z M975.3,1289.2
		c-4.8-26.2-5.9-45.9-3.1-59c4.8-26.2,69.7-44.2,194.6-53.8l103.5-7.2v60v61.1l-52.8,11.4c-9.7,2.1-22.6,4.3-38.8,6.7
		s-33.6,4.7-52.3,6.7s-36.2,3.8-52.8,5.2l-91.1,8.3L975.3,1289.2z M976.9,1145.7c-4.1-23.5-6-45.5-5.7-66.3
		c0.3-20.7,2.9-32.4,7.8-35.2c6.2-4.1,51.1,11.7,134.6,47.6l126.3,52.8l-93.2,7.2c-16.6,1.4-33.6,3.1-51.2,5.2
		c-17.6,2.1-33.1,4.1-46.6,6.2c-13.5,2.1-23.3,4.1-29.5,6.2c-16.6,4.1-26.9,5.2-31.1,3.1C984.1,1170.5,980.3,1161.5,976.9,1145.7z
		 M1074.7,881.6c-37.3-21.4-60.9-39.3-70.9-53.8s-18.5-44.2-25.4-89c-7.6-49-8.5-90.2-2.6-123.7c5.9-33.5,16.7-50.2,32.6-50.2
		c9,0,15.9,3.8,20.7,11.4s9.7,22.4,14.5,44.5l13.5,54.9l1-44.5c0.7-31.7,5-51.2,12.9-58.5c7.9-7.2,27.1-9.2,57.5-5.7l52.8,6.2V630
		c0,9-0.9,21.7-2.6,38.3c-1.7,16.6-3.8,34-6.2,52.3c-2.4,18.3-5.2,37.3-8.3,56.9s-6.2,37.8-9.3,54.3c-3.1,16.6-6.2,31.1-9.3,43.5
		c-3.1,12.4-5.7,20.7-7.8,24.8C1133,909.2,1112,903,1074.7,881.6z M1014.7,1461.3c-16.6-8.3-27.3-15.9-32.1-22.8
		c-4.8-6.9-7.2-18.6-7.2-35.2V1364l89-11.4c59.3-8.3,110.4-14.8,153.2-19.7l63.1-7.2v53.8c0,34.5-5.5,56.8-16.6,66.8
		c-11,10-33.6,13.1-67.8,9.3c-34.2-3.8-63.7-0.5-88.5,9.8c-23.5,9.7-39,14.3-46.6,14C1053.7,1479,1038.1,1473,1014.7,1461.3z
		 M1211.9,962.3l-40.4-42.4l16.6-94.2c11-62.8,17.3-119.4,18.6-169.8l3.1-75.6l28.9,5.2c20,4.1,43.4,11.7,70.2,22.8
		c19.3,8.3,30.6,15.9,34.1,22.8c3.4,6.9,5.2,25.9,5.2,56.9c0,20-2.9,43.8-8.8,71.4s-13.6,56.6-23.2,87c-2.8,7.6-5.4,15.2-7.8,22.8
		c-2.4,7.6-4.8,15-7.2,22.3c-2.4,7.2-4.7,14.5-6.7,21.7c-2.1,7.2-4.1,13.8-6.2,19.7s-3.8,11.4-5.2,16.6s-2.6,9.8-3.6,14
		s-1.9,7.2-2.6,9.3c-4.8,20.7-10.2,31.1-16,31.1S1238.8,989.9,1211.9,962.3z M1342.8,1071c-4.1-6.2-1-20,9.3-41.4
		c19.3-40,26.2-61.1,20.7-63.1c-2.8-0.7-9,8.6-18.6,27.9c-17.3,31.1-29.7,49.5-37.3,55.4c-7.6,5.9-15.9,3.3-24.8-7.8
		c-5.5-6.2-8.1-12.9-7.8-20.2c0.3-7.2,4.3-18.1,11.9-32.6c6.2-13.8,14.1-36.2,23.8-67.3c9.7-31.1,18.6-63.8,26.9-98.3
		c8.3-34.5,14.1-63.5,17.6-87c5.5-33.1,10-52.4,13.5-58c1.4-2.8,6.2-1.9,14.5,2.6s17.9,11.4,29,20.7c11,9.3,21.9,19.1,32.6,29.5
		c10.7,10.4,19.7,20.2,26.9,29.5c7.2,9.3,10.9,16,10.9,20.2c0,11.7-14.8,56.1-44.5,133c-29.7,76.9-50.4,124.4-62.1,142.3
		C1368,1084.1,1353.9,1089,1342.8,1071z M1421.5,1161.1c-0.7-0.7-1.7-2.1-3.1-4.1c-6.9-6.9-11.4-12.1-13.5-15.5s-4.1-7.4-6.2-11.9
		c-2.1-4.5-1.6-11.7,1.5-21.7c3.1-10,6-19.7,8.8-29c2.8-9.3,8.6-25.7,17.6-49.2c2.1-5.5,3.5-9.7,4.1-12.4
		c5.5-14.5,29.3-6.9,71.4,22.8c11,7.6,22.1,16.2,33.1,25.9l36.2,30l-47.6,47.6c-6.2,6.9-12.6,13.3-19.2,19.2s-12.6,11-18.1,15.5
		c-5.5,4.5-10.2,7.9-14,10.4c-3.8,2.4-6.7,3.6-8.8,3.6C1455.7,1191.4,1441.5,1181.1,1421.5,1161.1z M1908,1283.2
		c-31.1-16.6-59.7-32.9-85.9-49.2c-26.2-16.2-56.2-36.4-90.1-60.6c-33.8-24.2-80.4-58-139.7-101.4c-85.6-63.5-129.1-95.6-130.4-96.3
		c-4.8-2.1,0.7-22.1,16.6-60c15.9-38,26.2-56.9,31.1-56.9c2.1,0,5.3,1,9.8,3.1c4.5,2.1,9.7,4.8,15.5,8.3s12.3,7.6,19.2,12.4
		s13.8,10,20.7,15.5c1.4,1.4,7.2,5.9,17.6,13.5s17.9,13.3,22.8,17.1c4.8,3.8,11.6,9,20.2,15.5c8.6,6.6,16.2,12.4,22.8,17.6
		c6.6,5.2,12.6,9.8,18.1,14c8.3,6.2,18.1,12.6,29.5,19.2c11.4,6.6,24.7,13.1,39.9,19.7c15.2,6.6,31.9,13.1,50.2,19.7
		c18.3,6.6,38.8,13.3,61.6,20.2l132.5,40.4l5.2,46.6c4.1,30.4,3.5,48.7-2.1,54.9c-2.8,2.1-9.7,2.8-20.7,2.1
		c-11-0.7-22.8-2.8-35.2-6.2c-33.8-9-50.7-11.2-50.7-6.7s16.6,12.2,49.7,23.3c29.7,10.4,47.6,19,53.8,25.9
		c6.2,6.9,12.1,25.2,17.6,54.9c3.5,22.1,1,33.5-7.2,34.2C1990.5,1324.3,1959.8,1310.8,1908,1283.2z M1843.8,1016.1
		c-51.1-17.3-89.7-32.9-115.9-47.1s-60.7-37.8-103.5-70.9c-46.9-36.6-74.9-60.2-83.8-70.9c-9-10.7-11.7-24-8.3-39.9
		c2.1-10.4,3.6-17.8,4.7-22.2c1-4.5,2.9-8.6,5.7-12.4c2.8-3.8,5.2-5.9,7.2-6.2c2.1-0.3,6,0.7,11.9,3.1s11.6,5.3,17.1,8.8
		s14.1,9.3,25.9,17.6c37.3,25.5,63.5,38.3,78.7,38.3c5.5,0,18.3,2.6,38.3,7.8c20,5.2,41.1,11.6,63.1,19.1
		c53.1,17.3,99,30.4,137.7,39.3l58,14.5v81.8c0,14.5-0.3,28.1-1,40.9c-0.7,12.8-1.7,22.8-3.1,30c-1.4,7.2-2.8,10.5-4.1,9.8
		C1966.7,1056.9,1923.9,1043.1,1843.8,1016.1z M1675.1,779.1c-22.1-7.6-46.9-21.4-74.5-41.4l-40.4-30l43.5-69.4
		c13.1-20,25.2-36.6,36.2-49.7c11-13.1,20.5-22.1,28.5-26.9c7.9-4.8,14-4.8,18.1,0c3.5,2.8,10.7,26.9,21.7,72.5
		c11,45.5,18.6,82.5,22.8,110.8c1.4,9.7,2.4,17.1,3.1,22.3c0.7,5.2,0.5,9.8-0.5,14c-1,4.1-2.6,6.9-4.7,8.3s-5.7,1.9-10.9,1.6
		c-5.2-0.3-10.9-1.6-17.1-3.6C1694.8,785.3,1686.2,782.5,1675.1,779.1z M1683.4,1458.2c-9.7-3.5-16.2-8.6-19.7-15.5
		s-5.2-17.9-5.2-33.1c0-26.2,2.1-39.3,6.2-39.3c8.3,0,53.1,23.8,134.6,71.4c24.2,13.8,36.6,21.7,37.3,23.8c0,6.2-31.4,6.9-94.2,2.1
		C1712,1464.7,1692.4,1461.6,1683.4,1458.2z M1904.9,1453.2c-16.6-4.8-39.5-13.5-68.8-25.9c-29.3-12.4-56.4-24.8-81.3-37.3
		c-38-20-62.8-34.9-74.5-44.5s-18.3-21-19.7-34.2c-2.1-17.3,1.2-26.6,9.8-27.9c8.6-1.4,35.4,3.5,80.2,14.5
		c37.3,8.3,55.9,10,55.9,5.2c0-5.5-22.1-15.2-66.3-29c-22.1-6.9-38.6-14-49.7-21.2c-11-7.2-18.3-15.4-21.7-24.3
		c-6.9-17.3-10.2-33.1-9.8-47.6c0.3-14.5,3.6-21.7,9.8-21.7c2.8,0,14,6.6,33.6,19.7c19.7,13.1,42.3,29,67.8,47.6
		c60.7,45.5,114.2,81.1,160.5,106.6c26.2,13.8,45,25.7,56.4,35.7c11.4,10,18.5,20.9,21.2,32.6c4.1,20,8.3,36.6,12.4,49.7
		c3.5,11.7-4.3,17.8-23.3,18.1C1978.6,1469.6,1947.7,1464.3,1904.9,1453.2z M1820.3,807c-29.7-12.4-46.2-19.7-49.7-21.7
		c-0.7-0.7-2.8-7.6-6.2-20.7s-7.4-29-11.9-47.6c-4.5-18.6-8.6-37.4-12.4-56.4c-3.8-19-7.1-36.2-9.8-51.8
		c-2.8-15.5-4.1-25.7-4.1-30.5c0-5.5,1.5-9.5,4.7-11.9c3.1-2.4,9.2-4.1,18.1-5.2c9-1,23.1-1.6,42.4-1.6c43.5,0,69.4,4.8,77.6,14.5
		c2.1,2.8,4.3,9.2,6.7,19.2c2.4,10,4.7,22.4,6.7,37.3c2.1,14.8,3.8,30.2,5.2,46.1c3.5,58.7,6.9,98.3,10.4,119c1.4,9,1.4,15.9,0,20.7
		c-1.4,4.8-5.2,7.6-11.4,8.3c-6.2,0.7-14.5-0.3-24.8-3.1C1851.4,818.8,1837.6,813.9,1820.3,807z M1943.2,850.5
		c-3.5-5.5-9.3-50.5-17.6-135.1s-14.5-129.9-18.6-136.1c-1.4-2.8,1-5.2,7.2-7.2c4.1-1.4,9.3-2.1,15.5-2.1c6.9,0,12.9,1,18.1,3.1
		c5.2,2.1,9.7,5.5,13.5,10.4c3.8,4.8,6.9,11,9.3,18.6s4.5,17.8,6.2,30.5c1.7,12.8,2.8,27.3,3.1,43.5s0.5,36.4,0.5,60.6
		c0,49.7-1,82.5-3.1,98.3c-2.1,15.9-6.2,23.8-12.4,23.8c-2.1,0-4.3-0.2-6.7-0.5c-2.4-0.3-4.5-0.9-6.2-1.6c-1.7-0.7-3.5-1.5-5.2-2.6
		C1945.1,853.1,1943.9,851.9,1943.2,850.5z"/>
</g>
<g id="Layer_2">
</g>
</svg>
