<?xml version="1.0" encoding="utf-8"?>
<!-- Generator: Adobe Illustrator 22.0.0, SVG Export Plug-In . SVG Version: 6.00 Build 0)  -->
<svg version="1.1" id="_x30_" xmlns="http://www.w3.org/2000/svg" xmlns:xlink="http://www.w3.org/1999/xlink" x="0px" y="0px"
	 viewBox="0 0 2224 2520" style="enable-background:new 0 0 2224 2520;" xml:space="preserve">
<style type="text/css">
	.st0{fill:none;stroke:#000000;stroke-width:0.7087;stroke-linecap:round;stroke-linejoin:round;stroke-miterlimit:10;}
</style>
<g id="LWPOLYLINE_1_">
	<path class="st0" d="M1219.1,1247.5h246.6c14,0,25.9-10.2,28-24l30.8-199.4c2.1-13.8,14-24,28-24h56.5h56.5c14,0,25.9,10.2,28,24
		l30.8,199.4c2.1,13.8,14,24,28,24h246.6c15.7,0,28.3-12.7,28.3-28.3c0-2-0.2-4.1-0.7-6.1L1791.1,135.9c-2.8-13-14.4-22.3-27.7-22.3
		h-309.2c-13.3,0-24.8,9.3-27.7,22.3l-235.1,1077.2c-3.3,15.3,6.3,30.4,21.6,33.7C1215.1,1247.3,1217.1,1247.5,1219.1,1247.5z"/>
</g>
<g id="LWPOLYLINE_2_">
	<path class="st0" d="M1581.1,658.9l-23.6,152.7c-2.4,15.5,8.2,30,23.7,32.3c1.4,0.2,2.9,0.3,4.3,0.3h23.6h23.6
		c15.7,0,28.3-12.7,28.3-28.3c0-1.5-0.1-2.9-0.3-4.3l-23.6-152.7c-2.4-15.5-16.9-26.1-32.3-23.7
		C1592.6,637.1,1583,646.7,1581.1,658.9z"/>
</g>
<g id="LWPOLYLINE_3_">
	<polygon class="st0" points="1884.9,623.4 1909.1,734.1 1900.8,736 1876.6,625.2 	"/>
</g>
<g id="LWPOLYLINE_4_">
	<path class="st0" d="M347.5,1247.5h246.6c14,0,25.9-10.2,28-24l30.8-199.4c2.1-13.8,14-24,28-24h56.5h56.5c14,0,25.9,10.2,28,24
		l30.8,199.4c2.1,13.8,14,24,28,24h246.6c15.7,0,28.3-12.7,28.3-28.3c0-2-0.2-4.1-0.7-6.1L919.5,135.9c-2.8-13-14.4-22.3-27.7-22.3
		H582.6c-13.3,0-24.8,9.3-27.7,22.3L319.5,1213.1c-3.3,15.3,6.3,30.4,21.6,33.7C343.4,1247.3,345.4,1247.5,347.5,1247.5z"/>
</g>
<g id="LWPOLYLINE_5_">
	<path class="st0" d="M391.5,1212.1h172.2c14,0,25.9-10.2,28-24l30.8-199.4c2.1-13.8,14-24,28-24h86.9h86.9c14,0,25.9,10.2,28,24
		l30.8,199.4c2.1,13.8,14,24,28,24h172.2c15.7,0,28.3-12.7,28.3-28.3c0-2-0.2-4.1-0.7-6.1L891.2,171.4c-2.8-13-14.4-22.3-27.7-22.3
		H611.4c-13.3,0-24.8,9.3-27.7,22.3L363.8,1177.7c-3.3,15.3,6.3,30.4,21.6,33.7C387.4,1211.8,389.4,1212.1,391.5,1212.1z"/>
</g>
<g id="LWPOLYLINE_6_">
	<path class="st0" d="M709.4,658.9l-23.6,152.7c-2.4,15.5,8.2,30,23.7,32.3c1.4,0.2,2.9,0.3,4.3,0.3h23.6H761
		c15.7,0,28.3-12.7,28.3-28.3c0-1.5-0.1-2.9-0.3-4.3l-23.6-152.7c-2.4-15.5-16.9-26.1-32.3-23.7
		C720.9,637.1,711.3,646.7,709.4,658.9z"/>
</g>
<g id="LWPOLYLINE_7_">
	<path class="st0" d="M723.4,336.6l-81.5,526.7c-1.2,7.7,4.1,15,11.8,16.2c0.7,0.1,1.4,0.2,2.2,0.2h81.5h81.5
		c7.8,0,14.2-6.3,14.2-14.2c0-0.7-0.1-1.5-0.2-2.2l-81.5-526.7c-1.2-7.7-8.4-13-16.2-11.8C729.2,325.7,724.4,330.5,723.4,336.6z"/>
</g>
<g id="LWPOLYLINE_8_">
	<polygon class="st0" points="953.6,350.5 977.8,461.3 969.5,463.1 945.3,352.3 	"/>
</g>
<g id="LWPOLYLINE_9_">
	<rect x="666.6" y="126.4" class="st0" width="141.7" height="8.5"/>
</g>
<g id="LWPOLYLINE_10_">
	<rect x="897.6" y="1226.2" class="st0" width="85" height="8.5"/>
</g>
<g id="LWPOLYLINE_11_">
	<rect x="1028.3" y="1226.2" class="st0" width="85" height="8.5"/>
</g>
<g id="LWPOLYLINE_12_">
	
		<rect x="847.6" y="1049.5" transform="matrix(0.9882 -0.1529 0.1529 0.9882 -159.1312 143.2567)" class="st0" width="8.5" height="113.4"/>
</g>
<g id="LWPOLYLINE_13_">
	<rect x="694.9" y="977.4" class="st0" width="85" height="8.5"/>
</g>
<g id="LWPOLYLINE_14_">
	<rect x="709.1" y="858.4" class="st0" width="56.7" height="8.5"/>
</g>
<g id="LWPOLYLINE_15_">
	
		<rect x="800" y="746.7" transform="matrix(0.9882 -0.1529 0.1529 0.9882 -111.2209 132.2521)" class="st0" width="8.5" height="85"/>
</g>
<g id="LWPOLYLINE_16_">
	<path class="st0" d="M1225.1,2381.4h246.6c14,0,25.9-10.2,28-24l30.8-199.4c2.1-13.8,14-24,28-24h56.5h56.5c14,0,25.9,10.2,28,24
		l30.8,199.4c2.1,13.8,14,24,28,24h246.6c15.7,0,28.3-12.7,28.3-28.3c0-2-0.2-4.1-0.7-6.1l-235.1-1077.2
		c-2.8-13-14.4-22.3-27.7-22.3h-309.2c-13.3,0-24.8,9.3-27.7,22.3L1197.4,2347c-3.3,15.3,6.3,30.4,21.6,33.7
		C1221.1,2381.1,1223.1,2381.4,1225.1,2381.4z"/>
</g>
<g id="LWPOLYLINE_17_">
	<polygon class="st0" points="1615.1,1611.7 1558.4,1978.1 1615.1,1978.1 1671.8,1978.1 	"/>
</g>
<g id="LWPOLYLINE_18_">
	<polygon class="st0" points="1227.1,367.7 1316.5,367.7 1316.5,141 1227.1,141 1227.1,132.4 1085.4,132.4 1085.4,141 995.9,141 
		995.9,367.7 1085.4,367.7 1085.4,376.2 1227.1,376.2 	"/>
</g>
<g id="LWPOLYLINE_19_">
	<polygon class="st0" points="1254.8,623 1305.3,623 1305.3,396.3 1254.8,396.3 1254.8,387.8 1169.8,387.8 1169.8,396.3 
		1119.3,396.3 1119.3,623 1169.8,623 1169.8,631.5 1254.8,631.5 	"/>
</g>
<g id="LWPOLYLINE_20_">
	<polygon class="st0" points="1192.7,885.9 1237.6,885.9 1237.6,659.2 1192.7,659.2 1192.7,650.7 1136,650.7 1136,659.2 
		1091.1,659.2 1091.1,885.9 1136,885.9 1136,894.4 1192.7,894.4 	"/>
</g>
<g id="LWPOLYLINE_21_">
	<polygon class="st0" points="397.5,1699.5 389,1699.5 389,1614.5 397.5,1614.5 397.5,1529.5 389,1529.5 389,1444.4 397.5,1444.4 
		397.5,1359.4 389,1359.4 389,1274.3 397.5,1274.3 397.5,1247.5 624.3,1247.5 624.3,1274.3 632.8,1274.3 632.8,1359.4 624.3,1359.4 
		624.3,1444.4 632.8,1444.4 632.8,1529.5 624.3,1529.5 624.3,1614.5 632.8,1614.5 632.8,1699.5 624.3,1699.5 624.3,1726.4 
		397.5,1726.4 	"/>
</g>
<g id="LWPOLYLINE_22_">
	<polygon class="st0" points="473.4,221.8 473.4,267.5 481.9,267.5 481.9,352.6 473.4,352.6 473.4,375.4 246.6,375.4 246.6,352.6 
		238.1,352.6 238.1,267.5 246.6,267.5 246.6,221.8 238.1,221.8 238.1,136.8 246.6,136.8 246.6,113.9 473.4,113.9 473.4,136.8 
		481.9,136.8 481.9,221.8 	"/>
</g>
<g id="LWPOLYLINE_23_">
	<polygon class="st0" points="373.4,1312.9 373.4,1247.5 146.6,1247.5 146.6,1312.9 138.1,1312.9 138.1,1426.3 146.6,1426.3 
		146.6,1491.7 373.4,1491.7 373.4,1426.3 381.9,1426.3 381.9,1312.9 	"/>
</g>
<g id="LWPOLYLINE_24_">
	<polygon class="st0" points="391.5,1753.2 383,1753.2 383,1838.3 391.5,1838.3 391.5,1923.3 383,1923.3 383,2008.3 391.5,2008.3 
		391.5,2093.4 383,2093.4 383,2178.4 391.5,2178.4 391.5,2205.3 618.3,2205.3 618.3,2178.4 626.8,2178.4 626.8,2093.4 618.3,2093.4 
		618.3,2008.3 626.8,2008.3 626.8,1923.3 618.3,1923.3 618.3,1838.3 626.8,1838.3 626.8,1753.2 618.3,1753.2 618.3,1726.4 
		391.5,1726.4 	"/>
</g>
<g id="LWPOLYLINE_25_">
	<polygon class="st0" points="404.3,483.3 404.3,529 412.8,529 412.8,614 404.3,614 404.3,636.9 177.6,636.9 177.6,614 169.1,614 
		169.1,529 177.6,529 177.6,483.3 169.1,483.3 169.1,398.3 177.6,398.3 177.6,375.4 404.3,375.4 404.3,398.3 412.8,398.3 
		412.8,483.3 	"/>
</g>
<g id="LWPOLYLINE_26_">
	<polygon class="st0" points="373.4,1670.5 373.4,1736 146.6,1736 146.6,1670.5 138.1,1670.5 138.1,1557.2 146.6,1557.2 
		146.6,1491.7 373.4,1491.7 373.4,1557.2 381.9,1557.2 381.9,1670.5 	"/>
</g>
<g id="LWPOLYLINE_27_">
	<path class="st0" d="M1905,219.7v-14.2c0-31.3,25.4-56.7,56.7-56.7c31.3,0,56.7,25.4,56.7,56.7v56.7v70.9c0,7.8-6.3,14.2-14.2,14.2
		h-85c-7.8,0-14.2-6.3-14.2-14.2v-56.7c0-7.8,6.3-14.2,14.2-14.2h68c7.8,0,14.2-6.3,14.2-14.2v-42.5c0-21.9-17.8-39.7-39.7-39.7
		c-21.9,0-39.7,17.8-39.7,39.7v14.2c0,4.7-3.8,8.5-8.5,8.5S1905,224.4,1905,219.7z"/>
</g>
<g id="LWPOLYLINE_28_">
	<path class="st0" d="M1965.9,300.4v10.2c0,2.3-1.9,4.3-4.3,4.3c-2.3,0-4.3-1.9-4.3-4.3v-10.2c-1.3-0.7-2.4-1.8-3.1-3.1
		c-2.3-4.1-1-9.3,3.1-11.6s9.3-1,11.6,3.1C1971.4,292.8,1970,298,1965.9,300.4z"/>
</g>
<g id="LWPOLYLINE_29_">
	<path class="st0" d="M1918,1356.2V1342c0-31.3,25.4-56.7,56.7-56.7c31.3,0,56.7,25.4,56.7,56.7v56.7v70.9c0,7.8-6.3,14.2-14.2,14.2
		h-85c-7.8,0-14.2-6.3-14.2-14.2v-56.7c0-7.8,6.3-14.2,14.2-14.2h68c7.8,0,14.2-6.3,14.2-14.2V1342c0-21.9-17.8-39.7-39.7-39.7
		c-21.9,0-39.7,17.8-39.7,39.7v14.2c0,4.7-3.8,8.5-8.5,8.5S1918,1360.9,1918,1356.2z"/>
</g>
<g id="LWPOLYLINE_30_">
	<path class="st0" d="M1978.9,1436.9v10.2c0,2.3-1.9,4.3-4.3,4.3s-4.3-1.9-4.3-4.3v-10.2c-1.3-0.7-2.4-1.8-3.1-3.1
		c-2.3-4.1-1-9.3,3.1-11.6s9.3-1,11.6,3.1C1984.4,1429.4,1983,1434.6,1978.9,1436.9z"/>
</g>
<g id="LWPOLYLINE_31_">
	<path class="st0" d="M650.4,1583.5v445.2h-8.5V2142h8.5v222.6h226.8V2142h8.5v-113.4h-8.5v-165.9h31.2c5.5,0,9.9-4.4,9.9-9.9v-93.5
		c0-5.5-4.4-9.9-9.9-9.9h-31.2v-165.9h8.5v-113.4h-8.5v-222.6H650.4v222.6h-8.5v113.4H650.4z"/>
</g>
<g id="LWPOLYLINE_32_">
	<rect x="897" y="1777.7" class="st0" width="9.9" height="56.7"/>
</g>
<g id="LWPOLYLINE_33_">
	<polygon class="st0" points="1013.2,623.4 1037.4,734.2 1029.1,736 1004.9,625.2 	"/>
</g>
<g id="LWPOLYLINE_34_">
	<polygon class="st0" points="1072.8,896.2 1097,1007 1088.7,1008.8 1064.5,898 	"/>
</g>
<g id="LWPOLYLINE_35_">
	<polygon class="st0" points="521.3,350.5 497.1,461.3 505.4,463.1 529.6,352.3 	"/>
</g>
<g id="LWPOLYLINE_36_">
	<rect x="492.2" y="1226.2" class="st0" width="85" height="8.5"/>
</g>
<g id="LWPOLYLINE_37_">
	<rect x="361.5" y="1226.2" class="st0" width="85" height="8.5"/>
</g>
<g id="LWPOLYLINE_38_">
	
		<rect x="566.3" y="1102" transform="matrix(0.1529 -0.9882 0.9882 0.1529 -565.4651 1552.8038)" class="st0" width="113.4" height="8.5"/>
</g>
<g id="LWPOLYLINE_39_">
	<polygon class="st0" points="461.7,623.4 437.5,734.2 445.8,736 470,625.2 	"/>
</g>
<g id="LWPOLYLINE_40_">
	<polygon class="st0" points="402.1,896.2 377.9,1007 386.2,1008.8 410.4,898 	"/>
</g>
<g id="LWPOLYLINE_41_">
	
		<rect x="774" y="578.6" transform="matrix(0.9882 -0.1529 0.1529 0.9882 -85.8239 126.2999)" class="st0" width="8.5" height="85"/>
</g>
<g id="LWPOLYLINE_42_">
	
		<rect x="748" y="410.5" transform="matrix(0.9882 -0.1529 0.1529 0.9882 -60.4269 120.3477)" class="st0" width="8.5" height="85"/>
</g>
<g id="LWPOLYLINE_43_">
	
		<rect x="628.1" y="785" transform="matrix(0.1526 -0.9883 0.9883 0.1526 -211.668 1331.5422)" class="st0" width="85" height="8.5"/>
</g>
<g id="LWPOLYLINE_44_">
	
		<rect x="654.1" y="616.9" transform="matrix(0.1526 -0.9883 0.9883 0.1526 -23.6237 1214.7717)" class="st0" width="85" height="8.5"/>
</g>
<g id="LWPOLYLINE_45_">
	
		<rect x="680" y="448.8" transform="matrix(0.1526 -0.9883 0.9883 0.1526 164.5313 1097.9327)" class="st0" width="85" height="8.5"/>
</g>
<g id="LWPOLYLINE_46_">
	<polygon class="st0" points="1831.2,1484.4 1855.5,1595.2 1847.1,1597 1822.9,1486.2 	"/>
</g>
<g id="LWPOLYLINE_47_">
	<rect x="1544.2" y="1260.3" class="st0" width="141.7" height="8.5"/>
</g>
<g id="LWPOLYLINE_48_">
	<rect x="1775.3" y="2360.1" class="st0" width="85" height="8.5"/>
</g>
<g id="LWPOLYLINE_49_">
	<rect x="1906" y="2360.1" class="st0" width="85" height="8.5"/>
</g>
<g id="LWPOLYLINE_50_">
	
		<rect x="1725.2" y="2183.4" transform="matrix(0.9882 -0.1529 0.1529 0.9882 -322.1854 290.789)" class="st0" width="8.5" height="113.4"/>
</g>
<g id="LWPOLYLINE_51_">
	<rect x="1572.6" y="2111.3" class="st0" width="85" height="8.5"/>
</g>
<g id="LWPOLYLINE_52_">
	<rect x="1586.8" y="1992.3" class="st0" width="56.7" height="8.5"/>
</g>
<g id="LWPOLYLINE_53_">
	
		<rect x="1677.6" y="1880.5" transform="matrix(0.9882 -0.1529 0.1529 0.9882 -274.2602 279.7809)" class="st0" width="8.5" height="85"/>
</g>
<g id="LWPOLYLINE_54_">
	<polygon class="st0" points="330.5,808.1 330.5,853.8 339,853.8 339,938.8 330.5,938.8 330.5,961.6 103.7,961.6 103.7,938.8 
		95.2,938.8 95.2,853.8 103.7,853.8 103.7,808.1 95.2,808.1 95.2,723 103.7,723 103.7,700.2 330.5,700.2 330.5,723 339,723 
		339,808.1 	"/>
</g>
<g id="LWPOLYLINE_55_">
	<polygon class="st0" points="1950.5,2030.1 1974.7,2140.8 1966.4,2142.6 1942.2,2031.9 	"/>
</g>
<g id="LWPOLYLINE_56_">
	<polygon class="st0" points="1399,1484.4 1374.8,1595.2 1383.1,1597 1407.3,1486.2 	"/>
</g>
<g id="LWPOLYLINE_57_">
	<rect x="1369.9" y="2360.1" class="st0" width="85" height="8.5"/>
</g>
<g id="LWPOLYLINE_58_">
	<rect x="1239.2" y="2360.1" class="st0" width="85" height="8.5"/>
</g>
<g id="LWPOLYLINE_59_">
	
		<rect x="1443.9" y="2235.8" transform="matrix(0.1529 -0.9882 0.9882 0.1529 -942.5931 3380.5039)" class="st0" width="113.4" height="8.5"/>
</g>
<g id="LWPOLYLINE_60_">
	<polygon class="st0" points="1279.7,2030.1 1255.5,2140.8 1263.8,2142.6 1288.1,2031.9 	"/>
</g>
<g id="LWPOLYLINE_61_">
	
		<rect x="1651.6" y="1712.5" transform="matrix(0.9882 -0.1529 0.1529 0.9882 -248.8781 273.8322)" class="st0" width="8.5" height="85"/>
</g>
<g id="LWPOLYLINE_62_">
	
		<rect x="1625.6" y="1544.4" transform="matrix(0.9882 -0.1529 0.1529 0.9882 -223.4811 267.88)" class="st0" width="8.5" height="85"/>
</g>
<g id="LWPOLYLINE_63_">
	
		<rect x="1505.7" y="1918.9" transform="matrix(0.1526 -0.9883 0.9883 0.1526 -588.6089 3159.7666)" class="st0" width="85" height="8.5"/>
</g>
<g id="LWPOLYLINE_64_">
	
		<rect x="1531.7" y="1750.7" transform="matrix(0.1526 -0.9883 0.9883 0.1526 -400.4539 3042.9277)" class="st0" width="85" height="8.5"/>
</g>
<g id="LWPOLYLINE_65_">
	
		<rect x="1557.6" y="1582.7" transform="matrix(0.1526 -0.9883 0.9883 0.1526 -212.4096 2926.1572)" class="st0" width="85" height="8.5"/>
</g>
<g id="LWPOLYLINE_66_">
	<polygon class="st0" points="1333.4,623.4 1309.2,734.1 1317.5,736 1341.7,625.2 	"/>
</g>
<g id="LWPOLYLINE_67_">
	<path class="st0" d="M1186.1,1583.5v445.2h8.5V2142h-8.5v222.6H959.3V2142h-8.5v-113.4h8.5v-165.9h-31.2c-5.5,0-9.9-4.4-9.9-9.9
		v-93.5c0-5.5,4.4-9.9,9.9-9.9h31.2v-165.9h-8.5v-113.4h8.5v-222.6h226.8v222.6h8.5v113.4H1186.1z"/>
</g>
<g id="LWPOLYLINE_68_">
	<rect x="929.6" y="1777.7" class="st0" width="9.9" height="56.7"/>
</g>
</svg>
