<?xml version="1.0" encoding="utf-8"?>
<!-- Generator: Adobe Illustrator 22.0.0, SVG Export Plug-In . SVG Version: 6.00 Build 0)  -->
<svg version="1.1" id="_x30_" xmlns="http://www.w3.org/2000/svg" xmlns:xlink="http://www.w3.org/1999/xlink" x="0px" y="0px"
	 viewBox="0 0 3227.5 2731.5" style="enable-background:new 0 0 3227.5 2731.5;" xml:space="preserve">
<style type="text/css">
	.st0{fill:none;stroke:#000000;stroke-width:0.7087;stroke-linecap:round;stroke-linejoin:round;stroke-miterlimit:10;}
</style>
<g id="LWPOLYLINE">
	<polygon class="st0" points="545.8,1641.1 562.8,1641.1 562.8,1414.3 545.8,1414.3 545.8,1405.8 517.4,1405.8 517.4,1414.3 
		500.4,1414.3 500.4,1641.1 517.4,1641.1 517.4,1649.6 545.8,1649.6 	"/>
</g>
<g id="LWPOLYLINE_1_">
	<polygon class="st0" points="569.1,1914.9 587.5,1914.9 587.5,1688.2 569.1,1688.2 569.1,1679.7 526.6,1679.7 526.6,1688.2 
		508.1,1688.2 508.1,1914.9 526.6,1914.9 526.6,1923.4 569.1,1923.4 	"/>
</g>
<g id="LWPOLYLINE_2_">
	<polygon class="st0" points="608.1,1641.1 625.1,1641.1 625.1,1414.3 608.1,1414.3 608.1,1405.8 579.8,1405.8 579.8,1414.3 
		562.8,1414.3 562.8,1641.1 579.8,1641.1 579.8,1649.6 608.1,1649.6 	"/>
</g>
<g id="LWPOLYLINE_3_">
	<polygon class="st0" points="670.5,1641.1 687.5,1641.1 687.5,1414.3 670.5,1414.3 670.5,1405.8 642.2,1405.8 642.2,1414.3 
		625.1,1414.3 625.1,1641.1 642.2,1641.1 642.2,1649.6 670.5,1649.6 	"/>
</g>
<g id="LWPOLYLINE_4_">
	<polygon class="st0" points="732.9,1641.1 749.9,1641.1 749.9,1414.3 732.9,1414.3 732.9,1405.8 704.5,1405.8 704.5,1414.3 
		687.5,1414.3 687.5,1641.1 704.5,1641.1 704.5,1649.6 732.9,1649.6 	"/>
</g>
<g id="LWPOLYLINE_5_">
	<polygon class="st0" points="795.2,1641.1 812.2,1641.1 812.2,1414.3 795.2,1414.3 795.2,1405.8 766.9,1405.8 766.9,1414.3 
		749.9,1414.3 749.9,1641.1 766.9,1641.1 766.9,1649.6 795.2,1649.6 	"/>
</g>
<g id="LWPOLYLINE_6_">
	<polygon class="st0" points="857.6,1641.1 874.6,1641.1 874.6,1414.3 857.6,1414.3 857.6,1405.8 829.2,1405.8 829.2,1414.3 
		812.2,1414.3 812.2,1641.1 829.2,1641.1 829.2,1649.6 857.6,1649.6 	"/>
</g>
<g id="LWPOLYLINE_7_">
	<polygon class="st0" points="648.5,1914.9 666.9,1914.9 666.9,1688.2 648.5,1688.2 648.5,1679.7 605.9,1679.7 605.9,1688.2 
		587.5,1688.2 587.5,1914.9 605.9,1914.9 605.9,1923.4 648.5,1923.4 	"/>
</g>
<g id="LWPOLYLINE_8_">
	<polygon class="st0" points="727.8,1914.9 746.3,1914.9 746.3,1688.2 727.8,1688.2 727.8,1679.7 685.3,1679.7 685.3,1688.2 
		666.9,1688.2 666.9,1914.9 685.3,1914.9 685.3,1923.4 727.8,1923.4 	"/>
</g>
<g id="LWPOLYLINE_9_">
	<polygon class="st0" points="807.2,1914.9 825.6,1914.9 825.6,1688.2 807.2,1688.2 807.2,1679.7 764.7,1679.7 764.7,1688.2 
		746.3,1688.2 746.3,1914.9 764.7,1914.9 764.7,1923.4 807.2,1923.4 	"/>
</g>
<g id="LWPOLYLINE_10_">
	<polygon class="st0" points="886.6,1914.9 905,1914.9 905,1688.2 886.6,1688.2 886.6,1679.7 844,1679.7 844,1688.2 825.6,1688.2 
		825.6,1914.9 844,1914.9 844,1923.4 886.6,1923.4 	"/>
</g>
<g id="LWPOLYLINE_11_">
	<polygon class="st0" points="1148.5,1771.4 1167,1771.4 1167,1544.6 1148.5,1544.6 1148.5,1536.1 1106,1536.1 1106,1544.6 
		1087.6,1544.6 1087.6,1771.4 1106,1771.4 1106,1779.9 1148.5,1779.9 	"/>
</g>
<g id="LWPOLYLINE_12_">
	<polygon class="st0" points="1227.9,1771.4 1246.3,1771.4 1246.3,1544.6 1227.9,1544.6 1227.9,1536.1 1185.4,1536.1 1185.4,1544.6 
		1167,1544.6 1167,1771.4 1185.4,1771.4 1185.4,1779.9 1227.9,1779.9 	"/>
</g>
<g id="LWPOLYLINE_13_">
	<polygon class="st0" points="1307.3,1771.4 1325.7,1771.4 1325.7,1544.6 1307.3,1544.6 1307.3,1536.1 1264.8,1536.1 1264.8,1544.6 
		1246.3,1544.6 1246.3,1771.4 1264.8,1771.4 1264.8,1779.9 1307.3,1779.9 	"/>
</g>
<g id="LWPOLYLINE_14_">
	<polygon class="st0" points="1386.7,1771.4 1405.1,1771.4 1405.1,1544.6 1386.7,1544.6 1386.7,1536.1 1344.1,1536.1 1344.1,1544.6 
		1325.7,1544.6 1325.7,1771.4 1344.1,1771.4 1344.1,1779.9 1386.7,1779.9 	"/>
</g>
<g id="LWPOLYLINE_15_">
	<polygon class="st0" points="1466,1771.4 1484.5,1771.4 1484.5,1544.6 1466,1544.6 1466,1536.1 1423.5,1536.1 1423.5,1544.6 
		1405.1,1544.6 1405.1,1771.4 1423.5,1771.4 1423.5,1779.9 1466,1779.9 	"/>
</g>
<g id="LWPOLYLINE_16_">
	<polygon class="st0" points="906.5,1641.1 917.1,1641.1 917.1,1414.3 906.5,1414.3 906.5,1405.8 885.2,1405.8 885.2,1414.3 
		874.6,1414.3 874.6,1641.1 885.2,1641.1 885.2,1649.6 906.5,1649.6 	"/>
</g>
<g id="LWPOLYLINE_17_">
	<polygon class="st0" points="1045.1,1878.2 1080.6,1878.2 1080.6,1651.4 1045.1,1651.4 1045.1,1642.9 974.3,1642.9 974.3,1651.4 
		938.8,1651.4 938.8,1878.2 974.3,1878.2 974.3,1886.7 1045.1,1886.7 	"/>
</g>
<g id="LWPOLYLINE_18_">
	<polygon class="st0" points="1045.1,1631.9 1080.6,1631.9 1080.6,1405.1 1045.1,1405.1 1045.1,1396.6 974.3,1396.6 974.3,1405.1 
		938.8,1405.1 938.8,1631.9 974.3,1631.9 974.3,1640.4 1045.1,1640.4 	"/>
</g>
<g id="LWPOLYLINE_19_">
	<polygon class="st0" points="1150.2,1123.7 1158.7,1123.7 1158.7,556.8 1150.2,556.8 1150.2,287.5 923.5,287.5 923.5,556.8 
		915,556.8 915,1123.7 923.5,1123.7 923.5,1393 1150.2,1393 	"/>
</g>
<g id="LWPOLYLINE_20_">
	<path class="st0" d="M2617.6,1407.2h-566.9v1133.9h566.9c156.6,0,283.5-126.9,283.5-283.5v-141.7c0-78.3-63.5-141.7-141.7-141.7
		c78.3,0,141.7-63.5,141.7-141.7v-141.8C2901.1,1534.1,2774.2,1407.2,2617.6,1407.2z"/>
</g>
<g id="LWPOLYLINE_21_">
	<path class="st0" d="M2334.2,1832.4h248c19.6,0,35.4-15.9,35.4-35.4v-70.9c0-19.6-15.9-35.4-35.4-35.4h-248V1832.4z"/>
</g>
<g id="LWPOLYLINE_22_">
	<path class="st0" d="M2334.2,2257.6h248c19.6,0,35.4-15.9,35.4-35.4v-70.9c0-19.6-15.9-35.4-35.4-35.4h-248V2257.6z"/>
</g>
<g id="LWPOLYLINE_23_">
	<rect x="2217.2" y="2519.8" class="st0" width="255.1" height="8.5"/>
</g>
<g id="LWPOLYLINE_24_">
	<rect x="2217.2" y="1420" class="st0" width="255.1" height="8.5"/>
</g>
<g id="LWPOLYLINE_25_">
	<path class="st0" d="M1767.2,273.3h-566.9v1133.9h566.9c156.6,0,283.5-126.9,283.5-283.5V982c0-78.3-63.5-141.7-141.7-141.7
		c78.3,0,141.7-63.5,141.7-141.7V556.9C2050.7,400.3,1923.8,273.3,1767.2,273.3z"/>
</g>
<g id="LWPOLYLINE_26_">
	<path class="st0" d="M1767.2,308.8h-531.5v1063h531.5c137,0,248-111,248-248V982.1c0-58.7-47.6-106.3-106.3-106.3h-35.4v-70.9h35.4
		c58.7,0,106.3-47.6,106.3-106.3V556.9C2015.3,419.8,1904.2,308.8,1767.2,308.8z"/>
</g>
<g id="LWPOLYLINE_27_">
	<path class="st0" d="M1483.8,698.5h248c19.6,0,35.4-15.9,35.4-35.4v-70.9c0-19.6-15.9-35.4-35.4-35.4h-248
		C1483.8,556.8,1483.8,698.5,1483.8,698.5z"/>
</g>
<g id="LWPOLYLINE_28_">
	<path class="st0" d="M1448.3,734h283.5c39.1,0,70.9-31.7,70.9-70.9v-70.9c0-39.1-31.7-70.9-70.9-70.9h-283.5
		C1448.3,521.4,1448.3,734,1448.3,734z"/>
</g>
<g id="LWPOLYLINE_29_">
	<path class="st0" d="M1483.8,1123.7h248c19.6,0,35.4-15.9,35.4-35.4v-70.9c0-19.6-15.9-35.4-35.4-35.4h-248
		C1483.8,982,1483.8,1123.7,1483.8,1123.7z"/>
</g>
<g id="LWPOLYLINE_30_">
	<path class="st0" d="M1448.3,946.6h283.5c39.1,0,70.9,31.7,70.9,70.9v70.9c0,39.1-31.7,70.9-70.9,70.9h-283.5
		C1448.3,1159.2,1448.3,946.6,1448.3,946.6z"/>
</g>
<g id="LWPOLYLINE_31_">
	<rect x="1781.4" y="602.9" class="st0" width="8.5" height="49.6"/>
</g>
<g id="LWPOLYLINE_32_">
	
		<rect x="1752" y="694.3" transform="matrix(0.8137 -0.5812 0.5812 0.8137 -78.3524 1152.5502)" class="st0" width="14.2" height="8.5"/>
</g>
<g id="LWPOLYLINE_33_">
	<rect x="1536.9" y="534.1" class="st0" width="127.6" height="8.5"/>
</g>
<g id="LWPOLYLINE_34_">
	<rect x="1536.9" y="712.7" class="st0" width="127.6" height="8.5"/>
</g>
<g id="LWPOLYLINE_35_">
	
		<rect x="1754.8" y="549.9" transform="matrix(0.5812 -0.8137 0.8137 0.5812 283.3919 1664.6926)" class="st0" width="8.5" height="14.2"/>
</g>
<g id="LWPOLYLINE_36_">
	<rect x="1461.1" y="585.2" class="st0" width="8.5" height="85"/>
</g>
<g id="LWPOLYLINE_37_">
	<rect x="1886.3" y="829.6" class="st0" width="8.5" height="21.3"/>
</g>
<g id="LWPOLYLINE_38_">
	
		<rect x="2011.3" y="725.6" transform="matrix(0.2588 -0.9659 0.9659 0.2588 796.2709 2497.4185)" class="st0" width="28.3" height="8.5"/>
</g>
<g id="LWPOLYLINE_39_">
	
		<rect x="1976.6" y="783.1" transform="matrix(0.7356 -0.6774 0.6774 0.7356 -7.0221 1556.6984)" class="st0" width="28.3" height="8.5"/>
</g>
<g id="LWPOLYLINE_40_">
	
		<rect x="1916.3" y="813.1" transform="matrix(0.9839 -0.1786 0.1786 0.9839 -114.9374 357.9302)" class="st0" width="28.3" height="8.5"/>
</g>
<g id="LWPOLYLINE_41_">
	
		<rect x="2023.4" y="495.7" transform="matrix(0.9885 -0.1514 0.1514 0.9885 -54.8917 312.9431)" class="st0" width="8.5" height="42.5"/>
</g>
<g id="LWPOLYLINE_42_">
	
		<rect x="1998.4" y="417.3" transform="matrix(0.8936 -0.4489 0.4489 0.8936 16.2491 945.6288)" class="st0" width="8.5" height="42.5"/>
</g>
<g id="LWPOLYLINE_43_">
	
		<rect x="1950.4" y="350.6" transform="matrix(0.7116 -0.7026 0.7026 0.7116 302.5116 1480.5529)" class="st0" width="8.5" height="42.5"/>
</g>
<g id="LWPOLYLINE_44_">
	
		<rect x="1884.3" y="301.7" transform="matrix(0.4603 -0.8878 0.8878 0.4603 732.5586 1850.8879)" class="st0" width="8.5" height="42.5"/>
</g>
<g id="LWPOLYLINE_45_">
	
		<rect x="1806.2" y="275.7" transform="matrix(0.164 -0.9865 0.9865 0.164 1220.5715 2034.1649)" class="st0" width="8.5" height="42.5"/>
</g>
<g id="LWPOLYLINE_46_">
	<rect x="2029.4" y="592.2" class="st0" width="8.5" height="70.9"/>
</g>
<g id="LWPOLYLINE_47_">
	<rect x="1213.1" y="556.8" class="st0" width="8.5" height="566.9"/>
</g>
<g id="LWPOLYLINE_48_">
	<path class="st0" d="M2334.2,1407.2h566.9V273.3h-566.9c-156.6,0-283.5,126.9-283.5,283.5v141.7c0,78.3,63.5,141.7,141.7,141.7
		c-78.3,0-141.7,63.5-141.7,141.7v141.8C2050.7,1280.3,2177.6,1407.2,2334.2,1407.2z"/>
</g>
<g id="LWPOLYLINE_49_">
	<path class="st0" d="M2617.6,982h-248c-19.6,0-35.4,15.9-35.4,35.4v70.9c0,19.6,15.9,35.4,35.4,35.4h248
		C2617.6,1123.7,2617.6,982,2617.6,982z"/>
</g>
<g id="LWPOLYLINE_50_">
	<path class="st0" d="M2617.6,556.8h-248c-19.6,0-35.4,15.9-35.4,35.4v70.9c0,19.6,15.9,35.4,35.4,35.4h248V556.8z"/>
</g>
<g id="LWPOLYLINE_51_">
	<rect x="1437.7" y="286.1" class="st0" width="113.4" height="8.5"/>
</g>
<g id="LWPOLYLINE_52_">
	<rect x="2547.5" y="286.1" class="st0" width="119.1" height="8.5"/>
</g>
<g id="LWPOLYLINE_53_">
	<rect x="2547.5" y="1385.9" class="st0" width="119.1" height="8.5"/>
</g>
<g id="LWPOLYLINE_54_">
	<polygon class="st0" points="982.2,2319.8 982.2,2341.1 1209,2341.1 1209,2319.8 1217.5,2319.8 1217.5,2305.7 1209,2305.7 
		1209,2284.4 982.2,2284.4 982.2,2305.7 973.7,2305.7 973.7,2319.8 	"/>
</g>
<g id="LWPOLYLINE_55_">
	<polygon class="st0" points="1198.6,2259.6 1198.6,2284.4 1425.4,2284.4 1425.4,2259.6 1433.9,2259.6 1433.9,2210 1425.4,2210 
		1425.4,2185.2 1198.6,2185.2 1198.6,2210 1190.1,2210 1190.1,2259.6 	"/>
</g>
<g id="LWPOLYLINE_56_">
	<polygon class="st0" points="1721.2,2201.3 1788.5,2201.3 1788.5,1974.5 1721.2,1974.5 1721.2,1966 1593.6,1966 1593.6,1974.5 
		1526.3,1974.5 1526.3,2201.3 1593.6,2201.3 1593.6,2209.8 1721.2,2209.8 	"/>
</g>
<g id="LWPOLYLINE_57_">
	<polygon class="st0" points="1177.5,2088 1177.5,2096.5 1262.6,2096.5 1262.6,2088 1312.2,2088 1312.2,1861.3 1262.6,1861.3 
		1262.6,1852.8 1177.5,1852.8 1177.5,1861.3 1127.9,1861.3 1127.9,2088 	"/>
</g>
<g id="LWPOLYLINE_58_">
	<polygon class="st0" points="1232.1,2319.8 1232.1,2341.1 1458.9,2341.1 1458.9,2319.8 1467.4,2319.8 1467.4,2305.7 1458.9,2305.7 
		1458.9,2284.4 1232.1,2284.4 1232.1,2305.7 1223.6,2305.7 1223.6,2319.8 	"/>
</g>
<g id="LWPOLYLINE_59_">
	<polygon class="st0" points="1721.2,2455.9 1788.5,2455.9 1788.5,2229.1 1721.2,2229.1 1721.2,2220.6 1593.6,2220.6 1593.6,2229.1 
		1526.3,2229.1 1526.3,2455.9 1593.6,2455.9 1593.6,2462.9 1721.2,2462.9 	"/>
</g>
<g id="LWPOLYLINE_60_">
	<polygon class="st0" points="1242.4,2377 1242.4,2355.8 1469.1,2355.8 1469.1,2377 1477.6,2377 1477.6,2391.2 1469.1,2391.2 
		1469.1,2412.4 1242.4,2412.4 1242.4,2391.2 1233.9,2391.2 1233.9,2377 	"/>
</g>
<g id="LWPOLYLINE_61_">
	<polygon class="st0" points="925.5,2210 925.5,2185.2 1152.3,2185.2 1152.3,2210 1160.8,2210 1160.8,2259.6 1152.3,2259.6 
		1152.3,2284.4 925.5,2284.4 925.5,2259.6 917,2259.6 917,2210 	"/>
</g>
<g id="LWPOLYLINE_62_">
	<polygon class="st0" points="1983.4,2229.1 2050.7,2229.1 2050.7,2455.9 1983.4,2455.9 1983.4,2462.9 1855.8,2462.9 1855.8,2455.9 
		1788.5,2455.9 1788.5,2229.1 1855.8,2229.1 1855.8,2220.6 1983.4,2220.6 	"/>
</g>
<g id="LWPOLYLINE_63_">
	<polygon class="st0" points="1361.8,1861.3 1361.8,1852.8 1446.8,1852.8 1446.8,1861.3 1496.4,1861.3 1496.4,2088 1446.8,2088 
		1446.8,2096.5 1361.8,2096.5 1361.8,2088 1312.2,2088 1312.2,1861.3 	"/>
</g>
<g id="LWPOLYLINE_64_">
	<polygon class="st0" points="983.7,2377 983.7,2355.8 1210.5,2355.8 1210.5,2377 1219,2377 1219,2391.2 1210.5,2391.2 
		1210.5,2412.4 983.7,2412.4 983.7,2391.2 975.2,2391.2 975.2,2377 	"/>
</g>
<g id="LWPOLYLINE_65_">
	<polygon class="st0" points="1983.4,1974.5 2050.7,1974.5 2050.7,2201.3 1983.4,2201.3 1983.4,2209.8 1855.8,2209.8 1855.8,2201.3 
		1788.5,2201.3 1788.5,1974.5 1855.8,1974.5 1855.8,1966 1983.4,1966 	"/>
</g>
<g id="LWPOLYLINE_67_">
	<rect x="1496.8" y="1651.7" class="st0" width="9.9" height="56.7"/>
</g>
<g id="LWPOLYLINE_68_">
	<path class="st0" d="M1526.6,1952.9v-216.2h-31.2c-5.5,0-9.9-4.4-9.9-9.9v-93.5c0-5.5,4.4-9.9,9.9-9.9h31.2v-216.2h226.8v145.3h8.5
		v255.1h-8.5v145.3H1526.6z"/>
</g>
<g id="LWPOLYLINE_69_">
	<path class="st0" d="M565.6,1189.2V1175c0-31.3,25.4-56.7,56.7-56.7c31.3,0,56.7,25.4,56.7,56.7v56.7v70.9
		c0,7.8-6.3,14.2-14.2,14.2h-85c-7.8,0-14.2-6.3-14.2-14.2v-56.7c0-7.8,6.3-14.2,14.2-14.2h68c7.8,0,14.2-6.3,14.2-14.2V1175
		c0-21.9-17.8-39.7-39.7-39.7c-21.9,0-39.7,17.8-39.7,39.7v14.2c0,4.7-3.8,8.5-8.5,8.5S565.6,1193.9,565.6,1189.2z"/>
</g>
<g id="LWPOLYLINE_70_">
	<path class="st0" d="M626.5,1269.9v10.2c0,2.3-1.9,4.3-4.3,4.3c-2.4,0-4.3-1.9-4.3-4.3v-10.2c-1.3-0.7-2.4-1.8-3.1-3.1
		c-2.3-4.1-1-9.3,3.1-11.6c4.1-2.3,9.3-1,11.6,3.1C631.8,1262.4,630.6,1267.6,626.5,1269.9z"/>
</g>
<g id="LWPOLYLINE_71_">
	<path class="st0" d="M375.5,1186.3v-14.2c0-31.3,25.4-56.7,56.7-56.7s56.7,25.4,56.7,56.7v56.7v70.9c0,7.8-6.3,14.2-14.2,14.2h-85
		c-7.8,0-14.2-6.3-14.2-14.2V1243c0-7.8,6.3-14.2,14.2-14.2h68c7.8,0,14.2-6.3,14.2-14.2v-42.5c0-21.9-17.8-39.7-39.7-39.7
		s-39.7,17.8-39.7,39.7v14.2c0,4.7-3.8,8.5-8.5,8.5S375.5,1191,375.5,1186.3z"/>
</g>
<g id="LWPOLYLINE_72_">
	<path class="st0" d="M436.4,1267v10.2c0,2.3-1.9,4.3-4.3,4.3s-4.3-1.9-4.3-4.3V1267c-1.3-0.7-2.4-1.8-3.1-3.1
		c-2.3-4.1-1-9.3,3.1-11.6c4.1-2.3,9.3-1,11.6,3.1S440.5,1264.7,436.4,1267z"/>
</g>
<g id="LWPOLYLINE_73_">
	<rect x="1781.4" y="1028.1" class="st0" width="8.5" height="49.6"/>
</g>
<g id="LWPOLYLINE_74_">
	
		<rect x="1754.8" y="975.1" transform="matrix(0.5812 -0.8137 0.8137 0.5812 -62.601 1842.7375)" class="st0" width="8.5" height="14.2"/>
</g>
<g id="LWPOLYLINE_75_">
	<rect x="1536.9" y="1137.9" class="st0" width="127.6" height="8.5"/>
</g>
<g id="LWPOLYLINE_76_">
	<rect x="1536.9" y="959.3" class="st0" width="127.6" height="8.5"/>
</g>
<g id="LWPOLYLINE_77_">
	
		<rect x="1752" y="1119.5" transform="matrix(0.8137 -0.5812 0.5812 0.8137 -325.485 1231.7367)" class="st0" width="14.2" height="8.5"/>
</g>
<g id="LWPOLYLINE_78_">
	<rect x="1461.1" y="1010.3" class="st0" width="8.5" height="85"/>
</g>
<g id="LWPOLYLINE_79_">
	<rect x="1886.3" y="829.6" class="st0" width="8.5" height="21.3"/>
</g>
<g id="LWPOLYLINE_80_">
	
		<rect x="2021.2" y="936.7" transform="matrix(0.9659 -0.2588 0.2588 0.9659 -177.0731 556.5961)" class="st0" width="8.5" height="28.3"/>
</g>
<g id="LWPOLYLINE_81_">
	
		<rect x="1986.3" y="879.2" transform="matrix(0.6774 -0.7356 0.7356 0.6774 -14.9712 1752.4701)" class="st0" width="8.5" height="28.3"/>
</g>
<g id="LWPOLYLINE_82_">
	
		<rect x="1926.3" y="849.2" transform="matrix(0.1786 -0.9839 0.9839 0.1786 736.2787 2608.6624)" class="st0" width="8.5" height="28.3"/>
</g>
<g id="LWPOLYLINE_83_">
	
		<rect x="2006.5" y="1159.4" transform="matrix(0.1514 -0.9885 0.9885 0.1514 570.5296 2991.7666)" class="st0" width="42.5" height="8.5"/>
</g>
<g id="LWPOLYLINE_84_">
	
		<rect x="1981.4" y="1237.7" transform="matrix(0.4489 -0.8936 0.8936 0.4489 -6.128 2474.0471)" class="st0" width="42.5" height="8.5"/>
</g>
<g id="LWPOLYLINE_85_">
	
		<rect x="1933.5" y="1304.7" transform="matrix(0.7026 -0.7116 0.7116 0.7026 -350.0676 1780.2687)" class="st0" width="42.5" height="8.5"/>
</g>
<g id="LWPOLYLINE_86_">
	
		<rect x="1867.3" y="1353.4" transform="matrix(0.8878 -0.4603 0.4603 0.8878 -412.9633 1021.6211)" class="st0" width="42.5" height="8.5"/>
</g>
<g id="LWPOLYLINE_87_">
	
		<rect x="1789.2" y="1379.4" transform="matrix(0.9865 -0.164 0.164 0.9865 -202.3922 315.6425)" class="st0" width="42.5" height="8.5"/>
</g>
<g id="LWPOLYLINE_88_">
	<rect x="2029.4" y="1017.4" class="st0" width="8.5" height="70.9"/>
</g>
<g id="LWPOLYLINE_89_">
	<rect x="1437.7" y="1385.9" class="st0" width="113.4" height="8.5"/>
</g>
<g id="LWPOLYLINE_90_">
	<rect x="2631.8" y="1736.7" class="st0" width="8.5" height="49.6"/>
</g>
<g id="LWPOLYLINE_91_">
	
		<rect x="2602.4" y="1828.2" transform="matrix(0.8137 -0.5812 0.5812 0.8137 -579.0117 1857.9956)" class="st0" width="14.2" height="8.5"/>
</g>
<g id="LWPOLYLINE_92_">
	<rect x="2387.3" y="1668" class="st0" width="127.6" height="8.5"/>
</g>
<g id="LWPOLYLINE_93_">
	<rect x="2387.3" y="1846.6" class="st0" width="127.6" height="8.5"/>
</g>
<g id="LWPOLYLINE_94_">
	
		<rect x="2605.2" y="1683.8" transform="matrix(0.5812 -0.8137 0.8137 0.5812 -283.171 2831.4946)" class="st0" width="8.5" height="14.2"/>
</g>
<g id="LWPOLYLINE_95_">
	<rect x="2311.5" y="1719" class="st0" width="8.5" height="85"/>
</g>
<g id="LWPOLYLINE_96_">
	<rect x="2736.7" y="1963.5" class="st0" width="8.5" height="21.3"/>
</g>
<g id="LWPOLYLINE_97_">
	
		<rect x="2861.7" y="1859.5" transform="matrix(0.2588 -0.9659 0.9659 0.2588 331.3465 4159.2388)" class="st0" width="28.3" height="8.5"/>
</g>
<g id="LWPOLYLINE_98_">
	
		<rect x="2827" y="1917.1" transform="matrix(0.7356 -0.6774 0.6774 0.7356 -550.3345 2432.573)" class="st0" width="28.3" height="8.5"/>
</g>
<g id="LWPOLYLINE_99_">
	
		<rect x="2766.7" y="1946.9" transform="matrix(0.9839 -0.1786 0.1786 0.9839 -303.7643 528.037)" class="st0" width="28.3" height="8.5"/>
</g>
<g id="LWPOLYLINE_100_">
	
		<rect x="2873.9" y="1629.5" transform="matrix(0.9885 -0.1514 0.1514 0.9885 -216.7447 454.7633)" class="st0" width="8.5" height="42.5"/>
</g>
<g id="LWPOLYLINE_101_">
	
		<rect x="2848.8" y="1551.1" transform="matrix(0.8936 -0.4489 0.4489 0.8936 -402.2281 1448.0538)" class="st0" width="8.5" height="42.5"/>
</g>
<g id="LWPOLYLINE_102_">
	
		<rect x="2800.8" y="1484.3" transform="matrix(0.7116 -0.7026 0.7026 0.7116 -248.8089 2405.01)" class="st0" width="8.5" height="42.5"/>
</g>
<g id="LWPOLYLINE_103_">
	
		<rect x="2734.7" y="1435.6" transform="matrix(0.4603 -0.8878 0.8878 0.4603 184.9178 3217.811)" class="st0" width="8.5" height="42.5"/>
</g>
<g id="LWPOLYLINE_104_">
	
		<rect x="2656.5" y="1409.5" transform="matrix(0.164 -0.9865 0.9865 0.164 813.055 3820.864)" class="st0" width="8.5" height="42.5"/>
</g>
<g id="LWPOLYLINE_105_">
	<rect x="2879.8" y="1726.1" class="st0" width="8.5" height="70.9"/>
</g>
<g id="LWPOLYLINE_106_">
	<rect x="2063.4" y="1690.7" class="st0" width="8.5" height="566.9"/>
</g>
<g id="LWPOLYLINE_107_">
	<rect x="2631.8" y="2161.9" class="st0" width="8.5" height="49.6"/>
</g>
<g id="LWPOLYLINE_108_">
	
		<rect x="2605.2" y="2109" transform="matrix(0.5812 -0.8137 0.8137 0.5812 -629.1639 3009.5393)" class="st0" width="8.5" height="14.2"/>
</g>
<g id="LWPOLYLINE_109_">
	<rect x="2387.3" y="2271.8" class="st0" width="127.6" height="8.5"/>
</g>
<g id="LWPOLYLINE_110_">
	<rect x="2387.3" y="2093.2" class="st0" width="127.6" height="8.5"/>
</g>
<g id="LWPOLYLINE_111_">
	
		<rect x="2602.3" y="2253.3" transform="matrix(0.8137 -0.5812 0.5812 0.8137 -826.1442 1937.1821)" class="st0" width="14.2" height="8.5"/>
</g>
<g id="LWPOLYLINE_112_">
	<rect x="2311.5" y="2144.2" class="st0" width="8.5" height="85"/>
</g>
<g id="LWPOLYLINE_113_">
	<rect x="2736.7" y="1963.5" class="st0" width="8.5" height="21.3"/>
</g>
<g id="LWPOLYLINE_114_">
	
		<rect x="2871.6" y="2070.6" transform="matrix(0.9659 -0.2588 0.2588 0.9659 -441.5596 815.3095)" class="st0" width="8.5" height="28.3"/>
</g>
<g id="LWPOLYLINE_115_">
	
		<rect x="2836.8" y="2013" transform="matrix(0.6774 -0.7356 0.7356 0.6774 -574.6674 2743.8035)" class="st0" width="8.5" height="28.3"/>
</g>
<g id="LWPOLYLINE_116_">
	
		<rect x="2776.6" y="1983.1" transform="matrix(0.1786 -0.9839 0.9839 0.1786 318.9944 4376.6865)" class="st0" width="8.5" height="28.3"/>
</g>
<g id="LWPOLYLINE_117_">
	
		<rect x="2856.8" y="2293.2" transform="matrix(0.1514 -0.9885 0.9885 0.1514 171.3978 4794.5156)" class="st0" width="42.5" height="8.5"/>
</g>
<g id="LWPOLYLINE_118_">
	
		<rect x="2831.9" y="2371.7" transform="matrix(0.4489 -0.8936 0.8936 0.4489 -550.6859 3858.9236)" class="st0" width="42.5" height="8.5"/>
</g>
<g id="LWPOLYLINE_119_">
	
		<rect x="2783.9" y="2438.5" transform="matrix(0.7026 -0.7116 0.7116 0.7026 -904.0104 2722.6011)" class="st0" width="42.5" height="8.5"/>
</g>
<g id="LWPOLYLINE_120_">
	
		<rect x="2717.7" y="2487.2" transform="matrix(0.8878 -0.4603 0.4603 0.8878 -839.3821 1540.3064)" class="st0" width="42.5" height="8.5"/>
</g>
<g id="LWPOLYLINE_121_">
	
		<rect x="2639.7" y="2513.3" transform="matrix(0.9865 -0.164 0.164 0.9865 -376.8424 470.4577)" class="st0" width="42.5" height="8.5"/>
</g>
<g id="LWPOLYLINE_122_">
	<rect x="2879.8" y="2151.3" class="st0" width="8.5" height="70.9"/>
</g>
<g id="LWPOLYLINE_123_">
	<rect x="2017" y="1651.7" class="st0" width="9.9" height="56.7"/>
</g>
<g id="LWPOLYLINE_124_">
	<path class="st0" d="M1997.1,1952.9v-216.2h31.2c5.5,0,9.9-4.4,9.9-9.9v-93.5c0-5.5-4.4-9.9-9.9-9.9h-31.2v-216.2h-226.7v145.3
		h-8.5v255.1h8.5v145.3H1997.1z"/>
</g>
</svg>
