<?xml version="1.0" encoding="utf-8"?>
<!-- Generator: Adobe Illustrator 22.0.0, SVG Export Plug-In . SVG Version: 6.00 Build 0)  -->
<svg version="1.1" id="_x30_" xmlns="http://www.w3.org/2000/svg" xmlns:xlink="http://www.w3.org/1999/xlink" x="0px" y="0px"
	 viewBox="0 0 5914.9 2164.1" style="enable-background:new 0 0 5914.9 2164.1;" xml:space="preserve">
<style type="text/css">
	.st0{fill:none;stroke:#000000;stroke-width:0.7087;stroke-linecap:round;stroke-linejoin:round;stroke-miterlimit:10;}
</style>
<g id="LWPOLYLINE">
	<polygon class="st0" points="2397.5,1271.1 2389,1271.1 2389,845.9 2397.5,845.9 2397.5,760.8 2624.3,760.8 2624.3,845.9 
		2632.8,845.9 2632.8,1271.1 2624.3,1271.1 2624.3,1356.1 2397.5,1356.1 	"/>
</g>
<g id="LWPOLYLINE_1_">
	<polygon class="st0" points="491.6,775 483.1,775 483.1,1341.8 491.6,1341.8 491.6,1434.3 718.4,1434.3 718.4,1341.8 726.9,1341.8 
		726.9,775 718.4,775 718.4,682.6 491.6,682.6 	"/>
</g>
<g id="LWPOLYLINE_2_">
	<path class="st0" d="M1265.6,172.2h-93.5c-5.5,0-9.9,4.4-9.9,9.9v31.2H984.8v226.8h92.4v8.5h283.5v-8.5h92.4V213.3h-177.4v-31.2
		C1275.5,176.7,1271.1,172.2,1265.6,172.2z"/>
</g>
<g id="LWPOLYLINE_3_">
	<polygon class="st0" points="1712.7,716.5 1712.7,682.6 1939.5,682.6 1939.5,716.5 1948,716.5 1948,829.8 1939.5,829.8 
		1939.5,863.7 1712.7,863.7 1712.7,829.8 1704.2,829.8 1704.2,716.5 	"/>
</g>
<g id="LWPOLYLINE_4_">
	<rect x="1190.5" y="183.4" class="st0" width="56.7" height="9.9"/>
</g>
<g id="LWPOLYLINE_5_">
	<polygon class="st0" points="2737.6,782.8 2737.6,774.3 2907.7,774.3 2907.7,782.8 2978.6,782.8 2978.6,1009.6 2907.7,1009.6 
		2907.7,1018.1 2737.6,1018.1 2737.6,1009.6 2666.7,1009.6 2666.7,782.8 	"/>
</g>
<g id="LWPOLYLINE_6_">
	<polygon class="st0" points="1618,349.3 1609.5,349.3 1609.5,547.7 1618,547.7 1618,568.6 1844.8,568.6 1844.8,547.7 1853.3,547.7 
		1853.3,349.3 1844.8,349.3 1844.8,328.4 1618,328.4 	"/>
</g>
<g id="LWPOLYLINE_7_">
	<polygon class="st0" points="2737.6,1334.1 2737.6,1342.6 2907.7,1342.6 2907.7,1334.1 2978.6,1334.1 2978.6,1107.3 2907.7,1107.3 
		2907.7,1098.8 2737.6,1098.8 2737.6,1107.3 2666.7,1107.3 2666.7,1334.1 	"/>
</g>
<g id="LWPOLYLINE_8_">
	<polygon class="st0" points="1618,1767.7 1609.5,1767.7 1609.5,1569.2 1618,1569.2 1618,1548.3 1844.8,1548.3 1844.8,1569.2 
		1853.3,1569.2 1853.3,1767.7 1844.8,1767.7 1844.8,1788.4 1618,1788.4 	"/>
</g>
<g id="LWPOLYLINE_9_">
	<polygon class="st0" points="819.6,349.3 828.1,349.3 828.1,547.7 819.6,547.7 819.6,568.6 592.8,568.6 592.8,547.7 584.3,547.7 
		584.3,349.3 592.8,349.3 592.8,328.4 819.6,328.4 	"/>
</g>
<g id="LWPOLYLINE_10_">
	<polygon class="st0" points="819.6,1767.7 828.1,1767.7 828.1,1569.2 819.6,1569.2 819.6,1548.3 592.8,1548.3 592.8,1569.2 
		584.3,1569.2 584.3,1767.7 592.8,1767.7 592.8,1788.4 819.6,1788.4 	"/>
</g>
<g id="LWPOLYLINE_11_">
	<rect x="784.5" y="775" class="st0" width="8.5" height="566.9"/>
</g>
<g id="LWPOLYLINE_12_">
	<rect x="1033.9" y="845.9" class="st0" width="8.5" height="425.2"/>
</g>
<g id="LWPOLYLINE_13_">
	<rect x="1600.9" y="716.5" class="st0" width="8.5" height="113.4"/>
</g>
<g id="LWPOLYLINE_14_">
	<rect x="1409.5" y="863.7" class="st0" width="141.7" height="8.5"/>
</g>
<g id="LWPOLYLINE_15_">
	
		<rect x="1514.7" y="495.4" transform="matrix(0.7071 -0.7071 0.7071 0.7071 24.4147 1248.2213)" class="st0" width="8.5" height="198.4"/>
</g>
<g id="LWPOLYLINE_16_">
	<rect x="1055.2" y="504.3" class="st0" width="283.5" height="8.5"/>
</g>
<g id="LWPOLYLINE_17_">
	<rect x="1351.4" y="783.9" class="st0" width="8.5" height="56.7"/>
</g>
<g id="LWPOLYLINE_18_">
	<rect x="1111.9" y="753.7" class="st0" width="170.1" height="8.5"/>
</g>
<g id="LWPOLYLINE_19_">
	<polygon class="st0" points="1338.6,884.9 1622.1,884.9 1622.1,673.8 1439.8,491.5 954,491.5 771.7,673.8 771.7,1443.1 954,1625.3 
		1439.8,1625.3 1622.1,1443.1 1622.1,1232 1338.6,1232 1338.6,1341.8 1055.2,1341.8 1055.2,775 1338.6,775 	"/>
</g>
<g id="LWPOLYLINE_20_">
	<rect x="1111.9" y="1354.7" class="st0" width="170.1" height="8.5"/>
</g>
<g id="LWPOLYLINE_21_">
	
		<rect x="870.6" y="1423" transform="matrix(0.7071 -0.7071 0.7071 0.7071 -820.0992 1064.4424)" class="st0" width="8.5" height="198.4"/>
</g>
<g id="LWPOLYLINE_22_">
	<polygon class="st0" points="4077.5,884.9 4360.9,884.9 4360.9,673.8 4178.6,491.5 3692.8,491.5 3510.5,673.8 3510.5,1443.1 
		3692.8,1625.3 4178.6,1625.3 4360.9,1443.1 4360.9,1232 4077.5,1232 4077.5,1341.8 3794,1341.8 3794,775 4077.5,775 	"/>
</g>
<g id="LWPOLYLINE_23_">
	<polygon class="st0" points="4112.9,849.5 4325.5,849.5 4325.5,688.5 4164,527 3707.5,527 3546,688.5 3546,1428.3 3707.5,1589.9 
		4164,1589.9 4325.5,1428.3 4325.5,1267.3 4112.9,1267.3 4112.9,1377.3 3758.6,1377.3 3758.6,739.6 4112.9,739.6 	"/>
</g>
<g id="LWPOLYLINE_24_">
	<polygon class="st0" points="5299.6,940 5583.1,940 5583.1,728.9 5400.8,546.6 4914.9,546.6 4732.7,728.9 4732.7,1498.2 
		4914.9,1680.4 5400.8,1680.4 5583.1,1498.2 5583.1,1287.1 5299.6,1287.1 5299.6,1396.9 5016.1,1396.9 5016.1,830.1 5299.6,830.1 	
		"/>
</g>
<g id="LWPOLYLINE_25_">
	<rect x="3873.4" y="1602.7" class="st0" width="124.7" height="11.3"/>
</g>
<g id="LWPOLYLINE_26_">
	<rect x="3873.4" y="502.9" class="st0" width="124.7" height="11.3"/>
</g>
<g id="LWPOLYLINE_27_">
	<path class="st0" d="M3137.8,967.9v-14.2c0-31.3,25.4-56.7,56.7-56.7s56.7,25.4,56.7,56.7v56.7v70.9c0,7.8-6.3,14.2-14.2,14.2h-85
		c-7.8,0-14.2-6.3-14.2-14.2v-56.7c0-7.8,6.3-14.2,14.2-14.2h68c7.8,0,14.2-6.3,14.2-14.2v-42.5c0-21.9-17.8-39.7-39.7-39.7
		c-21.9,0-39.7,17.8-39.7,39.7v14.2c0,4.7-3.8,8.5-8.5,8.5S3137.8,972.6,3137.8,967.9z"/>
</g>
<g id="LWPOLYLINE_28_">
	<path class="st0" d="M3198.7,1048.6v10.2c0,2.3-1.9,4.3-4.3,4.3c-2.3,0-4.3-1.9-4.3-4.3v-10.2c-1.3-0.7-2.4-1.8-3.1-3.1
		c-2.3-4.1-1-9.3,3.1-11.6c4.1-2.3,9.3-1,11.6,3.1C3204.2,1041.1,3202.8,1046.3,3198.7,1048.6z"/>
</g>
<g id="LWPOLYLINE_29_">
	<path class="st0" d="M3111.5,735.1v-14.2c0-31.3,25.4-56.7,56.7-56.7c31.3,0,56.7,25.4,56.7,56.7v56.7v70.9
		c0,7.8-6.3,14.2-14.2,14.2h-85c-7.8,0-14.2-6.3-14.2-14.2v-56.7c0-7.8,6.3-14.2,14.2-14.2h68c7.8,0,14.2-6.3,14.2-14.2v-42.5
		c0-21.9-17.8-39.7-39.7-39.7c-21.9,0.1-39.7,17.8-39.7,39.7v14.2c0,4.7-3.8,8.5-8.5,8.5S3111.5,739.8,3111.5,735.1z"/>
</g>
<g id="LWPOLYLINE_30_">
	<path class="st0" d="M3172.5,815.8V826c0,2.3-1.9,4.3-4.3,4.3c-2.3,0-4.3-1.9-4.3-4.3v-10.2c-1.3-0.7-2.4-1.8-3.1-3.1
		c-2.3-4.1-1-9.3,3.1-11.6c4.1-2.3,9.3-1,11.6,3.1C3177.9,808.3,3176.5,813.5,3172.5,815.8z"/>
</g>
<g id="LWPOLYLINE_31_">
	<polygon class="st0" points="2062.7,922 2062.7,930.5 2204.5,930.5 2204.5,922 2254.1,922 2254.1,695.2 2204.5,695.2 2204.5,686.7 
		2062.7,686.7 2062.7,695.2 2013.1,695.2 2013.1,922 	"/>
</g>
<g id="LWPOLYLINE_32_">
	<polygon class="st0" points="1712.7,1400.4 1712.7,1434.3 1939.5,1434.3 1939.5,1400.4 1948,1400.4 1948,1287.1 1939.5,1287.1 
		1939.5,1253.3 1712.7,1253.3 1712.7,1287.1 1704.2,1287.1 1704.2,1400.4 	"/>
</g>
<g id="LWPOLYLINE_33_">
	<polygon class="st0" points="2062.7,1194.8 2062.7,1186.3 2204.5,1186.3 2204.5,1194.8 2254.1,1194.8 2254.1,1421.7 2204.5,1421.7 
		2204.5,1430.2 2062.7,1430.2 2062.7,1421.7 2013.1,1421.7 2013.1,1194.8 	"/>
</g>
<g id="LWPOLYLINE_35_">
	<polygon class="st0" points="1695,925.5 1695,902.5 1921.8,902.5 1921.8,925.5 1930.3,925.5 1930.3,982.2 1921.8,982.2 
		1921.8,1005.3 1695,1005.3 1695,982.2 1686.5,982.2 1686.5,925.5 	"/>
</g>
<g id="LWPOLYLINE_36_">
	<polygon class="st0" points="1696.6,1068.1 1696.6,1045 1923.4,1045 1923.4,1068.1 1931.9,1068.1 1931.9,1124.8 1923.4,1124.8 
		1923.4,1147.8 1696.6,1147.8 1696.6,1124.8 1688.1,1124.8 1688.1,1068.1 	"/>
</g>
<g id="LWPOLYLINE_37_">
	<rect x="1600.9" y="1287.1" class="st0" width="8.5" height="113.4"/>
</g>
<g id="LWPOLYLINE_38_">
	<rect x="1409.5" y="1244.8" class="st0" width="141.7" height="8.5"/>
</g>
<g id="LWPOLYLINE_39_">
	
		<rect x="1419.7" y="1518" transform="matrix(0.7071 -0.7071 0.7071 0.7071 -631.4804 1519.8881)" class="st0" width="198.4" height="8.5"/>
</g>
<g id="LWPOLYLINE_40_">
	<rect x="1055.2" y="1604.1" class="st0" width="283.5" height="8.5"/>
</g>
<g id="LWPOLYLINE_41_">
	<rect x="1351.4" y="1276.3" class="st0" width="8.5" height="56.7"/>
</g>
<g id="LWPOLYLINE_42_">
	
		<rect x="775.7" y="590.4" transform="matrix(0.7071 -0.7071 0.7071 0.7071 -164.2334 792.8463)" class="st0" width="198.4" height="8.5"/>
</g>
<g id="LWPOLYLINE_43_">
	<rect x="3523.3" y="775" class="st0" width="8.5" height="566.9"/>
</g>
<g id="LWPOLYLINE_44_">
	<rect x="3772.7" y="845.9" class="st0" width="8.5" height="425.2"/>
</g>
<g id="LWPOLYLINE_45_">
	<rect x="4339.7" y="716.5" class="st0" width="8.5" height="113.4"/>
</g>
<g id="LWPOLYLINE_46_">
	<rect x="4148.3" y="863.7" class="st0" width="141.7" height="8.5"/>
</g>
<g id="LWPOLYLINE_47_">
	
		<rect x="4253.5" y="495.5" transform="matrix(0.7071 -0.7071 0.7071 0.7071 826.568 3184.8416)" class="st0" width="8.5" height="198.4"/>
</g>
<g id="LWPOLYLINE_48_">
	<rect x="4090.2" y="783.9" class="st0" width="8.5" height="56.7"/>
</g>
<g id="LWPOLYLINE_49_">
	<rect x="3850.7" y="753.7" class="st0" width="170.1" height="8.5"/>
</g>
<g id="LWPOLYLINE_50_">
	<rect x="3850.7" y="1354.7" class="st0" width="170.1" height="8.5"/>
</g>
<g id="LWPOLYLINE_51_">
	
		<rect x="3609.4" y="1423" transform="matrix(0.7071 -0.7071 0.7071 0.7071 -17.9458 3001.0627)" class="st0" width="8.5" height="198.4"/>
</g>
<g id="LWPOLYLINE_52_">
	<rect x="4339.7" y="1287.1" class="st0" width="8.5" height="113.4"/>
</g>
<g id="LWPOLYLINE_53_">
	<rect x="4148.3" y="1244.8" class="st0" width="141.7" height="8.5"/>
</g>
<g id="LWPOLYLINE_54_">
	
		<rect x="4158.5" y="1518" transform="matrix(0.7071 -0.7071 0.7071 0.7071 170.6729 3456.5085)" class="st0" width="198.4" height="8.5"/>
</g>
<g id="LWPOLYLINE_55_">
	<rect x="4090.2" y="1276.3" class="st0" width="8.5" height="56.7"/>
</g>
<g id="LWPOLYLINE_56_">
	
		<rect x="3514.5" y="590.4" transform="matrix(0.7071 -0.7071 0.7071 0.7071 637.9199 2729.4666)" class="st0" width="198.4" height="8.5"/>
</g>
<g id="LWPOLYLINE_57_">
	<rect x="5095.5" y="1657.8" class="st0" width="124.7" height="11.3"/>
</g>
<g id="LWPOLYLINE_58_">
	<rect x="5095.5" y="558" class="st0" width="124.7" height="11.3"/>
</g>
<g id="LWPOLYLINE_59_">
	<path class="st0" d="M1265.6,1944.7h-93.5c-5.5,0-9.9-4.4-9.9-9.9v-31.2H984.8v-226.8h92.4v-8.5h283.5v8.5h92.4v226.8h-177.6v31.2
		C1275.5,1940.3,1271.1,1944.7,1265.6,1944.7z"/>
</g>
<g id="LWPOLYLINE_60_">
	<rect x="1190.5" y="1923.4" class="st0" width="56.7" height="9.9"/>
</g>
</svg>
