<?xml version="1.0" encoding="utf-8"?>
<!-- Generator: Adobe Illustrator 22.0.0, SVG Export Plug-In . SVG Version: 6.00 Build 0)  -->
<svg version="1.1" id="_x30_" xmlns="http://www.w3.org/2000/svg" xmlns:xlink="http://www.w3.org/1999/xlink" x="0px" y="0px"
	 viewBox="0 0 4781.2 2845.5" style="enable-background:new 0 0 4781.2 2845.5;" xml:space="preserve">
<style type="text/css">
	.st0{fill:none;stroke:#000000;stroke-width:0.7087;stroke-linecap:round;stroke-linejoin:round;stroke-miterlimit:10;}
</style>
<g id="LWPOLYLINE">
	<path class="st0" d="M1244.2,1177.3h283.5c313.1,0,566.9,253.8,566.9,566.9s-253.8,566.9-566.9,566.9h-283.5V1177.3z"/>
</g>
<g id="LWPOLYLINE_1_">
	<path class="st0" d="M1527.7,2275.7c293.5,0,531.5-238,531.5-531.5s-238-531.5-531.5-531.5h-248v1063H1527.7z"/>
</g>
<g id="LWPOLYLINE_2_">
	
		<rect x="1613.1" y="1163" transform="matrix(0.1564 -0.9877 0.9877 0.1564 173.798 2614.4038)" class="st0" width="8.5" height="85"/>
</g>
<g id="LWPOLYLINE_3_">
	
		<rect x="1574.9" y="2278.6" transform="matrix(0.9877 -0.1564 0.1564 0.9877 -337.1266 281.0532)" class="st0" width="85" height="8.5"/>
</g>
<g id="LWPOLYLINE_4_">
	
		<rect x="1737.2" y="2225.9" transform="matrix(0.891 -0.454 0.454 0.891 -818.5102 1051.0577)" class="st0" width="85" height="8.5"/>
</g>
<g id="LWPOLYLINE_5_">
	
		<rect x="1875.3" y="2125.6" transform="matrix(0.7071 -0.7071 0.7071 0.7071 -944.3254 1979.873)" class="st0" width="85" height="8.5"/>
</g>
<g id="LWPOLYLINE_6_">
	<polygon class="st0" points="2041.2,1955.8 2002.6,2031.6 1995,2027.8 2033.6,1952 	"/>
</g>
<g id="LWPOLYLINE_7_">
	
		<rect x="2028.4" y="1825.3" transform="matrix(0.1564 -0.9877 0.9877 0.1564 -60.0287 3588.7737)" class="st0" width="85" height="8.5"/>
</g>
<g id="LWPOLYLINE_8_">
	<polygon class="st0" points="2068.4,1616.2 2081.7,1700.2 2073.3,1701.5 2060,1617.5 	"/>
</g>
<g id="LWPOLYLINE_9_">
	
		<rect x="2013.8" y="1454" transform="matrix(0.891 -0.454 0.454 0.891 -459.4316 1079.3253)" class="st0" width="8.5" height="85"/>
</g>
<g id="LWPOLYLINE_10_">
	
		<rect x="1913.5" y="1316" transform="matrix(0.7071 -0.7071 0.7071 0.7071 -398.8642 1753.9711)" class="st0" width="8.5" height="85"/>
</g>
<g id="LWPOLYLINE_11_">
	<polygon class="st0" points="1743.8,1235.1 1819.6,1273.7 1815.7,1281.3 1740,1242.7 	"/>
</g>
<g id="LWPOLYLINE_12_">
	<path class="st0" d="M1527.7,2027.6c156.6,0,283.5-126.9,283.5-283.5s-126.9-283.5-283.5-283.5
		C1527.7,1460.7,1527.7,2027.6,1527.7,2027.6z"/>
</g>
<g id="LWPOLYLINE_13_">
	<path class="st0" d="M1492.2,2061.1c175,19.6,332.8-106.5,352.4-281.5c1.3-11.8,2-23.6,2-35.4c0-176.1-142.8-318.9-318.9-318.9
		c-11.8,0-23.7,0.7-35.4,2C1492.2,1427.3,1492.2,2061.1,1492.2,2061.1z"/>
</g>
<g id="LWPOLYLINE_14_">
	<rect x="1825.3" y="1722.9" class="st0" width="8.5" height="42.5"/>
</g>
<g id="LWPOLYLINE_15_">
	
		<rect x="1810.5" y="1630.4" transform="matrix(0.9511 -0.309 0.309 0.9511 -421.5366 641.5747)" class="st0" width="8.5" height="42.5"/>
</g>
<g id="LWPOLYLINE_16_">
	
		<rect x="1768" y="1546.8" transform="matrix(0.809 -0.5878 0.5878 0.809 -583.1919 1341.2428)" class="st0" width="8.5" height="42.5"/>
</g>
<g id="LWPOLYLINE_17_">
	
		<rect x="1701.8" y="1480.6" transform="matrix(0.5878 -0.809 0.809 0.5878 -511.7733 1999.2208)" class="st0" width="8.5" height="42.5"/>
</g>
<g id="LWPOLYLINE_18_">
	
		<rect x="1618.3" y="1438" transform="matrix(0.309 -0.9511 0.9511 0.309 -266.7017 2551.4846)" class="st0" width="8.5" height="42.5"/>
</g>
<g id="LWPOLYLINE_19_">
	
		<rect x="1601.2" y="2024.8" transform="matrix(0.9511 -0.309 0.309 0.9511 -547.5632 600.6133)" class="st0" width="42.5" height="8.5"/>
</g>
<g id="LWPOLYLINE_20_">
	
		<rect x="1684.8" y="1982.3" transform="matrix(0.809 -0.5878 0.5878 0.809 -841.8367 1382.2371)" class="st0" width="42.5" height="8.5"/>
</g>
<g id="LWPOLYLINE_21_">
	
		<rect x="1751" y="1916" transform="matrix(0.5878 -0.809 0.809 0.5878 -822.9407 2225.2898)" class="st0" width="42.5" height="8.5"/>
</g>
<g id="LWPOLYLINE_22_">
	
		<rect x="1793.6" y="1832.5" transform="matrix(0.309 -0.9511 0.9511 0.309 -492.7878 2995.2849)" class="st0" width="42.5" height="8.5"/>
</g>
<g id="LWPOLYLINE_23_">
	<rect x="1530.9" y="2039.5" class="st0" width="28.3" height="8.5"/>
</g>
<g id="LWPOLYLINE_24_">
	<rect x="1530.9" y="1440.4" class="st0" width="28.3" height="8.5"/>
</g>
<g id="LWPOLYLINE_25_">
	<rect x="1505" y="1602.5" class="st0" width="8.5" height="283.5"/>
</g>
<g id="LWPOLYLINE_26_">
	<rect x="1342.1" y="1190" class="st0" width="113.4" height="8.5"/>
</g>
<g id="LWPOLYLINE_27_">
	<path class="st0" d="M2377.6,1177.3h283.5c313.1,0,566.9,253.8,566.9,566.9s-253.8,566.9-566.9,566.9h-283.5V1177.3z"/>
</g>
<g id="LWPOLYLINE_28_">
	<path class="st0" d="M2661,2027.6c156.6,0,283.5-126.9,283.5-283.5s-126.9-283.4-283.5-283.4V2027.6z"/>
</g>
<g id="LWPOLYLINE_29_">
	<rect x="2461.3" y="1190" class="st0" width="141.7" height="8.5"/>
</g>
<g id="LWPOLYLINE_30_">
	<path class="st0" d="M3511,1177.3h283.5c313.1,0,566.9,253.8,566.9,566.9s-253.8,566.9-566.9,566.9H3511V1177.3z"/>
</g>
<g id="LWPOLYLINE_31_">
	<path class="st0" d="M3794.4,2027.6c156.6,0,283.5-126.9,283.5-283.5s-126.9-283.5-283.5-283.5
		C3794.4,1460.7,3794.4,2027.6,3794.4,2027.6z"/>
</g>
<g id="LWPOLYLINE_32_">
	<rect x="1342.1" y="2289.8" class="st0" width="113.4" height="8.5"/>
</g>
<g id="LWPOLYLINE_33_">
	<rect x="1256.9" y="1460.7" class="st0" width="8.5" height="566.9"/>
</g>
<g id="LWPOLYLINE_34_">
	<rect x="1369" y="877.7" class="st0" width="56.7" height="9.9"/>
</g>
<g id="LWPOLYLINE_35_">
	<path class="st0" d="M1326.5,1134.2H1264V907.4h76.6v-31.2c0-5.5,4.4-9.9,9.9-9.9h93.5c5.5,0,9.9,4.4,9.9,9.9v31.2h76.6v226.8H1468
		v8.5h-141.7v-8.5H1326.5z"/>
</g>
<g id="LWPOLYLINE_36_">
	<rect x="1369" y="2600.7" class="st0" width="56.7" height="9.9"/>
</g>
<g id="LWPOLYLINE_37_">
	<path class="st0" d="M1326.5,2354.1H1264v226.8h76.6v31.2c0,5.5,4.4,9.9,9.9,9.9h93.5c5.5,0,9.9-4.4,9.9-9.9v-31.2h76.6v-226.8
		H1468v-8.5h-141.7L1326.5,2354.1z"/>
</g>
<g id="LWPOLYLINE_38_">
	<polygon class="st0" points="911.1,1460.7 902.6,1460.7 902.6,2027.6 911.1,2027.6 911.1,2289.9 1137.8,2289.9 1137.8,2027.6 
		1146.4,2027.6 1146.4,1460.7 1137.8,1460.7 1137.8,1198.5 911.1,1198.5 	"/>
</g>
<g id="LWPOLYLINE_39_">
	<polygon class="st0" points="1620.3,546.6 1663.5,546.6 1663.5,319.9 1620.3,319.9 1620.3,311.4 1535.2,311.4 1535.2,319.9 
		1492,319.9 1492,546.6 1535.2,546.6 1535.2,555.1 1620.3,555.1 	"/>
</g>
<g id="LWPOLYLINE_40_">
	<polygon class="st0" points="1791.7,546.6 1834.9,546.6 1834.9,319.9 1791.7,319.9 1791.7,311.4 1706.7,311.4 1706.7,319.9 
		1663.5,319.9 1663.5,546.6 1706.7,546.6 1706.7,555.1 1791.7,555.1 	"/>
</g>
<g id="LWPOLYLINE_41_">
	<polygon class="st0" points="1963.1,546.6 2006.3,546.6 2006.3,319.9 1963.1,319.9 1963.1,311.4 1878.1,311.4 1878.1,319.9 
		1834.9,319.9 1834.9,546.6 1878.1,546.6 1878.1,555.1 1963.1,555.1 	"/>
</g>
<g id="LWPOLYLINE_42_">
	<polygon class="st0" points="2134.6,546.6 2177.8,546.6 2177.8,319.9 2134.6,319.9 2134.6,311.4 2049.5,311.4 2049.5,319.9 
		2006.3,319.9 2006.3,546.6 2049.5,546.6 2049.5,555.1 2134.6,555.1 	"/>
</g>
<g id="LWPOLYLINE_43_">
	<polygon class="st0" points="2306,546.6 2349.2,546.6 2349.2,319.9 2306,319.9 2306,311.4 2221,311.4 2221,319.9 2177.8,319.9 
		2177.8,546.6 2221,546.6 2221,555.1 2306,555.1 	"/>
</g>
<g id="LWPOLYLINE_44_">
	<polygon class="st0" points="1620.3,829.8 1663.5,829.8 1663.5,603 1620.3,603 1620.3,594.5 1535.2,594.5 1535.2,603 1492,603 
		1492,829.8 1535.2,829.8 1535.2,838.3 1620.3,838.3 	"/>
</g>
<g id="LWPOLYLINE_45_">
	<polygon class="st0" points="1791.7,829.8 1834.9,829.8 1834.9,603 1791.7,603 1791.7,594.5 1706.7,594.5 1706.7,603 1663.5,603 
		1663.5,829.8 1706.7,829.8 1706.7,838.3 1791.7,838.3 	"/>
</g>
<g id="LWPOLYLINE_46_">
	<polygon class="st0" points="1963.1,829.8 2006.3,829.8 2006.3,603 1963.1,603 1963.1,594.5 1878.1,594.5 1878.1,603 1834.9,603 
		1834.9,829.8 1878.1,829.8 1878.1,838.3 1963.1,838.3 	"/>
</g>
<g id="LWPOLYLINE_47_">
	<polygon class="st0" points="2134.6,829.8 2177.8,829.8 2177.8,603 2134.6,603 2134.6,594.5 2049.5,594.5 2049.5,603 2006.3,603 
		2006.3,829.8 2049.5,829.8 2049.5,838.3 2134.6,838.3 	"/>
</g>
<g id="LWPOLYLINE_48_">
	<polygon class="st0" points="2306,829.8 2349.2,829.8 2349.2,603 2306,603 2306,594.5 2221,594.5 2221,603 2177.8,603 
		2177.8,829.8 2221,829.8 2221,838.3 2306,838.3 	"/>
</g>
<g id="LWPOLYLINE_49_">
	<polygon class="st0" points="2518.4,543.6 2543.9,543.6 2543.9,315.4 2518.4,315.4 2518.4,308.3 2475.9,308.3 2475.9,315.4 
		2450.4,315.4 2450.4,543.6 2475.9,543.6 2475.9,552.1 2518.4,552.1 	"/>
</g>
<g id="LWPOLYLINE_50_">
	<polygon class="st0" points="2842,826.7 2842,835.2 2870.3,835.2 2870.3,826.7 2887.8,826.7 2887.8,599.9 2870.3,599.9 
		2870.3,591.4 2842,591.4 2842,599.9 2824.5,599.9 2824.5,826.7 	"/>
</g>
<g id="LWPOLYLINE_51_">
	<polygon class="st0" points="2611.9,543.6 2637.4,543.6 2637.4,315.4 2611.9,315.4 2611.9,308.3 2569.4,308.3 2569.4,315.4 
		2543.9,315.4 2543.9,543.6 2569.4,543.6 2569.4,552.1 2611.9,552.1 	"/>
</g>
<g id="LWPOLYLINE_52_">
	<polygon class="st0" points="2705.5,543.6 2731,543.6 2731,315.4 2705.5,315.4 2705.5,308.3 2663,308.3 2663,315.4 2637.4,315.4 
		2637.4,543.6 2663,543.6 2663,552.1 2705.5,552.1 	"/>
</g>
<g id="LWPOLYLINE_53_">
	<polygon class="st0" points="2799,543.6 2824.5,543.6 2824.5,315.4 2799,315.4 2799,308.3 2756.5,308.3 2756.5,315.4 2731,315.4 
		2731,543.6 2756.5,543.6 2756.5,552.1 2799,552.1 	"/>
</g>
<g id="LWPOLYLINE_54_">
	<polygon class="st0" points="2892.6,543.6 2918.1,543.6 2918.1,315.4 2892.6,315.4 2892.6,308.3 2850,308.3 2850,315.4 
		2824.5,315.4 2824.5,543.6 2850,543.6 2850,552.1 2892.6,552.1 	"/>
</g>
<g id="LWPOLYLINE_55_">
	<polygon class="st0" points="2518.4,826.7 2543.9,826.7 2543.9,599.9 2518.4,599.9 2518.4,591.4 2475.9,591.4 2475.9,599.9 
		2450.4,599.9 2450.4,826.7 2475.9,826.7 2475.9,835.2 2518.4,835.2 	"/>
</g>
<g id="LWPOLYLINE_56_">
	<polygon class="st0" points="2611.9,826.7 2637.4,826.7 2637.4,599.9 2611.9,599.9 2611.9,591.4 2569.4,591.4 2569.4,599.9 
		2543.9,599.9 2543.9,826.7 2569.4,826.7 2569.4,835.2 2611.9,835.2 	"/>
</g>
<g id="LWPOLYLINE_57_">
	<polygon class="st0" points="2705.5,826.7 2731,826.7 2731,599.9 2705.5,599.9 2705.5,591.4 2663,591.4 2663,599.9 2637.4,599.9 
		2637.4,826.7 2663,826.7 2663,835.2 2705.5,835.2 	"/>
</g>
<g id="LWPOLYLINE_58_">
	<polygon class="st0" points="2799,826.7 2824.5,826.7 2824.5,599.9 2799,599.9 2799,591.4 2756.5,591.4 2756.5,599.9 2731,599.9 
		2731,826.7 2756.5,826.7 2756.5,835.2 2799,835.2 	"/>
</g>
<g id="LWPOLYLINE_59_">
	<polygon class="st0" points="2905.3,826.7 2905.3,835.2 2933.6,835.2 2933.6,826.7 2951.1,826.7 2951.1,599.9 2933.6,599.9 
		2933.6,591.4 2905.3,591.4 2905.3,599.9 2887.8,599.9 2887.8,826.7 	"/>
</g>
<g id="LWPOLYLINE_60_">
	<polygon class="st0" points="609.2,1602.5 600.7,1602.5 600.7,1885.9 609.2,1885.9 609.2,2041.5 836,2041.5 836,1885.9 
		844.5,1885.9 844.5,1602.5 836,1602.5 836,1446.9 609.2,1446.9 	"/>
</g>
<g id="LWPOLYLINE_61_">
	<path class="st0" d="M2240.7,932.8v-14.2c0-31.3,25.4-56.7,56.7-56.7s56.7,25.4,56.7,56.7v56.7v70.9c0,7.8-6.3,14.2-14.2,14.2h-85
		c-7.8,0-14.2-6.3-14.2-14.2v-56.7c0-7.8,6.3-14.2,14.2-14.2h68c7.8,0,14.2-6.3,14.2-14.2v-42.5c0-21.9-17.8-39.7-39.7-39.7
		c-21.9,0-39.7,17.8-39.7,39.7v14.2c0,4.7-3.8,8.5-8.5,8.5S2240.7,937.5,2240.7,932.8z"/>
</g>
<g id="LWPOLYLINE_62_">
	<path class="st0" d="M2301.6,1013.4v10.2c0,2.3-1.9,4.3-4.3,4.3c-2.3,0-4.3-1.9-4.3-4.3v-10.2c-1.3-0.7-2.4-1.8-3.1-3.1
		c-2.3-4.1-1-9.3,3.1-11.6c4.1-2.3,9.3-1,11.6,3.1C2306.9,1005.9,2305.7,1011.1,2301.6,1013.4z"/>
</g>
<g id="LWPOLYLINE_63_">
	<path class="st0" d="M2395.9,932.8v-14.2c0-31.3,25.4-56.7,56.7-56.7c31.3,0,56.7,25.4,56.7,56.7v56.7v70.9
		c0,7.8-6.3,14.2-14.2,14.2h-85c-7.8,0-14.2-6.3-14.2-14.2v-56.7c0-7.8,6.3-14.2,14.2-14.2h68c7.8,0,14.2-6.3,14.2-14.2v-42.5
		c0-21.9-17.8-39.7-39.7-39.7c-21.9,0-39.7,17.8-39.7,39.7v14.2c0,4.7-3.8,8.5-8.5,8.5S2395.9,937.5,2395.9,932.8z"/>
</g>
<g id="LWPOLYLINE_64_">
	<path class="st0" d="M2456.9,1013.4v10.2c0,2.3-1.9,4.3-4.3,4.3c-2.4,0-4.3-1.9-4.3-4.3v-10.2c-1.3-0.7-2.4-1.8-3.1-3.1
		c-2.3-4.1-1-9.3,3.1-11.6c4.1-2.3,9.3-1,11.6,3.1C2462.2,1005.9,2461,1011.1,2456.9,1013.4z"/>
</g>
<g id="LWPOLYLINE_66_">
	<rect x="2461.3" y="2289.8" class="st0" width="141.7" height="8.5"/>
</g>
<g id="LWPOLYLINE_67_">
	
		<rect x="2746.5" y="1162.9" transform="matrix(0.1564 -0.9877 0.9877 0.1564 1129.9194 3733.7813)" class="st0" width="8.5" height="85"/>
</g>
<g id="LWPOLYLINE_68_">
	
		<rect x="2708.2" y="2278.6" transform="matrix(0.9877 -0.1564 0.1564 0.9877 -323.1882 458.3031)" class="st0" width="85" height="8.5"/>
</g>
<g id="LWPOLYLINE_69_">
	
		<rect x="2870.6" y="2225.9" transform="matrix(0.891 -0.454 0.454 0.891 -694.9641 1565.6161)" class="st0" width="85" height="8.5"/>
</g>
<g id="LWPOLYLINE_70_">
	
		<rect x="3008.6" y="2125.6" transform="matrix(0.7071 -0.7071 0.7071 0.7071 -612.3618 2781.2986)" class="st0" width="85" height="8.5"/>
</g>
<g id="LWPOLYLINE_71_">
	<polygon class="st0" points="3174.6,1955.8 3136,2031.6 3128.4,2027.8 3167,1952 	"/>
</g>
<g id="LWPOLYLINE_72_">
	
		<rect x="3161.7" y="1825.2" transform="matrix(0.1564 -0.9877 0.9877 0.1564 896.0927 4708.1514)" class="st0" width="85" height="8.5"/>
</g>
<g id="LWPOLYLINE_73_">
	<polygon class="st0" points="3201.8,1616.2 3215.1,1700.2 3206.7,1701.5 3193.4,1617.5 	"/>
</g>
<g id="LWPOLYLINE_74_">
	
		<rect x="3147.2" y="1454" transform="matrix(0.891 -0.454 0.454 0.891 -335.8855 1593.8837)" class="st0" width="8.5" height="85"/>
</g>
<g id="LWPOLYLINE_75_">
	
		<rect x="3046.9" y="1316" transform="matrix(0.7071 -0.7071 0.7071 0.7071 -66.9005 2555.3965)" class="st0" width="8.5" height="85"/>
</g>
<g id="LWPOLYLINE_76_">
	<polygon class="st0" points="2877.2,1235.1 2953,1273.7 2949.1,1281.3 2873.3,1242.7 	"/>
</g>
<g id="LWPOLYLINE_77_">
	<rect x="2390.3" y="1460.7" class="st0" width="8.5" height="566.9"/>
</g>
<g id="LWPOLYLINE_78_">
	<rect x="3594.7" y="1188.6" class="st0" width="141.7" height="9.9"/>
</g>
<g id="LWPOLYLINE_79_">
	<rect x="3594.7" y="2289.8" class="st0" width="141.7" height="9.9"/>
</g>
<g id="LWPOLYLINE_80_">
	<rect x="2958.7" y="1722.9" class="st0" width="8.5" height="42.5"/>
</g>
<g id="LWPOLYLINE_81_">
	
		<rect x="2944" y="1630.4" transform="matrix(0.9511 -0.309 0.309 0.9511 -366.0765 991.7983)" class="st0" width="8.5" height="42.5"/>
</g>
<g id="LWPOLYLINE_82_">
	
		<rect x="2901.4" y="1546.8" transform="matrix(0.809 -0.5878 0.5878 0.809 -366.7063 2007.4407)" class="st0" width="8.5" height="42.5"/>
</g>
<g id="LWPOLYLINE_83_">
	
		<rect x="2835.2" y="1480.6" transform="matrix(0.5878 -0.809 0.809 0.5878 -44.5906 2916.1577)" class="st0" width="8.5" height="42.5"/>
</g>
<g id="LWPOLYLINE_84_">
	
		<rect x="2751.6" y="1438" transform="matrix(0.309 -0.9511 0.9511 0.309 516.5303 3629.3503)" class="st0" width="8.5" height="42.5"/>
</g>
<g id="LWPOLYLINE_85_">
	
		<rect x="2734.7" y="2024.8" transform="matrix(0.9511 -0.309 0.309 0.9511 -492.1031 950.837)" class="st0" width="42.5" height="8.5"/>
</g>
<g id="LWPOLYLINE_86_">
	
		<rect x="2818.2" y="1982.2" transform="matrix(0.809 -0.5878 0.5878 0.809 -625.3511 2048.4351)" class="st0" width="42.5" height="8.5"/>
</g>
<g id="LWPOLYLINE_87_">
	
		<rect x="2884.4" y="1916" transform="matrix(0.5878 -0.809 0.809 0.5878 -355.758 3142.2266)" class="st0" width="42.5" height="8.5"/>
</g>
<g id="LWPOLYLINE_88_">
	
		<rect x="2927" y="1832.5" transform="matrix(0.309 -0.9511 0.9511 0.309 290.4445 4073.1506)" class="st0" width="42.5" height="8.5"/>
</g>
<g id="LWPOLYLINE_89_">
	<rect x="2664.3" y="2039.5" class="st0" width="28.3" height="8.5"/>
</g>
<g id="LWPOLYLINE_90_">
	<rect x="2664.3" y="1440.4" class="st0" width="28.3" height="8.5"/>
</g>
<g id="LWPOLYLINE_91_">
	<rect x="2638.4" y="1602.5" class="st0" width="8.5" height="283.5"/>
</g>
</svg>
