<?xml version="1.0" encoding="utf-8"?>
<!-- Generator: Adobe Illustrator 22.0.0, SVG Export Plug-In . SVG Version: 6.00 Build 0)  -->
<svg version="1.1" id="_x30_" xmlns="http://www.w3.org/2000/svg" xmlns:xlink="http://www.w3.org/1999/xlink" x="0px" y="0px"
	 viewBox="0 0 5447 2467.5" style="enable-background:new 0 0 5447 2467.5;" xml:space="preserve">
<style type="text/css">
	.st0{fill:none;stroke:#000000;stroke-width:0.7087;stroke-linecap:round;stroke-linejoin:round;stroke-miterlimit:10;}
</style>
<g id="LWPOLYLINE">
	<path class="st0" d="M2694.6,462.1v-14.2c0-31.3,25.4-56.7,56.7-56.7s56.7,25.4,56.7,56.7v56.7v70.9c0,7.8-6.3,14.2-14.2,14.2h-85
		c-7.8,0-14.2-6.3-14.2-14.2v-56.7c0-7.8,6.3-14.2,14.2-14.2h68c7.8,0,14.2-6.3,14.2-14.2v-42.5c0-21.9-17.8-39.7-39.7-39.7
		c-21.9,0-39.7,17.8-39.7,39.7v14.2c0,4.7-3.8,8.5-8.5,8.5S2694.6,466.8,2694.6,462.1z"/>
</g>
<g id="LWPOLYLINE_1_">
	<path class="st0" d="M2755.6,542.7v10.2c0,2.3-1.9,4.3-4.3,4.3c-2.4,0-4.3-1.9-4.3-4.3v-10.2c-1.3-0.7-2.4-1.8-3.1-3.1
		c-2.3-4.1-1-9.3,3.1-11.6c4.1-2.3,9.3-1,11.6,3.1C2761.1,535.2,2759.7,540.4,2755.6,542.7z"/>
</g>
<g id="LWPOLYLINE_2_">
	<path class="st0" d="M2910.3,462.1v-14.2c0-31.3,25.4-56.7,56.7-56.7c31.3,0,56.7,25.4,56.7,56.7v56.7v70.9
		c0,7.8-6.3,14.2-14.2,14.2h-85c-7.8,0-14.2-6.3-14.2-14.2v-56.7c0-7.8,6.3-14.2,14.2-14.2h68c7.8,0,14.2-6.3,14.2-14.2v-42.5
		c0-21.9-17.8-39.7-39.7-39.7c-21.9,0-39.7,17.8-39.7,39.7v14.2c0,4.7-3.8,8.5-8.5,8.5S2910.3,466.8,2910.3,462.1z"/>
</g>
<g id="LWPOLYLINE_3_">
	<path class="st0" d="M2971.2,542.7v10.2c0,2.3-1.9,4.3-4.3,4.3c-2.3,0-4.3-1.9-4.3-4.3v-10.2c-1.3-0.7-2.4-1.8-3.1-3.1
		c-2.3-4.1-1-9.3,3.1-11.6c4.1-2.3,9.3-1,11.6,3.1C2976.7,535.2,2975.3,540.4,2971.2,542.7z"/>
</g>
<g id="LWPOLYLINE_4_">
	<polygon class="st0" points="3365.9,1365.7 3365.9,1507.4 3932.8,1507.4 3932.8,1790.9 3082.4,1790.9 3082.4,657 3932.8,657 
		3932.8,940.5 3365.9,940.5 3365.9,1082.2 3932.8,1082.2 3932.8,1365.7 	"/>
</g>
<g id="LWPOLYLINE_5_">
	<path class="st0" d="M3554.4,353.3h-93.5c-5.5,0-9.9,4.4-9.9,9.9v32.6h-347.3v226.8h205.5v8.5h396.9v-8.5h205.4V395.8h-347.2v-32.6
		C3564.3,357.8,3559.8,353.3,3554.4,353.3z"/>
</g>
<g id="LWPOLYLINE_6_">
	<rect x="3309.2" y="669.8" class="st0" width="396.9" height="8.5"/>
</g>
<g id="LWPOLYLINE_7_">
	<rect x="3479.2" y="364.7" class="st0" width="56.7" height="9.9"/>
</g>
<g id="LWPOLYLINE_8_">
	<polygon class="st0" points="4012,855.4 4012,919.2 4238.7,919.2 4238.7,855.4 4247.2,855.4 4247.2,742 4238.7,742 4238.7,678.3 
		4012,678.3 4012,742 4003.5,742 4003.5,855.4 	"/>
</g>
<g id="LWPOLYLINE_9_">
	<polygon class="st0" points="2709.5,1507.4 2709.5,1769.6 2936.3,1769.6 2936.3,1507.4 2944.8,1507.4 2944.8,940.5 2936.3,940.5 
		2936.3,678.3 2709.5,678.3 2709.5,940.5 2701,940.5 2701,1507.4 	"/>
</g>
<g id="LWPOLYLINE_10_">
	<polygon class="st0" points="4252.2,1223.7 4252.2,1232.2 4535.7,1232.2 4535.7,1223.7 4673.9,1223.7 4673.9,996.9 4535.7,996.9 
		4535.7,988.4 4252.2,988.4 4252.2,996.9 4114,996.9 4114,1223.7 	"/>
</g>
<g id="LWPOLYLINE_11_">
	<polygon class="st0" points="4776.3,1353.4 4767.8,1353.4 4767.8,1438.5 4776.3,1438.5 4776.3,1481 5003.1,1481 5003.1,1438.5 
		5011.6,1438.5 5011.6,1353.4 5003.1,1353.4 5003.1,1310.9 4776.3,1310.9 	"/>
</g>
<g id="LWPOLYLINE_12_">
	<rect x="3309.2" y="1769.6" class="st0" width="396.9" height="8.5"/>
</g>
<g id="LWPOLYLINE_13_">
	<polygon class="st0" points="4776.3,1183.3 4767.8,1183.3 4767.8,1268.4 4776.3,1268.4 4776.3,1310.9 5003.1,1310.9 5003.1,1268.4 
		5011.6,1268.4 5011.6,1183.3 5003.1,1183.3 5003.1,1140.8 4776.3,1140.8 	"/>
</g>
<g id="LWPOLYLINE_14_">
	<path class="st0" d="M3554.4,2094.5h-93.5c-5.5,0-9.9-4.4-9.9-9.9V2052h-347.3v-226.8h205.5v-7.1h396.9v7.1h205.4V2052h-347.2v32.6
		C3564.3,2090.1,3559.8,2094.5,3554.4,2094.5z"/>
</g>
<g id="LWPOLYLINE_15_">
	<rect x="3479.2" y="2073.3" class="st0" width="56.7" height="9.9"/>
</g>
<g id="LWPOLYLINE_16_">
	<polygon class="st0" points="760.4,1365.7 760.4,1507.4 1327.3,1507.4 1327.3,1790.9 476.9,1790.9 476.9,657 1327.3,657 
		1327.3,940.5 760.4,940.5 760.4,1082.2 1327.3,1082.2 1327.3,1365.7 	"/>
</g>
<g id="LWPOLYLINE_17_">
	<polygon class="st0" points="725,1330.2 725,1542.8 1291.9,1542.8 1291.9,1755.4 512.4,1755.4 512.4,692.4 1291.9,692.4 
		1291.9,905 725,905 725,1117.6 1291.9,1117.6 1291.9,1330.2 	"/>
</g>
<g id="LWPOLYLINE_18_">
	<rect x="1306.1" y="742" class="st0" width="8.5" height="113.4"/>
</g>
<g id="LWPOLYLINE_19_">
	<rect x="489.7" y="940.5" class="st0" width="8.5" height="566.9"/>
</g>
<g id="LWPOLYLINE_20_">
	<rect x="884.4" y="919.2" class="st0" width="283.5" height="8.5"/>
</g>
<g id="LWPOLYLINE_21_">
	<rect x="737.7" y="968.8" class="st0" width="8.5" height="85"/>
</g>
<g id="LWPOLYLINE_22_">
	<rect x="884.4" y="1095" class="st0" width="283.5" height="8.5"/>
</g>
<g id="LWPOLYLINE_23_">
	<rect x="884.4" y="1344.4" class="st0" width="283.5" height="8.5"/>
</g>
<g id="LWPOLYLINE_24_">
	<rect x="884.4" y="1521.6" class="st0" width="283.5" height="8.5"/>
</g>
<g id="LWPOLYLINE_25_">
	<rect x="1306.1" y="1167.2" class="st0" width="8.5" height="113.4"/>
</g>
<g id="LWPOLYLINE_26_">
	<rect x="1306.1" y="1592.4" class="st0" width="8.5" height="113.4"/>
</g>
<g id="LWPOLYLINE_27_">
	<rect x="737.7" y="1394" class="st0" width="8.5" height="85"/>
</g>
<g id="LWPOLYLINE_28_">
	<rect x="842.6" y="668.3" class="st0" width="119.1" height="11.3"/>
</g>
<g id="LWPOLYLINE_29_">
	<rect x="842.6" y="1768.2" class="st0" width="119.1" height="11.3"/>
</g>
<g id="LWPOLYLINE_30_">
	<polygon class="st0" points="1787.4,1365.7 1787.4,1507.4 2354.3,1507.4 2354.3,1790.9 1503.9,1790.9 1503.9,657 2354.3,657 
		2354.3,940.5 1787.4,940.5 1787.4,1082.2 2354.3,1082.2 2354.3,1365.7 	"/>
</g>
<g id="LWPOLYLINE_31_">
	<rect x="1869.6" y="668.3" class="st0" width="119.1" height="11.3"/>
</g>
<g id="LWPOLYLINE_32_">
	<rect x="1869.6" y="1768.2" class="st0" width="119.1" height="11.3"/>
</g>
<g id="LWPOLYLINE_34_">
	<rect x="3911.5" y="742" class="st0" width="8.5" height="113.4"/>
</g>
<g id="LWPOLYLINE_35_">
	<rect x="3095.2" y="940.5" class="st0" width="8.5" height="566.9"/>
</g>
<g id="LWPOLYLINE_36_">
	<rect x="3489.9" y="919.2" class="st0" width="283.5" height="8.5"/>
</g>
<g id="LWPOLYLINE_37_">
	<rect x="3343.2" y="968.8" class="st0" width="8.5" height="85"/>
</g>
<g id="LWPOLYLINE_38_">
	<rect x="3489.9" y="1095" class="st0" width="283.5" height="8.5"/>
</g>
<g id="LWPOLYLINE_39_">
	<rect x="3489.9" y="1344.4" class="st0" width="283.5" height="8.5"/>
</g>
<g id="LWPOLYLINE_40_">
	<rect x="3489.9" y="1521.6" class="st0" width="283.5" height="8.5"/>
</g>
<g id="LWPOLYLINE_41_">
	<rect x="3911.5" y="1167.2" class="st0" width="8.5" height="113.4"/>
</g>
<g id="LWPOLYLINE_42_">
	<rect x="3911.5" y="1592.4" class="st0" width="8.5" height="113.4"/>
</g>
<g id="LWPOLYLINE_43_">
	<rect x="3343.2" y="1394" class="st0" width="8.5" height="85"/>
</g>
<g id="LWPOLYLINE_44_">
	<polygon class="st0" points="4255.7,855.4 4255.7,919.2 4482.5,919.2 4482.5,855.4 4491,855.4 4491,742 4482.5,742 4482.5,678.3 
		4255.7,678.3 4255.7,742 4247.2,742 4247.2,855.4 	"/>
</g>
<g id="LWPOLYLINE_45_">
	<polygon class="st0" points="4499.5,855.4 4499.5,919.2 4726.3,919.2 4726.3,855.4 4734.8,855.4 4734.8,742 4726.3,742 
		4726.3,678.3 4499.5,678.3 4499.5,742 4491,742 4491,855.4 	"/>
</g>
<g id="LWPOLYLINE_46_">
	<polygon class="st0" points="4252.2,1467.5 4252.2,1476 4535.7,1476 4535.7,1467.5 4673.9,1467.5 4673.9,1240.7 4535.7,1240.7 
		4535.7,1232.2 4252.2,1232.2 4252.2,1240.7 4114,1240.7 4114,1467.5 	"/>
</g>
<g id="LWPOLYLINE_47_">
	<polygon class="st0" points="4252.2,1711.3 4252.2,1719.8 4535.7,1719.8 4535.7,1711.3 4673.9,1711.3 4673.9,1484.5 4535.7,1484.5 
		4535.7,1476 4252.2,1476 4252.2,1484.5 4114,1484.5 4114,1711.3 	"/>
</g>
<g id="LWPOLYLINE_48_">
	<polygon class="st0" points="4252.2,1955 4252.2,1963.6 4535.7,1963.6 4535.7,1955 4673.9,1955 4673.9,1728.3 4535.7,1728.3 
		4535.7,1719.8 4252.2,1719.8 4252.2,1728.3 4114,1728.3 4114,1955 	"/>
</g>
</svg>
