<?xml version="1.0" encoding="utf-8"?>
<!-- Generator: Adobe Illustrator 22.0.0, SVG Export Plug-In . SVG Version: 6.00 Build 0)  -->
<svg version="1.1" id="_x30_" xmlns="http://www.w3.org/2000/svg" xmlns:xlink="http://www.w3.org/1999/xlink" x="0px" y="0px"
	 viewBox="0 0 6532.8 2293.6" style="enable-background:new 0 0 6532.8 2293.6;" xml:space="preserve">
<style type="text/css">
	.st0{fill:none;stroke:#000000;stroke-width:0.7087;stroke-linecap:round;stroke-linejoin:round;stroke-miterlimit:10;}
</style>
<g id="LWPOLYLINE">
	<path class="st0" d="M3688,511.2V497c0-31.3,25.4-56.7,56.7-56.7c31.3,0,56.7,25.4,56.7,56.7v56.7v70.9c0,7.8-6.3,14.2-14.2,14.2
		h-85c-7.8,0-14.2-6.3-14.2-14.2v-56.7c0-7.8,6.3-14.2,14.2-14.2h68c7.8,0,14.2-6.3,14.2-14.2V497c0-21.9-17.8-39.7-39.7-39.7
		c-21.9,0-39.7,17.8-39.7,39.7v14.2c0,4.7-3.8,8.5-8.5,8.5S3688,515.9,3688,511.2z"/>
</g>
<g id="LWPOLYLINE_1_">
	<path class="st0" d="M3748.9,591.9v10.2c0,2.3-1.9,4.3-4.3,4.3c-2.3,0-4.3-1.9-4.3-4.3v-10.2c-1.3-0.7-2.4-1.8-3.1-3.1
		c-2.3-4.1-1-9.3,3.1-11.6c4.1-2.3,9.3-1,11.6,3.1C3754.4,584.4,3753,589.6,3748.9,591.9z"/>
</g>
<g id="LWPOLYLINE_2_">
	<path class="st0" d="M3903.6,511.2V497c0-31.3,25.4-56.7,56.7-56.7c31.3,0,56.7,25.4,56.7,56.7v56.7v70.9c0,7.8-6.3,14.2-14.2,14.2
		h-85c-7.8,0-14.2-6.3-14.2-14.2v-56.7c0-7.8,6.3-14.2,14.2-14.2h68c7.8,0,14.2-6.3,14.2-14.2V497c0-21.9-17.8-39.7-39.7-39.7
		s-39.7,17.8-39.7,39.7v14.2c0,4.7-3.8,8.5-8.5,8.5S3903.6,515.9,3903.6,511.2z"/>
</g>
<g id="LWPOLYLINE_3_">
	<path class="st0" d="M3964.6,591.9v10.2c0,2.3-1.9,4.3-4.3,4.3c-2.4,0-4.3-1.9-4.3-4.3v-10.2c-1.3-0.7-2.4-1.8-3.1-3.1
		c-2.3-4.1-1-9.3,3.1-11.6c4.1-2.3,9.3-1,11.6,3.1C3970,584.4,3968.6,589.6,3964.6,591.9z"/>
</g>
<g id="LWPOLYLINE_4_">
	<rect x="2593.4" y="718.9" class="st0" width="396.9" height="8.5"/>
</g>
<g id="LWPOLYLINE_5_">
	<rect x="4472.6" y="413.8" class="st0" width="56.7" height="9.9"/>
</g>
<g id="LWPOLYLINE_6_">
	<rect x="3195.8" y="791.2" class="st0" width="8.5" height="113.4"/>
</g>
<g id="LWPOLYLINE_7_">
	<rect x="2379.4" y="989.6" class="st0" width="8.5" height="566.9"/>
</g>
<g id="LWPOLYLINE_8_">
	<polygon class="st0" points="3702.8,1556.6 3702.8,1818.8 3929.6,1818.8 3929.6,1556.6 3938.1,1556.6 3938.1,989.6 3929.6,989.6 
		3929.6,727.4 3702.8,727.4 3702.8,989.6 3694.3,989.6 3694.3,1556.6 	"/>
</g>
<g id="LWPOLYLINE_9_">
	<rect x="2774.1" y="968.4" class="st0" width="283.5" height="8.5"/>
</g>
<g id="LWPOLYLINE_10_">
	<polygon class="st0" points="5245.6,1272.9 5245.6,1281.4 5529,1281.4 5529,1272.9 5667.2,1272.9 5667.2,1046.1 5529,1046.1 
		5529,1037.6 5245.6,1037.6 5245.6,1046.1 5107.4,1046.1 5107.4,1272.9 	"/>
</g>
<g id="LWPOLYLINE_11_">
	<rect x="2627.5" y="1018" class="st0" width="8.5" height="85"/>
</g>
<g id="LWPOLYLINE_12_">
	<rect x="2774.1" y="1144.1" class="st0" width="283.5" height="8.5"/>
</g>
<g id="LWPOLYLINE_13_">
	<rect x="2774.1" y="1393.6" class="st0" width="283.5" height="8.5"/>
</g>
<g id="LWPOLYLINE_14_">
	<rect x="3195.8" y="1216.4" class="st0" width="8.5" height="113.4"/>
</g>
<g id="LWPOLYLINE_15_">
	<polygon class="st0" points="5288.4,904.6 5288.4,968.4 5515.2,968.4 5515.2,904.6 5523.7,904.6 5523.7,791.2 5515.2,791.2 
		5515.2,727.4 5288.4,727.4 5288.4,791.2 5279.9,791.2 5279.9,904.6 	"/>
</g>
<g id="LWPOLYLINE_16_">
	<polygon class="st0" points="5580.8,904.6 5580.8,968.4 5807.6,968.4 5807.6,904.6 5816.1,904.6 5816.1,791.2 5807.6,791.2 
		5807.6,727.4 5580.8,727.4 5580.8,791.2 5572.3,791.2 5572.3,904.6 	"/>
</g>
<g id="LWPOLYLINE_17_">
	<polygon class="st0" points="5245.6,1546.3 5245.6,1554.9 5529,1554.9 5529,1546.3 5667.2,1546.3 5667.2,1319.6 5529,1319.6 
		5529,1311.1 5245.6,1311.1 5245.6,1319.6 5107.4,1319.6 5107.4,1546.3 	"/>
</g>
<g id="LWPOLYLINE_18_">
	<polygon class="st0" points="5245.6,1837 5245.6,1845.5 5529,1845.5 5529,1837 5667.2,1837 5667.2,1610.3 5529,1610.3 5529,1601.8 
		5245.6,1601.8 5245.6,1610.3 5107.4,1610.3 5107.4,1837 	"/>
</g>
<g id="LWPOLYLINE_19_">
	<polygon class="st0" points="5769.6,1232.5 5761.1,1232.5 5761.1,1317.5 5769.6,1317.5 5769.6,1360.1 5996.4,1360.1 5996.4,1317.5 
		6004.9,1317.5 6004.9,1232.5 5996.4,1232.5 5996.4,1190 5769.6,1190 	"/>
</g>
<g id="LWPOLYLINE_20_">
	<polygon class="st0" points="2366.7,1840 2366.7,706.2 3217.1,706.2 3217.1,989.6 2650.1,989.6 2650.1,1131.4 3217.1,1131.4 
		3217.1,1414.8 2650.1,1414.8 2650.1,1840 	"/>
</g>
<g id="LWPOLYLINE_21_">
	<polygon class="st0" points="4820.7,1143.4 4820.7,1033.7 5047.5,1033.7 5047.5,1143.4 5056,1143.4 5056,1341.9 5047.5,1341.9 
		5047.5,1451.6 4820.7,1451.6 4820.7,1341.9 4812.2,1341.9 4812.2,1143.4 	"/>
</g>
<g id="LWPOLYLINE_22_">
	<rect x="2628.9" y="1510.4" class="st0" width="8.5" height="198.4"/>
</g>
<g id="LWPOLYLINE_23_">
	<rect x="2451.7" y="1818.7" class="st0" width="113.4" height="8.5"/>
</g>
<g id="LWPOLYLINE_24_">
	<rect x="4974.1" y="819.6" class="st0" width="9.9" height="56.7"/>
</g>
<g id="LWPOLYLINE_25_">
	<path class="st0" d="M5240.6,791.2h-8.5v-63.8h-226.8v63.8h-32.6c-5.5,0-9.9,4.4-9.9,9.9v93.5c0,5.5,4.4,9.9,9.9,9.9h32.6v63.8
		h226.8v-63.8h8.5V791.2z"/>
</g>
<g id="LWPOLYLINE_26_">
	<polygon class="st0" points="1406.7,1840 1406.7,706.2 2257.1,706.2 2257.1,989.6 1690.2,989.6 1690.2,1131.4 2257.1,1131.4 
		2257.1,1414.8 1690.2,1414.8 1690.2,1840 	"/>
</g>
<g id="LWPOLYLINE_27_">
	<polygon class="st0" points="1442.3,1804.5 1442.3,741.7 2221.6,741.7 2221.6,954.1 1654.6,954.1 1654.6,1166.9 2221.6,1166.9 
		2221.6,1379.3 1654.6,1379.3 1654.6,1804.5 	"/>
</g>
<g id="LWPOLYLINE_28_">
	<rect x="1491.8" y="1818.7" class="st0" width="113.4" height="8.5"/>
</g>
<g id="LWPOLYLINE_29_">
	<polygon class="st0" points="453.4,1840 453.4,706.2 1303.8,706.2 1303.8,989.6 736.9,989.6 736.9,1131.4 1303.8,1131.4 
		1303.8,1414.8 736.9,1414.8 736.9,1840 	"/>
</g>
<g id="LWPOLYLINE_31_">
	<rect x="1775.2" y="718.9" class="st0" width="113.4" height="8.5"/>
</g>
<g id="LWPOLYLINE_32_">
	<rect x="2235.9" y="791.2" class="st0" width="8.5" height="113.4"/>
</g>
<g id="LWPOLYLINE_33_">
	<rect x="1419.5" y="989.6" class="st0" width="8.5" height="566.9"/>
</g>
<g id="LWPOLYLINE_34_">
	<rect x="1814.2" y="968.4" class="st0" width="283.5" height="8.5"/>
</g>
<g id="LWPOLYLINE_35_">
	<rect x="1667.5" y="1018" class="st0" width="8.5" height="85"/>
</g>
<g id="LWPOLYLINE_36_">
	<rect x="1814.2" y="1144.1" class="st0" width="283.5" height="8.5"/>
</g>
<g id="LWPOLYLINE_37_">
	<rect x="1814.2" y="1393.6" class="st0" width="283.5" height="8.5"/>
</g>
<g id="LWPOLYLINE_38_">
	<rect x="2235.9" y="1216.4" class="st0" width="8.5" height="113.4"/>
</g>
<g id="LWPOLYLINE_39_">
	<rect x="1668.9" y="1510.4" class="st0" width="8.5" height="198.4"/>
</g>
<g id="LWPOLYLINE_40_">
	<rect x="538.5" y="1818.7" class="st0" width="113.4" height="8.5"/>
</g>
<g id="LWPOLYLINE_41_">
	<rect x="821.9" y="718.9" class="st0" width="113.4" height="8.5"/>
</g>
<g id="LWPOLYLINE_42_">
	<path class="st0" d="M4302.5,680.3h396.9v-8.5h205.5V445h-347.2v-32.6c0-5.5-4.4-9.9-9.9-9.9h-93.5c-5.5,0-9.9,4.4-9.9,9.9V445
		h-347.2v226.8h205.5C4302.5,671.8,4302.5,680.3,4302.5,680.3z"/>
</g>
</svg>
