<?xml version="1.0" encoding="utf-8"?>
<!-- Generator: Adobe Illustrator 22.0.0, SVG Export Plug-In . SVG Version: 6.00 Build 0)  -->
<svg version="1.1" id="_x30_" xmlns="http://www.w3.org/2000/svg" xmlns:xlink="http://www.w3.org/1999/xlink" x="0px" y="0px"
	 viewBox="0 0 6688.8 3271.4" style="enable-background:new 0 0 6688.8 3271.4;" xml:space="preserve">
<style type="text/css">
	.st0{fill:none;stroke:#000000;stroke-width:0.7087;stroke-linecap:round;stroke-linejoin:round;stroke-miterlimit:10;}
</style>
<g id="LWPOLYLINE">
	<polygon class="st0" points="2456.2,2396 2447.6,2396 2447.6,1970.8 2456.2,1970.8 2456.2,1885.8 2682.9,1885.8 2682.9,1970.8 
		2691.4,1970.8 2691.4,2396 2682.9,2396 2682.9,2481 2456.2,2481 	"/>
</g>
<g id="LWPOLYLINE_1_">
	<polygon class="st0" points="929,1521.2 920.5,1521.2 920.5,2088.1 929,2088.1 929,2180.5 1155.8,2180.5 1155.8,2088.1 
		1164.3,2088.1 1164.3,1521.2 1155.8,1521.2 1155.8,1428.8 929,1428.8 	"/>
</g>
<g id="LWPOLYLINE_2_">
	<polygon class="st0" points="2150.2,1462.6 2150.2,1428.8 2376.9,1428.8 2376.9,1462.6 2385.4,1462.6 2385.4,1576 2376.9,1576 
		2376.9,1609.8 2150.2,1609.8 2150.2,1576 2141.7,1576 2141.7,1462.6 	"/>
</g>
<g id="LWPOLYLINE_3_">
	<polygon class="st0" points="2796.3,1907.7 2796.3,1899.2 2966.4,1899.2 2966.4,1907.7 3037.2,1907.7 3037.2,2134.5 2966.4,2134.5 
		2966.4,2143 2796.3,2143 2796.3,2134.5 2725.4,2134.5 2725.4,1907.7 	"/>
</g>
<g id="LWPOLYLINE_4_">
	<polygon class="st0" points="2055.5,1095.4 2047,1095.4 2047,1293.9 2055.5,1293.9 2055.5,1314.7 2282.3,1314.7 2282.3,1293.9 
		2290.8,1293.9 2290.8,1095.4 2282.3,1095.4 2282.3,1074.6 2055.5,1074.6 	"/>
</g>
<g id="LWPOLYLINE_5_">
	<polygon class="st0" points="2796.3,2459 2796.3,2467.5 2966.4,2467.5 2966.4,2459 3037.2,2459 3037.2,2232.3 2966.4,2232.3 
		2966.4,2223.8 2796.3,2223.8 2796.3,2232.3 2725.4,2232.3 2725.4,2459 	"/>
</g>
<g id="LWPOLYLINE_6_">
	<polygon class="st0" points="3333,2459 3333,2467.5 3474.7,2467.5 3474.7,2459 3524.3,2459 3524.3,2232.3 3474.7,2232.3 
		3474.7,2223.8 3333,2223.8 3333,2232.3 3283.4,2232.3 3283.4,2459 	"/>
</g>
<g id="LWPOLYLINE_7_">
	<path class="st0" d="M1703,2735.1h-93.5c-5.5,0-9.9-4.4-9.9-9.9V2694h-177.4v-226.8h92.4v-8.5h283.5v8.5h92.4V2694h-177.4v31.2
		C1713,2730.6,1708.5,2735.1,1703,2735.1z"/>
</g>
<g id="LWPOLYLINE_8_">
	<rect x="1627.9" y="2713.8" class="st0" width="56.7" height="9.9"/>
</g>
<g id="LWPOLYLINE_9_">
	<polygon class="st0" points="2055.5,2513.8 2047,2513.8 2047,2315.4 2055.5,2315.4 2055.5,2294.5 2282.3,2294.5 2282.3,2315.4 
		2290.8,2315.4 2290.8,2513.8 2282.3,2513.8 2282.3,2534.7 2055.5,2534.7 	"/>
</g>
<g id="LWPOLYLINE_10_">
	<polygon class="st0" points="1257,1095.4 1265.5,1095.4 1265.5,1293.9 1257,1293.9 1257,1314.7 1030.3,1314.7 1030.3,1293.9 
		1021.8,1293.9 1021.8,1095.4 1030.3,1095.4 1030.3,1074.6 1257,1074.6 	"/>
</g>
<g id="LWPOLYLINE_11_">
	<polygon class="st0" points="1257,2513.8 1265.5,2513.8 1265.5,2315.4 1257,2315.4 1257,2294.5 1030.3,2294.5 1030.3,2315.4 
		1021.8,2315.4 1021.8,2513.8 1030.3,2513.8 1030.3,2534.7 1257,2534.7 	"/>
</g>
<g id="LWPOLYLINE_12_">
	<rect x="1516" y="1218.4" class="st0" width="283.5" height="8.5"/>
</g>
<g id="LWPOLYLINE_13_">
	<rect x="1516" y="2318.2" class="st0" width="283.5" height="8.5"/>
</g>
<g id="LWPOLYLINE_14_">
	<polygon class="st0" points="1900.6,2339.5 1414.8,2339.5 1232.5,2157.2 1232.5,1387.9 1414.8,1205.6 1900.6,1205.6 2082.9,1387.9 
		2082.9,1599 1799.5,1599 1799.5,1489.1 1516,1489.1 1516,2056 1799.5,2056 1799.5,1946.1 1657.7,1946.1 1657.7,1733.5 
		2082.9,1733.5 2082.9,2157.2 	"/>
</g>
<g id="LWPOLYLINE_15_">
	<polygon class="st0" points="4769.4,1851.3 4760.9,1851.3 4760.9,1964.7 4769.4,1964.7 4769.4,2104.8 4996.2,2104.8 4996.2,1964.7 
		5004.7,1964.7 5004.7,1851.3 4996.2,1851.3 4996.2,1711.1 4769.4,1711.1 	"/>
</g>
<g id="LWPOLYLINE_16_">
	<rect x="2061.7" y="1894.9" class="st0" width="8.5" height="113.4"/>
</g>
<g id="LWPOLYLINE_17_">
	<polygon class="st0" points="4297.2,1008 4297.2,1016.5 4438.9,1016.5 4438.9,1008 4559.4,1008 4559.4,781.2 4438.9,781.2 
		4438.9,772.7 4297.2,772.7 4297.2,781.2 4176.7,781.2 4176.7,1008 	"/>
</g>
<g id="LWPOLYLINE_18_">
	<rect x="1799.5" y="1746.3" class="st0" width="141.7" height="8.5"/>
</g>
<g id="LWPOLYLINE_19_">
	<polygon class="st0" points="3219.1,1882.3 3210.6,1882.3 3210.6,1797.3 3219.1,1797.3 3219.1,1754.8 3445.9,1754.8 3445.9,1797.3 
		3454.4,1797.3 3454.4,1882.3 3445.9,1882.3 3445.9,1924.8 3219.1,1924.8 	"/>
</g>
<g id="LWPOLYLINE_20_">
	<rect x="1670.5" y="1797.3" class="st0" width="8.5" height="85"/>
</g>
<g id="LWPOLYLINE_21_">
	<rect x="1710.9" y="1924.8" class="st0" width="70.9" height="8.5"/>
</g>
<g id="LWPOLYLINE_22_">
	<polygon class="st0" points="4279.5,2642 4311.3,2642 4311.3,2415.3 4279.5,2415.3 4279.5,2406.8 4208.6,2406.8 4208.6,2415.3 
		4176.7,2415.3 4176.7,2642 4208.6,2642 4208.6,2650.5 4279.5,2650.5 	"/>
</g>
<g id="LWPOLYLINE_23_">
	<rect x="1813.6" y="1972.7" class="st0" width="8.5" height="56.7"/>
</g>
<g id="LWPOLYLINE_24_">
	<polygon class="st0" points="4450.2,2339.5 3964.4,2339.5 3782.1,2157.2 3782.1,1387.9 3964.4,1205.6 4450.2,1205.6 4632.5,1387.9 
		4632.5,1599 4349.1,1599 4349.1,1489.1 4065.6,1489.1 4065.6,2056 4349.1,2056 4349.1,1946.1 4207.3,1946.1 4207.3,1733.5 
		4632.5,1733.5 4632.5,2157.2 	"/>
</g>
<g id="LWPOLYLINE_25_">
	<polygon class="st0" points="4435.5,2304.1 3979.1,2304.1 3817.6,2142.5 3817.6,1402.6 3979.1,1241.1 4435.5,1241.1 4597.1,1402.6 
		4597.1,1563.6 4384.5,1563.6 4384.5,1453.7 4030.2,1453.7 4030.2,2091.5 4384.5,2091.5 4384.5,1910.7 4242.8,1910.7 4242.8,1768.9 
		4597.1,1768.9 4597.1,2142.5 	"/>
</g>
<g id="LWPOLYLINE_26_">
	<polygon class="st0" points="5844.8,2339.5 5359,2339.5 5176.7,2157.2 5176.7,1387.9 5359,1205.6 5844.8,1205.6 6027.1,1387.9 
		6027.1,1599 5743.6,1599 5743.6,1489.1 5460.1,1489.1 5460.1,2056 5743.6,2056 5743.6,1946.1 5601.9,1946.1 5601.9,1733.5 
		6027.1,1733.5 6027.1,2157.2 	"/>
</g>
<g id="LWPOLYLINE_27_">
	<rect x="5539.5" y="2316.8" class="st0" width="124.7" height="11.3"/>
</g>
<g id="LWPOLYLINE_28_">
	<rect x="5539.5" y="1217" class="st0" width="124.7" height="11.3"/>
</g>
<g id="LWPOLYLINE_29_">
	<rect x="4145" y="2316.8" class="st0" width="124.7" height="11.3"/>
</g>
<g id="LWPOLYLINE_30_">
	<rect x="4145" y="1217" class="st0" width="124.7" height="11.3"/>
</g>
<g id="LWPOLYLINE_31_">
	<polygon class="st0" points="4932.3,2308.9 4932.3,2268.1 4705.6,2268.1 4705.6,2308.9 4697.1,2308.9 4697.1,2365.6 4705.6,2365.6 
		4705.6,2406.4 4932.3,2406.4 4932.3,2365.6 4940.8,2365.6 4940.8,2308.9 	"/>
</g>
<g id="LWPOLYLINE_32_">
	<polygon class="st0" points="4468.7,2631.3 4468.7,2608.2 4695.4,2608.2 4695.4,2631.3 4703.9,2631.3 4703.9,2688 4695.4,2688 
		4695.4,2711 4468.7,2711 4468.7,2688 4460.2,2688 4460.2,2631.3 	"/>
</g>
<g id="LWPOLYLINE_34_">
	<rect x="1245.3" y="1489.1" class="st0" width="8.5" height="566.9"/>
</g>
<g id="LWPOLYLINE_35_">
	<rect x="1494.7" y="1560" class="st0" width="8.5" height="425.2"/>
</g>
<g id="LWPOLYLINE_36_">
	<rect x="2061.7" y="1430.6" class="st0" width="8.5" height="113.4"/>
</g>
<g id="LWPOLYLINE_37_">
	<rect x="1870.3" y="1577.8" class="st0" width="141.7" height="8.5"/>
</g>
<g id="LWPOLYLINE_38_">
	
		<rect x="1975.5" y="1209.6" transform="matrix(0.7071 -0.7071 0.7071 0.7071 -345.5905 1783.1895)" class="st0" width="8.5" height="198.4"/>
</g>
<g id="LWPOLYLINE_39_">
	<rect x="1812.2" y="1498" class="st0" width="8.5" height="56.7"/>
</g>
<g id="LWPOLYLINE_40_">
	<rect x="1572.7" y="1467.8" class="st0" width="170.1" height="8.5"/>
</g>
<g id="LWPOLYLINE_41_">
	<rect x="1572.7" y="2068.8" class="st0" width="170.1" height="8.5"/>
</g>
<g id="LWPOLYLINE_42_">
	
		<rect x="1331.4" y="2137.1" transform="matrix(0.7071 -0.7071 0.7071 0.7071 -1190.1044 1599.4104)" class="st0" width="8.5" height="198.4"/>
</g>
<g id="LWPOLYLINE_43_">
	
		<rect x="1880.5" y="2232.1" transform="matrix(0.7071 -0.7071 0.7071 0.7071 -1001.4856 2054.8562)" class="st0" width="198.4" height="8.5"/>
</g>
<g id="LWPOLYLINE_44_">
	
		<rect x="1236.5" y="1304.5" transform="matrix(0.7071 -0.7071 0.7071 0.7071 -534.2386 1327.8143)" class="st0" width="198.4" height="8.5"/>
</g>
<g id="LWPOLYLINE_45_">
	<rect x="4611.3" y="1894.9" class="st0" width="8.5" height="113.4"/>
</g>
<g id="LWPOLYLINE_46_">
	<rect x="4349.1" y="1746.3" class="st0" width="141.7" height="8.5"/>
</g>
<g id="LWPOLYLINE_47_">
	<rect x="4220.1" y="1797.3" class="st0" width="8.5" height="85"/>
</g>
<g id="LWPOLYLINE_48_">
	<rect x="4260.5" y="1924.8" class="st0" width="70.9" height="8.5"/>
</g>
<g id="LWPOLYLINE_49_">
	<rect x="4363.2" y="1972.7" class="st0" width="8.5" height="56.7"/>
</g>
<g id="LWPOLYLINE_50_">
	<rect x="3794.9" y="1489.1" class="st0" width="8.5" height="566.9"/>
</g>
<g id="LWPOLYLINE_51_">
	<rect x="4044.3" y="1560" class="st0" width="8.5" height="425.2"/>
</g>
<g id="LWPOLYLINE_52_">
	<rect x="4611.3" y="1430.6" class="st0" width="8.5" height="113.4"/>
</g>
<g id="LWPOLYLINE_53_">
	<rect x="4419.9" y="1577.8" class="st0" width="141.7" height="8.5"/>
</g>
<g id="LWPOLYLINE_54_">
	
		<rect x="4525" y="1209.6" transform="matrix(0.7071 -0.7071 0.7071 0.7071 401.1531 3586.0212)" class="st0" width="8.5" height="198.4"/>
</g>
<g id="LWPOLYLINE_55_">
	<rect x="4361.8" y="1498" class="st0" width="8.5" height="56.7"/>
</g>
<g id="LWPOLYLINE_56_">
	<rect x="4122.3" y="1467.8" class="st0" width="170.1" height="8.5"/>
</g>
<g id="LWPOLYLINE_57_">
	<rect x="4122.3" y="2068.8" class="st0" width="170.1" height="8.5"/>
</g>
<g id="LWPOLYLINE_58_">
	
		<rect x="3880.9" y="2137.1" transform="matrix(0.7071 -0.7071 0.7071 0.7071 -443.3607 3402.2422)" class="st0" width="8.5" height="198.4"/>
</g>
<g id="LWPOLYLINE_59_">
	
		<rect x="4430.1" y="2232.1" transform="matrix(0.7071 -0.7071 0.7071 0.7071 -254.742 3857.688)" class="st0" width="198.4" height="8.5"/>
</g>
<g id="LWPOLYLINE_60_">
	
		<rect x="3786.1" y="1304.6" transform="matrix(0.7071 -0.7071 0.7071 0.7071 212.5051 3130.6462)" class="st0" width="198.4" height="8.5"/>
</g>
<g id="LWPOLYLINE_61_">
	<path class="st0" d="M1703,874.2h-93.5c-5.5,0-9.9,4.4-9.9,9.9v31.2h-177.4v226.8h92.4v8.5h283.5v-8.5h92.4V915.3h-177.4v-31.2
		C1713,878.6,1708.5,874.2,1703,874.2z"/>
</g>
<g id="LWPOLYLINE_62_">
	<rect x="1627.9" y="885.5" class="st0" width="56.7" height="9.9"/>
</g>
</svg>
