<?xml version="1.0" encoding="utf-8"?>
<!-- Generator: Adobe Illustrator 22.0.0, SVG Export Plug-In . SVG Version: 6.00 Build 0)  -->
<svg version="1.1" id="_x30_" xmlns="http://www.w3.org/2000/svg" xmlns:xlink="http://www.w3.org/1999/xlink" x="0px" y="0px"
	 viewBox="0 0 3936 3496" style="enable-background:new 0 0 3936 3496;" xml:space="preserve">
<style type="text/css">
	.st0{fill:none;stroke:#000000;stroke-width:0.7087;stroke-linecap:round;stroke-linejoin:round;stroke-miterlimit:10;}
</style>
<g id="LWPOLYLINE">
	<rect x="1962.6" y="2272.8" class="st0" width="9.9" height="56.7"/>
</g>
<g id="LWPOLYLINE_1_">
	<path class="st0" d="M1716,2584.6v262.2h226.8v-489h31.2c5.5,0,9.9-4.4,9.9-9.9v-93.5c0-5.5-4.4-9.9-9.9-9.9h-31.2v-489H1716v262.2
		h-8.5v566.9L1716,2584.6z"/>
</g>
<g id="LWPOLYLINE_3_">
	<path class="st0" d="M2752.8,1358.6h-113.4c-15.7,0-28.3,12.7-28.3,28.3v340.2c0,15.7-12.7,28.3-28.3,28.3h-283.5
		c-15.7,0-28.3-12.7-28.3-28.3V650c0-15.7,12.7-28.3,28.3-28.3h283.5c15.7,0,28.3,12.7,28.3,28.3v340.2c0,15.7,12.7,28.3,28.3,28.3
		h113.4c15.7,0,28.3-12.7,28.3-28.3V650c0-15.7,12.7-28.3,28.3-28.3h283.5c15.7,0,28.3,12.7,28.3,28.3v1077.2
		c0,15.7-12.7,28.3-28.3,28.3h-283.5c-15.7,0-28.3-12.7-28.3-28.3V1387C2781.1,1371.3,2768.4,1358.6,2752.8,1358.6z"/>
</g>
<g id="LWPOLYLINE_4_">
	<rect x="2873.3" y="634.4" class="st0" width="155.9" height="8.5"/>
</g>
<g id="LWPOLYLINE_5_">
	<rect x="3100" y="905.1" class="st0" width="8.5" height="566.9"/>
</g>
<g id="LWPOLYLINE_6_">
	<rect x="2793.9" y="731.5" class="st0" width="8.5" height="212.6"/>
</g>
<g id="LWPOLYLINE_7_">
	<rect x="2639.4" y="1032.7" class="st0" width="113.4" height="8.5"/>
</g>
<g id="LWPOLYLINE_8_">
	<rect x="2873.3" y="1734.2" class="st0" width="155.9" height="8.5"/>
</g>
<g id="LWPOLYLINE_9_">
	<rect x="2793.9" y="1433.1" class="st0" width="8.5" height="212.6"/>
</g>
<g id="LWPOLYLINE_10_">
	<rect x="2639.4" y="1336" class="st0" width="113.4" height="8.5"/>
</g>
<g id="LWPOLYLINE_11_">
	<rect x="2363" y="634.4" class="st0" width="155.9" height="8.5"/>
</g>
<g id="LWPOLYLINE_12_">
	<rect x="2589.8" y="731.5" class="st0" width="8.5" height="212.6"/>
</g>
<g id="LWPOLYLINE_13_">
	<rect x="2363" y="1734.2" class="st0" width="155.9" height="8.5"/>
</g>
<g id="LWPOLYLINE_14_">
	<rect x="2589.8" y="1433.1" class="st0" width="8.5" height="212.6"/>
</g>
<g id="LWPOLYLINE_15_">
	<path class="st0" d="M2752.8,2492.5h-113.4c-15.7,0-28.3,12.7-28.3,28.3V2861c0,15.7-12.7,28.3-28.3,28.3h-283.5
		c-15.7,0-28.3-12.7-28.3-28.3V1783.8c0-15.7,12.7-28.3,28.3-28.3h283.5c15.7,0,28.3,12.7,28.3,28.3V2124
		c0,15.7,12.7,28.3,28.3,28.3h113.4c15.7,0,28.3-12.7,28.3-28.3v-340.2c0-15.7,12.7-28.3,28.3-28.3h283.5
		c15.7,0,28.3,12.7,28.3,28.3V2861c0,15.7-12.7,28.3-28.3,28.3h-283.5c-15.7,0-28.3-12.7-28.3-28.3v-340.1
		C2781.1,2505.2,2768.4,2492.5,2752.8,2492.5z"/>
</g>
<g id="LWPOLYLINE_16_">
	<rect x="3100" y="2262.9" class="st0" width="8.5" height="119.1"/>
</g>
<g id="LWPOLYLINE_17_">
	<rect x="2283.6" y="2262.9" class="st0" width="8.5" height="119.1"/>
</g>
<g id="LWPOLYLINE_18_">
	<path class="st0" d="M1902.4,1358.6H1789c-15.7,0-28.3,12.7-28.3,28.3v340.2c0,15.7-12.7,28.3-28.3,28.3h-283.6
		c-15.7,0-28.3-12.7-28.3-28.3V650c0-15.7,12.7-28.3,28.3-28.3h283.5c15.7,0,28.3,12.7,28.3,28.3v340.2c0,15.7,12.7,28.3,28.3,28.3
		h113.4c15.7,0,28.3-12.7,28.3-28.3V650c0-15.7,12.7-28.3,28.3-28.3h283.5c15.7,0,28.3,12.7,28.3,28.3v1077.2
		c0,15.7-12.7,28.3-28.3,28.3h-283.5c-15.7,0-28.3-12.7-28.3-28.3V1387C1930.7,1371.3,1918,1358.6,1902.4,1358.6z"/>
</g>
<g id="LWPOLYLINE_19_">
	<path class="st0" d="M1937.8,1323.2h-184.2c-15.7,0-28.3,12.7-28.3,28.3v340.2c0,15.7-12.7,28.3-28.3,28.3h-212.7
		c-15.7,0-28.3-12.7-28.3-28.3V685.4c0-15.7,12.7-28.3,28.3-28.3h212.6c15.7,0,28.3,12.7,28.3,28.3v340.2
		c0,15.7,12.7,28.3,28.3,28.3h184.3c15.7,0,28.3-12.7,28.3-28.3V685.4c0-15.7,12.7-28.3,28.3-28.3H2207c15.7,0,28.3,12.7,28.3,28.3
		v1006.3c0,15.7-12.7,28.3-28.3,28.3h-212.5c-15.7,0-28.3-12.7-28.3-28.3v-340.2C1966.2,1335.9,1953.5,1323.2,1937.8,1323.2z"/>
</g>
<g id="LWPOLYLINE_20_">
	<rect x="2022.9" y="634.4" class="st0" width="155.9" height="8.5"/>
</g>
<g id="LWPOLYLINE_21_">
	<rect x="1512.6" y="634.4" class="st0" width="155.9" height="8.5"/>
</g>
<g id="LWPOLYLINE_22_">
	<rect x="2249.6" y="1129" class="st0" width="8.5" height="119.1"/>
</g>
<g id="LWPOLYLINE_23_">
	<rect x="1433.3" y="1129" class="st0" width="8.5" height="119.1"/>
</g>
<g id="LWPOLYLINE_24_">
	<polygon class="st0" points="1466.7,2000 1466.7,2008.5 1622.6,2008.5 1622.6,2000 1700.6,2000 1700.6,1773.2 1622.6,1773.2 
		1622.6,1764.7 1466.7,1764.7 1466.7,1773.2 1388.7,1773.2 1388.7,2000 	"/>
</g>
<g id="LWPOLYLINE_25_">
	<polygon class="st0" points="1104.2,710.2 1095.7,710.2 1095.7,922.8 1104.2,922.8 1104.2,1011.4 1331,1011.4 1331,922.8 
		1339.5,922.8 1339.5,710.2 1331,710.2 1331,621.6 1104.2,621.6 	"/>
</g>
<g id="LWPOLYLINE_26_">
	<polygon class="st0" points="1175.1,2742.9 1175.1,2751.4 1288.5,2751.4 1288.5,2742.9 1338.1,2742.9 1338.1,2516.2 1288.5,2516.2 
		1288.5,2507.7 1175.1,2507.7 1175.1,2516.2 1125.5,2516.2 1125.5,2742.9 	"/>
</g>
<g id="LWPOLYLINE_27_">
	<polygon class="st0" points="1175.1,2461.1 1175.1,2469.6 1288.5,2469.6 1288.5,2461.1 1338.1,2461.1 1338.1,2234.3 1288.5,2234.3 
		1288.5,2225.8 1175.1,2225.8 1175.1,2234.3 1125.5,2234.3 1125.5,2461.1 	"/>
</g>
<g id="LWPOLYLINE_28_">
	<path class="st0" d="M863.4,1737.1V1723c0-31.3,25.4-56.7,56.7-56.7c31.3,0,56.7,25.4,56.7,56.7v56.7v70.9
		c0,7.8-6.3,14.2-14.2,14.2h-85c-7.8,0-14.2-6.3-14.2-14.2v-56.7c0-7.8,6.3-14.2,14.2-14.2h68c7.8,0,14.2-6.3,14.2-14.2V1723
		c0-21.9-17.8-39.7-39.7-39.7c-21.9,0-39.7,17.7-39.7,39.7v14.2c0,4.7-3.8,8.5-8.5,8.5C867.2,1745.7,863.4,1741.8,863.4,1737.1z"/>
</g>
<g id="LWPOLYLINE_29_">
	<path class="st0" d="M924.4,1817.8v10.2c0,2.3-1.9,4.3-4.3,4.3s-4.3-1.9-4.3-4.3v-10.2c-1.3-0.7-2.4-1.8-3.1-3.1
		c-2.3-4.1-1-9.3,3.1-11.6s9.3-1,11.6,3.1C929.7,1810.3,928.4,1815.5,924.4,1817.8z"/>
</g>
<g id="LWPOLYLINE_30_">
	<path class="st0" d="M673.3,1734.3v-14.2c0-31.3,25.4-56.7,56.7-56.7s56.7,25.4,56.7,56.7v56.7v70.9c0,7.8-6.3,14.2-14.2,14.2h-85
		c-7.8,0-14.2-6.3-14.2-14.2V1791c0-7.8,6.3-14.2,14.2-14.2h68c7.8,0,14.2-6.3,14.2-14.2v-42.5c0-21.9-17.8-39.7-39.7-39.7
		s-39.7,17.8-39.7,39.7v14.2c0,4.7-3.8,8.5-8.5,8.5S673.3,1739,673.3,1734.3z"/>
</g>
<g id="LWPOLYLINE_31_">
	<path class="st0" d="M734.3,1814.9v10.2c0,2.3-1.9,4.3-4.3,4.3s-4.3-1.9-4.3-4.3v-10.2c-1.3-0.7-2.4-1.8-3.1-3.1
		c-2.3-4.1-1-9.3,3.1-11.6c4.1-2.3,9.3-1,11.6,3.1C739.6,1807.4,738.3,1812.6,734.3,1814.9z"/>
</g>
<g id="LWPOLYLINE_32_">
	<rect x="2283.6" y="905.1" class="st0" width="8.5" height="566.9"/>
</g>
<g id="LWPOLYLINE_33_">
	<rect x="1943.5" y="731.5" class="st0" width="8.5" height="212.6"/>
</g>
<g id="LWPOLYLINE_34_">
	<rect x="1789" y="1032.7" class="st0" width="113.4" height="8.5"/>
</g>
<g id="LWPOLYLINE_35_">
	<rect x="2022.9" y="1734.2" class="st0" width="155.9" height="8.5"/>
</g>
<g id="LWPOLYLINE_36_">
	<rect x="1943.5" y="1433.1" class="st0" width="8.5" height="212.6"/>
</g>
<g id="LWPOLYLINE_37_">
	<rect x="1789" y="1336" class="st0" width="113.4" height="8.5"/>
</g>
<g id="LWPOLYLINE_38_">
	<rect x="1739.4" y="731.5" class="st0" width="8.5" height="212.6"/>
</g>
<g id="LWPOLYLINE_39_">
	<rect x="1512.6" y="1734.2" class="st0" width="155.9" height="8.5"/>
</g>
<g id="LWPOLYLINE_40_">
	<rect x="1739.4" y="1433.1" class="st0" width="8.5" height="212.6"/>
</g>
<g id="LWPOLYLINE_41_">
	<polygon class="st0" points="1104.2,1100 1095.7,1100 1095.7,1312.6 1104.2,1312.6 1104.2,1401.2 1331,1401.2 1331,1312.6 
		1339.5,1312.6 1339.5,1100 1331,1100 1331,1011.4 1104.2,1011.4 	"/>
</g>
<g id="LWPOLYLINE_42_">
	<polygon class="st0" points="1104.2,1489.8 1095.7,1489.8 1095.7,1702.4 1104.2,1702.4 1104.2,1790.9 1331,1790.9 1331,1702.4 
		1339.5,1702.4 1339.5,1489.8 1331,1489.8 1331,1401.2 1104.2,1401.2 	"/>
</g>
<g id="LWPOLYLINE_43_">
	<polygon class="st0" points="1104.2,1879.5 1095.7,1879.5 1095.7,2092.1 1104.2,2092.1 1104.2,2180.7 1331,2180.7 1331,2092.1 
		1339.5,2092.1 1339.5,1879.5 1331,1879.5 1331,1790.9 1104.2,1790.9 	"/>
</g>
<g id="LWPOLYLINE_44_">
	<polygon class="st0" points="1466.7,2243.8 1466.7,2252.3 1622.6,2252.3 1622.6,2243.8 1700.6,2243.8 1700.6,2017 1622.6,2017 
		1622.6,2008.5 1466.7,2008.5 1466.7,2017 1388.7,2017 1388.7,2243.8 	"/>
</g>
<g id="LWPOLYLINE_45_">
	<polygon class="st0" points="1466.7,2487.5 1466.7,2496.1 1622.6,2496.1 1622.6,2487.5 1700.6,2487.5 1700.6,2260.8 1622.6,2260.8 
		1622.6,2252.3 1466.7,2252.3 1466.7,2260.8 1388.7,2260.8 1388.7,2487.5 	"/>
</g>
<g id="LWPOLYLINE_46_">
	<polygon class="st0" points="1466.7,2731.3 1466.7,2739.8 1622.6,2739.8 1622.6,2731.3 1700.6,2731.3 1700.6,2504.6 1622.6,2504.6 
		1622.6,2496.1 1466.7,2496.1 1466.7,2504.6 1388.7,2504.6 1388.7,2731.3 	"/>
</g>
<g id="LWPOLYLINE_47_">
	<rect x="1995.2" y="2272.8" class="st0" width="9.9" height="56.7"/>
</g>
<g id="LWPOLYLINE_48_">
	<path class="st0" d="M2251.8,2584.6v262.2H2025v-489h-31.2c-5.5,0-9.9-4.4-9.9-9.9v-93.5c0-5.5,4.4-9.9,9.9-9.9h31.2v-489h226.8
		v262.2h8.5v566.9L2251.8,2584.6L2251.8,2584.6z"/>
</g>
</svg>
