<?xml version="1.0" encoding="utf-8"?>
<!-- Generator: Adobe Illustrator 22.0.0, SVG Export Plug-In . SVG Version: 6.00 Build 0)  -->
<svg version="1.1" id="_x30_" xmlns="http://www.w3.org/2000/svg" xmlns:xlink="http://www.w3.org/1999/xlink" x="0px" y="0px"
	 viewBox="0 0 4008 2316" style="enable-background:new 0 0 4008 2316;" xml:space="preserve">
<style type="text/css">
	.st0{fill:none;stroke:#000000;stroke-width:0.7087;stroke-linecap:round;stroke-linejoin:round;stroke-miterlimit:10;}
</style>
<g id="LWPOLYLINE">
	<polygon class="st0" points="1280.4,1443.4 1280.4,876.4 1422.1,876.4 1422.1,593 855.2,593 855.2,876.4 996.9,876.4 996.9,1443.4 
		855.2,1443.4 855.2,1726.8 1422.1,1726.8 1422.1,1443.4 	"/>
</g>
<g id="LWPOLYLINE_1_">
	<path class="st0" d="M1067.5,2043.4v-32.6H862V1784h134.6v-8.5h255.1v8.5h134.6v226.8h-205.5v32.6c0,5.5-4.4,9.9-9.9,9.9h-93.5
		C1071.9,2053.4,1067.5,2048.9,1067.5,2043.4z"/>
</g>
<g id="LWPOLYLINE_2_">
	<rect x="1259.1" y="1004" class="st0" width="8.5" height="311.8"/>
</g>
<g id="LWPOLYLINE_3_">
	<rect x="1095.8" y="2032.1" class="st0" width="56.7" height="9.9"/>
</g>
<g id="LWPOLYLINE_4_">
	<path class="st0" d="M1067.5,276.4V309H862v226.8h134.6v8.5h255.1v-8.5h134.6V309h-205.5v-32.6c0-5.5-4.4-9.9-9.9-9.9h-93.5
		C1071.9,266.5,1067.5,270.9,1067.5,276.4z"/>
</g>
<g id="LWPOLYLINE_5_">
	<rect x="1095.8" y="277.8" class="st0" width="56.7" height="9.9"/>
</g>
<g id="LWPOLYLINE_6_">
	<rect x="1011.1" y="605.7" class="st0" width="255.1" height="8.5"/>
</g>
<g id="LWPOLYLINE_7_">
	<polygon class="st0" points="701.6,1641.8 710.1,1641.8 710.1,1528.4 701.6,1528.4 701.6,1464.6 474.8,1464.6 474.8,1528.4 
		466.3,1528.4 466.3,1641.8 474.8,1641.8 474.8,1705.6 701.6,1705.6 	"/>
</g>
<g id="LWPOLYLINE_8_">
	<polygon class="st0" points="838.4,1418 806.5,1418 806.5,1191.2 838.4,1191.2 838.4,1182.7 909.3,1182.7 909.3,1191.2 
		941.1,1191.2 941.1,1418 909.3,1418 909.3,1426.5 838.4,1426.5 	"/>
</g>
<g id="LWPOLYLINE_9_">
	<polygon class="st0" points="598,1315.8 598,1457.5 371.3,1457.5 371.3,1315.8 362.8,1315.8 362.8,1004 371.3,1004 371.3,862.3 
		598,862.3 598,1004 606.5,1004 606.5,1315.8 	"/>
</g>
<g id="LWPOLYLINE_10_">
	<rect x="1400.8" y="678" class="st0" width="8.5" height="113.4"/>
</g>
<g id="LWPOLYLINE_11_">
	<rect x="1298.1" y="855.2" class="st0" width="70.9" height="8.5"/>
</g>
<g id="LWPOLYLINE_12_">
	<polygon class="st0" points="701.6,678 710.1,678 710.1,791.4 701.6,791.4 701.6,855.2 474.8,855.2 474.8,791.4 466.3,791.4 
		466.3,678 474.8,678 474.8,614.2 701.6,614.2 	"/>
</g>
<g id="LWPOLYLINE_13_">
	<polygon class="st0" points="838.4,901.8 806.5,901.8 806.5,1128.6 838.4,1128.6 838.4,1137.1 909.3,1137.1 909.3,1128.6 
		941.1,1128.6 941.1,901.8 909.3,901.8 909.3,893.3 838.4,893.3 	"/>
</g>
<g id="LWPOLYLINE_14_">
	<polygon class="st0" points="2508.2,1443.4 2508.2,876.4 2649.9,876.4 2649.9,593 2083,593 2083,876.4 2224.7,876.4 2224.7,1443.4 
		2083,1443.4 2083,1726.8 2649.9,1726.8 2649.9,1443.4 	"/>
</g>
<g id="LWPOLYLINE_15_">
	<polygon class="st0" points="2472.8,1478.8 2472.8,841 2614.5,841 2614.5,628.4 2118.4,628.4 2118.4,841 2260.2,841 2260.2,1478.8 
		2118.4,1478.8 2118.4,1691.4 2614.5,1691.4 2614.5,1478.8 	"/>
</g>
<g id="LWPOLYLINE_16_">
	<rect x="2306.9" y="605.7" class="st0" width="119.1" height="8.5"/>
</g>
<g id="LWPOLYLINE_17_">
	<rect x="2306.9" y="1705.6" class="st0" width="119.1" height="8.5"/>
</g>
<g id="LWPOLYLINE_18_">
	<polygon class="st0" points="3441.6,1443.4 3441.6,876.4 3583.3,876.4 3583.3,593 3016.4,593 3016.4,876.4 3158.1,876.4 
		3158.1,1443.4 3016.4,1443.4 3016.4,1726.8 3583.3,1726.8 3583.3,1443.4 	"/>
</g>
<g id="LWPOLYLINE_20_">
	<rect x="867.9" y="678" class="st0" width="8.5" height="113.4"/>
</g>
<g id="LWPOLYLINE_21_">
	<rect x="908.3" y="855.2" class="st0" width="70.9" height="8.5"/>
</g>
<g id="LWPOLYLINE_22_">
	<rect x="1009.6" y="1004" class="st0" width="8.5" height="311.8"/>
</g>
<g id="LWPOLYLINE_23_">
	<rect x="1011.1" y="1705.6" class="st0" width="255.1" height="8.5"/>
</g>
<g id="LWPOLYLINE_24_">
	<rect x="1400.8" y="1528.4" class="st0" width="8.5" height="113.4"/>
</g>
<g id="LWPOLYLINE_25_">
	<rect x="1298.1" y="1456.1" class="st0" width="70.9" height="8.5"/>
</g>
<g id="LWPOLYLINE_26_">
	<rect x="867.9" y="1528.4" class="st0" width="8.5" height="113.4"/>
</g>
<g id="LWPOLYLINE_27_">
	<rect x="908.3" y="1456.1" class="st0" width="70.9" height="8.5"/>
</g>
<g id="LWPOLYLINE_28_">
	<rect x="2486.9" y="1004" class="st0" width="8.5" height="311.8"/>
</g>
<g id="LWPOLYLINE_29_">
	<rect x="2628.7" y="678" class="st0" width="8.5" height="113.4"/>
</g>
<g id="LWPOLYLINE_30_">
	<rect x="2525.9" y="855.2" class="st0" width="70.9" height="8.5"/>
</g>
<g id="LWPOLYLINE_31_">
	<rect x="2095.8" y="678" class="st0" width="8.5" height="113.4"/>
</g>
<g id="LWPOLYLINE_32_">
	<rect x="2136.2" y="855.2" class="st0" width="70.9" height="8.5"/>
</g>
<g id="LWPOLYLINE_33_">
	<rect x="2237.5" y="1004" class="st0" width="8.5" height="311.8"/>
</g>
<g id="LWPOLYLINE_34_">
	<rect x="2628.7" y="1528.4" class="st0" width="8.5" height="113.4"/>
</g>
<g id="LWPOLYLINE_35_">
	<rect x="2525.9" y="1456.1" class="st0" width="70.9" height="8.5"/>
</g>
<g id="LWPOLYLINE_36_">
	<rect x="2095.8" y="1528.4" class="st0" width="8.5" height="113.4"/>
</g>
<g id="LWPOLYLINE_37_">
	<rect x="2136.2" y="1456.1" class="st0" width="70.9" height="8.5"/>
</g>
<g id="LWPOLYLINE_38_">
	<rect x="3240.3" y="605.7" class="st0" width="119.1" height="8.5"/>
</g>
<g id="LWPOLYLINE_39_">
	<rect x="3240.3" y="1705.6" class="st0" width="119.1" height="8.5"/>
</g>
<g id="LWPOLYLINE_40_">
	<polygon class="st0" points="1575.7,1641.8 1567.2,1641.8 1567.2,1528.4 1575.7,1528.4 1575.7,1464.6 1802.5,1464.6 1802.5,1528.4 
		1811,1528.4 1811,1641.8 1802.5,1641.8 1802.5,1705.6 1575.7,1705.6 	"/>
</g>
<g id="LWPOLYLINE_41_">
	<polygon class="st0" points="1438.9,1418 1470.7,1418 1470.7,1191.2 1438.9,1191.2 1438.9,1182.7 1368,1182.7 1368,1191.2 
		1336.1,1191.2 1336.1,1418 1368,1418 1368,1426.5 1438.9,1426.5 	"/>
</g>
<g id="LWPOLYLINE_42_">
	<polygon class="st0" points="1679.2,1315.8 1679.2,1457.5 1906,1457.5 1906,1315.8 1914.5,1315.8 1914.5,1004 1906,1004 
		1906,862.3 1679.2,862.3 1679.2,1004 1670.7,1004 1670.7,1315.8 	"/>
</g>
<g id="LWPOLYLINE_43_">
	<polygon class="st0" points="1575.7,678 1567.2,678 1567.2,791.4 1575.7,791.4 1575.7,855.2 1802.5,855.2 1802.5,791.4 1811,791.4 
		1811,678 1802.5,678 1802.5,614.2 1575.7,614.2 	"/>
</g>
<g id="LWPOLYLINE_44_">
	<polygon class="st0" points="1438.9,901.8 1470.7,901.8 1470.7,1128.6 1438.9,1128.6 1438.9,1137.1 1368,1137.1 1368,1128.6 
		1336.1,1128.6 1336.1,901.8 1368,901.8 1368,893.3 1438.9,893.3 	"/>
</g>
</svg>
