<?xml version="1.0" encoding="utf-8"?>
<!-- Generator: Adobe Illustrator 22.0.0, SVG Export Plug-In . SVG Version: 6.00 Build 0)  -->
<svg version="1.1" id="_x30_" xmlns="http://www.w3.org/2000/svg" xmlns:xlink="http://www.w3.org/1999/xlink" x="0px" y="0px"
	 viewBox="0 0 5537 2881.5" style="enable-background:new 0 0 5537 2881.5;" xml:space="preserve">
<style type="text/css">
	.st0{fill:none;stroke:#000000;stroke-width:0.7087;stroke-linecap:round;stroke-linejoin:round;stroke-miterlimit:10;}
</style>
<g id="LWPOLYLINE">
	<polygon class="st0" points="1531.7,1966.4 1956.9,1966.4 2098.6,1824.7 2098.6,1116 2240.3,1116 2240.3,832.6 1673.4,832.6 
		1673.4,1116 1815.1,1116 1815.1,1682.9 1673.4,1682.9 1673.4,1541.2 1389.9,1541.2 1389.9,1824.7 	"/>
</g>
<g id="LWPOLYLINE_1_">
	<rect x="1928.5" y="521" class="st0" width="56.7" height="9.9"/>
</g>
<g id="LWPOLYLINE_2_">
	<polygon class="st0" points="1374.6,917.6 1366.1,917.6 1366.1,1031 1374.6,1031 1374.6,1094.8 1601.4,1094.8 1601.4,1031 
		1609.9,1031 1609.9,917.6 1601.4,917.6 1601.4,853.8 1374.6,853.8 	"/>
</g>
<g id="LWPOLYLINE_3_">
	<polygon class="st0" points="2627.2,899.8 2635.7,899.8 2635.7,1013.2 2627.2,1013.2 2627.2,1077 2400.5,1077 2400.5,1013.2 
		2392,1013.2 2392,899.8 2400.5,899.8 2400.5,836 2627.2,836 	"/>
</g>
<g id="LWPOLYLINE_4_">
	<polygon class="st0" points="1588.3,1239.7 1588.3,1231.2 1475,1231.2 1475,1239.7 1411.2,1239.7 1411.2,1466.5 1475,1466.5 
		1475,1475 1588.3,1475 1588.3,1466.5 1652.1,1466.5 1652.1,1239.7 	"/>
</g>
<g id="LWPOLYLINE_5_">
	<rect x="1475" y="1554" class="st0" width="113.4" height="8.5"/>
</g>
<g id="LWPOLYLINE_6_">
	<polygon class="st0" points="1049.7,1618.3 1041.2,1618.3 1041.2,1760 1049.7,1760 1049.7,1815.9 1276.5,1815.9 1276.5,1760 
		1285,1760 1285,1618.3 1276.5,1618.3 1276.5,1562.5 1049.7,1562.5 	"/>
</g>
<g id="LWPOLYLINE_7_">
	<rect x="1402.7" y="1618.3" class="st0" width="8.5" height="141.7"/>
</g>
<g id="LWPOLYLINE_8_">
	<polygon class="st0" points="1093.3,2015.5 1093.3,2057.3 1320,2057.3 1320,2015.5 1328.5,2015.5 1328.5,1916.3 1320,1916.3 
		1320,1874.5 1093.3,1874.5 1093.3,1916.3 1084.8,1916.3 1084.8,2015.5 	"/>
</g>
<g id="LWPOLYLINE_9_">
	<polygon class="st0" points="2395.2,2015.5 2395.2,2057.3 2168.5,2057.3 2168.5,2015.5 2160,2015.5 2160,1916.3 2168.5,1916.3 
		2168.5,1874.5 2395.2,1874.5 2395.2,1916.3 2403.8,1916.3 2403.8,2015.5 	"/>
</g>
<g id="LWPOLYLINE_10_">
	
		<rect x="1966.1" y="1879.3" transform="matrix(0.7071 -0.7071 0.7071 0.7071 -741.4915 1976.9922)" class="st0" width="99.2" height="8.5"/>
</g>
<g id="LWPOLYLINE_11_">
	<polyline class="st0" points="1701.4,1357.6 1669.5,1357.6 1669.5,1130.8 1701.4,1130.8 1701.4,1122.3 1772.2,1122.3 
		1772.2,1130.8 1804.1,1130.8 1804.1,1357.6 1772.2,1357.6 	"/>
</g>
<g id="LWPOLYLINE_12_">
	<polyline class="st0" points="1701.4,1357.6 1701.4,1366.1 1772.2,1366.1 1772.2,1357.6 	"/>
</g>
<g id="LWPOLYLINE_13_">
	<polyline class="st0" points="2212.3,1388.7 2244.2,1388.7 2244.2,1161.9 2212.3,1161.9 2212.3,1153.4 2141.5,1153.4 
		2141.5,1161.9 2109.6,1161.9 2109.6,1388.7 2141.5,1388.7 	"/>
</g>
<g id="LWPOLYLINE_14_">
	<polyline class="st0" points="2212.3,1388.7 2212.3,1397.2 2141.5,1397.2 2141.5,1388.7 	"/>
</g>
<g id="LWPOLYLINE_15_">
	<polygon class="st0" points="793.7,1250.7 785.2,1250.7 785.2,1548.3 793.7,1548.3 793.7,1697.1 1020.5,1697.1 1020.5,1548.3 
		1029,1548.3 1029,1250.7 1020.5,1250.7 1020.5,1101.8 793.7,1101.8 	"/>
</g>
<g id="LWPOLYLINE_16_">
	<rect x="1827.9" y="1250.7" class="st0" width="8.5" height="297.6"/>
</g>
<g id="LWPOLYLINE_17_">
	<rect x="1652.1" y="1590.8" class="st0" width="8.5" height="70.9"/>
</g>
<g id="LWPOLYLINE_18_">
	<rect x="1701.7" y="1695.7" class="st0" width="85" height="8.5"/>
</g>
<g id="LWPOLYLINE_19_">
	<polygon class="st0" points="1260.4,2423.2 1260.4,2431.7 1175.4,2431.7 1175.4,2423.2 1132.8,2423.2 1132.8,2196.4 1175.4,2196.4 
		1175.4,2187.9 1260.4,2187.9 1260.4,2196.4 1302.9,2196.4 1302.9,2423.2 	"/>
</g>
<g id="LWPOLYLINE_20_">
	<path class="st0" d="M1687.6,2311.3v-32.6h-147.1v-226.8h104.6v-8.5h198.4v8.5h104.6v226.8H1801v32.6c0,5.5-4.4,9.9-9.9,9.9h-93.5
		C1692,2321.2,1687.6,2316.8,1687.6,2311.3z"/>
</g>
<g id="LWPOLYLINE_21_">
	<rect x="1645" y="1945.2" class="st0" width="198.4" height="8.5"/>
</g>
<g id="LWPOLYLINE_22_">
	<rect x="1715.9" y="2300" class="st0" width="56.7" height="9.9"/>
</g>
<g id="LWPOLYLINE_23_">
	<polygon class="st0" points="2688.4,1636 2696.9,1636 2696.9,1281.7 2688.4,1281.7 2688.4,1101.8 2461.6,1101.8 2461.6,1281.7 
		2453.1,1281.7 2453.1,1636 2461.6,1636 2461.6,1815.9 2688.4,1815.9 	"/>
</g>
<g id="LWPOLYLINE_24_">
	<rect x="2077.3" y="1281.7" class="st0" width="8.5" height="354.3"/>
</g>
<g id="LWPOLYLINE_25_">
	<path class="st0" d="M1910.1,509.6c-5.5,0-9.9,4.4-9.9,9.9v32.6h-205.5v226.8h134.6v8.5h255.1v-8.5H2219V552.1h-205.5v-32.6
		c0-5.5-4.4-9.9-9.9-9.9H1910.1z"/>
</g>
<g id="LWPOLYLINE_26_">
	<polygon class="st0" points="3266,1966.4 3691.2,1966.4 3832.9,1824.7 3832.9,1116 3974.7,1116 3974.7,832.6 3407.7,832.6 
		3407.7,1116 3549.5,1116 3549.5,1682.9 3407.7,1682.9 3407.7,1541.2 3124.3,1541.2 3124.3,1824.7 	"/>
</g>
<g id="LWPOLYLINE_27_">
	<polygon class="st0" points="3280.7,1931 3676.5,1931 3797.5,1810 3797.5,1080.6 3939.2,1080.6 3939.2,868 3443.2,868 
		3443.2,1080.6 3584.9,1080.6 3584.9,1718.4 3372.3,1718.4 3372.3,1576.7 3159.7,1576.7 3159.7,1810 	"/>
</g>
<g id="LWPOLYLINE_28_">
	<rect x="4551.2" y="843.9" class="st0" width="119.1" height="11.3"/>
</g>
<g id="LWPOLYLINE_29_">
	<rect x="3631.7" y="845.3" class="st0" width="119.1" height="8.5"/>
</g>
<g id="LWPOLYLINE_30_">
	<rect x="3419.1" y="1945.2" class="st0" width="119.1" height="8.5"/>
</g>
<g id="LWPOLYLINE_31_">
	<polygon class="st0" points="4185.5,1966.4 4610.7,1966.4 4752.4,1824.7 4752.4,1116 4894.2,1116 4894.2,832.6 4327.2,832.6 
		4327.2,1116 4469,1116 4469,1682.9 4327.2,1682.9 4327.2,1541.2 4043.8,1541.2 4043.8,1824.7 	"/>
</g>
<g id="LWPOLYLINE_32_">
	<rect x="4338.6" y="1943.7" class="st0" width="119.1" height="11.3"/>
</g>
<g id="LWPOLYLINE_34_">
	<polyline class="st0" points="1709.3,1376.8 1677.4,1376.8 1677.4,1603.6 1709.3,1603.6 1709.3,1612.1 1780.2,1612.1 
		1780.2,1603.6 1812.1,1603.6 1812.1,1376.8 1780.2,1376.8 	"/>
</g>
<g id="LWPOLYLINE_35_">
	<polyline class="st0" points="1709.3,1376.8 1709.3,1368.3 1780.2,1368.3 1780.2,1376.8 	"/>
</g>
<g id="LWPOLYLINE_36_">
	<rect x="1829.3" y="845.3" class="st0" width="255.1" height="8.5"/>
</g>
<g id="LWPOLYLINE_37_">
	<rect x="2219.1" y="917.6" class="st0" width="8.5" height="113.4"/>
</g>
<g id="LWPOLYLINE_38_">
	<rect x="2116.3" y="1094.8" class="st0" width="70.9" height="8.5"/>
</g>
<g id="LWPOLYLINE_39_">
	<rect x="1686.1" y="917.6" class="st0" width="8.5" height="113.4"/>
</g>
<g id="LWPOLYLINE_40_">
	<rect x="1726.5" y="1094.8" class="st0" width="70.9" height="8.5"/>
</g>
<g id="LWPOLYLINE_41_">
	
		<rect x="1468.6" y="1833.9" transform="matrix(0.7071 -0.7071 0.7071 0.7071 -900.4593 1593.0946)" class="st0" width="8.5" height="99.2"/>
</g>
<g id="LWPOLYLINE_42_">
	<rect x="3209.3" y="1554" class="st0" width="113.4" height="8.5"/>
</g>
<g id="LWPOLYLINE_43_">
	<rect x="3137" y="1618.3" class="st0" width="8.5" height="141.7"/>
</g>
<g id="LWPOLYLINE_44_">
	
		<rect x="3700.4" y="1879.4" transform="matrix(0.7071 -0.7071 0.7071 0.7071 -233.5624 3203.3464)" class="st0" width="99.2" height="8.5"/>
</g>
<g id="LWPOLYLINE_45_">
	<rect x="3562.2" y="1250.7" class="st0" width="8.5" height="297.6"/>
</g>
<g id="LWPOLYLINE_46_">
	<rect x="3386.5" y="1590.8" class="st0" width="8.5" height="70.9"/>
</g>
<g id="LWPOLYLINE_47_">
	<rect x="3436.1" y="1695.7" class="st0" width="85" height="8.5"/>
</g>
<g id="LWPOLYLINE_48_">
	<rect x="3811.7" y="1281.7" class="st0" width="8.5" height="354.3"/>
</g>
<g id="LWPOLYLINE_49_">
	<rect x="3953.4" y="917.6" class="st0" width="8.5" height="113.4"/>
</g>
<g id="LWPOLYLINE_50_">
	<rect x="3850.7" y="1094.8" class="st0" width="70.9" height="8.5"/>
</g>
<g id="LWPOLYLINE_51_">
	<rect x="3420.5" y="917.6" class="st0" width="8.5" height="113.4"/>
</g>
<g id="LWPOLYLINE_52_">
	<rect x="3460.9" y="1094.8" class="st0" width="70.9" height="8.5"/>
</g>
<g id="LWPOLYLINE_53_">
	
		<rect x="3202.9" y="1834" transform="matrix(0.7071 -0.7071 0.7071 0.7071 -392.5303 2819.4487)" class="st0" width="8.5" height="99.2"/>
</g>
</svg>
