<?xml version="1.0" encoding="utf-8"?>
<!-- Generator: Adobe Illustrator 22.0.0, SVG Export Plug-In . SVG Version: 6.00 Build 0)  -->
<svg version="1.1" id="Layer_1" xmlns="http://www.w3.org/2000/svg" xmlns:xlink="http://www.w3.org/1999/xlink" x="0px" y="0px"
	 viewBox="0 0 3725.4 3505.3" style="enable-background:new 0 0 3725.4 3505.3;" xml:space="preserve">
<style type="text/css">
	.st0{fill:none;stroke:#000000;stroke-width:0.7087;stroke-linecap:round;stroke-linejoin:round;stroke-miterlimit:10;}
	.st1{fill:none;}
</style>
<g id="_x30_">
	<g id="LWPOLYLINE_2_">
		<rect x="2054" y="1702.5" class="st0" width="119.1" height="9.9"/>
	</g>
	<g id="LWPOLYLINE_5_">
		<rect x="2550.2" y="1738" class="st0" width="141.7" height="8.5"/>
	</g>
	<g id="LWPOLYLINE_6_">
		
			<rect x="2480.9" y="1978.5" transform="matrix(0.5556 -0.8315 0.8315 0.5556 -483.055 3061.855)" class="st0" width="283.5" height="8.5"/>
	</g>
	<g id="LWPOLYLINE_7_">
		
			<rect x="2622.7" y="2350.5" transform="matrix(0.8864 -0.4629 0.4629 0.8864 -871.6779 1503.1294)" class="st0" width="8.5" height="354.3"/>
	</g>
	<g id="LWPOLYLINE_8_">
		<rect x="2560.5" y="2837.8" class="st0" width="155.9" height="8.5"/>
	</g>
	<g id="LWPOLYLINE_9_">
		
			<rect x="2383.7" y="2518.9" transform="matrix(0.8988 -0.4383 0.4383 0.8988 -912.1775 1312.984)" class="st0" width="8.5" height="226.8"/>
	</g>
	<g id="LWPOLYLINE_10_">
		
			<rect x="2232" y="2449" transform="matrix(0.5748 -0.8183 0.8183 0.5748 -1046.3438 2892.7356)" class="st0" width="56.7" height="8.5"/>
	</g>
	<g id="LWPOLYLINE_11_">
		<rect x="2236.2" y="2576.3" class="st0" width="8.5" height="170.1"/>
	</g>
	<g id="LWPOLYLINE_12_">
		<rect x="2056.8" y="1738" class="st0" width="113.4" height="8.5"/>
	</g>
	<g id="LWPOLYLINE_13_">
		<rect x="2056.8" y="2837.8" class="st0" width="113.4" height="8.5"/>
	</g>
	<g id="LWPOLYLINE_14_">
		<rect x="1982.3" y="2008.7" class="st0" width="8.5" height="566.9"/>
	</g>
	<g id="LWPOLYLINE_15_">
		<rect x="2236.2" y="1837.4" class="st0" width="8.5" height="184.3"/>
	</g>
	<g id="LWPOLYLINE_16_">
		<polygon class="st0" points="2411.8,1839.7 2304.2,2023 2296.8,2018.7 2404.5,1835.4 		"/>
	</g>
	<g id="LWPOLYLINE_18_">
		<rect x="1207.2" y="604.1" class="st0" width="113.4" height="8.5"/>
	</g>
	<g id="LWPOLYLINE_19_">
		<rect x="1207.2" y="1703.9" class="st0" width="113.4" height="8.5"/>
	</g>
	<g id="LWPOLYLINE_20_">
		<polygon class="st0" points="1722.2,2554.3 1722.2,2816.5 1948.9,2816.5 1948.9,2554.3 1957.4,2554.3 1957.4,1987.4 
			1948.9,1987.4 1948.9,1725.2 1722.2,1725.2 1722.2,1987.4 1713.7,1987.4 1713.7,2554.3 		"/>
	</g>
	<g id="LWPOLYLINE_21_">
		<polygon class="st0" points="1687.7,2249.9 1696.2,2249.9 1696.2,1895.5 1687.7,1895.5 1687.7,1725.2 1460.9,1725.2 
			1460.9,1895.5 1452.4,1895.5 1452.4,2249.9 1460.9,2249.9 1460.9,2420.2 1687.7,2420.2 		"/>
	</g>
	<g id="LWPOLYLINE_22_">
		<polygon class="st0" points="1429.9,2152.5 1438.4,2152.5 1438.4,1869.1 1429.9,1869.1 1429.9,1729.3 1203.1,1729.3 
			1203.1,1869.1 1194.6,1869.1 1194.6,2152.5 1203.1,2152.5 1203.1,2292.3 1429.9,2292.3 		"/>
	</g>
	<g id="LWPOLYLINE_23_">
		<polygon class="st0" points="1165.8,1792.8 1165.8,1725.2 939,1725.2 939,1792.8 930.5,1792.8 930.5,1948.7 939,1948.7 
			939,2016.3 1165.8,2016.3 1165.8,1948.7 1174.3,1948.7 1174.3,1792.8 		"/>
	</g>
	<g id="LWPOLYLINE_24_">
		<polygon class="st0" points="1196.8,2636.2 1196.8,2753.4 1423.6,2753.4 1423.6,2636.2 1432.1,2636.2 1432.1,2409.5 
			1423.6,2409.5 1423.6,2292.3 1196.8,2292.3 1196.8,2409.5 1188.3,2409.5 1188.3,2636.2 		"/>
	</g>
	<g id="LWPOLYLINE_25_">
		<polygon class="st0" points="1432.8,1701.8 1425.4,1701.8 1425.4,1475 1432.8,1475 1432.8,1466.5 1489.5,1466.5 1489.5,1475 
			1496.9,1475 1496.9,1701.8 1489.5,1701.8 1489.5,1710.3 1432.8,1710.3 		"/>
	</g>
	<g id="LWPOLYLINE_26_">
		<polygon class="st0" points="1165.8,2107.7 1165.8,2016.3 939,2016.3 939,2107.7 930.5,2107.7 930.5,2277.8 939,2277.8 
			939,2369.2 1165.8,2369.2 1165.8,2277.8 1174.3,2277.8 1174.3,2107.7 		"/>
	</g>
	<g id="LWPOLYLINE_27_">
		<path class="st0" d="M1894.4,955.9v32.6h66v226.8h-66v8.5H1781v-8.5h-66V988.5h66v-32.6c0-5.5,4.4-9.9,9.9-9.9h93.5
			C1890,946,1894.4,950.4,1894.4,955.9z"/>
	</g>
	<g id="LWPOLYLINE_28_">
		<path class="st0" d="M2278.7,1621.9v-14.2c0-31.3,25.4-56.7,56.7-56.7c31.3,0,56.7,25.4,56.7,56.7v56.7v70.9
			c0,7.8-6.3,14.2-14.2,14.2h-85c-7.8,0-14.2-6.3-14.2-14.2v-56.7c0-7.8,6.3-14.2,14.2-14.2h68c7.8,0,14.2-6.3,14.2-14.2v-42.5
			c0-21.9-17.8-39.7-39.7-39.7c-22,0-39.7,17.8-39.7,39.7v14.2c0,4.7-3.8,8.5-8.5,8.5S2278.7,1626.6,2278.7,1621.9z"/>
	</g>
	<g id="LWPOLYLINE_29_">
		<path class="st0" d="M2339.6,1702.6v10.1c0,2.3-1.9,4.3-4.3,4.3c-2.3,0-4.3-1.9-4.3-4.3v-10.1c-1.3-0.7-2.4-1.8-3.1-3.1
			c-2.3-4.1-1-9.3,3.1-11.6c4.1-2.3,9.3-1,11.6,3.1C2345.1,1695,2343.7,1700.2,2339.6,1702.6z"/>
	</g>
	<g id="LWPOLYLINE_30_">
		<rect x="1809.4" y="957.3" class="st0" width="56.7" height="9.9"/>
	</g>
	<g id="LWPOLYLINE_31_">
		<polygon class="st0" points="939,2644.4 939,2735.4 1165.8,2735.4 1165.8,2644.4 1174.3,2644.4 1174.3,2460.1 1165.8,2460.1 
			1165.8,2369.2 939,2369.2 939,2460.1 930.5,2460.1 930.5,2644.4 		"/>
	</g>
	<g id="LWPOLYLINE_32_">
		<polygon class="st0" points="1460.9,2528.3 1452.4,2528.3 1452.4,2740.9 1460.9,2740.9 1460.9,2849 1687.7,2849 1687.7,2740.9 
			1696.2,2740.9 1696.2,2528.3 1687.7,2528.3 1687.7,2420.2 1460.9,2420.2 		"/>
	</g>
	<g id="LWPOLYLINE_33_">
		<path class="st0" d="M2741.8,2086.5v32.6h66v226.8h-66v8.5h-113.4v-8.5h-66v-226.8h66v-32.6c0-5.5,4.4-9.9,9.9-9.9h93.5
			C2737.3,2076.5,2741.8,2081,2741.8,2086.5z"/>
	</g>
	<g id="LWPOLYLINE_34_">
		<rect x="2656.7" y="2087.9" class="st0" width="56.7" height="9.9"/>
	</g>
	<g id="LWPOLYLINE_35_">
		<polygon class="st0" points="2809.8,1174.5 2818.3,1174.5 2818.3,1032.8 2809.8,1032.8 2809.8,949.2 2583,949.2 2583,1032.8 
			2574.5,1032.8 2574.5,1174.5 2583,1174.5 2583,1258.1 2809.8,1258.1 		"/>
	</g>
	<g id="LWPOLYLINE_36_">
		<path class="st0" d="M1836.4,1316.8v-14.2c0-31.3,25.4-56.7,56.7-56.7c31.3,0,56.7,25.4,56.7,56.7v56.7v70.9
			c0,7.8-6.3,14.2-14.2,14.2h-85c-7.8,0-14.2-6.3-14.2-14.2v-56.7c0-7.8,6.3-14.2,14.2-14.2h68c7.8,0,14.2-6.3,14.2-14.2v-42.5
			c0-21.9-17.8-39.7-39.7-39.7s-39.7,17.8-39.7,39.7v14.2c0,4.7-3.8,8.5-8.5,8.5C1840.2,1325.3,1836.4,1321.5,1836.4,1316.8z"/>
	</g>
	<g id="LWPOLYLINE_37_">
		<path class="st0" d="M1897.3,1397.5v10.2c0,2.3-1.9,4.3-4.3,4.3s-4.3-1.9-4.3-4.3v-10.2c-1.3-0.7-2.4-1.8-3.1-3.1
			c-2.3-4.1-1-9.3,3.1-11.6c4.1-2.3,9.3-1,11.6,3.1S1901.4,1395.1,1897.3,1397.5z"/>
	</g>
	<g id="LWPOLYLINE_38_">
		<rect x="1700.6" y="604.1" class="st0" width="141.7" height="8.5"/>
	</g>
	<g id="LWPOLYLINE_39_">
		
			<rect x="1631.3" y="844.7" transform="matrix(0.5556 -0.8315 0.8315 0.5556 82.0898 1851.5533)" class="st0" width="283.5" height="8.5"/>
	</g>
	<g id="LWPOLYLINE_40_">
		
			<rect x="1773.1" y="1216.8" transform="matrix(0.8864 -0.4629 0.4629 0.8864 -443.3682 981.0724)" class="st0" width="8.5" height="354.3"/>
	</g>
	<g id="LWPOLYLINE_41_">
		<rect x="1710.9" y="1703.9" class="st0" width="155.9" height="8.5"/>
	</g>
	<g id="LWPOLYLINE_42_">
		
			<rect x="1534.2" y="1385.2" transform="matrix(0.8988 -0.4383 0.4383 0.8988 -501.1845 825.938)" class="st0" width="8.5" height="226.8"/>
	</g>
	<g id="LWPOLYLINE_43_">
		
			<rect x="1382.5" y="1315.1" transform="matrix(0.5748 -0.8183 0.8183 0.5748 -479.7433 1715.4998)" class="st0" width="56.7" height="8.5"/>
	</g>
	<g id="LWPOLYLINE_44_">
		<rect x="1386.6" y="1442.5" class="st0" width="8.5" height="170.1"/>
	</g>
	<g id="LWPOLYLINE_45_">
		<rect x="1132.7" y="874.8" class="st0" width="8.5" height="566.9"/>
	</g>
	<g id="LWPOLYLINE_46_">
		<rect x="1386.6" y="703.6" class="st0" width="8.5" height="184.3"/>
	</g>
	<g id="LWPOLYLINE_47_">
		<polygon class="st0" points="1562.3,705.8 1454.6,889.1 1447.3,884.8 1554.9,701.5 		"/>
	</g>
	<g id="LWPOLYLINE_48_">
		<rect x="2054" y="604.1" class="st0" width="119.1" height="9.9"/>
	</g>
</g>
<g id="Layer_1_1_">
	<g id="LWPOLYLINE_1_">
		<polyline class="st1" points="2485.1,1085.5 2815.3,591.3 2454.4,591.3 2257.5,926.7 2257.5,591.3 1969.5,591.3 1969.5,1725.2 
			2257.5,1725.2 2257.5,1355.6 2282.2,1320.4 2479.6,1725.2 2819.1,1725.2 2485.1,1085.5 		"/>
	</g>
	<g id="LWPOLYLINE_3_">
		<polyline class="st1" points="2485.1,2219.4 2815.3,1725.2 2454.4,1725.2 2257.5,2060.5 2257.5,1725.2 1969.5,1725.2 
			1969.5,2859.1 2257.5,2859.1 2257.5,2489.4 2282.2,2454.3 2479.6,2859.1 2819.1,2859.1 2485.1,2219.4 		"/>
	</g>
	<g id="LWPOLYLINE_4_">
		<polygon class="st1" points="2443.9,2217.2 2749,1760.6 2474.7,1760.6 2222,2190.8 2222,1760.6 2005,1760.6 2005,2823.6 
			2222,2823.6 2222,2478.2 2287.7,2384.7 2501.7,2823.6 2760.6,2823.6 		"/>
	</g>
	<g id="LWPOLYLINE_17_">
		<polyline class="st1" points="1635.5,1085.5 1965.7,591.3 1604.9,591.3 1407.9,926.7 1407.9,591.3 1120,591.3 1120,1725.2 
			1407.9,1725.2 1407.9,1355.6 1432.6,1320.4 1630,1725.2 1969.5,1725.2 1635.5,1085.5 		"/>
	</g>
</g>
</svg>
