<?xml version="1.0" encoding="utf-8"?>
<!-- Generator: Adobe Illustrator 22.0.0, SVG Export Plug-In . SVG Version: 6.00 Build 0)  -->
<svg version="1.1" id="_x30_" xmlns="http://www.w3.org/2000/svg" xmlns:xlink="http://www.w3.org/1999/xlink" x="0px" y="0px"
	 viewBox="0 0 4896 2692" style="enable-background:new 0 0 4896 2692;" xml:space="preserve">
<style type="text/css">
	.st0{fill:none;stroke:#000000;stroke-width:0.7087;stroke-linecap:round;stroke-linejoin:round;stroke-miterlimit:10;}
</style>
<g id="LWPOLYLINE">
	<polygon class="st0" points="1259.6,1451.5 1826.6,1451.5 1826.6,1735 976.2,1735 976.2,601.1 1259.6,601.1 	"/>
</g>
<g id="LWPOLYLINE_1_">
	<polygon class="st0" points="2128.4,1652.8 2136.9,1652.8 2136.9,1533.7 2128.4,1533.7 2128.4,1472.8 1901.6,1472.8 1901.6,1533.7 
		1893.1,1533.7 1893.1,1652.8 1901.6,1652.8 1901.6,1713.7 2128.4,1713.7 	"/>
</g>
<g id="LWPOLYLINE_2_">
	<rect x="1058.4" y="613.9" class="st0" width="119.1" height="8.5"/>
</g>
<g id="LWPOLYLINE_3_">
	<polygon class="st0" points="537,884.6 528.5,884.6 528.5,1451.5 537,1451.5 537,1713.7 763.8,1713.7 763.8,1451.5 772.3,1451.5 
		772.3,884.6 763.8,884.6 763.8,622.4 537,622.4 	"/>
</g>
<g id="LWPOLYLINE_4_">
	<rect x="1259.6" y="1713.7" class="st0" width="283.5" height="8.5"/>
</g>
<g id="LWPOLYLINE_5_">
	<polygon class="st0" points="1793.1,1356.3 1793.1,1364.8 2076.6,1364.8 2076.6,1356.3 2214.8,1356.3 2214.8,1129.5 2076.6,1129.5 
		2076.6,1121 1793.1,1121 1793.1,1129.5 1654.9,1129.5 1654.9,1356.3 	"/>
</g>
<g id="LWPOLYLINE_6_">
	<polygon class="st0" points="1405.8,952.6 1405.8,1161.7 1632.6,1161.7 1632.6,952.6 1641.1,952.6 1641.1,527.4 1632.6,527.4 
		1632.6,318.4 1405.8,318.4 1405.8,527.4 1397.3,527.4 1397.3,952.6 	"/>
</g>
<g id="LWPOLYLINE_7_">
	<rect x="1373" y="2099.3" class="st0" width="56.7" height="9.9"/>
</g>
<g id="LWPOLYLINE_8_">
	<path class="st0" d="M1259.6,2355.8v8.5h283.5v-8.5h262.2V2129H1458v-31.2c0-5.5-4.4-9.9-9.9-9.9h-93.5c-5.5,0-9.9,4.4-9.9,9.9
		v31.2H997.5v226.8H1259.6z"/>
</g>
<g id="LWPOLYLINE_9_">
	<rect x="1089.5" y="269.5" class="st0" width="56.7" height="9.9"/>
</g>
<g id="LWPOLYLINE_10_">
	<path class="st0" d="M997.4,526h60.9v8.5h119.1V526h60.9V299.2h-63.8V268c0-5.5-4.4-9.9-9.9-9.9h-93.5c-5.5,0-9.9,4.4-9.9,9.9v31.2
		h-63.8V526z"/>
</g>
<g id="LWPOLYLINE_11_">
	<polygon class="st0" points="2663.5,1451.5 3230.5,1451.5 3230.5,1735 2380.1,1735 2380.1,601.1 2663.5,601.1 	"/>
</g>
<g id="LWPOLYLINE_12_">
	<polygon class="st0" points="2628.1,1486.9 3195,1486.9 3195,1699.5 2415.5,1699.5 2415.5,636.5 2628.1,636.5 	"/>
</g>
<g id="LWPOLYLINE_13_">
	<rect x="3209.2" y="1533.7" class="st0" width="8.5" height="119.1"/>
</g>
<g id="LWPOLYLINE_14_">
	<rect x="2462.3" y="613.9" class="st0" width="119.1" height="8.5"/>
</g>
<g id="LWPOLYLINE_15_">
	<rect x="2392.8" y="884.6" class="st0" width="8.5" height="566.9"/>
</g>
<g id="LWPOLYLINE_16_">
	<rect x="2787.5" y="1464.2" class="st0" width="283.5" height="8.5"/>
</g>
<g id="LWPOLYLINE_17_">
	<rect x="2642.3" y="831.4" class="st0" width="8.5" height="425.2"/>
</g>
<g id="LWPOLYLINE_18_">
	<polygon class="st0" points="3743.5,1451.5 4310.4,1451.5 4310.4,1735 3460.1,1735 3460.1,601.1 3743.5,601.1 	"/>
</g>
<g id="LWPOLYLINE_19_">
	<rect x="2745.7" y="1713.7" class="st0" width="119.1" height="8.5"/>
</g>
<g id="LWPOLYLINE_20_">
	<rect x="3542.3" y="612.4" class="st0" width="119.1" height="11.3"/>
</g>
<g id="LWPOLYLINE_21_">
	<rect x="3825.7" y="1712.3" class="st0" width="119.1" height="11.3"/>
</g>
<g id="LWPOLYLINE_23_">
	<rect x="1805.3" y="1533.7" class="st0" width="8.5" height="119.1"/>
</g>
<g id="LWPOLYLINE_24_">
	<rect x="988.9" y="884.6" class="st0" width="8.5" height="566.9"/>
</g>
<g id="LWPOLYLINE_25_">
	<rect x="1383.6" y="1464.2" class="st0" width="283.5" height="8.5"/>
</g>
<g id="LWPOLYLINE_26_">
	<rect x="1238.4" y="831.4" class="st0" width="8.5" height="425.2"/>
</g>
<g id="LWPOLYLINE_27_">
	<path class="st0" d="M2412.3,2112.9v-14.2c0-31.3,25.4-56.7,56.7-56.7s56.7,25.4,56.7,56.7v56.7v70.9c0,7.8-6.3,14.2-14.2,14.2h-85
		c-7.8,0-14.2-6.3-14.2-14.2v-56.7c0-7.8,6.3-14.2,14.2-14.2h68c7.8,0,14.2-6.3,14.2-14.2v-42.5c0-21.9-17.8-39.7-39.7-39.7
		s-39.7,17.8-39.7,39.7v14.2c0,4.7-3.8,8.5-8.5,8.5S2412.3,2117.6,2412.3,2112.9z"/>
</g>
<g id="LWPOLYLINE_28_">
	<path class="st0" d="M2473.3,2193.5v10.2c0,2.3-1.9,4.3-4.3,4.3s-4.3-1.9-4.3-4.3v-10.2c-1.3-0.7-2.4-1.8-3.1-3.1
		c-2.3-4.1-1-9.3,3.1-11.6c4.1-2.3,9.3-1,11.6,3.1C2478.6,2186,2477.3,2191.2,2473.3,2193.5z"/>
</g>
<g id="LWPOLYLINE_29_">
	<path class="st0" d="M2408.7,1890.4v-14.2c0-31.3,25.4-56.7,56.7-56.7c31.3,0,56.7,25.4,56.7,56.7v56.7v70.9
		c0,7.8-6.3,14.2-14.2,14.2h-85c-7.8,0-14.2-6.3-14.2-14.2v-56.7c0-7.8,6.3-14.2,14.2-14.2h68c7.8,0,14.2-6.3,14.2-14.2v-42.5
		c0-21.9-17.8-39.7-39.7-39.7c-21.9,0-39.7,17.8-39.7,39.7v14.2c0,4.7-3.8,8.5-8.5,8.5S2408.7,1895.1,2408.7,1890.4z"/>
</g>
<g id="LWPOLYLINE_30_">
	<path class="st0" d="M2469.6,1971.1v10.2c0,2.3-1.9,4.3-4.3,4.3c-2.4,0-4.3-1.9-4.3-4.3v-10.2c-1.3-0.7-2.4-1.8-3.1-3.1
		c-2.3-4.1-1-9.3,3.1-11.6c4.1-2.3,9.3-1,11.6,3.1S2473.7,1968.8,2469.6,1971.1z"/>
</g>
</svg>
