<?xml version="1.0" encoding="utf-8"?>
<!-- Generator: Adobe Illustrator 22.0.0, SVG Export Plug-In . SVG Version: 6.00 Build 0)  -->
<svg version="1.1" id="_x30_" xmlns="http://www.w3.org/2000/svg" xmlns:xlink="http://www.w3.org/1999/xlink" x="0px" y="0px"
	 viewBox="0 0 6484.8 3457.3" style="enable-background:new 0 0 6484.8 3457.3;" xml:space="preserve">
<style type="text/css">
	.st0{fill:none;stroke:#000000;stroke-width:0.7087;stroke-linecap:round;stroke-linejoin:round;stroke-miterlimit:10;}
</style>
<g id="LWPOLYLINE">
	<path class="st0" d="M2855.9,791.5v-14.2c0-31.3,25.4-56.7,56.7-56.7c31.3,0,56.7,25.4,56.7,56.7V834v70.9
		c0,7.8-6.3,14.2-14.2,14.2h-85c-7.8,0-14.2-6.3-14.2-14.2v-56.7c0-7.8,6.3-14.2,14.2-14.2h68c7.8,0,14.2-6.3,14.2-14.2v-42.5
		c0-21.9-17.8-39.7-39.7-39.7c-21.9,0-39.7,17.8-39.7,39.7v14.2c0,4.7-3.8,8.5-8.5,8.5C2859.7,800,2855.9,796.2,2855.9,791.5z"/>
</g>
<g id="LWPOLYLINE_1_">
	<path class="st0" d="M2916.9,872.2v10.2c0,2.3-1.9,4.3-4.3,4.3c-2.4,0-4.2-2-4.2-4.4v-10.2c-1.3-0.7-2.4-1.8-3.1-3.1
		c-2.3-4.1-1-9.3,3.1-11.6c4.1-2.3,9.3-1,11.6,3.1C2922.3,864.6,2920.9,869.8,2916.9,872.2z"/>
</g>
<g id="LWPOLYLINE_2_">
	<path class="st0" d="M2852.3,569v-14.2c0-31.3,25.4-56.7,56.7-56.7s56.7,25.4,56.7,56.7v56.7v70.9c0,7.8-6.3,14.2-14.2,14.2h-85
		c-7.8,0-14.2-6.3-14.2-14.2v-56.7c0-7.8,6.3-14.2,14.2-14.2h68c7.8,0,14.2-6.3,14.2-14.2v-42.5c0-21.9-17.8-39.7-39.7-39.7
		s-39.7,17.8-39.7,39.7V569c0,4.7-3.8,8.5-8.5,8.5S2852.3,573.7,2852.3,569z"/>
</g>
<g id="LWPOLYLINE_3_">
	<path class="st0" d="M2913.2,649.7v10.2c0,2.3-1.9,4.3-4.3,4.3c-2.4,0-4.3-1.9-4.3-4.3v-10.2c-1.3-0.7-2.4-1.8-3.1-3.1
		c-2.3-4.1-1-9.3,3.1-11.6c4.1-2.3,9.3-1,11.6,3.1C2918.7,642.2,2917.3,647.4,2913.2,649.7z"/>
</g>
<g id="LWPOLYLINE_4_">
	<path class="st0" d="M1907.1,2052.8h269.3c3.9,0,7.1-3.2,7.1-7.1v-836.2c0-3.9-3.2-7.1-7.1-7.1h-376.1c-3,0-5.7,1.9-6.7,4.7
		l-170.3,486.7c-0.7,2-2.3,3.6-4.3,4.3c-3.7,1.3-7.7-0.7-9-4.3l-170.3-486.7c-1-2.8-3.7-4.7-6.7-4.7h-376.1c-3.9,0-7.1,3.2-7.1,7.1
		v836.2c0,3.9,3.2,7.1,7.1,7.1h269.3c3.9,0,7.1-3.2,7.1-7.1v-242.9c0-3,1.9-5.7,4.7-6.7c3.7-1.3,7.7,0.7,9,4.3l86.6,247.6
		c1,2.8,3.7,4.7,6.7,4.7H1793c3,0,5.7-1.9,6.7-4.7l86.6-247.6c1-2.8,3.7-4.7,6.7-4.7c3.9,0,7.1,3.2,7.1,7.1v242.9
		C1900,2049.6,1903.2,2052.8,1907.1,2052.8z"/>
</g>
<g id="LWPOLYLINE_5_">
	<path class="st0" d="M2291.4,1674.4v-93.5c0-5.5,4.4-9.9,9.9-9.9h32.6v-347.2h226.8v205.5h8.5v396.9h-8.5v205.5h-226.8v-347.2
		h-32.6C2295.9,1684.3,2291.4,1679.9,2291.4,1674.4z"/>
</g>
<g id="LWPOLYLINE_6_">
	<rect x="2302.8" y="1599.3" class="st0" width="9.9" height="56.7"/>
</g>
<g id="LWPOLYLINE_7_">
	<path class="st0" d="M926.1,1674.4v-93.5c0-5.5-4.4-9.9-9.9-9.9h-32.6v-347.3H656.8v205.5h-8.5v396.9h8.5v205.5h226.8v-347.3h32.6
		C921.6,1684.3,926.1,1679.9,926.1,1674.4z"/>
</g>
<g id="LWPOLYLINE_8_">
	<rect x="904.8" y="1599.3" class="st0" width="9.9" height="56.7"/>
</g>
<g id="LWPOLYLINE_9_">
	<polygon class="st0" points="1928.6,1168.8 1810.3,1168.8 1810.3,942 1928.6,942 1928.6,933.5 2041.9,933.5 2041.9,942 2162.2,942 
		2162.2,1168.8 2041.9,1168.8 2041.9,1177.3 1928.6,1177.3 	"/>
</g>
<g id="LWPOLYLINE_10_">
	<polygon class="st0" points="1304.6,1168.8 1422.8,1168.8 1422.8,942 1304.6,942 1304.6,933.5 1191.2,933.5 1191.2,942 1070.9,942 
		1070.9,1168.8 1191.2,1168.8 1191.2,1177.3 1304.6,1177.3 	"/>
</g>
<g id="LWPOLYLINE_11_">
	<polygon class="st0" points="2101.3,2074.7 2101.3,2066.2 1982.2,2066.2 1982.2,2074.7 1921.3,2074.7 1921.3,2301.4 1982.2,2301.4 
		1982.2,2309.9 2101.3,2309.9 2101.3,2301.4 2162.2,2301.4 2162.2,2074.7 	"/>
</g>
<g id="LWPOLYLINE_12_">
	<rect x="2162.2" y="1429.2" class="st0" width="8.5" height="396.9"/>
</g>
<g id="LWPOLYLINE_13_">
	<polygon class="st0" points="1701.6,2329.2 1782.9,2329.2 1782.9,2102.4 1701.6,2102.4 1701.6,2093.9 1531.5,2093.9 1531.5,2102.4 
		1450.3,2102.4 1450.3,2329.2 1531.5,2329.2 1531.5,2337.7 1701.6,2337.7 	"/>
</g>
<g id="LWPOLYLINE_14_">
	<polygon class="st0" points="2102.6,2762.4 2199.1,2762.4 2199.1,2535.6 2102.6,2535.6 2102.6,2527.1 1918.4,2527.1 1918.4,2535.6 
		1821.8,2535.6 1821.8,2762.4 1918.4,2762.4 1918.4,2770.9 2102.6,2770.9 	"/>
</g>
<g id="LWPOLYLINE_15_">
	<polygon class="st0" points="2267.7,2538.9 2267.7,2630.7 2494.5,2630.7 2494.5,2538.9 2503,2538.9 2503,2368.8 2494.5,2368.8 
		2494.5,2276.9 2267.7,2276.9 2267.7,2368.8 2259.2,2368.8 2259.2,2538.9 	"/>
</g>
<g id="LWPOLYLINE_16_">
	<polygon class="st0" points="1834.1,3128.5 1834.1,3137.1 2117.5,3137.1 2117.5,3128.5 2259,3128.5 2259,2901.8 2117.5,2901.8 
		2117.5,2893.3 1834.1,2893.3 1834.1,2901.8 1692.6,2901.8 1692.6,3128.5 	"/>
</g>
<g id="LWPOLYLINE_17_">
	<path class="st0" d="M3804.1,2052.8h269.3c3.9,0,7.1-3.2,7.1-7.1v-836.2c0-3.9-3.2-7.1-7.1-7.1h-376.2c-3,0-5.7,1.9-6.7,4.7
		l-170.3,486.8c-0.7,2-2.3,3.6-4.3,4.3c-3.7,1.3-7.7-0.7-9-4.3l-170.3-486.7c-1-2.8-3.7-4.7-6.7-4.7h-376.2c-3.9,0-7.1,3.2-7.1,7.1
		v836.2c0,3.9,3.2,7.1,7.1,7.1H3223c3.9,0,7.1-3.2,7.1-7.1v-242.9c0-3,1.9-5.7,4.7-6.7c3.7-1.3,7.7,0.7,9,4.3l86.6,247.6
		c1,2.8,3.7,4.7,6.7,4.7h352.7c3,0,5.7-1.9,6.7-4.7l86.6-247.6c1-2.8,3.7-4.7,6.7-4.7c3.9,0,7.1,3.2,7.1,7.1v242.9
		C3797,2049.6,3800.2,2052.8,3804.1,2052.8z"/>
</g>
<g id="LWPOLYLINE_18_">
	<path class="st0" d="M3846.6,2017.4h184.2c7.8,0,14.2-6.3,14.2-14.2V1252c0-7.8-6.3-14.2-14.2-14.2h-303.4c-6,0-11.4,3.8-13.4,9.5
		L3526.9,1782c-1.4,4.1-4.6,7.3-8.7,8.7c-7.4,2.6-15.5-1.3-18.1-8.7L3313,1247.3c-2-5.7-7.4-9.5-13.4-9.5h-303.4
		c-7.8,0-14.2,6.3-14.2,14.2v751.2c0,7.8,6.3,14.2,14.2,14.2h184.2c7.8,0,14.2-6.3,14.2-14.2v-367.1c0-6,3.8-11.4,9.5-13.4
		c7.4-2.6,15.5,1.3,18.1,8.7l131.8,376.5c2,5.7,7.4,9.5,13.4,9.5h292.4c6,0,11.4-3.8,13.4-9.5l131.8-376.5c2-5.7,7.4-9.5,13.4-9.5
		c7.8,0,14.2,6.3,14.2,14.2v367.1C3832.4,2011,3838.8,2017.4,3846.6,2017.4z"/>
</g>
<g id="LWPOLYLINE_19_">
	<rect x="3826.5" y="1215.2" class="st0" width="113.4" height="8.5"/>
</g>
<g id="LWPOLYLINE_20_">
	<rect x="3879.2" y="2031.5" class="st0" width="119.1" height="8.5"/>
</g>
<g id="LWPOLYLINE_21_">
	<rect x="3087.1" y="1215.2" class="st0" width="113.4" height="8.5"/>
</g>
<g id="LWPOLYLINE_22_">
	<rect x="3028.8" y="2031.5" class="st0" width="119.1" height="8.5"/>
</g>
<g id="LWPOLYLINE_23_">
	<rect x="3428.5" y="2031.5" class="st0" width="170.1" height="8.5"/>
</g>
<g id="LWPOLYLINE_24_">
	<polygon class="st0" points="3710.4,1940 3771.2,1766.1 3779.3,1768.9 3718.4,1942.8 	"/>
</g>
<g id="LWPOLYLINE_25_">
	<rect x="3811.2" y="1769.6" class="st0" width="8.5" height="170.1"/>
</g>
<g id="LWPOLYLINE_26_">
	
		<rect x="3468.1" y="1485.2" transform="matrix(0.3304 -0.9438 0.9438 0.3304 1011.3749 4404.4854)" class="st0" width="283.5" height="8.5"/>
</g>
<g id="LWPOLYLINE_27_">
	<path class="st0" d="M5387.1,2052.8h269.3c3.9,0,7.1-3.2,7.1-7.1v-836.2c0-3.9-3.2-7.1-7.1-7.1h-376.1c-3,0-5.7,1.9-6.7,4.7
		l-170.3,486.7c-0.7,2-2.3,3.6-4.3,4.3c-3.7,1.3-7.7-0.7-9-4.3l-170.3-486.7c-1-2.8-3.7-4.7-6.7-4.7h-376.1c-3.9,0-7.1,3.2-7.1,7.1
		v836.2c0,3.9,3.2,7.1,7.1,7.1h269.3c3.9,0,7.1-3.2,7.1-7.1v-242.9c0-3,1.9-5.7,4.7-6.7c3.7-1.3,7.7,0.7,9,4.3l86.6,247.6
		c1,2.8,3.7,4.7,6.7,4.7H5273c3,0,5.7-1.9,6.7-4.7l86.6-247.6c1-2.8,3.7-4.7,6.7-4.7c3.9,0,7.1,3.2,7.1,7.1v242.9
		C5380,2049.6,5383.1,2052.8,5387.1,2052.8z"/>
</g>
<g id="LWPOLYLINE_28_">
	<rect x="4057.8" y="1568.1" class="st0" width="11.3" height="119.1"/>
</g>
<g id="LWPOLYLINE_29_">
	<rect x="2957.9" y="1568.1" class="st0" width="11.3" height="119.1"/>
</g>
<g id="LWPOLYLINE_30_">
	<rect x="5640.8" y="1568.1" class="st0" width="11.3" height="119.1"/>
</g>
<g id="LWPOLYLINE_31_">
	<rect x="4540.9" y="1568.1" class="st0" width="11.3" height="119.1"/>
</g>
<g id="LWPOLYLINE_33_">
	<polygon class="st0" points="3316.7,1940 3255.8,1766.1 3247.8,1768.9 3308.6,1942.8 	"/>
</g>
<g id="LWPOLYLINE_34_">
	<rect x="3207.4" y="1769.6" class="st0" width="8.5" height="170.1"/>
</g>
<g id="LWPOLYLINE_35_">
	
		<rect x="3413.1" y="1347.7" transform="matrix(0.9438 -0.3304 0.3304 0.9438 -300.2147 1212.656)" class="st0" width="8.5" height="283.5"/>
</g>
<g id="LWPOLYLINE_36_">
	<rect x="1929.6" y="1215.2" class="st0" width="113.4" height="8.5"/>
</g>
<g id="LWPOLYLINE_37_">
	<rect x="1982.2" y="2031.5" class="st0" width="119.1" height="8.5"/>
</g>
<g id="LWPOLYLINE_38_">
	<rect x="1190.1" y="1215.2" class="st0" width="113.4" height="8.5"/>
</g>
<g id="LWPOLYLINE_39_">
	<rect x="1131.8" y="2031.5" class="st0" width="119.1" height="8.5"/>
</g>
<g id="LWPOLYLINE_40_">
	<rect x="1531.5" y="2031.5" class="st0" width="170.1" height="8.5"/>
</g>
<g id="LWPOLYLINE_41_">
	<polygon class="st0" points="1813.4,1940 1874.3,1766.1 1882.3,1768.9 1821.4,1942.8 	"/>
</g>
<g id="LWPOLYLINE_42_">
	<rect x="1914.2" y="1769.6" class="st0" width="8.5" height="170.1"/>
</g>
<g id="LWPOLYLINE_43_">
	
		<rect x="1571" y="1485.3" transform="matrix(0.3304 -0.9438 0.9438 0.3304 -259.0441 2614.0391)" class="st0" width="283.5" height="8.5"/>
</g>
<g id="LWPOLYLINE_44_">
	<polygon class="st0" points="1419.7,1940 1358.8,1766.1 1350.8,1768.9 1411.7,1942.8 	"/>
</g>
<g id="LWPOLYLINE_45_">
	<rect x="1310.4" y="1769.6" class="st0" width="8.5" height="170.1"/>
</g>
<g id="LWPOLYLINE_46_">
	
		<rect x="1516.1" y="1347.8" transform="matrix(0.9438 -0.3304 0.3304 0.9438 -406.7565 585.9303)" class="st0" width="8.5" height="283.5"/>
</g>
<g id="LWPOLYLINE_47_">
	<rect x="1062.4" y="1429.2" class="st0" width="8.5" height="396.9"/>
</g>
<g id="LWPOLYLINE_48_">
	<polygon class="st0" points="1131.8,2074.7 1131.8,2066.2 1250.9,2066.2 1250.9,2074.7 1311.8,2074.7 1311.8,2301.4 1250.9,2301.4 
		1250.9,2309.9 1131.8,2309.9 1131.8,2301.4 1070.9,2301.4 1070.9,2074.7 	"/>
</g>
<g id="LWPOLYLINE_49_">
	<polygon class="st0" points="1130.5,2762.4 1034,2762.4 1034,2535.6 1130.5,2535.6 1130.5,2527.1 1314.8,2527.1 1314.8,2535.6 
		1411.3,2535.6 1411.3,2762.4 1314.8,2762.4 1314.8,2770.9 1130.5,2770.9 	"/>
</g>
<g id="LWPOLYLINE_50_">
	<polygon class="st0" points="965.4,2538.9 965.4,2630.7 738.6,2630.7 738.6,2538.9 730.1,2538.9 730.1,2368.8 738.6,2368.8 
		738.6,2276.9 965.4,2276.9 965.4,2368.8 973.9,2368.8 973.9,2538.9 	"/>
</g>
<g id="LWPOLYLINE_51_">
	<polygon class="st0" points="1399,3128.5 1399,3137.1 1115.6,3137.1 1115.6,3128.5 974.1,3128.5 974.1,2901.8 1115.6,2901.8 
		1115.6,2893.3 1399,2893.3 1399,2901.8 1540.5,2901.8 1540.5,3128.5 	"/>
</g>
</svg>
