<?xml version="1.0" encoding="utf-8"?>
<!-- Generator: Adobe Illustrator 22.0.0, SVG Export Plug-In . SVG Version: 6.00 Build 0)  -->
<svg version="1.1" id="_x30_" xmlns="http://www.w3.org/2000/svg" xmlns:xlink="http://www.w3.org/1999/xlink" x="0px" y="0px"
	 viewBox="0 0 6874.7 4123.2" style="enable-background:new 0 0 6874.7 4123.2;" xml:space="preserve">
<style type="text/css">
	.st0{fill:none;stroke:#000000;stroke-width:0.7087;stroke-linecap:round;stroke-linejoin:round;stroke-miterlimit:10;}
</style>
<g id="LWPOLYLINE">
	<path class="st0" d="M4781.9,2557.3l-139.5-598c-1.8-7.6-9.4-12.4-17-10.6c-6.4,1.5-11,7.2-11,13.8v605.8h-283.5V1434.4h385.6
		c6.6,0,12.3,4.5,13.8,11l139.6,598.1c1.8,7.6,9.4,12.4,17,10.6c6.4-1.5,11-7.2,11-13.8v-605.8h283.5v1133.9h-385.6
		C4789.2,2568.3,4783.4,2563.7,4781.9,2557.3z"/>
</g>
<g id="LWPOLYLINE_1_">
	<rect x="5160.1" y="1717.9" class="st0" width="8.5" height="566.9"/>
</g>
<g id="LWPOLYLINE_2_">
	<path class="st0" d="M1111.3,2557.3l-139.6-598.1c-1.8-7.6-9.4-12.4-17-10.6c-6.4,1.5-11,7.2-11,13.8v605.8H660.2V1434.3h385.6
		c6.6,0,12.3,4.5,13.8,11l139.6,598.1c1.8,7.6,9.4,12.4,17,10.6c6.4-1.5,11-7.2,11-13.8v-605.8h283.5v1133.9h-385.6
		C1118.5,2568.3,1112.7,2563.7,1111.3,2557.3z"/>
</g>
<g id="LWPOLYLINE_3_">
	<path class="st0" d="M1141.9,2532.9l-205.7-881.4c-1.8-7.6-9.4-12.4-17-10.6c-6.4,1.5-11,7.2-11,13.8v878.2H695.6v-1063h333.3
		l205.7,881.4c1.8,7.6,9.4,12.4,17,10.6c6.4-1.5,11-7.2,11-13.8v-878.2h212.6v1063H1141.9z"/>
</g>
<g id="LWPOLYLINE_4_">
	<rect x="1309.4" y="1447.2" class="st0" width="119.1" height="8.5"/>
</g>
<g id="LWPOLYLINE_5_">
	<rect x="1241.4" y="1658.5" class="st0" width="8.5" height="425.2"/>
</g>
<g id="LWPOLYLINE_6_">
	
		<rect x="1135.9" y="1623.1" transform="matrix(0.9738 -0.2272 0.2272 0.9738 -395.3181 308.0018)" class="st0" width="8.5" height="496.1"/>
</g>
<g id="LWPOLYLINE_7_">
	<rect x="1217.9" y="2547" class="st0" width="184.3" height="8.5"/>
</g>
<g id="LWPOLYLINE_8_">
	<rect x="742.5" y="2547" class="st0" width="119.1" height="8.5"/>
</g>
<g id="LWPOLYLINE_9_">
	<rect x="768.7" y="1447.2" class="st0" width="184.3" height="8.5"/>
</g>
<g id="LWPOLYLINE_10_">
	<path class="st0" d="M2364.7,2557.3l-139.6-598.1c-1.8-7.6-9.4-12.4-17-10.6c-6.4,1.5-11,7.2-11,13.8v605.8h-283.5V1434.3h385.6
		c6.6,0,12.3,4.5,13.8,11l139.6,598.1c1.8,7.6,9.4,12.4,17,10.6c6.4-1.5,11-7.2,11-13.8v-605.8h283.5v1133.9h-385.6
		C2371.9,2568.3,2366.2,2563.7,2364.7,2557.3z"/>
</g>
<g id="LWPOLYLINE_11_">
	<rect x="1488" y="1941.8" class="st0" width="11.3" height="119.1"/>
</g>
<g id="LWPOLYLINE_12_">
	<rect x="671.6" y="1941.8" class="st0" width="11.3" height="119.1"/>
</g>
<g id="LWPOLYLINE_13_">
	<rect x="2741.5" y="1941.8" class="st0" width="11.3" height="119.1"/>
</g>
<g id="LWPOLYLINE_14_">
	<rect x="1925.1" y="1941.8" class="st0" width="11.3" height="119.1"/>
</g>
<g id="LWPOLYLINE_15_">
	<polygon class="st0" points="4980.1,1412.6 4980.1,1421.1 5099.1,1421.1 5099.1,1412.6 5160.1,1412.6 5160.1,1185.8 5099.1,1185.8 
		5099.1,1177.3 4980.1,1177.3 4980.1,1185.8 4919.1,1185.8 4919.1,1412.6 	"/>
</g>
<g id="LWPOLYLINE_16_">
	<polygon class="st0" points="5398,2920.2 5389.5,2920.2 5389.5,3345.4 5398,3345.4 5398,3548.2 5624.7,3548.2 5624.7,3345.4 
		5633.2,3345.4 5633.2,2920.2 5624.7,2920.2 5624.7,2717.4 5398,2717.4 	"/>
</g>
<g id="LWPOLYLINE_17_">
	<polygon class="st0" points="5025.2,3388.2 5025.2,3567.5 5252,3567.5 5252,3388.2 5260.5,3388.2 5260.5,2892.1 5252,2892.1 
		5252,2712.8 5025.2,2712.8 5025.2,2892.1 5016.7,2892.1 5016.7,3388.2 	"/>
</g>
<g id="LWPOLYLINE_18_">
	<polygon class="st0" points="6002.5,2840.2 6002.5,2753 5775.7,2753 5775.7,2840.2 5767.2,2840.2 5767.2,3024.5 5775.7,3024.5 
		5775.7,3111.7 6002.5,3111.7 6002.5,3024.5 6011,3024.5 6011,2840.2 	"/>
</g>
<g id="LWPOLYLINE_19_">
	<rect x="5796.1" y="1976.9" class="st0" width="9.9" height="56.7"/>
</g>
<g id="LWPOLYLINE_20_">
	<path class="st0" d="M5549.5,1459.6v262.2h-8.5v566.9h8.5v262.2h226.8v-489h31.2c5.5,0,9.9-4.4,9.9-9.9v-93.5
		c0-5.5-4.4-9.9-9.9-9.9h-31.2v-489L5549.5,1459.6L5549.5,1459.6z"/>
</g>
<g id="LWPOLYLINE_21_">
	<polygon class="st0" points="4532.2,2590.1 4532.2,2581.6 4413.1,2581.6 4413.1,2590.1 4352.2,2590.1 4352.2,2816.9 4413.1,2816.9 
		4413.1,2825.4 4532.2,2825.4 4532.2,2816.9 4593.1,2816.9 4593.1,2590.1 	"/>
</g>
<g id="LWPOLYLINE_22_">
	<polygon class="st0" points="4114.3,1082.5 4122.8,1082.5 4122.8,657.3 4114.3,657.3 4114.3,454.5 3887.6,454.5 3887.6,657.3 
		3879.1,657.3 3879.1,1082.5 3887.6,1082.5 3887.6,1285.3 4114.3,1285.3 	"/>
</g>
<g id="LWPOLYLINE_23_">
	<polygon class="st0" points="4487.1,614.5 4487.1,435.2 4260.3,435.2 4260.3,614.5 4251.8,614.5 4251.8,1110.6 4260.3,1110.6 
		4260.3,1289.9 4487.1,1289.9 4487.1,1110.6 4495.6,1110.6 4495.6,614.5 	"/>
</g>
<g id="LWPOLYLINE_24_">
	<polygon class="st0" points="3509.8,1162.5 3509.8,1249.7 3736.5,1249.7 3736.5,1162.5 3745,1162.5 3745,978.2 3736.5,978.2 
		3736.5,891 3509.8,891 3509.8,978.2 3501.3,978.2 3501.3,1162.5 	"/>
</g>
<g id="LWPOLYLINE_25_">
	<rect x="3706.3" y="1969.1" class="st0" width="9.9" height="56.7"/>
</g>
<g id="LWPOLYLINE_26_">
	<path class="st0" d="M3962.8,2543.1v-262.2h8.5V1714h-8.5v-262.2H3736v489h-31.2c-5.5,0-9.9,4.4-9.9,9.9v93.5
		c0,5.5,4.4,9.9,9.9,9.9h31.2v489H3962.8z"/>
</g>
<g id="LWPOLYLINE_27_">
	<path class="st0" d="M5353.6,1520.8v-14.1c0-31.3,25.4-56.7,56.7-56.7c31.3,0,56.7,25.4,56.7,56.7v56.7v70.9
		c0,7.8-6.3,14.2-14.2,14.2h-85c-7.8,0-14.2-6.3-14.2-14.2v-56.7c0-7.8,6.3-14.2,14.2-14.2h68c7.8,0,14.2-6.3,14.2-14.2v-42.5
		c0-21.9-17.8-39.7-39.7-39.7s-39.7,17.8-39.7,39.7v14.2c0,4.7-3.8,8.5-8.5,8.5C5357.4,1529.4,5353.6,1525.5,5353.6,1520.8z"/>
</g>
<g id="LWPOLYLINE_28_">
	<path class="st0" d="M5414.5,1601.5v10.2c0,2.3-1.9,4.3-4.3,4.3c-2.3,0-4.3-1.9-4.3-4.3v-10.2c-1.3-0.7-2.4-1.8-3.1-3.1
		c-2.3-4.1-1-9.3,3.1-11.6c4.1-2.3,9.3-1,11.6,3.1C5420,1594,5418.6,1599.2,5414.5,1601.5z"/>
</g>
<g id="LWPOLYLINE_29_">
	<path class="st0" d="M5338.8,1855.5v-14.2c0-31.3,25.4-56.7,56.7-56.7c31.3,0,56.7,25.4,56.7,56.7v56.7v70.9
		c0,7.8-6.3,14.2-14.2,14.2h-85c-7.8,0-14.2-6.3-14.2-14.2v-56.7c0-7.8,6.3-14.2,14.2-14.2h68c7.8,0,14.2-6.3,14.2-14.2v-42.5
		c0-21.9-17.8-39.7-39.7-39.7s-39.7,17.8-39.7,39.7v14.2c0,4.7-3.8,8.5-8.5,8.5C5342.6,1864,5338.8,1860.2,5338.8,1855.5z"/>
</g>
<g id="LWPOLYLINE_30_">
	<path class="st0" d="M5399.8,1936.2v10.2c0,2.3-1.9,4.3-4.3,4.3c-2.3,0-4.3-1.9-4.3-4.3v-10.2c-1.3-0.7-2.4-1.8-3.1-3.1
		c-2.3-4.1-1-9.3,3.1-11.6s9.3-1,11.6,3.1C5405.2,1928.7,5403.8,1933.9,5399.8,1936.2z"/>
</g>
<g id="LWPOLYLINE_32_">
	<rect x="921" y="1919" class="st0" width="8.5" height="425.2"/>
</g>
<g id="LWPOLYLINE_33_">
	
		<rect x="1026.5" y="1883.3" transform="matrix(0.9738 -0.2272 0.2272 0.9738 -457.3015 289.9473)" class="st0" width="8.5" height="496.1"/>
</g>
<g id="LWPOLYLINE_34_">
	<rect x="4980.1" y="1447.2" class="st0" width="119.1" height="8.5"/>
</g>
<g id="LWPOLYLINE_35_">
	<rect x="4912.1" y="1658.5" class="st0" width="8.5" height="425.2"/>
</g>
<g id="LWPOLYLINE_36_">
	
		<rect x="4806.5" y="1623.2" transform="matrix(0.9738 -0.2272 0.2272 0.9738 -299.3457 1141.9938)" class="st0" width="8.5" height="496.1"/>
</g>
<g id="LWPOLYLINE_37_">
	<rect x="4888.6" y="2547" class="st0" width="184.3" height="8.5"/>
</g>
<g id="LWPOLYLINE_38_">
	<rect x="4413.2" y="2547" class="st0" width="119.1" height="8.5"/>
</g>
<g id="LWPOLYLINE_39_">
	<rect x="4439.4" y="1447.2" class="st0" width="184.3" height="8.5"/>
</g>
<g id="LWPOLYLINE_40_">
	<rect x="4591.7" y="1919" class="st0" width="8.5" height="425.2"/>
</g>
<g id="LWPOLYLINE_41_">
	
		<rect x="4697.1" y="1883.4" transform="matrix(0.9738 -0.2272 0.2272 0.9738 -361.3291 1123.9392)" class="st0" width="8.5" height="496.1"/>
</g>
<g id="LWPOLYLINE_42_">
	<rect x="4343.7" y="1717.9" class="st0" width="8.5" height="566.9"/>
</g>
</svg>
