<?xml version="1.0" encoding="utf-8"?>
<!-- Generator: Adobe Illustrator 22.0.0, SVG Export Plug-In . SVG Version: 6.00 Build 0)  -->
<svg version="1.1" id="_x30_" xmlns="http://www.w3.org/2000/svg" xmlns:xlink="http://www.w3.org/1999/xlink" x="0px" y="0px"
	 viewBox="0 0 6028 2672" style="enable-background:new 0 0 6028 2672;" xml:space="preserve">
<style type="text/css">
	.st0{fill:none;stroke:#000000;stroke-width:0.7087;stroke-linecap:round;stroke-linejoin:round;stroke-miterlimit:10;}
</style>
<g id="LWPOLYLINE">
	<rect x="1162.9" y="700.6" class="st0" width="283.5" height="8.5"/>
</g>
<g id="LWPOLYLINE_1_">
	<polygon class="st0" points="2483.3,1467.4 2474.8,1467.4 2474.8,1042.2 2483.3,1042.2 2483.3,957.1 2710,957.1 2710,1042.2 
		2718.5,1042.2 2718.5,1467.4 2710,1467.4 2710,1552.4 2483.3,1552.4 	"/>
</g>
<g id="LWPOLYLINE_2_">
	<polygon class="st0" points="577.4,971.3 568.9,971.3 568.9,1538.2 577.4,1538.2 577.4,1630.6 804.1,1630.6 804.1,1538.2 
		812.6,1538.2 812.6,971.3 804.1,971.3 804.1,878.9 577.4,878.9 	"/>
</g>
<g id="LWPOLYLINE_3_">
	<path class="st0" d="M1351.4,324.3h-93.5c-5.5,0-9.9,4.4-9.9,9.9v31.2h-177.4v226.8h92.4v7.1h283.5v-7.1h92.4V365.4h-177.4v-31.2
		C1361.3,328.7,1356.9,324.3,1351.4,324.3z"/>
</g>
<g id="LWPOLYLINE_4_">
	<rect x="1276.3" y="335.6" class="st0" width="56.7" height="9.9"/>
</g>
<g id="LWPOLYLINE_5_">
	<polygon class="st0" points="2823.4,979.1 2823.4,970.6 2993.5,970.6 2993.5,979.1 3064.3,979.1 3064.3,1205.9 2993.5,1205.9 
		2993.5,1214.4 2823.4,1214.4 2823.4,1205.9 2752.5,1205.9 2752.5,979.1 	"/>
</g>
<g id="LWPOLYLINE_6_">
	<polygon class="st0" points="2823.4,1530.4 2823.4,1538.9 2993.5,1538.9 2993.5,1530.4 3064.3,1530.4 3064.3,1303.6 2993.5,1303.6 
		2993.5,1295.1 2823.4,1295.1 2823.4,1303.6 2752.5,1303.6 2752.5,1530.4 	"/>
</g>
<g id="LWPOLYLINE_7_">
	<polygon class="st0" points="905.4,545.6 913.9,545.6 913.9,744 905.4,744 905.4,764.9 678.6,764.9 678.6,744 670.1,744 
		670.1,545.6 678.6,545.6 678.6,524.7 905.4,524.7 	"/>
</g>
<g id="LWPOLYLINE_8_">
	<rect x="1162.9" y="1800.4" class="st0" width="283.5" height="8.5"/>
</g>
<g id="LWPOLYLINE_9_">
	<path class="st0" d="M3223.6,1278.8v-14.2c0-31.3,25.4-56.7,56.7-56.7s56.7,25.4,56.7,56.7v56.7v70.9c0,7.8-6.3,14.2-14.2,14.2h-85
		c-7.8,0-14.2-6.3-14.2-14.2v-56.7c0-7.8,6.3-14.2,14.2-14.2h68c7.8,0,14.2-6.3,14.2-14.2v-42.5c0-21.9-17.8-39.7-39.7-39.7
		c-21.9,0-39.7,17.8-39.7,39.7v14.2c0,4.7-3.8,8.5-8.5,8.5C3227.4,1287.3,3223.6,1283.5,3223.6,1278.8z"/>
</g>
<g id="LWPOLYLINE_10_">
	<path class="st0" d="M3284.5,1359.5v10.2c0,2.3-1.9,4.3-4.3,4.3c-2.3,0-4.3-1.9-4.3-4.3v-10.2c-1.3-0.7-2.4-1.8-3.1-3.1
		c-2.3-4.1-1-9.3,3.1-11.6c4.1-2.3,9.3-1,11.6,3.1C3290,1351.9,3288.6,1357.1,3284.5,1359.5z"/>
</g>
<g id="LWPOLYLINE_11_">
	<path class="st0" d="M3197.3,1046v-14.2c0-31.3,25.4-56.7,56.7-56.7s56.7,25.4,56.7,56.7v56.7v70.9c0,7.8-6.3,14.2-14.2,14.2h-85
		c-7.8,0-14.2-6.3-14.2-14.2v-56.7c0-7.8,6.3-14.2,14.2-14.2h68c7.8,0,14.2-6.3,14.2-14.2v-42.5c0-21.9-17.8-39.7-39.7-39.7
		s-39.7,17.8-39.7,39.7v14.2c0,4.7-3.8,8.5-8.5,8.5S3197.3,1050.7,3197.3,1046z"/>
</g>
<g id="LWPOLYLINE_12_">
	<path class="st0" d="M3258.2,1126.7v10.2c0,2.3-1.9,4.3-4.3,4.3c-2.4,0-4.3-1.9-4.3-4.3v-10.2c-1.3-0.7-2.4-1.8-3.1-3.1
		c-2.3-4.1-1-9.3,3.1-11.6c4.1-2.3,9.3-1,11.6,3.1S3262.3,1124.3,3258.2,1126.7z"/>
</g>
<g id="LWPOLYLINE_13_">
	<polygon class="st0" points="2185.5,1467.4 2177,1467.4 2177,1042.2 2185.5,1042.2 2185.5,957.1 2412.3,957.1 2412.3,1042.2 
		2420.8,1042.2 2420.8,1467.4 2412.3,1467.4 2412.3,1552.4 2185.5,1552.4 	"/>
</g>
<g id="LWPOLYLINE_14_">
	
		<rect x="4361.6" y="806.4" transform="matrix(0.7071 -0.7071 0.7071 0.7071 638.3593 3352.3909)" class="st0" width="8.5" height="198.4"/>
</g>
<g id="LWPOLYLINE_15_">
	<rect x="3958.8" y="1063.2" class="st0" width="170.1" height="8.5"/>
</g>
<g id="LWPOLYLINE_16_">
	<rect x="4447.8" y="1085.9" class="st0" width="8.5" height="566.9"/>
</g>
<g id="LWPOLYLINE_17_">
	<rect x="4199.8" y="1156.7" class="st0" width="8.5" height="425.2"/>
</g>
<g id="LWPOLYLINE_18_">
	<rect x="3866.7" y="1050.4" class="st0" width="354.3" height="637.8"/>
</g>
<g id="LWPOLYLINE_19_">
	<polygon class="st0" points="4433.6,999.4 4433.6,1739.3 4272.1,1900.8 3815.6,1900.8 3654.1,1739.3 3654.1,999.4 3815.6,837.8 
		4272.1,837.8 	"/>
</g>
<g id="LWPOLYLINE_20_">
	<rect x="3902.1" y="1085.9" class="st0" width="283.5" height="566.9"/>
</g>
<g id="LWPOLYLINE_21_">
	<polygon class="st0" points="4469.1,984.7 4469.1,1754 4286.8,1936.3 3801,1936.3 3618.7,1754 3618.7,984.7 3801,802.4 
		4286.8,802.4 	"/>
</g>
<g id="LWPOLYLINE_22_">
	<rect x="1162.9" y="971.3" class="st0" width="283.5" height="566.9"/>
</g>
<g id="LWPOLYLINE_23_">
	<polygon class="st0" points="1729.8,870.1 1729.8,1639.4 1547.5,1821.7 1061.7,1821.7 879.4,1639.4 879.4,870.1 1061.7,687.8 
		1547.5,687.8 	"/>
</g>
<g id="LWPOLYLINE_24_">
	<rect x="3984.3" y="815.2" class="st0" width="119.1" height="8.5"/>
</g>
<g id="LWPOLYLINE_25_">
	<rect x="5082.5" y="1085.9" class="st0" width="283.5" height="566.9"/>
</g>
<g id="LWPOLYLINE_26_">
	<polygon class="st0" points="5649.4,984.7 5649.4,1754 5467.1,1936.3 4981.3,1936.3 4799,1754 4799,984.7 4981.3,802.4 
		5467.1,802.4 	"/>
</g>
<g id="LWPOLYLINE_27_">
	<rect x="5164.7" y="813.7" class="st0" width="119.1" height="11.3"/>
</g>
<g id="LWPOLYLINE_28_">
	<rect x="5164.7" y="1913.6" class="st0" width="119.1" height="11.3"/>
</g>
<g id="LWPOLYLINE_30_">
	<rect x="3631.4" y="1085.9" class="st0" width="8.5" height="566.9"/>
</g>
<g id="LWPOLYLINE_31_">
	<rect x="3879.4" y="1156.7" class="st0" width="8.5" height="425.2"/>
</g>
<g id="LWPOLYLINE_32_">
	
		<rect x="3622.6" y="901.3" transform="matrix(0.7071 -0.7071 0.7071 0.7071 449.7405 2896.9453)" class="st0" width="198.4" height="8.5"/>
</g>
<g id="LWPOLYLINE_33_">
	
		<rect x="4266.7" y="1828.8" transform="matrix(0.7071 -0.7071 0.7071 0.7071 -17.4357 3624.0164)" class="st0" width="198.4" height="8.5"/>
</g>
<g id="LWPOLYLINE_34_">
	<rect x="3958.8" y="1667" class="st0" width="170.1" height="8.5"/>
</g>
<g id="LWPOLYLINE_35_">
	<rect x="3984.3" y="1915" class="st0" width="119.1" height="8.5"/>
</g>
<g id="LWPOLYLINE_36_">
	
		<rect x="3717.6" y="1733.9" transform="matrix(0.7071 -0.7071 0.7071 0.7071 -206.0838 3168.6414)" class="st0" width="8.5" height="198.4"/>
</g>
<g id="LWPOLYLINE_37_">
	
		<rect x="1622.4" y="691.8" transform="matrix(0.7071 -0.7071 0.7071 0.7071 -82.8781 1381.8862)" class="st0" width="8.5" height="198.4"/>
</g>
<g id="LWPOLYLINE_38_">
	<rect x="1219.6" y="948.6" class="st0" width="170.1" height="8.5"/>
</g>
<g id="LWPOLYLINE_39_">
	<rect x="1708.5" y="971.3" class="st0" width="8.5" height="566.9"/>
</g>
<g id="LWPOLYLINE_40_">
	<rect x="1460.5" y="1042.2" class="st0" width="8.5" height="425.2"/>
</g>
<g id="LWPOLYLINE_41_">
	<rect x="892.2" y="971.3" class="st0" width="8.5" height="566.9"/>
</g>
<g id="LWPOLYLINE_42_">
	<rect x="1140.2" y="1042.2" class="st0" width="8.5" height="425.2"/>
</g>
<g id="LWPOLYLINE_43_">
	
		<rect x="883.4" y="786.8" transform="matrix(0.7071 -0.7071 0.7071 0.7071 -271.5261 926.5113)" class="st0" width="198.4" height="8.5"/>
</g>
<g id="LWPOLYLINE_44_">
	
		<rect x="1527.4" y="1714.3" transform="matrix(0.7071 -0.7071 0.7071 0.7071 -738.7731 1653.5531)" class="st0" width="198.4" height="8.5"/>
</g>
<g id="LWPOLYLINE_45_">
	<rect x="1219.6" y="1552.4" class="st0" width="170.1" height="8.5"/>
</g>
<g id="LWPOLYLINE_46_">
	
		<rect x="978.3" y="1619.3" transform="matrix(0.7071 -0.7071 0.7071 0.7071 -927.3919 1198.1073)" class="st0" width="8.5" height="198.4"/>
</g>
<g id="LWPOLYLINE_47_">
	<polygon class="st0" points="595.4,1654 595.4,1645.5 793.8,1645.5 793.8,1654 814.7,1654 814.7,1880.8 793.8,1880.8 793.8,1889.3 
		595.4,1889.3 595.4,1880.8 574.5,1880.8 574.5,1654 	"/>
</g>
<g id="LWPOLYLINE_48_">
	<polygon class="st0" points="1703.8,1964 1695.3,1964 1695.3,1765.5 1703.8,1765.5 1703.8,1744.7 1930.6,1744.7 1930.6,1765.5 
		1939.1,1765.5 1939.1,1964 1930.6,1964 1930.6,1984.8 1703.8,1984.8 	"/>
</g>
<g id="LWPOLYLINE_49_">
	<polygon class="st0" points="2013.8,855.5 2013.8,864 1815.4,864 1815.4,855.5 1794.5,855.5 1794.5,628.8 1815.4,628.8 
		1815.4,620.3 2013.8,620.3 2013.8,628.8 2034.7,628.8 2034.7,855.5 	"/>
</g>
<g id="LWPOLYLINE_50_">
	<polygon class="st0" points="2031.8,971.3 2040.3,971.3 2040.3,1538.2 2031.8,1538.2 2031.8,1630.6 1805.1,1630.6 1805.1,1538.2 
		1796.6,1538.2 1796.6,971.3 1805.1,971.3 1805.1,878.9 2031.8,878.9 	"/>
</g>
<g id="LWPOLYLINE_51_">
	<path class="st0" d="M1351.4,2185.2h-93.5c-5.5,0-9.9-4.4-9.9-9.9v-31.2h-177.4v-226.8h92.4v-7.1h283.5v7.1h92.4v226.8h-177.4v31.2
		C1361.3,2180.8,1356.9,2185.2,1351.4,2185.2z"/>
</g>
<g id="LWPOLYLINE_52_">
	<rect x="1276.3" y="2164" class="st0" width="56.7" height="9.9"/>
</g>
</svg>
