<?xml version="1.0" encoding="utf-8"?>
<!-- Generator: Adobe Illustrator 22.0.0, SVG Export Plug-In . SVG Version: 6.00 Build 0)  -->
<svg version="1.1" id="_x30_" xmlns="http://www.w3.org/2000/svg" xmlns:xlink="http://www.w3.org/1999/xlink" x="0px" y="0px"
	 viewBox="0 0 5392 2332" style="enable-background:new 0 0 5392 2332;" xml:space="preserve">
<style type="text/css">
	.st0{fill:none;stroke:#000000;stroke-width:0.7087;stroke-linecap:round;stroke-linejoin:round;stroke-miterlimit:10;}
</style>
<g id="LWPOLYLINE">
	<rect x="1204.5" y="996.6" class="st0" width="283.5" height="141.7"/>
</g>
<g id="LWPOLYLINE_1_">
	<polygon class="st0" points="1629.7,713.1 1771.5,854.9 1771.5,1280 1629.7,1421.8 1204.5,1421.8 1204.5,1847 921.1,1847 
		921.1,713.1 	"/>
</g>
<g id="LWPOLYLINE_2_">
	<rect x="1111.6" y="725.9" class="st0" width="340.2" height="8.5"/>
</g>
<g id="LWPOLYLINE_3_">
	<rect x="1003.3" y="1825.7" class="st0" width="119.1" height="8.5"/>
</g>
<g id="LWPOLYLINE_4_">
	<polygon class="st0" points="1810.9,630.1 1810.9,588.3 2037.7,588.3 2037.7,630.1 2046.2,630.1 2046.2,729.3 2037.7,729.3 
		2037.7,771.1 1810.9,771.1 1810.9,729.3 1802.4,729.3 1802.4,630.1 	"/>
</g>
<g id="LWPOLYLINE_5_">
	<polygon class="st0" points="1810.9,1504.8 1810.9,1546.6 2037.7,1546.6 2037.7,1504.8 2046.2,1504.8 2046.2,1405.6 2037.7,1405.6 
		2037.7,1363.8 1810.9,1363.8 1810.9,1405.6 1802.4,1405.6 1802.4,1504.8 	"/>
</g>
<g id="LWPOLYLINE_6_">
	<polygon class="st0" points="597.8,996.6 589.3,996.6 589.3,1563.5 597.8,1563.5 597.8,1825.7 824.6,1825.7 824.6,1563.5 
		833.1,1563.5 833.1,996.6 824.6,996.6 824.6,734.4 597.8,734.4 	"/>
</g>
<g id="LWPOLYLINE_7_">
	<polygon class="st0" points="1861.2,1166.7 1852.7,1166.7 1852.7,968.2 1861.2,968.2 1861.2,863.7 2088,863.7 2088,968.2 
		2096.5,968.2 2096.5,1166.7 2088,1166.7 2088,1271.3 1861.2,1271.3 	"/>
</g>
<g id="LWPOLYLINE_8_">
	<polygon class="st0" points="2005.8,1868.6 2005.8,1877.1 2218.4,1877.1 2218.4,1868.6 2327.4,1868.6 2327.4,1641.8 2218.4,1641.8 
		2218.4,1633.3 2005.8,1633.3 2005.8,1641.8 1896.8,1641.8 1896.8,1868.6 	"/>
</g>
<g id="LWPOLYLINE_9_">
	<polygon class="st0" points="1271.2,1583.7 1271.2,1480.9 1498,1480.9 1498,1583.7 1506.5,1583.7 1506.5,1796.3 1498,1796.3 
		1498,1899 1271.2,1899 1271.2,1796.3 1262.7,1796.3 1262.7,1583.7 	"/>
</g>
<g id="LWPOLYLINE_10_">
	<rect x="1034.5" y="2141.9" class="st0" width="56.7" height="9.9"/>
</g>
<g id="LWPOLYLINE_11_">
	<path class="st0" d="M1119.5,2122h63.8v-226.8h-60.9v-8.5h-119.1v8.5h-60.9V2122h63.8v31.2c0,5.5,4.4,9.9,9.9,9.9h93.5
		c5.5,0,9.9-4.4,9.9-9.9C1119.5,2153.2,1119.5,2122,1119.5,2122z"/>
</g>
<g id="LWPOLYLINE_12_">
	<rect x="1253.3" y="415" class="st0" width="56.7" height="9.9"/>
</g>
<g id="LWPOLYLINE_13_">
	<path class="st0" d="M1338.3,444.8v-31.2c0-5.5-4.4-9.9-9.9-9.9h-93.5c-5.5,0-9.9,4.4-9.9,9.9v31.2H942.4v226.8h169.2v8.5h340.2
		v-8.5H1621V444.8H1338.3z"/>
</g>
<g id="LWPOLYLINE_14_">
	<polygon class="st0" points="2597.6,1024.9 2606.1,1024.9 2606.1,1110 2597.6,1110 2597.6,1152.5 2370.9,1152.5 2370.9,1110 
		2362.3,1110 2362.3,1024.9 2370.9,1024.9 2370.9,982.4 2597.6,982.4 	"/>
</g>
<g id="LWPOLYLINE_15_">
	<polygon class="st0" points="2370.9,1230.4 2370.9,1152.5 2597.6,1152.5 2597.6,1230.4 2606.1,1230.4 2606.1,1386.3 2597.6,1386.3 
		2597.6,1464.3 2370.9,1464.3 2370.9,1386.3 2362.3,1386.3 2362.3,1230.4 	"/>
</g>
<g id="LWPOLYLINE_16_">
	<polygon class="st0" points="2597.6,543 2606.1,543 2606.1,628.1 2597.6,628.1 2597.6,670.6 2370.9,670.6 2370.9,628.1 
		2362.3,628.1 2362.3,543 2370.9,543 2370.9,500.5 2597.6,500.5 	"/>
</g>
<g id="LWPOLYLINE_17_">
	<polygon class="st0" points="2370.9,748.6 2370.9,670.6 2597.6,670.6 2597.6,748.6 2606.1,748.6 2606.1,904.5 2597.6,904.5 
		2597.6,982.4 2370.9,982.4 2370.9,904.5 2362.3,904.5 2362.3,748.6 	"/>
</g>
<g id="LWPOLYLINE_18_">
	<rect x="3276" y="996.6" class="st0" width="283.5" height="141.7"/>
</g>
<g id="LWPOLYLINE_19_">
	<rect x="3240.6" y="961.2" class="st0" width="354.3" height="212.6"/>
</g>
<g id="LWPOLYLINE_20_">
	<polygon class="st0" points="3701.2,713.1 3843,854.9 3843,1280 3701.2,1421.8 3276,1421.8 3276,1847 2992.6,1847 2992.6,713.1 	
		"/>
</g>
<g id="LWPOLYLINE_21_">
	<polygon class="st0" points="3686.6,748.6 3807.5,869.5 3807.5,1265.4 3686.6,1386.3 3240.6,1386.3 3240.6,1811.5 3028,1811.5 
		3028,748.6 	"/>
</g>
<g id="LWPOLYLINE_22_">
	<rect x="3074.8" y="1825.7" class="st0" width="119.1" height="8.5"/>
</g>
<g id="LWPOLYLINE_23_">
	
		<rect x="3755.8" y="746.4" transform="matrix(0.7071 -0.7071 0.7071 0.7071 538.4109 2891.9036)" class="st0" width="8.5" height="99.2"/>
</g>
<g id="LWPOLYLINE_24_">
	<rect x="3821.7" y="968.2" class="st0" width="8.5" height="198.4"/>
</g>
<g id="LWPOLYLINE_25_">
	<rect x="3005.3" y="996.6" class="st0" width="8.5" height="566.9"/>
</g>
<g id="LWPOLYLINE_26_">
	<rect x="3370.8" y="1400.5" class="st0" width="212.6" height="8.5"/>
</g>
<g id="LWPOLYLINE_27_">
	<rect x="3254.8" y="1510.4" class="st0" width="8.5" height="212.6"/>
</g>
<g id="LWPOLYLINE_28_">
	<rect x="3573.7" y="1024.9" class="st0" width="8.5" height="85"/>
</g>
<g id="LWPOLYLINE_29_">
	<rect x="3339.8" y="973.9" class="st0" width="155.9" height="8.5"/>
</g>
<g id="LWPOLYLINE_30_">
	<rect x="3339.8" y="1152.5" class="st0" width="155.9" height="8.5"/>
</g>
<g id="LWPOLYLINE_31_">
	<rect x="3253.4" y="1024.9" class="st0" width="8.5" height="85"/>
</g>
<g id="LWPOLYLINE_32_">
	<rect x="3293.6" y="725.9" class="st0" width="119.1" height="8.5"/>
</g>
<g id="LWPOLYLINE_33_">
	<rect x="4326" y="996.6" class="st0" width="283.5" height="141.7"/>
</g>
<g id="LWPOLYLINE_34_">
	<polygon class="st0" points="4751.2,713.1 4892.9,854.9 4892.9,1280 4751.2,1421.8 4326,1421.8 4326,1847 4042.5,1847 
		4042.5,713.1 	"/>
</g>
<g id="LWPOLYLINE_35_">
	<rect x="4343.6" y="724.5" class="st0" width="119.1" height="11.3"/>
</g>
<g id="LWPOLYLINE_36_">
	<rect x="4124.7" y="1824.3" class="st0" width="119.1" height="11.3"/>
</g>
<g id="LWPOLYLINE_38_">
	
		<rect x="3710.5" y="1334.6" transform="matrix(0.7071 -0.7071 0.7071 0.7071 154.5839 3050.9006)" class="st0" width="99.2" height="8.5"/>
</g>
<g id="LWPOLYLINE_39_">
	
		<rect x="1684.3" y="746.4" transform="matrix(0.7071 -0.7071 0.7071 0.7071 -68.3019 1427.1362)" class="st0" width="8.5" height="99.2"/>
</g>
<g id="LWPOLYLINE_40_">
	<rect x="1750.2" y="968.2" class="st0" width="8.5" height="198.4"/>
</g>
<g id="LWPOLYLINE_41_">
	<rect x="933.8" y="996.6" class="st0" width="8.5" height="566.9"/>
</g>
<g id="LWPOLYLINE_42_">
	<rect x="1299.3" y="1400.5" class="st0" width="212.6" height="8.5"/>
</g>
<g id="LWPOLYLINE_43_">
	<rect x="1183.3" y="1510.4" class="st0" width="8.5" height="212.6"/>
</g>
<g id="LWPOLYLINE_44_">
	<rect x="1502.2" y="1024.9" class="st0" width="8.5" height="85"/>
</g>
<g id="LWPOLYLINE_45_">
	<rect x="1268.3" y="973.9" class="st0" width="155.9" height="8.5"/>
</g>
<g id="LWPOLYLINE_46_">
	<rect x="1268.3" y="1152.5" class="st0" width="155.9" height="8.5"/>
</g>
<g id="LWPOLYLINE_47_">
	<rect x="1181.9" y="1024.9" class="st0" width="8.5" height="85"/>
</g>
<g id="LWPOLYLINE_48_">
	
		<rect x="1639" y="1334.6" transform="matrix(0.7071 -0.7071 0.7071 0.7071 -452.1289 1586.1334)" class="st0" width="99.2" height="8.5"/>
</g>
</svg>
