<?xml version="1.0" encoding="utf-8"?>
<!-- Generator: Adobe Illustrator 22.0.0, SVG Export Plug-In . SVG Version: 6.00 Build 0)  -->
<svg version="1.1" id="_x30_" xmlns="http://www.w3.org/2000/svg" xmlns:xlink="http://www.w3.org/1999/xlink" x="0px" y="0px"
	 viewBox="0 0 5468 2656" style="enable-background:new 0 0 5468 2656;" xml:space="preserve">
<style type="text/css">
	.st0{fill:none;stroke:#000000;stroke-width:0.7087;stroke-linecap:round;stroke-linejoin:round;stroke-miterlimit:10;}
</style>
<g id="LWPOLYLINE">
	<polygon class="st0" points="4568.6,1228.2 4668.8,1328.4 4668.8,943.8 4385.4,943.8 4385.4,1510.7 4567.7,1510.7 4426.9,1369.9 	
		"/>
</g>
<g id="LWPOLYLINE_1_">
	<rect x="4467.6" y="671.6" class="st0" width="119.1" height="11.3"/>
</g>
<g id="LWPOLYLINE_2_">
	<rect x="4467.6" y="1771.5" class="st0" width="119.1" height="11.3"/>
</g>
<g id="LWPOLYLINE_3_">
	<polygon class="st0" points="4952.3,1611.9 5134.6,1794.2 4851.1,1794.2 4810.6,1753.6 4770,1794.2 4284.2,1794.2 4101.9,1611.9 
		4101.9,842.6 4284.2,660.3 4770,660.3 4952.3,842.6 	"/>
</g>
<g id="LWPOLYLINE_4_">
	<polygon class="st0" points="1372.5,1228.2 1472.8,1328.4 1472.8,943.8 1189.3,943.8 1189.3,1510.7 1371.6,1510.7 1230.8,1369.9 	
		"/>
</g>
<g id="LWPOLYLINE_5_">
	<polygon class="st0" points="1756.2,1611.9 1938.5,1794.2 1655.1,1794.2 1614.5,1753.6 1573.9,1794.2 1088.1,1794.2 905.8,1611.9 
		905.8,842.6 1088.1,660.3 1573.9,660.3 1756.2,842.6 	"/>
</g>
<g id="LWPOLYLINE_6_">
	<rect x="1189.3" y="673.1" class="st0" width="283.5" height="8.5"/>
</g>
<g id="LWPOLYLINE_7_">
	<rect x="1189.3" y="1772.9" class="st0" width="283.5" height="8.5"/>
</g>
<g id="LWPOLYLINE_8_">
	<polygon class="st0" points="1849.9,1489.7 1841.4,1489.7 1841.4,979.4 1849.9,979.4 1849.9,851.4 2076.6,851.4 2076.6,979.4 
		2085.1,979.4 2085.1,1489.7 2076.6,1489.7 2076.6,1617.7 1849.9,1617.7 	"/>
</g>
<g id="LWPOLYLINE_9_">
	<polygon class="st0" points="1832.2,2119.6 1887.2,2119.6 1887.2,1892.9 1832.2,1892.9 1832.2,1884.4 1718.8,1884.4 1718.8,1892.9 
		1663.9,1892.9 1663.9,2119.6 1718.8,2119.6 1718.8,2128.1 1832.2,2128.1 	"/>
</g>
<g id="LWPOLYLINE_10_">
	<polygon class="st0" points="1985.8,1728.2 1985.8,1671.6 2212.5,1671.6 2212.5,1728.2 2221,1728.2 2221,1827.4 2212.5,1827.4 
		2212.5,1883.9 1985.8,1883.9 1985.8,1827.4 1977.3,1827.4 1977.3,1728.2 	"/>
</g>
<g id="LWPOLYLINE_11_">
	<polygon class="st0" points="1647.4,2043.3 1657.5,2043.3 1657.5,1816.5 1647.4,1816.5 1647.4,1808 1604.9,1808 1604.9,1816.5 
		1594.8,1816.5 1594.8,2043.3 1604.9,2043.3 1604.9,2051.8 1647.4,2051.8 	"/>
</g>
<g id="LWPOLYLINE_12_">
	<polygon class="st0" points="1584.7,2043.3 1594.8,2043.3 1594.8,1816.5 1584.7,1816.5 1584.7,1808 1542.1,1808 1542.1,1816.5 
		1532,1816.5 1532,2043.3 1542.1,2043.3 1542.1,2051.8 1584.7,2051.8 	"/>
</g>
<g id="LWPOLYLINE_13_">
	<polygon class="st0" points="603.8,943.8 595.3,943.8 595.3,1510.7 603.8,1510.7 603.8,1603.1 830.6,1603.1 830.6,1510.7 
		839.1,1510.7 839.1,943.8 830.6,943.8 830.6,851.4 603.8,851.4 	"/>
</g>
<g id="LWPOLYLINE_14_">
	<path class="st0" d="M1377.8,296.8h-93.5c-5.5,0-9.9,4.4-9.9,9.9v31.2H1097v226.8h92.4v8.5h283.5v-8.5h92.4V337.9h-177.4v-31.2
		C1387.7,301.2,1383.3,296.8,1377.8,296.8z"/>
</g>
<g id="LWPOLYLINE_15_">
	<rect x="1302.7" y="308.1" class="st0" width="56.7" height="9.9"/>
</g>
<g id="LWPOLYLINE_16_">
	<polygon class="st0" points="2323.9,444.9 2323.9,436.4 2494,436.4 2494,444.9 2564.9,444.9 2564.9,671.7 2494,671.7 2494,680.2 
		2323.9,680.2 2323.9,671.7 2253,671.7 2253,444.9 	"/>
</g>
<g id="LWPOLYLINE_17_">
	<path class="st0" d="M1377.8,2332.7h-93.5c-5.5,0-9.9-4.4-9.9-9.9v-25.5H1097v-226.8h92.4v-8.5h283.5v8.5h92.4v226.8h-177.4v25.5
		C1387.7,2328.3,1383.3,2332.7,1377.8,2332.7z"/>
</g>
<g id="LWPOLYLINE_18_">
	<rect x="1302.7" y="2311.5" class="st0" width="56.7" height="9.9"/>
</g>
<g id="LWPOLYLINE_19_">
	<polygon class="st0" points="931.8,518 940.3,518 940.3,716.5 931.8,716.5 931.8,737.3 705,737.3 705,716.5 696.5,716.5 696.5,518 
		705,518 705,497.2 931.8,497.2 	"/>
</g>
<g id="LWPOLYLINE_20_">
	<polygon class="st0" points="931.8,1936.4 940.3,1936.4 940.3,1738 931.8,1738 931.8,1717.1 705,1717.1 705,1738 696.5,1738 
		696.5,1936.4 705,1936.4 705,1957.3 931.8,1957.3 	"/>
</g>
<g id="LWPOLYLINE_21_">
	<path class="st0" d="M2655,630.1v-14.2c0-31.3,25.4-56.7,56.7-56.7s56.7,25.4,56.7,56.7v56.7v70.9c0,7.8-6.3,14.2-14.2,14.2h-85
		c-7.8,0-14.2-6.3-14.2-14.2v-56.7c0-7.8,6.3-14.2,14.2-14.2h68c7.8,0,14.2-6.3,14.2-14.2v-42.5c0-21.9-17.8-39.7-39.7-39.7
		c-21.9,0-39.7,17.8-39.7,39.7v14.2c0,4.7-3.8,8.5-8.5,8.5S2655,634.7,2655,630.1z"/>
</g>
<g id="LWPOLYLINE_22_">
	<path class="st0" d="M2715.9,710.7v10.2c0,2.3-1.9,4.3-4.3,4.3c-2.4,0-4.3-1.9-4.3-4.3v-10.2c-1.3-0.7-2.4-1.8-3.1-3.1
		c-2.3-4.1-1-9.3,3.1-11.6c4.1-2.3,9.3-1,11.6,3.1C2721.4,703.2,2720,708.4,2715.9,710.7z"/>
</g>
<g id="LWPOLYLINE_23_">
	<path class="st0" d="M2628.7,397.2V383c0-31.3,25.4-56.7,56.7-56.7c31.3,0,56.7,25.4,56.7,56.7v56.7v70.9c0,7.8-6.3,14.2-14.2,14.2
		h-85c-7.8,0-14.2-6.3-14.2-14.2v-56.7c0-7.8,6.3-14.2,14.2-14.2h68c7.8,0,14.2-6.3,14.2-14.2V383c0-21.9-17.8-39.7-39.7-39.7
		c-21.9,0-39.7,17.8-39.7,39.7v14.2c0,4.7-3.8,8.5-8.5,8.5S2628.7,401.9,2628.7,397.2z"/>
</g>
<g id="LWPOLYLINE_24_">
	<path class="st0" d="M2689.6,477.9v10.2c0,2.3-1.9,4.3-4.3,4.3c-2.4,0-4.3-1.9-4.3-4.3v-10.2c-1.3-0.7-2.4-1.8-3.1-3.1
		c-2.3-4.1-1-9.3,3.1-11.6s9.3-1,11.6,3.1C2694.9,470.4,2693.7,475.6,2689.6,477.9z"/>
</g>
<g id="LWPOLYLINE_25_">
	<polygon class="st0" points="2211.9,1439.8 2203.4,1439.8 2203.4,1014.6 2211.9,1014.6 2211.9,929.6 2438.7,929.6 2438.7,1014.6 
		2447.2,1014.6 2447.2,1439.8 2438.7,1439.8 2438.7,1524.9 2211.9,1524.9 	"/>
</g>
<g id="LWPOLYLINE_26_">
	<polygon class="st0" points="2173.1,452.2 2173.1,443.7 2054,443.7 2054,452.2 1998.2,452.2 1998.2,679 2054,679 2054,687.5 
		2173.1,687.5 2173.1,679 2228.9,679 2228.9,452.2 	"/>
</g>
<g id="LWPOLYLINE_27_">
	<polygon class="st0" points="2383.4,1722.9 2374.9,1722.9 2374.9,1808 2383.4,1808 2383.4,1871.5 2610.1,1871.5 2610.1,1808 
		2618.6,1808 2618.6,1722.9 2610.1,1722.9 2610.1,1659.4 2383.4,1659.4 	"/>
</g>
<g id="LWPOLYLINE_28_">
	<polygon class="st0" points="2089.9,2122.7 2081.4,2122.7 2081.4,1995.1 2089.9,1995.1 2089.9,1981.5 2316.6,1981.5 2316.6,1995.1 
		2325.1,1995.1 2325.1,2122.7 2316.6,2122.7 2316.6,2136.2 2089.9,2136.2 	"/>
</g>
<g id="LWPOLYLINE_29_">
	<polygon class="st0" points="2054,2530.5 2054,2539.1 2110.7,2539.1 2110.7,2530.5 2161.3,2530.5 2161.3,2303.8 2110.7,2303.8 
		2110.7,2295.3 2054,2295.3 2054,2303.8 2003.4,2303.8 2003.4,2530.5 	"/>
</g>
<g id="LWPOLYLINE_30_">
	<polygon class="st0" points="2883.8,1259.5 2892.3,1259.5 2892.3,1032.7 2883.8,1032.7 2883.8,929.6 2657.1,929.6 2657.1,1032.7 
		2648.6,1032.7 2648.6,1259.5 2657.1,1259.5 2657.1,1362.6 2883.8,1362.6 	"/>
</g>
<g id="LWPOLYLINE_31_">
	<polygon class="st0" points="3568.5,1228.2 3668.7,1328.4 3668.7,943.8 3385.3,943.8 3385.3,1510.7 3567.6,1510.7 3426.8,1369.9 	
		"/>
</g>
<g id="LWPOLYLINE_32_">
	<polygon class="st0" points="3568.5,1278.3 3704.2,1413.9 3704.2,908.3 3349.8,908.3 3349.8,1546.1 3653.1,1546.1 3476.9,1369.9 	
		"/>
</g>
<g id="LWPOLYLINE_33_">
	<polygon class="st0" points="3952.2,1611.9 4134.5,1794.2 3851,1794.2 3810.5,1753.6 3769.9,1794.2 3284.1,1794.2 3101.8,1611.9 
		3101.8,842.6 3284.1,660.3 3769.9,660.3 3952.2,842.6 	"/>
</g>
<g id="LWPOLYLINE_34_">
	<polygon class="st0" points="3916.8,1626.5 4049,1758.7 3865.7,1758.7 3810.5,1703.5 3755.2,1758.7 3298.8,1758.7 3137.2,1597.2 
		3137.2,857.3 3298.8,695.7 3755.2,695.7 3916.8,857.3 	"/>
</g>
<g id="LWPOLYLINE_35_">
	<rect x="3930.9" y="979.4" class="st0" width="8.5" height="510.2"/>
</g>
<g id="LWPOLYLINE_36_">
	<rect x="3914.8" y="1772.9" class="st0" width="113.4" height="8.5"/>
</g>
<g id="LWPOLYLINE_37_">
	
		<rect x="4006.9" y="1645.2" transform="matrix(0.7071 -0.7071 0.7071 0.7071 -23.5614 3332.6753)" class="st0" width="8.5" height="99.2"/>
</g>
<g id="LWPOLYLINE_38_">
	
		<rect x="3830.4" y="1732.5" transform="matrix(0.7071 -0.7071 0.7071 0.7071 -116.945 3225.1746)" class="st0" width="8.5" height="42.5"/>
</g>
<g id="LWPOLYLINE_39_">
	
		<rect x="3765" y="1749.5" transform="matrix(0.7071 -0.7071 0.7071 0.7071 -131.1362 3190.9663)" class="st0" width="42.5" height="8.5"/>
</g>
<g id="LWPOLYLINE_40_">
	<rect x="3426.9" y="1524.9" class="st0" width="119.1" height="8.5"/>
</g>
<g id="LWPOLYLINE_41_">
	<polygon class="st0" points="3496.7,1419.8 3502.8,1413.8 3562.9,1474 3556.9,1480 	"/>
</g>
<g id="LWPOLYLINE_42_">
	
		<rect x="3621" y="1247.2" transform="matrix(0.7071 -0.7071 0.7071 0.7071 134.8282 2947.4336)" class="st0" width="8.5" height="127.6"/>
</g>
<g id="LWPOLYLINE_43_">
	
		<rect x="3481.3" y="1306.8" transform="matrix(0.7071 -0.7071 0.7071 0.7071 100.871 2865.6965)" class="st0" width="56.7" height="8.5"/>
</g>
<g id="LWPOLYLINE_44_">
	<rect x="3682.9" y="1032.7" class="st0" width="8.5" height="226.8"/>
</g>
<g id="LWPOLYLINE_45_">
	<rect x="3467.5" y="673.1" class="st0" width="119.1" height="9.9"/>
</g>
<g id="LWPOLYLINE_46_">
	<rect x="3467.5" y="1771.5" class="st0" width="119.1" height="9.9"/>
</g>
<g id="LWPOLYLINE_48_">
	<polygon class="st0" points="1730.3,518 1721.8,518 1721.8,716.5 1730.3,716.5 1730.3,737.3 1957,737.3 1957,716.5 1965.5,716.5 
		1965.5,518 1957,518 1957,497.2 1730.3,497.2 	"/>
</g>
<g id="LWPOLYLINE_49_">
	
		<rect x="3844.8" y="664.3" transform="matrix(0.7071 -0.7071 0.7071 0.7071 587.4935 2945.3203)" class="st0" width="8.5" height="198.4"/>
</g>
<g id="LWPOLYLINE_50_">
	<rect x="3442" y="921.1" class="st0" width="170.1" height="8.5"/>
</g>
<g id="LWPOLYLINE_51_">
	<rect x="3114.6" y="943.8" class="st0" width="8.5" height="566.9"/>
</g>
<g id="LWPOLYLINE_52_">
	<rect x="3362.6" y="1014.6" class="st0" width="8.5" height="425.2"/>
</g>
<g id="LWPOLYLINE_53_">
	
		<rect x="3105.8" y="759.2" transform="matrix(0.7071 -0.7071 0.7071 0.7071 398.8747 2489.8745)" class="st0" width="198.4" height="8.5"/>
</g>
<g id="LWPOLYLINE_54_">
	
		<rect x="3200.7" y="1591.8" transform="matrix(0.7071 -0.7071 0.7071 0.7071 -257.0203 2761.5413)" class="st0" width="8.5" height="198.4"/>
</g>
<g id="LWPOLYLINE_55_">
	<rect x="1735" y="979.4" class="st0" width="8.5" height="510.2"/>
</g>
<g id="LWPOLYLINE_56_">
	<rect x="1718.8" y="1772.9" class="st0" width="113.4" height="8.5"/>
</g>
<g id="LWPOLYLINE_57_">
	
		<rect x="1810.9" y="1645.2" transform="matrix(0.7071 -0.7071 0.7071 0.7071 -666.7506 1779.8855)" class="st0" width="8.5" height="99.2"/>
</g>
<g id="LWPOLYLINE_58_">
	
		<rect x="1634.4" y="1732.5" transform="matrix(0.7071 -0.7071 0.7071 0.7071 -760.1342 1672.385)" class="st0" width="8.5" height="42.5"/>
</g>
<g id="LWPOLYLINE_59_">
	
		<rect x="1569.1" y="1749.5" transform="matrix(0.7071 -0.7071 0.7071 0.7071 -774.2549 1638.2061)" class="st0" width="42.5" height="8.5"/>
</g>
<g id="LWPOLYLINE_60_">
	<rect x="1230.9" y="1524.9" class="st0" width="119.1" height="8.5"/>
</g>
<g id="LWPOLYLINE_61_">
	<polygon class="st0" points="1300.8,1419.8 1306.8,1413.8 1366.9,1474 1360.9,1480 	"/>
</g>
<g id="LWPOLYLINE_62_">
	
		<rect x="1425.1" y="1247.2" transform="matrix(0.7071 -0.7071 0.7071 0.7071 -508.361 1394.6439)" class="st0" width="8.5" height="127.6"/>
</g>
<g id="LWPOLYLINE_63_">
	
		<rect x="1285.4" y="1306.8" transform="matrix(0.7071 -0.7071 0.7071 0.7071 -542.2474 1312.9363)" class="st0" width="56.7" height="8.5"/>
</g>
<g id="LWPOLYLINE_64_">
	<rect x="1486.9" y="1032.7" class="st0" width="8.5" height="226.8"/>
</g>
<g id="LWPOLYLINE_65_">
	
		<rect x="1648.8" y="664.3" transform="matrix(0.7071 -0.7071 0.7071 0.7071 -55.6957 1392.5306)" class="st0" width="8.5" height="198.4"/>
</g>
<g id="LWPOLYLINE_66_">
	<rect x="1246" y="921.1" class="st0" width="170.1" height="8.5"/>
</g>
<g id="LWPOLYLINE_67_">
	<rect x="918.6" y="943.8" class="st0" width="8.5" height="566.9"/>
</g>
<g id="LWPOLYLINE_68_">
	<rect x="1166.6" y="1014.6" class="st0" width="8.5" height="425.2"/>
</g>
<g id="LWPOLYLINE_69_">
	
		<rect x="909.8" y="759.2" transform="matrix(0.7071 -0.7071 0.7071 0.7071 -244.3145 937.085)" class="st0" width="198.4" height="8.5"/>
</g>
<g id="LWPOLYLINE_70_">
	
		<rect x="1004.8" y="1591.8" transform="matrix(0.7071 -0.7071 0.7071 0.7071 -900.1388 1208.781)" class="st0" width="8.5" height="198.4"/>
</g>
</svg>
