<?xml version="1.0" encoding="utf-8"?>
<!-- Generator: Adobe Illustrator 22.0.0, SVG Export Plug-In . SVG Version: 6.00 Build 0)  -->
<svg version="1.1" id="_x30_" xmlns="http://www.w3.org/2000/svg" xmlns:xlink="http://www.w3.org/1999/xlink" x="0px" y="0px"
	 viewBox="0 0 5741 2965.4" style="enable-background:new 0 0 5741 2965.4;" xml:space="preserve">
<style type="text/css">
	.st0{fill:none;stroke:#000000;stroke-width:0.7087;stroke-linecap:round;stroke-linejoin:round;stroke-miterlimit:10;}
</style>
<g id="LWPOLYLINE">
	<polygon class="st0" points="4479.4,1166.6 4496.4,1166.6 4496.4,939.8 4479.4,939.8 4479.4,931.3 4451,931.3 4451,939.8 
		4434,939.8 4434,1166.6 4451,1166.6 4451,1175.1 4479.4,1175.1 	"/>
</g>
<g id="LWPOLYLINE_1_">
	<polygon class="st0" points="4264.3,875.6 4282.7,875.6 4282.7,648.9 4264.3,648.9 4264.3,640.4 4221.7,640.4 4221.7,648.9 
		4203.3,648.9 4203.3,875.6 4221.7,875.6 4221.7,884.1 4264.3,884.1 	"/>
</g>
<g id="LWPOLYLINE_2_">
	<polygon class="st0" points="4541.7,1166.6 4558.7,1166.6 4558.7,939.8 4541.7,939.8 4541.7,931.3 4513.4,931.3 4513.4,939.8 
		4496.4,939.8 4496.4,1166.6 4513.4,1166.6 4513.4,1175.1 4541.7,1175.1 	"/>
</g>
<g id="LWPOLYLINE_3_">
	<polygon class="st0" points="4604.1,1166.6 4621.1,1166.6 4621.1,939.8 4604.1,939.8 4604.1,931.3 4575.7,931.3 4575.7,939.8 
		4558.7,939.8 4558.7,1166.6 4575.7,1166.6 4575.7,1175.1 4604.1,1175.1 	"/>
</g>
<g id="LWPOLYLINE_4_">
	<polygon class="st0" points="4666.4,1166.6 4683.5,1166.6 4683.5,939.8 4666.4,939.8 4666.4,931.3 4638.1,931.3 4638.1,939.8 
		4621.1,939.8 4621.1,1166.6 4638.1,1166.6 4638.1,1175.1 4666.4,1175.1 	"/>
</g>
<g id="LWPOLYLINE_5_">
	<polygon class="st0" points="4343.6,875.6 4362.1,875.6 4362.1,648.9 4343.6,648.9 4343.6,640.4 4301.1,640.4 4301.1,648.9 
		4282.7,648.9 4282.7,875.6 4301.1,875.6 4301.1,884.1 4343.6,884.1 	"/>
</g>
<g id="LWPOLYLINE_6_">
	<polygon class="st0" points="4423,875.6 4441.4,875.6 4441.4,648.9 4423,648.9 4423,640.4 4380.5,640.4 4380.5,648.9 4362.1,648.9 
		4362.1,875.6 4380.5,875.6 4380.5,884.1 4423,884.1 	"/>
</g>
<g id="LWPOLYLINE_7_">
	<polygon class="st0" points="4502.4,875.6 4520.8,875.6 4520.8,648.9 4502.4,648.9 4502.4,640.4 4459.9,640.4 4459.9,648.9 
		4441.4,648.9 4441.4,875.6 4459.9,875.6 4459.9,884.1 4502.4,884.1 	"/>
</g>
<g id="LWPOLYLINE_8_">
	<polygon class="st0" points="4581.7,875.6 4600.2,875.6 4600.2,648.9 4581.7,648.9 4581.7,640.4 4539.2,640.4 4539.2,648.9 
		4520.8,648.9 4520.8,875.6 4539.2,875.6 4539.2,884.1 4581.7,884.1 	"/>
</g>
<g id="LWPOLYLINE_9_">
	<polygon class="st0" points="4837.3,1161.6 4872.8,1161.6 4872.8,934.8 4837.3,934.8 4837.3,926.3 4766.5,926.3 4766.5,934.8 
		4731,934.8 4731,1161.6 4766.5,1161.6 4766.5,1170.1 4837.3,1170.1 	"/>
</g>
<g id="LWPOLYLINE_10_">
	<polygon class="st0" points="3489,1767.5 3497.5,1767.5 3497.5,1200.5 3489,1200.5 3489,931.3 3262.3,931.3 3262.3,1200.5 
		3253.7,1200.5 3253.7,1767.5 3262.3,1767.5 3262.3,2036.8 3489,2036.8 	"/>
</g>
<g id="LWPOLYLINE_11_">
	<polygon class="st0" points="3948.7,765.5 3948.7,790.3 4175.4,790.3 4175.4,765.5 4183.9,765.5 4183.9,715.9 4175.4,715.9 
		4175.4,691.1 3948.7,691.1 3948.7,715.9 3940.2,715.9 3940.2,765.5 	"/>
</g>
<g id="LWPOLYLINE_12_">
	<polygon class="st0" points="3204.2,881.4 3271.5,881.4 3271.5,654.6 3204.2,654.6 3204.2,646.1 3076.6,646.1 3076.6,654.6 
		3009.3,654.6 3009.3,881.4 3076.6,881.4 3076.6,889.9 3204.2,889.9 	"/>
</g>
<g id="LWPOLYLINE_13_">
	<polygon class="st0" points="3466.4,654.6 3533.7,654.6 3533.7,881.4 3466.4,881.4 3466.4,889.9 3338.8,889.9 3338.8,881.4 
		3271.5,881.4 3271.5,654.6 3338.8,654.6 3338.8,646.1 3466.4,646.1 	"/>
</g>
<g id="LWPOLYLINE_14_">
	<polygon class="st0" points="3355.4,365.4 3355.4,356.9 3440.4,356.9 3440.4,365.4 3490,365.4 3490,592.2 3440.4,592.2 
		3440.4,600.7 3355.4,600.7 3355.4,592.2 3305.8,592.2 3305.8,365.4 	"/>
</g>
<g id="LWPOLYLINE_15_">
	<polygon class="st0" points="3701.6,837.7 3701.6,816.5 3928.4,816.5 3928.4,837.7 3936.9,837.7 3936.9,851.9 3928.4,851.9 
		3928.4,873.1 3701.6,873.1 3701.6,851.9 3693.1,851.9 3693.1,837.7 	"/>
</g>
<g id="LWPOLYLINE_16_">
	<polygon class="st0" points="4380.5,1874.3 4372,1874.3 4372,1590.8 4380.5,1590.8 4380.5,1437.8 4607.3,1437.8 4607.3,1590.8 
		4615.8,1590.8 4615.8,1874.3 4607.3,1874.3 4607.3,2027.4 4380.5,2027.4 	"/>
</g>
<g id="LWPOLYLINE_17_">
	<polygon class="st0" points="4711.9,1410.8 4711.9,1419.3 4768.6,1419.3 4768.6,1410.8 4796.6,1410.8 4796.6,1184 4768.6,1184 
		4768.6,1175.5 4711.9,1175.5 4711.9,1184 4683.9,1184 4683.9,1410.8 	"/>
</g>
<g id="LWPOLYLINE_18_">
	<polygon class="st0" points="3547.4,2367.2 3547.4,2375.7 3830.9,2375.7 3830.9,2367.2 3969.1,2367.2 3969.1,2140.4 3830.9,2140.4 
		3830.9,2131.9 3547.4,2131.9 3547.4,2140.4 3409.2,2140.4 3409.2,2367.2 	"/>
</g>
<g id="LWPOLYLINE_19_">
	<path class="st0" d="M1358.4,1484l195,566.9h-283.5l-195-566.9h-88.5v566.9H702.9V917h566.9c156.6,0,283.5,126.9,283.5,283.5v141.7
		c0,78.3-63.5,141.7-141.7,141.7C1411.7,1484,1358.4,1484,1358.4,1484z"/>
</g>
<g id="LWPOLYLINE_20_">
	<path class="st0" d="M986.5,1342.3h248c19.6,0,35.4-15.9,35.4-35.4V1236c0-19.6-15.9-35.4-35.4-35.4h-248V1342.3z"/>
</g>
<g id="LWPOLYLINE_21_">
	<rect x="1347.6" y="2028.3" class="st0" width="113.4" height="11.3"/>
</g>
<g id="LWPOLYLINE_22_">
	<path class="st0" d="M2339.7,1484l195,566.9h-283.5l-195-566.9h-88.5v566.9h-283.5V917.1h566.9c156.6,0,283.5,126.9,283.5,283.5
		v141.7c0,78.3-63.5,141.7-141.7,141.7C2392.9,1484,2339.7,1484,2339.7,1484z"/>
</g>
<g id="LWPOLYLINE_23_">
	<path class="st0" d="M2290,1448.6l195,566.9h-208.5l-195-566.9h-149.2v566.9h-212.6v-1063h531.5c137,0,248,111,248,248v141.7
		c0,58.7-47.6,106.3-106.3,106.3L2290,1448.6L2290,1448.6z"/>
</g>
<g id="LWPOLYLINE_24_">
	<path class="st0" d="M1967.7,1342.3h248c19.6,0,35.4-15.9,35.4-35.4V1236c0-19.6-15.9-35.4-35.4-35.4h-248
		C1967.7,1200.5,1967.7,1342.3,1967.7,1342.3z"/>
</g>
<g id="LWPOLYLINE_25_">
	<path class="st0" d="M1932.3,1377.7h283.5c39.1,0,70.9-31.7,70.9-70.9v-70.9c0-39.1-31.7-70.9-70.9-70.9h-283.5
		C1932.3,1165.1,1932.3,1377.7,1932.3,1377.7z"/>
</g>
<g id="LWPOLYLINE_26_">
	<rect x="2336.8" y="1462.7" class="st0" width="28.3" height="8.5"/>
</g>
<g id="LWPOLYLINE_27_">
	
		<rect x="2408.7" y="1607.8" transform="matrix(0.9456 -0.3252 0.3252 0.9456 -437.7972 879.8319)" class="st0" width="8.5" height="283.5"/>
</g>
<g id="LWPOLYLINE_28_">
	
		<rect x="2162.8" y="1607.7" transform="matrix(0.9456 -0.3252 0.3252 0.9456 -451.1547 799.8625)" class="st0" width="8.5" height="283.5"/>
</g>
<g id="LWPOLYLINE_29_">
	<rect x="2328.9" y="2029.7" class="st0" width="113.4" height="8.5"/>
</g>
<g id="LWPOLYLINE_30_">
	<rect x="1981.6" y="1461.3" class="st0" width="56.7" height="8.5"/>
</g>
<g id="LWPOLYLINE_31_">
	<rect x="1946.4" y="1608" class="st0" width="8.5" height="283.5"/>
</g>
<g id="LWPOLYLINE_32_">
	<rect x="1769.3" y="2029.7" class="st0" width="113.4" height="8.5"/>
</g>
<g id="LWPOLYLINE_33_">
	<path class="st0" d="M4173.4,1484l195,566.9h-283.5l-195-566.9h-88.5v566.9H3518V917.1h566.9c156.6,0,283.5,126.9,283.5,283.5
		v141.7c0,78.3-63.5,141.7-141.7,141.7C4226.6,1484,4173.4,1484,4173.4,1484z"/>
</g>
<g id="LWPOLYLINE_34_">
	<path class="st0" d="M3801.4,1342.3h248c19.6,0,35.4-15.9,35.4-35.4V1236c0-19.6-15.9-35.4-35.4-35.4h-248V1342.3z"/>
</g>
<g id="LWPOLYLINE_35_">
	<rect x="3684.5" y="929.8" class="st0" width="255.1" height="8.5"/>
</g>
<g id="LWPOLYLINE_36_">
	<rect x="4162.6" y="2029.7" class="st0" width="113.4" height="8.5"/>
</g>
<g id="LWPOLYLINE_37_">
	<rect x="3815.3" y="1462.7" class="st0" width="56.7" height="7.1"/>
</g>
<g id="LWPOLYLINE_38_">
	<rect x="3603" y="2029.7" class="st0" width="113.4" height="8.5"/>
</g>
<g id="LWPOLYLINE_39_">
	<rect x="788" y="2028.3" class="st0" width="113.4" height="11.3"/>
</g>
<g id="LWPOLYLINE_40_">
	<rect x="940.4" y="928.4" class="st0" width="113.4" height="11.3"/>
</g>
<g id="LWPOLYLINE_41_">
	<path class="st0" d="M1404.9,686.6v-14.2c0-31.3,25.4-56.7,56.7-56.7s56.7,25.4,56.7,56.7v56.7V800c0,7.8-6.3,14.2-14.2,14.2h-85
		c-7.8,0-14.2-6.3-14.2-14.2v-56.7c0-7.8,6.3-14.2,14.2-14.2h68c7.8,0,14.2-6.3,14.2-14.2v-42.5c0-21.9-17.8-39.7-39.7-39.7
		s-39.7,17.8-39.7,39.7v14.2c0,4.7-3.8,8.5-8.5,8.5C1408.7,695.1,1404.9,691.3,1404.9,686.6z"/>
</g>
<g id="LWPOLYLINE_42_">
	<path class="st0" d="M1465.9,767.3v10.2c0,2.3-1.9,4.3-4.3,4.3s-4.3-1.9-4.3-4.3v-10.2c-1.3-0.7-2.4-1.8-3.1-3.1
		c-2.3-4.1-1-9.3,3.1-11.6c4.1-2.3,9.3-1,11.6,3.1C1471.2,759.8,1469.9,765,1465.9,767.3z"/>
</g>
<g id="LWPOLYLINE_43_">
	<path class="st0" d="M1214.8,683.7v-14.2c0-31.3,25.4-56.7,56.7-56.7c31.3,0,56.7,25.4,56.7,56.7v56.7v70.9
		c0,7.8-6.3,14.2-14.2,14.2h-85c-7.8,0-14.2-6.3-14.2-14.2v-56.7c0-7.8,6.3-14.2,14.2-14.2h68c7.8,0,14.2-6.3,14.2-14.2v-42.5
		c0-21.9-17.8-39.7-39.7-39.7c-21.9,0-39.7,17.8-39.7,39.7v14.2c0,4.7-3.8,8.5-8.5,8.5C1218.6,692.2,1214.8,688.4,1214.8,683.7z"/>
</g>
<g id="LWPOLYLINE_44_">
	<path class="st0" d="M1275.8,764.4v10.2c0,2.3-1.9,4.3-4.3,4.3c-2.3,0-4.3-1.9-4.3-4.3v-10.2c-1.3-0.7-2.4-1.8-3.1-3.1
		c-2.3-4.1-1-9.3,3.1-11.6c4.1-2.3,9.3-1,11.6,3.1C1281.2,756.9,1279.8,762.1,1275.8,764.4z"/>
</g>
<g id="LWPOLYLINE_45_">
	<path class="st0" d="M949.8,689.5v-14.2c0-31.3,25.4-56.7,56.7-56.7c31.3,0,56.7,25.4,56.7,56.7V732v70.9c0,7.8-6.3,14.2-14.2,14.2
		h-85c-7.8,0-14.2-6.3-14.2-14.2v-56.7c0-7.8,6.3-14.2,14.2-14.2h68c7.8,0,14.2-6.3,14.2-14.2v-42.5c0-21.9-17.8-39.7-39.7-39.7
		c-21.9,0-39.7,17.8-39.7,39.7v14.2c0,4.7-3.8,8.5-8.5,8.5C953.6,698,949.8,694.2,949.8,689.5z"/>
</g>
<g id="LWPOLYLINE_46_">
	<path class="st0" d="M1010.8,770.2v10.2c0,2.3-1.9,4.3-4.3,4.3c-2.3,0-4.3-1.9-4.3-4.3v-10.2c-1.3-0.7-2.4-1.8-3.1-3.1
		c-2.3-4.1-1-9.3,3.1-11.6s9.3-1,11.6,3.1C1016.2,762.6,1014.8,767.8,1010.8,770.2z"/>
</g>
<g id="LWPOLYLINE_47_">
	<path class="st0" d="M4406.8,2110.9v32.6h-68.2v226.8h62.6v8.5h113.3v-8.5h62.6v-226.8h-68.2v-32.6c0-5.5-4.4-9.9-9.9-9.9h-82.2
		C4411.2,2101,4406.8,2105.4,4406.8,2110.9z"/>
</g>
<g id="LWPOLYLINE_48_">
	<rect x="4429.5" y="2112.3" class="st0" width="56.7" height="9.9"/>
</g>
<g id="LWPOLYLINE_49_">
	<path class="st0" d="M3884.8,437.2v-32.6c0-5.5-4.4-9.9-9.9-9.9h-82.2c-5.5,0-9.9,4.4-9.9,9.9v32.6H3561V664h145.3v8.5h255.1V664
		h145.3V437.2H3884.8z"/>
</g>
<g id="LWPOLYLINE_50_">
	<rect x="3805.5" y="406" class="st0" width="56.7" height="9.9"/>
</g>
<g id="LWPOLYLINE_51_">
	<path class="st0" d="M4168.3,2110.9v32.6h-68.2v226.8h62.6v8.5h113.4v-8.5h62.6v-226.8h-68.2v-32.6c0-5.5-4.4-9.9-9.9-9.9h-82.2
		C4172.7,2101,4168.3,2105.4,4168.3,2110.9z"/>
</g>
<g id="LWPOLYLINE_52_">
	<rect x="4191" y="2112.3" class="st0" width="56.7" height="9.9"/>
</g>
<g id="LWPOLYLINE_53_">
	<rect x="1921.6" y="929.8" class="st0" width="113.4" height="9.9"/>
</g>
<g id="LWPOLYLINE_55_">
	<rect x="2265.3" y="1246.6" class="st0" width="8.5" height="49.6"/>
</g>
<g id="LWPOLYLINE_56_">
	
		<rect x="2235.9" y="1337.9" transform="matrix(0.8137 -0.5812 0.5812 0.8137 -362.3025 1553.6608)" class="st0" width="14.2" height="8.5"/>
</g>
<g id="LWPOLYLINE_57_">
	<rect x="2020.9" y="1177.9" class="st0" width="127.6" height="8.5"/>
</g>
<g id="LWPOLYLINE_58_">
	<rect x="2020.9" y="1356.4" class="st0" width="127.6" height="8.5"/>
</g>
<g id="LWPOLYLINE_59_">
	
		<rect x="2238.8" y="1193.4" transform="matrix(0.5812 -0.8137 0.8137 0.5812 -37.6174 2327.979)" class="st0" width="8.5" height="14.2"/>
</g>
<g id="LWPOLYLINE_60_">
	<rect x="1945" y="1228.9" class="st0" width="8.5" height="85"/>
</g>
<g id="LWPOLYLINE_61_">
	
		<rect x="2495.2" y="1369.3" transform="matrix(0.2588 -0.9659 0.9659 0.2588 533.1917 3441.8718)" class="st0" width="28.3" height="8.5"/>
</g>
<g id="LWPOLYLINE_62_">
	
		<rect x="2460.4" y="1426.7" transform="matrix(0.7356 -0.6774 0.6774 0.7356 -315.1197 2054.5898)" class="st0" width="28.3" height="8.5"/>
</g>
<g id="LWPOLYLINE_63_">
	
		<rect x="2400.3" y="1456.7" transform="matrix(0.9839 -0.1786 0.1786 0.9839 -222.1034 454.7173)" class="st0" width="28.3" height="8.5"/>
</g>
<g id="LWPOLYLINE_64_">
	
		<rect x="2507.3" y="1139.4" transform="matrix(0.9885 -0.1514 0.1514 0.9885 -146.7645 393.6145)" class="st0" width="8.5" height="42.5"/>
</g>
<g id="LWPOLYLINE_65_">
	
		<rect x="2482.3" y="1061" transform="matrix(0.8936 -0.4489 0.4489 0.8936 -221.2113 1231.3452)" class="st0" width="8.5" height="42.5"/>
</g>
<g id="LWPOLYLINE_66_">
	
		<rect x="2434.4" y="994.2" transform="matrix(0.7116 -0.7026 0.7026 0.7116 -10.1143 2006.214)" class="st0" width="8.5" height="42.5"/>
</g>
<g id="LWPOLYLINE_67_">
	
		<rect x="2368.1" y="945.4" transform="matrix(0.4603 -0.8878 0.8878 0.4603 422.2903 2627.8357)" class="st0" width="8.5" height="42.5"/>
</g>
<g id="LWPOLYLINE_68_">
	
		<rect x="2290.1" y="919.4" transform="matrix(0.164 -0.9865 0.9865 0.164 990.1217 3049.7092)" class="st0" width="8.5" height="42.5"/>
</g>
<g id="LWPOLYLINE_69_">
	<rect x="2513.4" y="1236" class="st0" width="8.5" height="70.9"/>
</g>
<g id="LWPOLYLINE_70_">
	<rect x="1697" y="1200.5" class="st0" width="8.5" height="566.9"/>
</g>
<g id="LWPOLYLINE_71_">
	<rect x="4170.5" y="1462.7" class="st0" width="28.3" height="8.5"/>
</g>
<g id="LWPOLYLINE_72_">
	
		<rect x="4242.4" y="1607.7" transform="matrix(0.9456 -0.3252 0.3252 0.9456 -338.1029 1476.1761)" class="st0" width="8.5" height="283.5"/>
</g>
<g id="LWPOLYLINE_73_">
	
		<rect x="3996.4" y="1607.7" transform="matrix(0.9456 -0.3252 0.3252 0.9456 -351.4761 1396.1777)" class="st0" width="8.5" height="283.5"/>
</g>
<g id="LWPOLYLINE_74_">
	<rect x="3815.3" y="1461.3" class="st0" width="56.7" height="8.5"/>
</g>
<g id="LWPOLYLINE_75_">
	<rect x="3780.2" y="1608" class="st0" width="8.5" height="283.5"/>
</g>
<g id="LWPOLYLINE_76_">
	<rect x="4099.1" y="1246.6" class="st0" width="8.5" height="49.6"/>
</g>
<g id="LWPOLYLINE_77_">
	
		<rect x="4069.5" y="1338" transform="matrix(0.8137 -0.5812 0.5812 0.8137 -20.8163 2619.4417)" class="st0" width="14.2" height="8.5"/>
</g>
<g id="LWPOLYLINE_78_">
	<rect x="3854.6" y="1177.9" class="st0" width="127.6" height="8.5"/>
</g>
<g id="LWPOLYLINE_79_">
	<rect x="3854.6" y="1356.4" class="st0" width="127.6" height="8.5"/>
</g>
<g id="LWPOLYLINE_80_">
	
		<rect x="4072.4" y="1193.5" transform="matrix(0.5812 -0.8137 0.8137 0.5812 730.1942 3820.1172)" class="st0" width="8.5" height="14.2"/>
</g>
<g id="LWPOLYLINE_81_">
	<rect x="3778.7" y="1228.9" class="st0" width="8.5" height="85"/>
</g>
<g id="LWPOLYLINE_82_">
	
		<rect x="4328.9" y="1369.2" transform="matrix(0.2588 -0.9659 0.9659 0.2588 1892.3448 5213.0698)" class="st0" width="28.3" height="8.5"/>
</g>
<g id="LWPOLYLINE_83_">
	
		<rect x="4294.2" y="1426.8" transform="matrix(0.7356 -0.6774 0.6774 0.7356 169.7086 3296.8491)" class="st0" width="28.3" height="8.5"/>
</g>
<g id="LWPOLYLINE_84_">
	
		<rect x="4234" y="1456.7" transform="matrix(0.9839 -0.1786 0.1786 0.9839 -192.6262 782.2177)" class="st0" width="28.3" height="8.5"/>
</g>
<g id="LWPOLYLINE_85_">
	
		<rect x="4341" y="1139.4" transform="matrix(0.9885 -0.1514 0.1514 0.9885 -125.6247 671.2361)" class="st0" width="8.5" height="42.5"/>
</g>
<g id="LWPOLYLINE_86_">
	
		<rect x="4316" y="1060.9" transform="matrix(0.8936 -0.4489 0.4489 0.8936 -26.0492 2054.4712)" class="st0" width="8.5" height="42.5"/>
</g>
<g id="LWPOLYLINE_87_">
	
		<rect x="4268" y="994.1" transform="matrix(0.7116 -0.7026 0.7026 0.7116 518.7623 3294.5288)" class="st0" width="8.5" height="42.5"/>
</g>
<g id="LWPOLYLINE_88_">
	
		<rect x="4201.9" y="945.4" transform="matrix(0.4603 -0.8878 0.8878 0.4603 1412.0215 4255.8218)" class="st0" width="8.5" height="42.5"/>
</g>
<g id="LWPOLYLINE_89_">
	
		<rect x="4123.8" y="919.3" transform="matrix(0.164 -0.9865 0.9865 0.164 2523.2539 4858.4404)" class="st0" width="8.5" height="42.5"/>
</g>
<g id="LWPOLYLINE_90_">
	<rect x="4347.1" y="1236" class="st0" width="8.5" height="70.9"/>
</g>
<g id="LWPOLYLINE_91_">
	<rect x="3530.7" y="1200.5" class="st0" width="8.5" height="566.9"/>
</g>
<g id="LWPOLYLINE_92_">
	<polygon class="st0" points="4172.2,837.7 4172.2,816.5 3945.4,816.5 3945.4,837.7 3936.9,837.7 3936.9,851.9 3945.4,851.9 
		3945.4,873.1 4172.2,873.1 4172.2,851.9 4180.7,851.9 4180.7,837.7 	"/>
</g>
<g id="LWPOLYLINE_93_">
	<polygon class="st0" points="4851.1,1874.3 4859.6,1874.3 4859.6,1590.8 4851.1,1590.8 4851.1,1437.8 4624.3,1437.8 4624.3,1590.8 
		4615.8,1590.8 4615.8,1874.3 4624.3,1874.3 4624.3,2027.4 4851.1,2027.4 	"/>
</g>
</svg>
