<?xml version="1.0" encoding="utf-8"?>
<!-- Generator: Adobe Illustrator 22.0.0, SVG Export Plug-In . SVG Version: 6.00 Build 0)  -->
<svg version="1.1" id="_x30_" xmlns="http://www.w3.org/2000/svg" xmlns:xlink="http://www.w3.org/1999/xlink" x="0px" y="0px"
	 viewBox="0 0 6196 3040" style="enable-background:new 0 0 6196 3040;" xml:space="preserve">
<style type="text/css">
	.st0{fill:none;stroke:#000000;stroke-width:0.7087;stroke-linecap:round;stroke-linejoin:round;stroke-miterlimit:10;}
</style>
<g id="LWPOLYLINE">
	<polygon class="st0" points="3832.1,1518.1 3823.6,1518.1 3823.6,1688.2 3832.1,1688.2 3832.1,1766.4 4058.9,1766.4 4058.9,1688.2 
		4067.4,1688.2 4067.4,1518.1 4058.9,1518.1 4058.9,1439.9 3832.1,1439.9 	"/>
</g>
<g id="LWPOLYLINE_1_">
	<polygon class="st0" points="5130.1,1630.6 5121.6,1630.6 5121.6,1715.6 5130.1,1715.6 5130.1,1758.2 5356.9,1758.2 5356.9,1715.6 
		5365.4,1715.6 5365.4,1630.6 5356.9,1630.6 5356.9,1588.1 5130.1,1588.1 	"/>
</g>
<g id="LWPOLYLINE_2_">
	<path class="st0" d="M4555,885.3h-93.5c-5.5,0-9.9,4.4-9.9,9.9v31.2h-177.4v226.8h92.4v8.5H4650v-8.5h92.4V926.4H4565v-31.2
		C4564.9,889.8,4560.5,885.3,4555,885.3z"/>
</g>
<g id="LWPOLYLINE_3_">
	<rect x="4479.9" y="896.7" class="st0" width="56.7" height="9.9"/>
</g>
<g id="LWPOLYLINE_4_">
	<polygon class="st0" points="5536.5,2275.7 5528,2275.7 5528,2332.4 5536.5,2332.4 5536.5,2355.5 5763.3,2355.5 5763.3,2332.4 
		5771.8,2332.4 5771.8,2275.7 5763.3,2275.7 5763.3,2252.7 5536.5,2252.7 	"/>
</g>
<g id="LWPOLYLINE_5_">
	<polygon class="st0" points="5553.6,1533.9 5553.6,1525.4 5723.7,1525.4 5723.7,1533.9 5794.5,1533.9 5794.5,1760.6 5723.7,1760.6 
		5723.7,1769.2 5553.6,1769.2 5553.6,1760.6 5482.7,1760.6 5482.7,1533.9 	"/>
</g>
<g id="LWPOLYLINE_6_">
	<polygon class="st0" points="5257.3,1965.3 5257.3,1956.8 5399,1956.8 5399,1965.3 5455.7,1965.3 5455.7,2192 5399,2192 
		5399,2200.5 5257.3,2200.5 5257.3,2192 5200.6,2192 5200.6,1965.3 	"/>
</g>
<g id="LWPOLYLINE_7_">
	<polygon class="st0" points="5536.5,2378.6 5528,2378.6 5528,2435.3 5536.5,2435.3 5536.5,2458.3 5763.3,2458.3 5763.3,2435.3 
		5771.8,2435.3 5771.8,2378.6 5763.3,2378.6 5763.3,2355.5 5536.5,2355.5 	"/>
</g>
<g id="LWPOLYLINE_8_">
	<polygon class="st0" points="5130.1,1800.7 5121.6,1800.7 5121.6,1885.7 5130.1,1885.7 5130.1,1928.2 5356.9,1928.2 5356.9,1885.7 
		5365.4,1885.7 5365.4,1800.7 5356.9,1800.7 5356.9,1758.2 5130.1,1758.2 	"/>
</g>
<g id="LWPOLYLINE_9_">
	<polygon class="st0" points="5244.9,1405.6 5244.9,1371.7 5471.7,1371.7 5471.7,1405.6 5480.2,1405.6 5480.2,1519 5471.7,1519 
		5471.7,1552.8 5244.9,1552.8 5244.9,1519 5236.4,1519 5236.4,1405.6 	"/>
</g>
<g id="LWPOLYLINE_10_">
	<polygon class="st0" points="5361.3,533.3 5457.1,533.3 5457.1,306.5 5361.3,306.5 5361.3,298 5162.9,298 5162.9,306.5 
		5067.1,306.5 5067.1,533.3 5162.9,533.3 5162.9,541.8 5361.3,541.8 	"/>
</g>
<g id="LWPOLYLINE_11_">
	<polygon class="st0" points="5391.2,866.4 5382.7,866.4 5382.7,1064.8 5391.2,1064.8 5391.2,1085.7 5618,1085.7 5618,1064.8 
		5626.5,1064.8 5626.5,866.4 5618,866.4 5618,845.5 5391.2,845.5 	"/>
</g>
<g id="LWPOLYLINE_12_">
	<rect x="525" y="2361.4" class="st0" width="283.5" height="8.5"/>
</g>
<g id="LWPOLYLINE_13_">
	<rect x="525" y="1261.6" class="st0" width="283.5" height="8.5"/>
</g>
<g id="LWPOLYLINE_14_">
	<polygon class="st0" points="241.6,2200.4 241.6,1989.3 525,1989.3 525,2099.2 808.5,2099.2 808.5,1957.5 423.9,1957.5 
		241.6,1775.2 241.6,1431.1 423.9,1248.8 909.7,1248.8 1092,1431.1 1092,1642.2 808.5,1642.2 808.5,1532.3 525,1532.3 525,1674 
		909.7,1674 1092,1856.3 1092,2200.4 909.7,2382.7 423.9,2382.7 	"/>
</g>
<g id="LWPOLYLINE_15_">
	<polygon class="st0" points="1479.9,2185.7 1479.9,2024.7 1692.5,2024.7 1692.5,2134.7 2046.8,2134.7 2046.8,1922.1 1641.4,1922.1 
		1479.9,1760.5 1479.9,1445.8 1641.4,1284.3 2097.9,1284.3 2259.4,1445.8 2259.4,1606.8 2046.8,1606.8 2046.8,1496.9 1692.5,1496.9 
		1692.5,1709.5 2097.9,1709.5 2259.4,1871 2259.4,2185.7 2097.9,2347.3 1641.4,2347.3 	"/>
</g>
<g id="LWPOLYLINE_16_">
	
		<rect x="2092.4" y="2275.3" transform="matrix(0.7071 -0.7071 0.7071 0.7071 -969.9911 2217.3882)" class="st0" width="198.4" height="8.5"/>
</g>
<g id="LWPOLYLINE_17_">
	<rect x="1784.6" y="1509.6" class="st0" width="170.1" height="8.5"/>
</g>
<g id="LWPOLYLINE_18_">
	<rect x="2024.1" y="1541.2" class="st0" width="8.5" height="56.7"/>
</g>
<g id="LWPOLYLINE_19_">
	<rect x="2082.2" y="1621" class="st0" width="141.7" height="8.5"/>
</g>
<g id="LWPOLYLINE_20_">
	<rect x="2273.6" y="1473.8" class="st0" width="8.5" height="113.4"/>
</g>
<g id="LWPOLYLINE_21_">
	<rect x="2273.6" y="1943.3" class="st0" width="8.5" height="170.1"/>
</g>
<g id="LWPOLYLINE_22_">
	<rect x="1705.2" y="1560.7" class="st0" width="8.5" height="85"/>
</g>
<g id="LWPOLYLINE_23_">
	<rect x="1809.5" y="1686.8" class="st0" width="198.4" height="8.5"/>
</g>
<g id="LWPOLYLINE_24_">
	<path class="st0" d="M1444.4,2200.4l182.3,182.3C1626.7,2382.7,1444.4,2200.4,1444.4,2200.4z"/>
</g>
<g id="LWPOLYLINE_25_">
	<polyline class="st0" points="1444.4,2200.4 1444.4,1989.3 1727.9,1989.3 1727.9,2099.2 2011.4,2099.2 2011.4,1957.5 
		1626.7,1957.5 1444.4,1775.2 1444.4,1431.1 1626.7,1248.8 2112.5,1248.8 2294.8,1431.1 2294.8,1642.2 2011.4,1642.2 2011.4,1532.3 
		1727.9,1532.3 1727.9,1674 2112.5,1674 2294.8,1856.3 2294.8,2200.4 2112.5,2382.7 1626.7,2382.7 	"/>
</g>
<g id="LWPOLYLINE_26_">
	<path class="st0" d="M2603.4,2200.4l182.3,182.3C2785.7,2382.7,2603.4,2200.4,2603.4,2200.4z"/>
</g>
<g id="LWPOLYLINE_27_">
	<polyline class="st0" points="2603.4,2200.4 2603.4,1989.3 2886.9,1989.3 2886.9,2099.2 3170.3,2099.2 3170.3,1957.5 
		2785.7,1957.5 2603.4,1775.2 2603.4,1431.1 2785.7,1248.8 3271.5,1248.8 3453.8,1431.1 3453.8,1642.2 3170.3,1642.2 3170.3,1532.3 
		2886.9,1532.3 2886.9,1674 3271.5,1674 3453.8,1856.3 3453.8,2200.4 3271.5,2382.7 2785.7,2382.7 	"/>
</g>
<g id="LWPOLYLINE_28_">
	<rect x="1807.3" y="2360" class="st0" width="124.7" height="11.3"/>
</g>
<g id="LWPOLYLINE_29_">
	<rect x="1807.3" y="1260.2" class="st0" width="124.7" height="11.3"/>
</g>
<g id="LWPOLYLINE_30_">
	<rect x="2966.3" y="2360" class="st0" width="124.7" height="11.3"/>
</g>
<g id="LWPOLYLINE_31_">
	<rect x="2966.3" y="1260.2" class="st0" width="124.7" height="11.3"/>
</g>
<g id="LWPOLYLINE_32_">
	<path class="st0" d="M4513.4,1565.6v-14.2c0-31.3,25.4-56.7,56.7-56.7c31.3,0,56.7,25.4,56.7,56.7v56.7v70.9
		c0,7.8-6.3,14.2-14.2,14.2h-85c-7.8,0-14.2-6.3-14.2-14.2v-56.7c0-7.8,6.3-14.2,14.2-14.2h68c7.8,0,14.2-6.3,14.2-14.2v-42.5
		c0-21.9-17.8-39.7-39.7-39.7s-39.7,17.8-39.7,39.7v14.2c0,4.7-3.8,8.5-8.5,8.5C4517.2,1574.1,4513.4,1570.3,4513.4,1565.6z"/>
</g>
<g id="LWPOLYLINE_33_">
	<path class="st0" d="M4574.4,1646.3v10.2c0,2.3-1.9,4.3-4.3,4.3s-4.3-1.9-4.3-4.3v-10.2c-1.3-0.7-2.4-1.8-3.1-3.1
		c-2.3-4.1-1-9.3,3.1-11.6c4.1-2.3,9.3-1,11.6,3.1S4578.4,1643.9,4574.4,1646.3z"/>
</g>
<g id="LWPOLYLINE_34_">
	<path class="st0" d="M4323.3,1562.7v-14.2c0-31.3,25.4-56.7,56.7-56.7s56.7,25.4,56.7,56.7v56.7v70.9c0,7.8-6.3,14.2-14.2,14.2h-85
		c-7.8,0-14.2-6.3-14.2-14.2v-56.7c0-7.8,6.3-14.2,14.2-14.2h68c7.8,0,14.2-6.3,14.2-14.2v-42.5c0-21.9-17.8-39.7-39.7-39.7
		s-39.7,17.8-39.7,39.7v14.2c0,4.7-3.8,8.5-8.5,8.5C4327.1,1571.2,4323.3,1567.4,4323.3,1562.7z"/>
</g>
<g id="LWPOLYLINE_35_">
	<path class="st0" d="M4384.3,1643.4v10.2c0,2.3-1.9,4.3-4.3,4.3c-2.3,0-4.3-1.9-4.3-4.3v-10.2c-1.3-0.7-2.4-1.8-3.1-3.1
		c-2.3-4.1-1-9.3,3.1-11.6c4.1-2.3,9.3-1,11.6,3.1C4389.7,1635.9,4388.3,1641.1,4384.3,1643.4z"/>
</g>
<g id="LWPOLYLINE_37_">
	
		<rect x="2187.4" y="1678" transform="matrix(0.7071 -0.7071 0.7071 0.7071 -614.7554 2070.2581)" class="st0" width="8.5" height="198.4"/>
</g>
<g id="LWPOLYLINE_38_">
	
		<rect x="1543.4" y="2180.3" transform="matrix(0.7071 -0.7071 0.7071 0.7071 -1158.5392 1761.9717)" class="st0" width="8.5" height="198.4"/>
</g>
<g id="LWPOLYLINE_39_">
	
		<rect x="2187.4" y="1252.8" transform="matrix(0.7071 -0.7071 0.7071 0.7071 -314.0961 1945.7213)" class="st0" width="8.5" height="198.4"/>
</g>
<g id="LWPOLYLINE_40_">
	
		<rect x="1448.4" y="1347.8" transform="matrix(0.7071 -0.7071 0.7071 0.7071 -502.7442 1490.3463)" class="st0" width="198.4" height="8.5"/>
</g>
<g id="LWPOLYLINE_41_">
	<rect x="1457.2" y="1518.1" class="st0" width="8.5" height="170.1"/>
</g>
<g id="LWPOLYLINE_42_">
	<rect x="1784.6" y="2113.4" class="st0" width="170.1" height="8.5"/>
</g>
<g id="LWPOLYLINE_43_">
	<rect x="1706.6" y="2033.6" class="st0" width="8.5" height="56.7"/>
</g>
<g id="LWPOLYLINE_44_">
	<rect x="1515.3" y="2002.1" class="st0" width="141.7" height="8.5"/>
</g>
<g id="LWPOLYLINE_45_">
	<rect x="1457.2" y="2044.4" class="st0" width="8.5" height="113.4"/>
</g>
<g id="LWPOLYLINE_46_">
	<rect x="2025.5" y="1985.9" class="st0" width="8.5" height="85"/>
</g>
<g id="LWPOLYLINE_47_">
	<rect x="1731.3" y="1936.3" class="st0" width="198.4" height="8.5"/>
</g>
<g id="LWPOLYLINE_48_">
	
		<rect x="1543.4" y="1755.1" transform="matrix(0.7071 -0.7071 0.7071 0.7071 -857.8799 1637.4351)" class="st0" width="8.5" height="198.4"/>
</g>
<g id="LWPOLYLINE_49_">
	
		<rect x="889.6" y="2275.3" transform="matrix(0.7071 -0.7071 0.7071 0.7071 -1322.2422 1366.8508)" class="st0" width="198.4" height="8.5"/>
</g>
<g id="LWPOLYLINE_50_">
	<rect x="581.7" y="1509.6" class="st0" width="170.1" height="8.5"/>
</g>
<g id="LWPOLYLINE_51_">
	<rect x="821.2" y="1541.2" class="st0" width="8.5" height="56.7"/>
</g>
<g id="LWPOLYLINE_52_">
	<rect x="879.4" y="1621" class="st0" width="141.7" height="8.5"/>
</g>
<g id="LWPOLYLINE_53_">
	<rect x="1070.7" y="1473.8" class="st0" width="8.5" height="113.4"/>
</g>
<g id="LWPOLYLINE_54_">
	<rect x="1070.7" y="1943.3" class="st0" width="8.5" height="170.1"/>
</g>
<g id="LWPOLYLINE_55_">
	<rect x="502.3" y="1560.7" class="st0" width="8.5" height="85"/>
</g>
<g id="LWPOLYLINE_56_">
	<rect x="606.6" y="1686.8" class="st0" width="198.4" height="8.5"/>
</g>
<g id="LWPOLYLINE_57_">
	
		<rect x="984.5" y="1678" transform="matrix(0.7071 -0.7071 0.7071 0.7071 -967.0773 1219.6915)" class="st0" width="8.5" height="198.4"/>
</g>
<g id="LWPOLYLINE_58_">
	
		<rect x="340.5" y="2180.3" transform="matrix(0.7071 -0.7071 0.7071 0.7071 -1510.8611 911.4051)" class="st0" width="8.5" height="198.4"/>
</g>
<g id="LWPOLYLINE_59_">
	
		<rect x="984.5" y="1252.8" transform="matrix(0.7071 -0.7071 0.7071 0.7071 -666.418 1095.1548)" class="st0" width="8.5" height="198.4"/>
</g>
<g id="LWPOLYLINE_60_">
	
		<rect x="245.6" y="1347.8" transform="matrix(0.7071 -0.7071 0.7071 0.7071 -855.0661 639.7798)" class="st0" width="198.4" height="8.5"/>
</g>
<g id="LWPOLYLINE_61_">
	<rect x="254.3" y="1518.1" class="st0" width="8.5" height="170.1"/>
</g>
<g id="LWPOLYLINE_62_">
	<rect x="581.7" y="2113.4" class="st0" width="170.1" height="8.5"/>
</g>
<g id="LWPOLYLINE_63_">
	<rect x="503.8" y="2033.6" class="st0" width="8.5" height="56.7"/>
</g>
<g id="LWPOLYLINE_64_">
	<rect x="312.4" y="2002.1" class="st0" width="141.7" height="8.5"/>
</g>
<g id="LWPOLYLINE_65_">
	<rect x="254.3" y="2044.4" class="st0" width="8.5" height="113.4"/>
</g>
<g id="LWPOLYLINE_66_">
	<rect x="822.7" y="1985.9" class="st0" width="8.5" height="85"/>
</g>
<g id="LWPOLYLINE_67_">
	<rect x="528.4" y="1936.3" class="st0" width="198.4" height="8.5"/>
</g>
<g id="LWPOLYLINE_68_">
	
		<rect x="340.5" y="1755.1" transform="matrix(0.7071 -0.7071 0.7071 0.7071 -1210.2018 786.8685)" class="st0" width="8.5" height="198.4"/>
</g>
<g id="LWPOLYLINE_69_">
	<path class="st0" d="M4555,2746.2h-93.5c-5.5,0-9.9-4.4-9.9-9.9v-31.2h-177.4v-226.8h92.4v-8.5H4650v8.5h92.4v226.8H4565v31.2
		C4564.9,2741.8,4560.5,2746.2,4555,2746.2z"/>
</g>
<g id="LWPOLYLINE_70_">
	<rect x="4479.9" y="2725" class="st0" width="56.7" height="9.9"/>
</g>
<g id="LWPOLYLINE_71_">
	<polygon class="st0" points="5361.3,550.3 5457.1,550.3 5457.1,777.1 5361.3,777.1 5361.3,785.6 5162.9,785.6 5162.9,777.1 
		5067.1,777.1 5067.1,550.3 5162.9,550.3 5162.9,541.8 5361.3,541.8 	"/>
</g>
<g id="LWPOLYLINE_72_">
	<polygon class="st0" points="5147.4,866.4 5138.9,866.4 5138.9,1064.8 5147.4,1064.8 5147.4,1085.7 5374.2,1085.7 5374.2,1064.8 
		5382.7,1064.8 5382.7,866.4 5374.2,866.4 5374.2,845.5 5147.4,845.5 	"/>
</g>
<g id="LWPOLYLINE_73_">
	<polygon class="st0" points="4903.6,866.4 4895.1,866.4 4895.1,1064.8 4903.6,1064.8 4903.6,1085.7 5130.4,1085.7 5130.4,1064.8 
		5138.9,1064.8 5138.9,866.4 5130.4,866.4 5130.4,845.5 4903.6,845.5 	"/>
</g>
<g id="LWPOLYLINE_74_">
	<polygon class="st0" points="5391.2,1305 5382.7,1305 5382.7,1106.6 5391.2,1106.6 5391.2,1085.7 5618,1085.7 5618,1106.6 
		5626.5,1106.6 5626.5,1305 5618,1305 5618,1325.9 5391.2,1325.9 	"/>
</g>
<g id="LWPOLYLINE_75_">
	<polygon class="st0" points="5147.4,1305 5138.9,1305 5138.9,1106.6 5147.4,1106.6 5147.4,1085.7 5374.2,1085.7 5374.2,1106.6 
		5382.7,1106.6 5382.7,1305 5374.2,1305 5374.2,1325.9 5147.4,1325.9 	"/>
</g>
<g id="LWPOLYLINE_76_">
	<polygon class="st0" points="4903.6,1305 4895.1,1305 4895.1,1106.6 4903.6,1106.6 4903.6,1085.7 5130.4,1085.7 5130.4,1106.6 
		5138.9,1106.6 5138.9,1305 5130.4,1305 5130.4,1325.9 4903.6,1325.9 	"/>
</g>
<g id="LWPOLYLINE_77_">
	<polygon class="st0" points="5227.9,1405.6 5227.9,1371.7 5001.1,1371.7 5001.1,1405.6 4992.6,1405.6 4992.6,1519 5001.1,1519 
		5001.1,1552.8 5227.9,1552.8 5227.9,1519 5236.4,1519 5236.4,1405.6 	"/>
</g>
<g id="LWPOLYLINE_78_">
	<polygon class="st0" points="5553.6,2004.4 5553.6,2012.9 5723.7,2012.9 5723.7,2004.4 5794.5,2004.4 5794.5,1777.7 5723.7,1777.7 
		5723.7,1769.2 5553.6,1769.2 5553.6,1777.7 5482.7,1777.7 5482.7,2004.4 	"/>
</g>
<g id="LWPOLYLINE_79_">
	<polygon class="st0" points="5257.3,2435.8 5257.3,2444.3 5399,2444.3 5399,2435.8 5455.7,2435.8 5455.7,2209.1 5399,2209.1 
		5399,2200.5 5257.3,2200.5 5257.3,2209.1 5200.6,2209.1 5200.6,2435.8 	"/>
</g>
<g id="LWPOLYLINE_80_">
	<polygon class="st0" points="3815.1,1518.1 3823.6,1518.1 3823.6,1688.2 3815.1,1688.2 3815.1,1766.4 3588.3,1766.4 3588.3,1688.2 
		3579.8,1688.2 3579.8,1518.1 3588.3,1518.1 3588.3,1439.9 3815.1,1439.9 	"/>
</g>
</svg>
