<?xml version="1.0" encoding="utf-8"?>
<!-- Generator: Adobe Illustrator 22.0.0, SVG Export Plug-In . SVG Version: 6.00 Build 0)  -->
<svg version="1.1" id="_x30_" xmlns="http://www.w3.org/2000/svg" xmlns:xlink="http://www.w3.org/1999/xlink" x="0px" y="0px"
	 viewBox="0 0 5516 2224" style="enable-background:new 0 0 5516 2224;" xml:space="preserve">
<style type="text/css">
	.st0{fill:none;stroke:#000000;stroke-width:0.7087;stroke-linecap:round;stroke-linejoin:round;stroke-miterlimit:10;}
</style>
<g id="LWPOLYLINE_1_">
	<polygon class="st0" points="1238.6,991.9 955.1,991.9 955.1,708.4 1805.5,708.4 1805.5,991.9 1522.1,991.9 1522.1,1842.3 
		1238.6,1842.3 	"/>
</g>
<g id="LWPOLYLINE_2_">
	<rect x="1181.9" y="721.2" class="st0" width="396.9" height="8.5"/>
</g>
<g id="LWPOLYLINE_3_">
	<rect x="1352" y="329.7" class="st0" width="56.7" height="9.9"/>
</g>
<g id="LWPOLYLINE_4_">
	<rect x="1323.6" y="1821" class="st0" width="113.4" height="8.5"/>
</g>
<g id="LWPOLYLINE_5_">
	<rect x="1226.8" y="1950" class="st0" width="9.9" height="56.7"/>
</g>
<g id="LWPOLYLINE_6_">
	<path class="st0" d="M1493.3,1921.6h-8.5v-63.8H1258v63.8h-32.6c-5.5,0-9.9,4.4-9.9,9.9v93.5c0,5.5,4.4,9.9,9.9,9.9h32.6v63.8
		h226.8v-63.8h8.5V1921.6z"/>
</g>
<g id="LWPOLYLINE_7_">
	<polygon class="st0" points="686.8,903.8 686.8,967.6 913.5,967.6 913.5,903.8 922,903.8 922,790.4 913.5,790.4 913.5,726.6 
		686.8,726.6 686.8,790.4 678.2,790.4 678.2,903.8 	"/>
</g>
<g id="LWPOLYLINE_8_">
	<polygon class="st0" points="1134.8,1258 1202.1,1258 1202.1,1031.2 1134.8,1031.2 1134.8,1022.7 993.1,1022.7 993.1,1031.2 
		925.7,1031.2 925.7,1258 993.1,1258 993.1,1266.5 1134.8,1266.5 	"/>
</g>
<g id="LWPOLYLINE_9_">
	<polygon class="st0" points="619.6,1612 619.6,1821 846.4,1821 846.4,1612 854.9,1612 854.9,1186.8 846.4,1186.8 846.4,977.7 
		619.6,977.7 619.6,1186.8 611.1,1186.8 611.1,1612 	"/>
</g>
<g id="LWPOLYLINE_10_">
	<path class="st0" d="M1181.9,596.1h396.9v-8.5h205.5V360.8h-347.2v-32.6c0-5.5-4.4-9.9-9.9-9.9h-93.5c-5.5,0-9.9,4.4-9.9,9.9v32.6
		H976.6v226.8h205.5L1181.9,596.1z"/>
</g>
<g id="LWPOLYLINE_11_">
	<polygon class="st0" points="3039.7,991.9 2756.2,991.9 2756.2,708.4 3606.6,708.4 3606.6,991.9 3323.1,991.9 3323.1,1842.3 
		3039.7,1842.3 	"/>
</g>
<g id="LWPOLYLINE_12_">
	<polygon class="st0" points="3075.1,956.5 2791.6,956.5 2791.6,743.9 3571.1,743.9 3571.1,956.5 3287.7,956.5 3287.7,1806.8 
		3075.1,1806.8 	"/>
</g>
<g id="LWPOLYLINE_13_">
	<rect x="3124.7" y="1821" class="st0" width="113.4" height="8.5"/>
</g>
<g id="LWPOLYLINE_14_">
	<rect x="3585.3" y="793.5" class="st0" width="8.5" height="113.4"/>
</g>
<g id="LWPOLYLINE_15_">
	<rect x="2768.9" y="793.5" class="st0" width="8.5" height="113.4"/>
</g>
<g id="LWPOLYLINE_16_">
	<rect x="3376.3" y="970.6" class="st0" width="141.7" height="8.5"/>
</g>
<g id="LWPOLYLINE_17_">
	<rect x="2844.8" y="970.6" class="st0" width="141.7" height="8.5"/>
</g>
<g id="LWPOLYLINE_18_">
	<rect x="3301.9" y="1186.8" class="st0" width="8.5" height="425.2"/>
</g>
<g id="LWPOLYLINE_19_">
	<rect x="3124.7" y="721.2" class="st0" width="113.4" height="8.5"/>
</g>
<g id="LWPOLYLINE_20_">
	<polygon class="st0" points="4131.5,991.9 3848,991.9 3848,708.4 4698.4,708.4 4698.4,991.9 4415,991.9 4415,1842.3 4131.5,1842.3 
			"/>
</g>
<g id="LWPOLYLINE_21_">
	<rect x="4213.7" y="719.8" class="st0" width="119.1" height="11.3"/>
</g>
<g id="LWPOLYLINE_22_">
	<rect x="4213.7" y="1819.6" class="st0" width="119.1" height="11.3"/>
</g>
<g id="LWPOLYLINE_23_">
	<rect x="3052.4" y="1186.8" class="st0" width="8.5" height="425.2"/>
</g>
<g id="LWPOLYLINE_24_">
	<rect x="1784.3" y="793.5" class="st0" width="8.5" height="113.4"/>
</g>
<g id="LWPOLYLINE_25_">
	<rect x="967.9" y="793.5" class="st0" width="8.5" height="113.4"/>
</g>
<g id="LWPOLYLINE_26_">
	<rect x="1575.2" y="970.6" class="st0" width="141.7" height="8.5"/>
</g>
<g id="LWPOLYLINE_27_">
	<rect x="1043.7" y="970.6" class="st0" width="141.7" height="8.5"/>
</g>
<g id="LWPOLYLINE_28_">
	<rect x="1500.8" y="1186.8" class="st0" width="8.5" height="425.2"/>
</g>
<g id="LWPOLYLINE_29_">
	<rect x="1251.3" y="1186.8" class="st0" width="8.5" height="425.2"/>
</g>
<g id="LWPOLYLINE_30_">
	<polygon class="st0" points="2073.9,903.8 2073.9,967.6 1847.1,967.6 1847.1,903.8 1838.6,903.8 1838.6,790.4 1847.1,790.4 
		1847.1,726.6 2073.9,726.6 2073.9,790.4 2082.4,790.4 2082.4,903.8 	"/>
</g>
<g id="LWPOLYLINE_31_">
	<polygon class="st0" points="1625.8,1258 1558.5,1258 1558.5,1031.2 1625.8,1031.2 1625.8,1022.7 1767.6,1022.7 1767.6,1031.2 
		1834.9,1031.2 1834.9,1258 1767.6,1258 1767.6,1266.5 1625.8,1266.5 	"/>
</g>
<g id="LWPOLYLINE_32_">
	<polygon class="st0" points="2141,1612 2141,1821 1914.2,1821 1914.2,1612 1905.7,1612 1905.7,1186.8 1914.2,1186.8 1914.2,977.7 
		2141,977.7 2141,1186.8 2149.5,1186.8 2149.5,1612 	"/>
</g>
</svg>
