<?xml version="1.0" encoding="utf-8"?>
<!-- Generator: Adobe Illustrator 22.0.0, SVG Export Plug-In . SVG Version: 6.00 Build 0)  -->
<svg version="1.1" id="_x30_" xmlns="http://www.w3.org/2000/svg" xmlns:xlink="http://www.w3.org/1999/xlink" x="0px" y="0px"
	 viewBox="0 0 6334.9 3481.3" style="enable-background:new 0 0 6334.9 3481.3;" xml:space="preserve">
<style type="text/css">
	.st0{fill:none;stroke:#000000;stroke-width:0.7087;stroke-linecap:round;stroke-linejoin:round;stroke-miterlimit:10;}
</style>
<g id="LWPOLYLINE">
	<polygon class="st0" points="1737.8,1591.5 1737.8,2583.6 1596.1,2725.3 1029.1,2725.3 887.4,2583.6 887.4,1591.5 1170.9,1591.5 
		1170.9,2371 1454.3,2371 1454.3,1591.5 	"/>
</g>
<g id="LWPOLYLINE_1_">
	<polygon class="st0" points="1088.7,1562.4 1088.7,1570.9 969.6,1570.9 969.6,1562.4 908.7,1562.4 908.7,1335.7 969.6,1335.7 
		969.6,1327.1 1088.7,1327.1 1088.7,1335.7 1149.6,1335.7 1149.6,1562.4 	"/>
</g>
<g id="LWPOLYLINE_2_">
	<rect x="1716.5" y="1810.3" class="st0" width="8.5" height="566.9"/>
</g>
<g id="LWPOLYLINE_3_">
	<rect x="451.3" y="2065.4" class="st0" width="9.9" height="56.7"/>
</g>
<g id="LWPOLYLINE_4_">
	<path class="st0" d="M707.9,2377.2v197.6H481.1v-424.3h-31.2c-5.5,0-9.9-4.4-9.9-9.9v-93.5c0-5.5,4.4-9.9,9.9-9.9h31.2v-424.3
		h226.8v197.6h8.5v566.9L707.9,2377.2z"/>
</g>
<g id="LWPOLYLINE_5_">
	<path class="st0" d="M2634.4,1869v-14.1c0-31.3,25.4-56.7,56.7-56.7s56.7,25.4,56.7,56.7v56.7v70.9c0,7.8-6.3,14.2-14.2,14.2h-85
		c-7.8,0-14.2-6.3-14.2-14.2v-56.7c0-7.8,6.3-14.2,14.2-14.2h68c7.8,0,14.2-6.3,14.2-14.2v-42.5c0-21.9-17.8-39.7-39.7-39.7
		c-21.9,0-39.7,17.8-39.7,39.7v14.2c0,4.7-3.8,8.5-8.5,8.5C2638.2,1877.6,2634.4,1873.7,2634.4,1869z"/>
</g>
<g id="LWPOLYLINE_6_">
	<path class="st0" d="M2695.3,1949.7v10.2c0,2.3-1.9,4.3-4.3,4.3c-2.4,0-4.3-1.9-4.3-4.3v-10.2c-1.3-0.7-2.4-1.8-3.1-3.1
		c-2.3-4.1-1-9.3,3.1-11.6c4.1-2.3,9.3-1,11.6,3.1S2699.4,1947.4,2695.3,1949.7z"/>
</g>
<g id="LWPOLYLINE_7_">
	<path class="st0" d="M2439.8,1869v-14.1c0-31.3,25.4-56.7,56.7-56.7s56.7,25.4,56.7,56.7v56.7v70.9c0,7.8-6.3,14.2-14.2,14.2h-85
		c-7.8,0-14.2-6.3-14.2-14.2v-56.7c0-7.8,6.3-14.2,14.2-14.2h68c7.8,0,14.2-6.3,14.2-14.2v-42.5c0-21.9-17.8-39.7-39.7-39.7
		c-21.9,0-39.7,17.8-39.7,39.7v14.2c0,4.7-3.8,8.5-8.5,8.5S2439.8,1873.7,2439.8,1869z"/>
</g>
<g id="LWPOLYLINE_8_">
	<path class="st0" d="M2500.7,1949.7v10.2c0,2.3-1.9,4.3-4.3,4.3c-2.4,0-4.3-1.9-4.3-4.3v-10.2c-1.3-0.7-2.4-1.8-3.1-3.1
		c-2.3-4.1-1-9.3,3.1-11.6c4.1-2.3,9.3-1,11.6,3.1C2506,1942.2,2504.8,1947.4,2500.7,1949.7z"/>
</g>
<g id="LWPOLYLINE_9_">
	<polygon class="st0" points="629,2759.1 620.5,2759.1 620.5,2674.1 629,2674.1 629,2625.2 855.8,2625.2 855.8,2674.1 864.3,2674.1 
		864.3,2759.1 855.8,2759.1 855.8,2808 629,2808 	"/>
</g>
<g id="LWPOLYLINE_10_">
	<polygon class="st0" points="1454.3,2996.6 1587.3,2996.6 1587.3,2769.8 1454.3,2769.8 1454.3,2761.3 1170.9,2761.3 1170.9,2769.8 
		1037.9,2769.8 1037.9,2996.6 1170.9,2996.6 1170.9,3005.1 1454.3,3005.1 	"/>
</g>
<g id="LWPOLYLINE_11_">
	<polygon class="st0" points="1126.6,668.1 1126.6,473.2 899.8,473.2 899.8,668.1 891.3,668.1 891.3,1050.8 899.8,1050.8 
		899.8,1245.7 1126.6,1245.7 1126.6,1050.8 1135.1,1050.8 1135.1,668.1 	"/>
</g>
<g id="LWPOLYLINE_12_">
	<polygon class="st0" points="1390.6,3311.8 1468.5,3311.8 1468.5,3085.1 1390.6,3085.1 1390.6,3076.6 1234.6,3076.6 1234.6,3085.1 
		1156.7,3085.1 1156.7,3311.8 1234.6,3311.8 1234.6,3320.3 1390.6,3320.3 	"/>
</g>
<g id="LWPOLYLINE_13_">
	<polygon class="st0" points="3850.3,1591.5 3850.3,2583.6 3708.5,2725.3 3141.6,2725.3 2999.9,2583.6 2999.9,1591.5 3283.3,1591.5 
		3283.3,2371 3566.8,2371 3566.8,1591.5 	"/>
</g>
<g id="LWPOLYLINE_14_">
	<polygon class="st0" points="3814.8,1626.9 3814.8,2568.9 3693.9,2689.9 3156.3,2689.9 3035.3,2568.9 3035.3,1626.9 3247.9,1626.9 
		3247.9,2406.4 3602.2,2406.4 3602.2,1626.9 	"/>
</g>
<g id="LWPOLYLINE_15_">
	<rect x="3649" y="1604.2" class="st0" width="119.1" height="8.5"/>
</g>
<g id="LWPOLYLINE_16_">
	<rect x="3082.1" y="1604.2" class="st0" width="119.1" height="8.5"/>
</g>
<g id="LWPOLYLINE_17_">
	
		<rect x="3724.8" y="2638.3" transform="matrix(0.7071 -0.7071 0.7071 0.7071 -765.1376 3437.8789)" class="st0" width="85" height="8.5"/>
</g>
<g id="LWPOLYLINE_18_">
	<rect x="3283.3" y="2704.1" class="st0" width="283.5" height="8.5"/>
</g>
<g id="LWPOLYLINE_19_">
	<rect x="3579.6" y="1807.6" class="st0" width="8.5" height="382.7"/>
</g>
<g id="LWPOLYLINE_20_">
	<rect x="3262.1" y="1807.6" class="st0" width="8.5" height="382.7"/>
</g>
<g id="LWPOLYLINE_21_">
	<rect x="3347.1" y="2385.2" class="st0" width="155.9" height="8.5"/>
</g>
<g id="LWPOLYLINE_22_">
	<rect x="3829" y="2034.2" class="st0" width="8.5" height="119.1"/>
</g>
<g id="LWPOLYLINE_23_">
	<polygon class="st0" points="4997.4,1591.5 4997.4,2583.6 4855.6,2725.3 4288.7,2725.3 4147,2583.6 4147,1591.5 4430.4,1591.5 
		4430.4,2371 4713.9,2371 4713.9,1591.5 	"/>
</g>
<g id="LWPOLYLINE_24_">
	<rect x="4158.3" y="2034.2" class="st0" width="11.3" height="119.1"/>
</g>
<g id="LWPOLYLINE_25_">
	<rect x="4974.7" y="2034.2" class="st0" width="11.3" height="119.1"/>
</g>
<g id="LWPOLYLINE_27_">
	
		<rect x="3078.5" y="2600" transform="matrix(0.7071 -0.7071 0.7071 0.7071 -965.594 2953.771)" class="st0" width="8.5" height="85"/>
</g>
<g id="LWPOLYLINE_28_">
	<rect x="3012.6" y="2034.2" class="st0" width="8.5" height="119.1"/>
</g>
<g id="LWPOLYLINE_29_">
	<rect x="1536.5" y="1604.2" class="st0" width="119.1" height="8.5"/>
</g>
<g id="LWPOLYLINE_30_">
	<rect x="969.6" y="1604.2" class="st0" width="119.1" height="8.5"/>
</g>
<g id="LWPOLYLINE_31_">
	
		<rect x="1612.4" y="2638.2" transform="matrix(0.7071 -0.7071 0.7071 0.7071 -1383.8043 1944.1659)" class="st0" width="85" height="8.5"/>
</g>
<g id="LWPOLYLINE_32_">
	<rect x="1170.9" y="2704.1" class="st0" width="283.5" height="8.5"/>
</g>
<g id="LWPOLYLINE_33_">
	<rect x="1467.1" y="1807.6" class="st0" width="8.5" height="382.7"/>
</g>
<g id="LWPOLYLINE_34_">
	<rect x="1149.6" y="1807.6" class="st0" width="8.5" height="382.7"/>
</g>
<g id="LWPOLYLINE_35_">
	<rect x="1234.6" y="2385.2" class="st0" width="155.9" height="8.5"/>
</g>
<g id="LWPOLYLINE_36_">
	
		<rect x="966" y="2600" transform="matrix(0.7071 -0.7071 0.7071 0.7071 -1584.3315 1460.0289)" class="st0" width="8.5" height="85"/>
</g>
<g id="LWPOLYLINE_37_">
	<rect x="900.2" y="1810.3" class="st0" width="8.5" height="566.9"/>
</g>
<g id="LWPOLYLINE_38_">
	<polygon class="st0" points="1536.5,1562.4 1536.5,1570.9 1655.6,1570.9 1655.6,1562.4 1716.5,1562.4 1716.5,1335.7 1655.6,1335.7 
		1655.6,1327.1 1536.5,1327.1 1536.5,1335.7 1475.6,1335.7 1475.6,1562.4 	"/>
</g>
<g id="LWPOLYLINE_39_">
	<rect x="2163.9" y="2065.4" class="st0" width="9.9" height="56.7"/>
</g>
<g id="LWPOLYLINE_40_">
	<path class="st0" d="M1917.3,2377.2v197.6h226.8v-424.3h31.2c5.5,0,9.9-4.4,9.9-9.9v-93.5c0-5.5-4.4-9.9-9.9-9.9h-31.2v-424.3
		h-226.8v197.6h-8.5v566.9L1917.3,2377.2z"/>
</g>
<g id="LWPOLYLINE_41_">
	<polygon class="st0" points="1996.2,2759.1 2004.7,2759.1 2004.7,2674.1 1996.2,2674.1 1996.2,2625.2 1769.4,2625.2 1769.4,2674.1 
		1760.9,2674.1 1760.9,2759.1 1769.4,2759.1 1769.4,2808 1996.2,2808 	"/>
</g>
<g id="LWPOLYLINE_42_">
	<polygon class="st0" points="1498.6,668.1 1498.6,473.2 1725.4,473.2 1725.4,668.1 1733.9,668.1 1733.9,1050.8 1725.4,1050.8 
		1725.4,1245.7 1498.6,1245.7 1498.6,1050.8 1490.1,1050.8 1490.1,668.1 	"/>
</g>
</svg>
