<?xml version="1.0" encoding="utf-8"?>
<!-- Generator: Adobe Illustrator 22.0.0, SVG Export Plug-In . SVG Version: 6.00 Build 0)  -->
<svg version="1.1" id="_x30_" xmlns="http://www.w3.org/2000/svg" xmlns:xlink="http://www.w3.org/1999/xlink" x="0px" y="0px"
	 viewBox="0 0 5384 2732" style="enable-background:new 0 0 5384 2732;" xml:space="preserve">
<style type="text/css">
	.st0{fill:none;stroke:#000000;stroke-width:0.7087;stroke-linecap:round;stroke-linejoin:round;stroke-miterlimit:10;}
</style>
<g id="LWPOLYLINE">
	<polygon class="st0" points="1462.4,1062.1 1745.9,1062.1 1462.4,2195.9 1178.9,2195.9 895.5,1062.1 1178.9,1062.1 1320.7,1629 	
		"/>
</g>
<g id="LWPOLYLINE_1_">
	<polygon class="st0" points="1102,1030.7 1102,1039.3 983,1039.3 983,1030.7 922.7,1030.7 922.7,804 983,804 983,795.5 1102,795.5 
		1102,804 1162.3,804 1162.3,1030.7 	"/>
</g>
<g id="LWPOLYLINE_2_">
	<polygon class="st0" points="796.7,643.6 640.4,643.6 640.4,416.8 796.7,416.8 796.7,408.3 1108.5,408.3 1108.5,416.8 
		1264.9,416.8 1264.9,643.6 1108.5,643.6 1108.5,652.1 796.7,652.1 	"/>
</g>
<g id="LWPOLYLINE_3_">
	
		<rect x="1302.9" y="1625.7" transform="matrix(0.2425 -0.9701 0.9701 0.2425 -379.658 2773.7021)" class="st0" width="566.9" height="8.5"/>
</g>
<g id="LWPOLYLINE_4_">
	<polygon class="st0" points="1380.2,2445.4 1445.8,2445.4 1445.8,2218.6 1380.2,2218.6 1380.2,2210.1 1261.1,2210.1 1261.1,2218.6 
		1195.5,2218.6 1195.5,2445.4 1261.1,2445.4 1261.1,2453.9 1380.2,2453.9 	"/>
</g>
<g id="LWPOLYLINE_5_">
	<path class="st0" d="M2362.3,533.9v-14.2c0-31.3,25.4-56.7,56.7-56.7s56.7,25.4,56.7,56.7v56.7v70.9c0,7.8-6.3,14.2-14.2,14.2h-85
		c-7.8,0-14.2-6.3-14.2-14.2v-56.7c0-7.8,6.3-14.2,14.2-14.2h68c7.8,0,14.2-6.3,14.2-14.2v-42.5c0-21.9-17.8-39.7-39.7-39.7
		s-39.7,17.8-39.7,39.7v14.2c0,4.7-3.8,8.5-8.5,8.5S2362.3,538.5,2362.3,533.9z"/>
</g>
<g id="LWPOLYLINE_6_">
	<path class="st0" d="M2423.2,614.5v10.2c0,2.3-1.9,4.3-4.3,4.3c-2.4,0-4.3-1.9-4.3-4.3v-10.2c-1.3-0.7-2.4-1.8-3.1-3.1
		c-2.3-4.1-1-9.3,3.1-11.6c4.1-2.3,9.3-1,11.6,3.1C2428.7,607,2427.3,612.2,2423.2,614.5z"/>
</g>
<g id="LWPOLYLINE_7_">
	<path class="st0" d="M2167.7,533.9v-14.2c0-31.3,25.4-56.7,56.7-56.7c31.3,0,56.7,25.4,56.7,56.7v56.7v70.9
		c0,7.8-6.3,14.2-14.2,14.2h-85c-7.8,0-14.2-6.3-14.2-14.2v-56.7c0-7.8,6.3-14.2,14.2-14.2h68c7.8,0,14.2-6.3,14.2-14.2v-42.5
		c0-21.9-17.8-39.7-39.7-39.7c-21.9,0-39.7,17.8-39.7,39.7v14.2c0,4.7-3.8,8.5-8.5,8.5S2167.7,538.5,2167.7,533.9z"/>
</g>
<g id="LWPOLYLINE_8_">
	<path class="st0" d="M2228.6,614.5v10.2c0,2.3-1.9,4.3-4.3,4.3c-2.3,0-4.3-1.9-4.3-4.3v-10.2c-1.3-0.7-2.4-1.8-3.1-3.1
		c-2.3-4.1-1-9.3,3.1-11.6s9.3-1,11.6,3.1C2234.1,607,2232.7,612.2,2228.6,614.5z"/>
</g>
<g id="LWPOLYLINE_9_">
	<rect x="812.3" y="1323.4" class="st0" width="9.9" height="56.7"/>
</g>
<g id="LWPOLYLINE_10_">
	<path class="st0" d="M565.7,1635.2h-8.5v-566.9h8.5v-279h226.8v505.8h31.2c5.5,0,9.9,4.4,9.9,9.9v93.5c0,5.5-4.4,9.9-9.9,9.9h-31.2
		v505.8H565.7C565.7,1914.2,565.7,1635.2,565.7,1635.2z"/>
</g>
<g id="LWPOLYLINE_11_">
	<polygon class="st0" points="3495.3,1062.1 3778.7,1062.1 3495.3,2195.9 3211.8,2195.9 2928.4,1062.1 3211.8,1062.1 3353.6,1629 	
		"/>
</g>
<g id="LWPOLYLINE_12_">
	<polygon class="st0" points="3522.9,1097.5 3733.4,1097.5 3467.6,2160.5 3239.5,2160.5 2973.7,1097.5 3184.2,1097.5 3353.6,1775.1 
			"/>
</g>
<g id="LWPOLYLINE_13_">
	<rect x="3572.2" y="1074.8" class="st0" width="119.1" height="8.5"/>
</g>
<g id="LWPOLYLINE_14_">
	
		<rect x="3276.1" y="1381" transform="matrix(0.2425 -0.9701 0.9701 0.2425 1255.7821 4378.8872)" class="st0" width="311.8" height="8.5"/>
</g>
<g id="LWPOLYLINE_15_">
	<rect x="3294" y="2174.7" class="st0" width="119.1" height="8.5"/>
</g>
<g id="LWPOLYLINE_16_">
	
		<rect x="3558.2" y="1631.1" transform="matrix(0.2425 -0.9701 0.9701 0.2425 1153.8979 4748.5449)" class="st0" width="119.1" height="8.5"/>
</g>
<g id="LWPOLYLINE_17_">
	<polygon class="st0" points="4447.7,1062.1 4731.2,1062.1 4447.7,2195.9 4164.2,2195.9 3880.8,1062.1 4164.2,1062.1 4306,1629 	"/>
</g>
<g id="LWPOLYLINE_19_">
	<rect x="3015.9" y="1074.8" class="st0" width="119.1" height="8.5"/>
</g>
<g id="LWPOLYLINE_20_">
	
		<rect x="3270.7" y="1229.3" transform="matrix(0.9701 -0.2425 0.2425 0.9701 -238.1688 835.5768)" class="st0" width="8.5" height="311.8"/>
</g>
<g id="LWPOLYLINE_21_">
	
		<rect x="3085" y="1575.9" transform="matrix(0.9701 -0.2425 0.2425 0.9701 -304.3957 797.9906)" class="st0" width="8.5" height="119.1"/>
</g>
<g id="LWPOLYLINE_22_">
	<rect x="1539.3" y="1074.8" class="st0" width="119.1" height="8.5"/>
</g>
<g id="LWPOLYLINE_23_">
	
		<rect x="1243.3" y="1381" transform="matrix(0.2425 -0.9701 0.9701 0.2425 -283.9847 2406.7104)" class="st0" width="311.8" height="8.5"/>
</g>
<g id="LWPOLYLINE_24_">
	<rect x="1261.1" y="2174.7" class="st0" width="119.1" height="8.5"/>
</g>
<g id="LWPOLYLINE_25_">
	<rect x="983" y="1074.8" class="st0" width="119.1" height="8.5"/>
</g>
<g id="LWPOLYLINE_26_">
	
		<rect x="1237.9" y="1229.3" transform="matrix(0.9701 -0.2425 0.2425 0.9701 -298.8354 342.5931)" class="st0" width="8.5" height="311.8"/>
</g>
<g id="LWPOLYLINE_27_">
	
		<rect x="1050.7" y="1346.6" transform="matrix(0.9701 -0.2425 0.2425 0.9701 -363.7983 304.5052)" class="st0" width="8.5" height="566.9"/>
</g>
<g id="LWPOLYLINE_28_">
	
		<rect x="4510.6" y="1631.1" transform="matrix(0.2425 -0.9701 0.9701 0.2425 1875.2616 5672.5244)" class="st0" width="119.1" height="8.5"/>
</g>
<g id="LWPOLYLINE_29_">
	
		<rect x="4037.3" y="1575.9" transform="matrix(0.9701 -0.2425 0.2425 0.9701 -275.9749 1028.9504)" class="st0" width="8.5" height="119.1"/>
</g>
<g id="LWPOLYLINE_30_">
	<polygon class="st0" points="1539.3,1030.7 1539.3,1039.3 1658.4,1039.3 1658.4,1030.7 1718.6,1030.7 1718.6,804 1658.4,804 
		1658.4,795.5 1539.3,795.5 1539.3,804 1479,804 1479,1030.7 	"/>
</g>
<g id="LWPOLYLINE_31_">
	<polygon class="st0" points="1844.6,643.6 2000.9,643.6 2000.9,416.8 1844.6,416.8 1844.6,408.3 1532.8,408.3 1532.8,416.8 
		1376.5,416.8 1376.5,643.6 1532.8,643.6 1532.8,652.1 1844.6,652.1 	"/>
</g>
<g id="LWPOLYLINE_32_">
	<rect x="1819.1" y="1323.4" class="st0" width="9.9" height="56.7"/>
</g>
<g id="LWPOLYLINE_33_">
	<path class="st0" d="M2075.6,1635.2h8.5v-566.9h-8.5v-279h-226.8v505.8h-31.2c-5.5,0-9.9,4.4-9.9,9.9v93.5c0,5.5,4.4,9.9,9.9,9.9
		h31.2v505.8h226.8C2075.6,1914.2,2075.6,1635.2,2075.6,1635.2z"/>
</g>
</svg>
