<?xml version="1.0" encoding="utf-8"?>
<!-- Generator: Adobe Illustrator 22.0.0, SVG Export Plug-In . SVG Version: 6.00 Build 0)  -->
<svg version="1.1" id="_x30_" xmlns="http://www.w3.org/2000/svg" xmlns:xlink="http://www.w3.org/1999/xlink" x="0px" y="0px"
	 viewBox="0 0 5492 3328" style="enable-background:new 0 0 5492 3328;" xml:space="preserve">
<style type="text/css">
	.st0{fill:none;stroke:#000000;stroke-width:0.7087;stroke-linecap:round;stroke-linejoin:round;stroke-miterlimit:10;}
</style>
<g id="LWPOLYLINE">
	<path class="st0" d="M4516.3,1221.3l-178.1,822c-1.4,6.5-7.2,11.2-13.9,11.2h-176.8c-6.1,0-11.5-3.9-13.4-9.7l-167.6-502.7
		c-2.5-7.4-10.5-11.4-17.9-9c-4.2,1.4-7.6,4.7-9,9L3772,2044.8c-1.9,5.8-7.3,9.7-13.4,9.7h-176.8c-6.7,0-12.4-4.7-13.9-11.2
		l-178.1-822c-0.2-1-0.3-2-0.3-3c0-7.8,6.3-14.2,14.2-14.2h169.4c6.7,0,12.4,4.7,13.9,11.2l92.7,427.9c1.7,7.7,9.2,12.5,16.9,10.9
		c4.9-1.1,8.9-4.6,10.4-9.4l143.6-430.9c1.9-5.8,7.3-9.7,13.4-9.7h178c6.1,0,11.5,3.9,13.4,9.7l143.6,430.9
		c2.5,7.4,10.5,11.4,17.9,9c4.7-1.6,8.3-5.6,9.4-10.4l92.7-427.9c1.4-6.5,7.2-11.2,13.9-11.2h169.4c1,0,2,0.1,3,0.3
		C4513.1,1206.1,4518,1213.6,4516.3,1221.3z"/>
</g>
<g id="LWPOLYLINE_1_">
	
		<rect x="4197.8" y="1626" transform="matrix(0.2118 -0.9773 0.9773 0.2118 1882.9664 5595.2661)" class="st0" width="425.2" height="8.5"/>
</g>
<g id="LWPOLYLINE_2_">
	<path class="st0" d="M4589.8,853.5v-14.2c0-31.3,25.4-56.7,56.7-56.7s56.7,25.4,56.7,56.7V896v70.9c0,7.8-6.3,14.2-14.2,14.2h-85
		c-7.8,0-14.2-6.3-14.2-14.2v-56.7c0-7.8,6.3-14.2,14.2-14.2h68c7.8,0,14.2-6.3,14.2-14.2v-42.5c0-21.9-17.8-39.7-39.7-39.7
		s-39.7,17.8-39.7,39.7v14.2c0,4.7-3.8,8.5-8.5,8.5C4593.6,862,4589.8,858.2,4589.8,853.5z"/>
</g>
<g id="LWPOLYLINE_3_">
	<path class="st0" d="M4650.8,934.2v10.2c0,2.3-1.9,4.3-4.3,4.3c-2.3,0-4.3-1.9-4.3-4.3v-10.2c-1.3-0.7-2.4-1.8-3.1-3.1
		c-2.3-4.1-1-9.3,3.1-11.6c4.1-2.3,9.3-1,11.6,3.1C4656.2,926.7,4654.8,931.9,4650.8,934.2z"/>
</g>
<g id="LWPOLYLINE_4_">
	<polygon class="st0" points="3903.5,1151.2 3903.5,1159.7 4002.7,1159.7 4002.7,1151.2 4037,1151.2 4037,924.5 4002.7,924.5 
		4002.7,916 3903.5,916 3903.5,924.5 3869.2,924.5 3869.2,1151.2 	"/>
</g>
<g id="LWPOLYLINE_5_">
	<polygon class="st0" points="3525.4,1157.7 3525.4,1166.2 3454.6,1166.2 3454.6,1157.7 3412.6,1157.7 3412.6,930.9 3454.6,930.9 
		3454.6,922.4 3525.4,922.4 3525.4,930.9 3567.5,930.9 3567.5,1157.7 	"/>
</g>
<g id="LWPOLYLINE_6_">
	<path class="st0" d="M3323.1,1421.9h8.5v425.2h-8.5v200.7h-226.7v-356.6h-31.2c-5.5,0-9.9-4.4-9.9-9.9v-93.5c0-5.5,4.4-9.9,9.9-9.9
		h31.2v-356.6h226.8L3323.1,1421.9z"/>
</g>
<g id="LWPOLYLINE_7_">
	<polygon class="st0" points="3628,2350.5 3587.6,2350.5 3587.6,2123.7 3628,2123.7 3628,2115.2 3713.1,2115.2 3713.1,2123.7 
		3753.5,2123.7 3753.5,2350.5 3713.1,2350.5 3713.1,2359 3628,2359 	"/>
</g>
<g id="LWPOLYLINE_8_">
	<polygon class="st0" points="3783.9,2674.9 3792.4,2674.9 3792.4,2845 3783.9,2845 3783.9,3064.8 3557.2,3064.8 3557.2,2845 
		3548.7,2845 3548.7,2674.9 3557.2,2674.9 3557.2,2455 3783.9,2455 	"/>
</g>
<g id="LWPOLYLINE_9_">
	<polygon class="st0" points="3603.4,752.6 3603.4,892.8 3376.6,892.8 3376.6,752.6 3368.1,752.6 3368.1,497.5 3376.6,497.5 
		3376.6,357.2 3603.4,357.2 3603.4,497.5 3611.9,497.5 3611.9,752.6 	"/>
</g>
<g id="LWPOLYLINE_10_">
	<polygon class="st0" points="3849.7,739 3858.2,739 3858.2,1022.5 3849.7,1022.5 3849.7,1157 3622.9,1157 3622.9,1022.5 
		3614.4,1022.5 3614.4,739 3622.9,739 3622.9,604.5 3849.7,604.5 	"/>
</g>
<g id="LWPOLYLINE_11_">
	<rect x="3066.6" y="1606.1" class="st0" width="9.9" height="56.7"/>
</g>
<g id="LWPOLYLINE_12_">
	<path class="st0" d="M4589.8,1066.5v-14.2c0-31.3,25.4-56.7,56.7-56.7s56.7,25.4,56.7,56.7v56.7v70.9c0,7.8-6.3,14.2-14.2,14.2h-85
		c-7.8,0-14.2-6.3-14.2-14.2v-56.7c0-7.8,6.3-14.2,14.2-14.2h68c7.8,0,14.2-6.3,14.2-14.2v-42.5c0-21.9-17.8-39.7-39.7-39.7
		s-39.7,17.8-39.7,39.7v14.2c0,4.7-3.8,8.5-8.5,8.5C4593.6,1075,4589.8,1071.2,4589.8,1066.5z"/>
</g>
<g id="LWPOLYLINE_13_">
	<path class="st0" d="M4650.8,1147.2v10.2c0,2.3-1.9,4.3-4.3,4.3c-2.3,0-4.3-1.9-4.3-4.3v-10.2c-1.3-0.7-2.4-1.8-3.1-3.1
		c-2.3-4.1-1-9.3,3.1-11.6c4.1-2.3,9.3-1,11.6,3.1C4656.2,1139.6,4654.8,1144.8,4650.8,1147.2z"/>
</g>
<g id="LWPOLYLINE_14_">
	<path class="st0" d="M2772.9,1221.3l-178.1,822c-1.4,6.5-7.2,11.2-13.9,11.2h-176.8c-6.1,0-11.5-3.9-13.4-9.7l-167.6-502.7
		c-2.5-7.4-10.5-11.4-17.9-9c-4.2,1.4-7.6,4.7-9,9l-167.6,502.7c-1.9,5.8-7.3,9.7-13.4,9.7h-176.8c-6.7,0-12.4-4.7-13.9-11.2
		l-178.1-822c-0.2-1-0.3-2-0.3-3c0-7.8,6.3-14.2,14.2-14.2h169.4c6.7,0,12.4,4.7,13.9,11.2l92.7,427.9c1.7,7.7,9.2,12.5,16.9,10.9
		c4.9-1.1,8.9-4.6,10.4-9.4l143.6-430.9c1.9-5.8,7.3-9.7,13.4-9.7h178c6.1,0,11.5,3.9,13.4,9.7l143.6,430.9
		c2.5,7.4,10.5,11.4,17.9,9c4.7-1.6,8.3-5.6,9.4-10.4l92.7-427.9c1.4-6.5,7.2-11.2,13.9-11.2h169.4c1,0,2,0.1,3,0.3
		C2769.7,1206.1,2774.6,1213.6,2772.9,1221.3z"/>
</g>
<g id="LWPOLYLINE_15_">
	<rect x="2637.4" y="1216.9" class="st0" width="70.9" height="8.5"/>
</g>
<g id="LWPOLYLINE_16_">
	<rect x="2449.7" y="2033.2" class="st0" width="85" height="8.5"/>
</g>
<g id="LWPOLYLINE_17_">
	
		<rect x="2305.9" y="1659.8" transform="matrix(0.9487 -0.3162 0.3162 0.9487 -433.1905 819.984)" class="st0" width="8.5" height="170.1"/>
</g>
<g id="LWPOLYLINE_18_">
	
		<rect x="2406.9" y="1481.9" transform="matrix(0.2118 -0.9773 0.9773 0.2118 545.2046 3648.374)" class="st0" width="255.1" height="8.5"/>
</g>
<g id="LWPOLYLINE_19_">
	
		<rect x="2380.7" y="1344.3" transform="matrix(0.9487 -0.3162 0.3162 0.9487 -347.5224 830.3577)" class="st0" width="8.5" height="283.5"/>
</g>
<g id="LWPOLYLINE_20_">
	<rect x="2160.1" y="1216.9" class="st0" width="99.2" height="8.5"/>
</g>
<g id="LWPOLYLINE_21_">
	<path class="st0" d="M2729,1256.7l-162.8,751.2c-1.4,6.5-7.2,11.2-13.9,11.2h-122.7c-6.1,0-11.5-3.9-13.4-9.7l-193.1-579.3
		c-2.5-7.4-10.5-11.4-17.9-9c-4.2,1.4-7.6,4.7-9,9l-193.1,579.3c-1.9,5.8-7.3,9.7-13.4,9.7H1867c-6.7,0-12.4-4.7-13.9-11.2
		l-162.8-751.2c-0.2-1-0.3-2-0.3-3c0-7.8,6.3-14.2,14.2-14.2h96.9c6.7,0,12.4,4.7,13.9,11.2l114,526.3c1.7,7.7,9.2,12.5,16.9,10.9
		c4.9-1.1,8.9-4.6,10.4-9.4l176.4-529.3c1.9-5.8,7.3-9.7,13.4-9.7H2273c6.1,0,11.5,3.9,13.4,9.7l176.6,529.3
		c2.5,7.4,10.5,11.4,17.9,9c4.7-1.6,8.3-5.6,9.4-10.4l114-526.3c1.4-6.5,7.2-11.2,13.9-11.2h96.9c1,0,2,0.1,3,0.3
		C2725.8,1241.5,2730.6,1249.1,2729,1256.7z"/>
</g>
<g id="LWPOLYLINE_22_">
	
		<rect x="2607.3" y="1625.9" transform="matrix(0.2118 -0.9773 0.9773 0.2118 508.866 3891.228)" class="st0" width="119.1" height="8.5"/>
</g>
<g id="LWPOLYLINE_23_">
	<path class="st0" d="M1454.2,1221.3l-178.1,822c-1.4,6.5-7.2,11.2-13.9,11.2h-176.8c-6.1,0-11.5-3.9-13.4-9.7l-167.6-502.7
		c-2.5-7.4-10.5-11.4-17.9-9c-4.2,1.4-7.6,4.7-9,9l-167.6,502.7c-1.9,5.8-7.3,9.7-13.4,9.7H519.7c-6.7,0-12.4-4.7-13.9-11.2
		l-178.1-822c-0.2-1-0.3-2-0.3-3c0-7.8,6.3-14.2,14.2-14.2H511c6.7,0,12.4,4.7,13.9,11.2l92.7,427.9c1.7,7.7,9.2,12.5,16.9,10.9
		c4.9-1.1,8.9-4.6,10.4-9.4l143.6-430.9c1.9-5.8,7.3-9.7,13.4-9.7h178c6.1,0,11.5,3.9,13.4,9.7l143.6,430.9
		c2.5,7.4,10.5,11.4,17.9,9c4.7-1.6,8.3-5.6,9.4-10.4l92.7-427.9c1.4-6.5,7.2-11.2,13.9-11.2h169.4c1,0,2,0.1,3,0.3
		C1451,1206.1,1455.9,1213.6,1454.2,1221.3z"/>
</g>
<g id="LWPOLYLINE_25_">
	<rect x="1711.1" y="1216.9" class="st0" width="70.9" height="8.5"/>
</g>
<g id="LWPOLYLINE_26_">
	<rect x="1884.6" y="2033.2" class="st0" width="85" height="8.5"/>
</g>
<g id="LWPOLYLINE_27_">
	
		<rect x="2024.2" y="1740.6" transform="matrix(0.3162 -0.9487 0.9487 0.3162 -213.0005 3194.1475)" class="st0" width="170.1" height="8.5"/>
</g>
<g id="LWPOLYLINE_28_">
	
		<rect x="1880.6" y="1358.6" transform="matrix(0.9773 -0.2118 0.2118 0.9773 -272.0164 432.9364)" class="st0" width="8.5" height="255.1"/>
</g>
<g id="LWPOLYLINE_29_">
	
		<rect x="1892.7" y="1481.8" transform="matrix(0.3162 -0.9487 0.9487 0.3162 -18.6671 2946.1836)" class="st0" width="283.5" height="8.5"/>
</g>
<g id="LWPOLYLINE_30_">
	
		<rect x="1748.2" y="1570.7" transform="matrix(0.9773 -0.2118 0.2118 0.9773 -305.5403 408.1676)" class="st0" width="8.5" height="119.1"/>
</g>
<g id="LWPOLYLINE_31_">
	<rect x="4380.8" y="1216.9" class="st0" width="70.9" height="8.5"/>
</g>
<g id="LWPOLYLINE_32_">
	<rect x="4193.2" y="2033.2" class="st0" width="85" height="8.5"/>
</g>
<g id="LWPOLYLINE_33_">
	
		<rect x="4150.5" y="1481.9" transform="matrix(0.2118 -0.9773 0.9773 0.2118 1919.4734 5352.3271)" class="st0" width="255.1" height="8.5"/>
</g>
<g id="LWPOLYLINE_34_">
	
		<rect x="4124.1" y="1344.4" transform="matrix(0.9487 -0.3162 0.3162 0.9487 -258.0914 1381.6296)" class="st0" width="8.5" height="283.5"/>
</g>
<g id="LWPOLYLINE_35_">
	<rect x="3903.5" y="1216.9" class="st0" width="99.2" height="8.5"/>
</g>
<g id="LWPOLYLINE_36_">
	<rect x="3454.6" y="1216.9" class="st0" width="70.9" height="8.5"/>
</g>
<g id="LWPOLYLINE_37_">
	<rect x="3628" y="2033.2" class="st0" width="85" height="8.5"/>
</g>
<g id="LWPOLYLINE_38_">
	
		<rect x="3624.1" y="1358.5" transform="matrix(0.9773 -0.2118 0.2118 0.9773 -232.4413 802.2034)" class="st0" width="8.5" height="255.1"/>
</g>
<g id="LWPOLYLINE_39_">
	
		<rect x="3636" y="1481.8" transform="matrix(0.3162 -0.9487 0.9487 0.3162 1173.4537 4600.1133)" class="st0" width="283.5" height="8.5"/>
</g>
<g id="LWPOLYLINE_40_">
	
		<rect x="3491.7" y="1417.5" transform="matrix(0.9773 -0.2118 0.2118 0.9773 -265.9552 777.4312)" class="st0" width="8.5" height="425.2"/>
</g>
<g id="LWPOLYLINE_41_">
	
		<rect x="1288.6" y="1625.9" transform="matrix(0.2118 -0.9773 0.9773 0.2118 -530.5497 2602.3674)" class="st0" width="119.1" height="8.5"/>
</g>
<g id="LWPOLYLINE_42_">
	
		<rect x="429.6" y="1570.8" transform="matrix(0.9773 -0.2118 0.2118 0.9773 -335.4708 128.8713)" class="st0" width="8.5" height="119.1"/>
</g>
<g id="LWPOLYLINE_43_">
	<polygon class="st0" points="4380.8,1157.7 4380.8,1166.2 4451.7,1166.2 4451.7,1157.7 4493.7,1157.7 4493.7,930.9 4451.7,930.9 
		4451.7,922.4 4380.8,922.4 4380.8,930.9 4338.8,930.9 4338.8,1157.7 	"/>
</g>
<g id="LWPOLYLINE_44_">
	<path class="st0" d="M4583.1,1421.9h-8.5v425.2h8.5v200.7h226.8v-356.6h31.2c5.5,0,9.9-4.4,9.9-9.9v-93.5c0-5.5-4.4-9.9-9.9-9.9
		h-31.2v-356.6h-226.8V1421.9z"/>
</g>
<g id="LWPOLYLINE_45_">
	<polygon class="st0" points="4278.2,2350.5 4318.7,2350.5 4318.7,2123.7 4278.2,2123.7 4278.2,2115.2 4193.2,2115.2 4193.2,2123.7 
		4152.7,2123.7 4152.7,2350.5 4193.2,2350.5 4193.2,2359 4278.2,2359 	"/>
</g>
<g id="LWPOLYLINE_46_">
	<polygon class="st0" points="4122.3,2674.9 4113.8,2674.9 4113.8,2845 4122.3,2845 4122.3,3064.8 4349.1,3064.8 4349.1,2845 
		4357.6,2845 4357.6,2674.9 4349.1,2674.9 4349.1,2455 4122.3,2455 	"/>
</g>
<g id="LWPOLYLINE_47_">
	<polygon class="st0" points="4302.8,752.6 4302.8,892.8 4529.6,892.8 4529.6,752.6 4538.1,752.6 4538.1,497.5 4529.6,497.5 
		4529.6,357.2 4302.8,357.2 4302.8,497.5 4294.3,497.5 4294.3,752.6 	"/>
</g>
<g id="LWPOLYLINE_48_">
	<polygon class="st0" points="4056.6,739 4048.1,739 4048.1,1022.5 4056.6,1022.5 4056.6,1157 4283.4,1157 4283.4,1022.5 
		4291.9,1022.5 4291.9,739 4283.4,739 4283.4,604.5 4056.6,604.5 	"/>
</g>
<g id="LWPOLYLINE_49_">
	<rect x="4829.7" y="1606.1" class="st0" width="9.9" height="56.7"/>
</g>
</svg>
