<?xml version="1.0" encoding="utf-8"?>
<!-- Generator: Adobe Illustrator 22.0.0, SVG Export Plug-In . SVG Version: 6.00 Build 0)  -->
<svg version="1.1" id="_x30_" xmlns="http://www.w3.org/2000/svg" xmlns:xlink="http://www.w3.org/1999/xlink" x="0px" y="0px"
	 viewBox="0 0 7000.7 3079.4" style="enable-background:new 0 0 7000.7 3079.4;" xml:space="preserve">
<style type="text/css">
	.st0{fill:none;stroke:#000000;stroke-width:0.7087;stroke-linecap:round;stroke-linejoin:round;stroke-miterlimit:10;}
</style>
<g id="LWPOLYLINE">
	<polygon class="st0" points="1385.3,1003.9 1668.8,1003.9 1810.5,1287.4 1952.2,1003.9 2235.7,1003.9 1952.2,1570.9 2235.7,2137.8 
		1952.2,2137.8 1810.5,1854.3 1668.8,2137.8 1385.3,2137.8 1668.8,1570.9 	"/>
</g>
<g id="LWPOLYLINE_1_">
	<polygon class="st0" points="2168.4,641.4 2249.4,641.4 2249.4,414.7 2168.4,414.7 2168.4,406.1 1998.3,406.1 1998.3,414.7 
		1917.3,414.7 1917.3,641.4 1998.3,641.4 1998.3,649.9 2168.4,649.9 	"/>
</g>
<g id="LWPOLYLINE_2_">
	<polygon class="st0" points="2365.1,1758.3 2365.1,1749.8 2648.6,1749.8 2648.6,1758.3 2810.1,1758.3 2810.1,1985 2648.6,1985 
		2648.6,1993.6 2365.1,1993.6 2365.1,1985 2203.6,1985 2203.6,1758.3 	"/>
</g>
<g id="LWPOLYLINE_3_">
	<rect x="2478.5" y="1126.9" class="st0" width="56.7" height="9.9"/>
</g>
<g id="LWPOLYLINE_4_">
	<path class="st0" d="M3596.5,1239v-14.2c0-31.3,25.4-56.7,56.7-56.7s56.7,25.4,56.7,56.7v56.7v70.9c0,7.8-6.3,14.2-14.2,14.2h-85
		c-7.8,0-14.2-6.3-14.2-14.2v-56.7c0-7.8,6.3-14.2,14.2-14.2h68c7.8,0,14.2-6.3,14.2-14.2v-42.5c0-21.9-17.8-39.7-39.7-39.7
		c-21.9,0-39.7,17.8-39.7,39.7v14.2c0,4.7-3.8,8.5-8.5,8.5C3600.3,1247.5,3596.5,1243.7,3596.5,1239z"/>
</g>
<g id="LWPOLYLINE_5_">
	<path class="st0" d="M3657.5,1319.7v10.2c0,2.3-1.9,4.3-4.3,4.3c-2.4,0-4.3-1.9-4.3-4.3v-10.2c-1.3-0.7-2.4-1.8-3.1-3.1
		c-2.3-4.1-1-9.3,3.1-11.6c4.1-2.3,9.3-1,11.6,3.1C3662.8,1312.2,3661.5,1317.3,3657.5,1319.7z"/>
</g>
<g id="LWPOLYLINE_6_">
	<path class="st0" d="M3402,1239v-14.2c0-31.3,25.4-56.7,56.7-56.7c31.3,0,56.7,25.4,56.7,56.7v56.7v70.9c0,7.8-6.3,14.2-14.2,14.2
		h-85c-7.8,0-14.2-6.3-14.2-14.2v-56.7c0-7.8,6.3-14.2,14.2-14.2h68c7.8,0,14.2-6.3,14.2-14.2v-42.5c0-21.9-17.8-39.7-39.7-39.7
		c-21.9,0-39.7,17.8-39.7,39.7v14.2c0,4.7-3.8,8.5-8.5,8.5C3405.8,1247.5,3402,1243.7,3402,1239z"/>
</g>
<g id="LWPOLYLINE_7_">
	<path class="st0" d="M3462.9,1319.7v10.2c0,2.3-1.9,4.3-4.3,4.3s-4.3-1.9-4.3-4.3v-10.2c-1.3-0.7-2.4-1.8-3.1-3.1
		c-2.3-4.1-1-9.3,3.1-11.6c4.1-2.3,9.3-1,11.6,3.1C3468.2,1312.2,3467,1317.3,3462.9,1319.7z"/>
</g>
<g id="LWPOLYLINE_8_">
	<polygon class="st0" points="2168.4,2500.3 2249.4,2500.3 2249.4,2727.1 2168.4,2727.1 2168.4,2735.6 1998.3,2735.6 1998.3,2727.1 
		1917.3,2727.1 1917.3,2500.3 1998.3,2500.3 1998.3,2491.8 2168.4,2491.8 	"/>
</g>
<g id="LWPOLYLINE_9_">
	<path class="st0" d="M2810.1,1383.4v-226.7h-246.6v-31.2c0-5.5-4.4-9.9-9.9-9.9h-93.5c-5.5,0-9.9,4.4-9.9,9.9v31.2h-246.6v226.8
		h161.5v8.5h283.5v-8.5L2810.1,1383.4z"/>
</g>
<g id="LWPOLYLINE_10_">
	<polygon class="st0" points="2023.8,970.5 2023.8,979 2142.9,979 2142.9,970.5 2201.3,970.5 2201.3,743.7 2142.9,743.7 
		2142.9,735.2 2023.8,735.2 2023.8,743.7 1965.4,743.7 1965.4,970.5 	"/>
</g>
<g id="LWPOLYLINE_11_">
	<polygon class="st0" points="2023.8,2171.3 2023.8,2162.8 2142.9,2162.8 2142.9,2171.3 2201.3,2171.3 2201.3,2398 2142.9,2398 
		2142.9,2406.5 2023.8,2406.5 2023.8,2398 1965.4,2398 1965.4,2171.3 	"/>
</g>
<g id="LWPOLYLINE_12_">
	<polygon class="st0" points="3950.2,1003.9 4233.6,1003.9 4375.4,1287.4 4517.1,1003.9 4800.6,1003.9 4517.1,1570.9 4800.6,2137.8 
		4517.1,2137.8 4375.4,1854.3 4233.6,2137.8 3950.2,2137.8 4233.6,1570.9 	"/>
</g>
<g id="LWPOLYLINE_13_">
	<polygon class="st0" points="4007.5,1039.4 4211.7,1039.4 4375.4,1366.6 4539,1039.4 4743.2,1039.4 4477.5,1570.9 4743.2,2102.4 
		4539,2102.4 4375.4,1775.1 4211.7,2102.4 4007.5,2102.4 4273.3,1570.9 	"/>
</g>
<g id="LWPOLYLINE_14_">
	<rect x="4588.7" y="1016.7" class="st0" width="119.1" height="8.5"/>
</g>
<g id="LWPOLYLINE_15_">
	
		<rect x="4630.1" y="1701.6" transform="matrix(0.8944 -0.4472 0.4472 0.8944 -335.1278 2267.1487)" class="st0" width="8.5" height="283.5"/>
</g>
<g id="LWPOLYLINE_16_">
	
		<rect x="4449.2" y="1884.2" transform="matrix(0.8944 -0.4472 0.4472 0.8944 -410.5247 2199.5422)" class="st0" width="8.5" height="170.1"/>
</g>
<g id="LWPOLYLINE_17_">
	<rect x="4043" y="1016.7" class="st0" width="119.1" height="8.5"/>
</g>
<g id="LWPOLYLINE_18_">
	<rect x="4588.7" y="2116.5" class="st0" width="119.1" height="8.5"/>
</g>
<g id="LWPOLYLINE_19_">
	
		<rect x="4572.9" y="1298" transform="matrix(0.4472 -0.8944 0.8944 0.4472 1395.9601 4863.2485)" class="st0" width="119.1" height="8.5"/>
</g>
<g id="LWPOLYLINE_20_">
	<polygon class="st0" points="5070.3,1003.9 5353.8,1003.9 5495.5,1287.4 5637.2,1003.9 5920.7,1003.9 5637.2,1570.9 5920.7,2137.8 
		5637.2,2137.8 5495.5,1854.3 5353.8,2137.8 5070.3,2137.8 5353.8,1570.9 	"/>
</g>
<g id="LWPOLYLINE_22_">
	
		<rect x="4212.3" y="1965" transform="matrix(0.4472 -0.8944 0.8944 0.4472 614.1366 4932.2231)" class="st0" width="170.1" height="8.5"/>
</g>
<g id="LWPOLYLINE_23_">
	<rect x="4043" y="2116.5" class="st0" width="119.1" height="8.5"/>
</g>
<g id="LWPOLYLINE_24_">
	
		<rect x="4112.1" y="1156.7" transform="matrix(0.8944 -0.4472 0.4472 0.8944 -146.0901 1977.9766)" class="st0" width="8.5" height="283.5"/>
</g>
<g id="LWPOLYLINE_25_">
	
		<rect x="4058.8" y="1835.3" transform="matrix(0.4472 -0.8944 0.8944 0.4472 631.268 4700.4263)" class="st0" width="119.1" height="8.5"/>
</g>
<g id="LWPOLYLINE_26_">
	
		<rect x="4368.4" y="1168.3" transform="matrix(0.4472 -0.8944 0.8944 0.4472 1413.0916 4631.4517)" class="st0" width="170.1" height="8.5"/>
</g>
<g id="LWPOLYLINE_27_">
	
		<rect x="4293.1" y="1087.4" transform="matrix(0.8944 -0.4472 0.4472 0.8944 -70.6638 2045.6183)" class="st0" width="8.5" height="170.1"/>
</g>
<g id="LWPOLYLINE_28_">
	<rect x="2023.8" y="1016.7" class="st0" width="119.1" height="8.5"/>
</g>
<g id="LWPOLYLINE_29_">
	
		<rect x="2065.3" y="1701.6" transform="matrix(0.8944 -0.4472 0.4472 0.8944 -605.896 1120.1218)" class="st0" width="8.5" height="283.5"/>
</g>
<g id="LWPOLYLINE_30_">
	
		<rect x="1884.4" y="1884.2" transform="matrix(0.8944 -0.4472 0.4472 0.8944 -681.2929 1052.5154)" class="st0" width="8.5" height="170.1"/>
</g>
<g id="LWPOLYLINE_31_">
	<rect x="1478.2" y="1016.7" class="st0" width="119.1" height="8.5"/>
</g>
<g id="LWPOLYLINE_32_">
	<rect x="2023.8" y="2116.5" class="st0" width="119.1" height="8.5"/>
</g>
<g id="LWPOLYLINE_33_">
	
		<rect x="1647.4" y="1965" transform="matrix(0.4472 -0.8944 0.8944 0.4472 -803.6432 2638.1387)" class="st0" width="170.1" height="8.5"/>
</g>
<g id="LWPOLYLINE_34_">
	<rect x="1478.2" y="2116.5" class="st0" width="119.1" height="8.5"/>
</g>
<g id="LWPOLYLINE_35_">
	
		<rect x="1547.4" y="1156.6" transform="matrix(0.8944 -0.4472 0.4472 0.8944 -416.8289 830.9849)" class="st0" width="8.5" height="283.5"/>
</g>
<g id="LWPOLYLINE_36_">
	
		<rect x="1803.6" y="1168.2" transform="matrix(0.4472 -0.8944 0.8944 0.4472 -4.6881 2337.3672)" class="st0" width="170.1" height="8.5"/>
</g>
<g id="LWPOLYLINE_37_">
	
		<rect x="1728.3" y="1087.4" transform="matrix(0.8944 -0.4472 0.4472 0.8944 -341.432 898.5914)" class="st0" width="8.5" height="170.1"/>
</g>
<g id="LWPOLYLINE_38_">
	
		<rect x="1409.8" y="1839.1" transform="matrix(0.4472 -0.8944 0.8944 0.4472 -791.0384 2406.7314)" class="st0" width="283.5" height="8.5"/>
</g>
<g id="LWPOLYLINE_39_">
	
		<rect x="1927.8" y="1294" transform="matrix(0.4472 -0.8944 0.8944 0.4472 -17.1882 2568.7646)" class="st0" width="283.5" height="8.5"/>
</g>
<g id="LWPOLYLINE_40_">
	
		<rect x="5693" y="1298.1" transform="matrix(0.4472 -0.8944 0.8944 0.4472 2015.0878 5865.125)" class="st0" width="119.1" height="8.5"/>
</g>
<g id="LWPOLYLINE_41_">
	
		<rect x="5179" y="1835.2" transform="matrix(0.4472 -0.8944 0.8944 0.4472 1250.5002 5702.2935)" class="st0" width="119.1" height="8.5"/>
</g>
<g id="LWPOLYLINE_42_">
	<polygon class="st0" points="1452.6,641.4 1371.6,641.4 1371.6,414.7 1452.6,414.7 1452.6,406.1 1622.7,406.1 1622.7,414.7 
		1703.7,414.7 1703.7,641.4 1622.7,641.4 1622.7,649.9 1452.6,649.9 	"/>
</g>
<g id="LWPOLYLINE_43_">
	<polygon class="st0" points="1255.9,1758.3 1255.9,1749.8 972.5,1749.8 972.5,1758.3 810.9,1758.3 810.9,1985 972.5,1985 
		972.5,1993.6 1255.9,1993.6 1255.9,1985 1417.5,1985 1417.5,1758.3 	"/>
</g>
<g id="LWPOLYLINE_44_">
	<rect x="1085.8" y="1126.9" class="st0" width="56.7" height="9.9"/>
</g>
<g id="LWPOLYLINE_45_">
	<polygon class="st0" points="1452.6,2500.3 1371.6,2500.3 1371.6,2727.1 1452.6,2727.1 1452.6,2735.6 1622.7,2735.6 1622.7,2727.1 
		1703.7,2727.1 1703.7,2500.3 1622.7,2500.3 1622.7,2491.8 1452.6,2491.8 	"/>
</g>
<g id="LWPOLYLINE_46_">
	<path class="st0" d="M810.9,1383.4v-226.7h246.6v-31.2c0-5.5,4.4-9.9,9.9-9.9h93.5c5.5,0,9.9,4.4,9.9,9.9v31.2h246.6v226.8h-161.5
		v8.5H972.4v-8.5L810.9,1383.4z"/>
</g>
<g id="LWPOLYLINE_47_">
	<polygon class="st0" points="1597.2,970.5 1597.2,979 1478.1,979 1478.1,970.5 1419.7,970.5 1419.7,743.7 1478.1,743.7 
		1478.1,735.2 1597.2,735.2 1597.2,743.7 1655.6,743.7 1655.6,970.5 	"/>
</g>
<g id="LWPOLYLINE_48_">
	<polygon class="st0" points="1597.2,2171.3 1597.2,2162.8 1478.1,2162.8 1478.1,2171.3 1419.7,2171.3 1419.7,2398 1478.1,2398 
		1478.1,2406.5 1597.2,2406.5 1597.2,2398 1655.6,2398 1655.6,2171.3 	"/>
</g>
</svg>
