<?xml version="1.0" encoding="utf-8"?>
<!-- Generator: Adobe Illustrator 22.0.0, SVG Export Plug-In . SVG Version: 6.00 Build 0)  -->
<svg version="1.1" id="_x30_" xmlns="http://www.w3.org/2000/svg" xmlns:xlink="http://www.w3.org/1999/xlink" x="0px" y="0px"
	 viewBox="0 0 5580 2864" style="enable-background:new 0 0 5580 2864;" xml:space="preserve">
<style type="text/css">
	.st0{fill:none;stroke:#000000;stroke-width:0.7087;stroke-linecap:round;stroke-linejoin:round;stroke-miterlimit:10;}
</style>
<g id="LWPOLYLINE">
	<polygon class="st0" points="2127.2,1044.6 1843.8,1696.6 1843.8,2178.5 1560.3,2178.5 1560.3,1696.6 1276.8,1044.6 1585.9,1044.6 
		1702,1311.7 1818.1,1044.6 	"/>
</g>
<g id="LWPOLYLINE_1_">
	<path class="st0" d="M2400,1202h93.5c5.5,0,9.9,4.4,9.9,9.9v32.6h284v226.8h-199v8.5H2305v-8.5h-199v-226.8h284V1212
		C2390.1,1206.5,2394.5,1202,2400,1202z"/>
</g>
<g id="LWPOLYLINE_2_">
	
		<rect x="1821.1" y="1375.8" transform="matrix(0.3987 -0.9171 0.9171 0.3987 -85.3502 2629.9412)" class="st0" width="283.5" height="8.5"/>
</g>
<g id="LWPOLYLINE_3_">
	<polygon class="st0" points="1951.5,701.1 2028.4,701.1 2028.4,474.4 1951.5,474.4 1951.5,465.9 1795.6,465.9 1795.6,474.4 
		1718.6,474.4 1718.6,701.1 1795.6,701.1 1795.6,709.6 1951.5,709.6 	"/>
</g>
<g id="LWPOLYLINE_4_">
	<polygon class="st0" points="1945.1,1812.1 1936.6,1812.1 1936.6,2038.8 1945.1,2038.8 1945.1,2157.2 2171.9,2157.2 2171.9,2038.8 
		2180.4,2038.8 2180.4,1812.1 2171.9,1812.1 2171.9,1693.7 1945.1,1693.7 	"/>
</g>
<g id="LWPOLYLINE_5_">
	<polygon class="st0" points="1761.6,2426.9 1822.5,2426.9 1822.5,2200.2 1761.6,2200.2 1761.6,2191.7 1642.5,2191.7 1642.5,2200.2 
		1581.6,2200.2 1581.6,2426.9 1642.5,2426.9 1642.5,2435.4 1761.6,2435.4 	"/>
</g>
<g id="LWPOLYLINE_6_">
	<polygon class="st0" points="1899.7,1006.4 1899.7,1014.9 2027.2,1014.9 2027.2,1006.4 2094.8,1006.4 2094.8,779.6 2027.2,779.6 
		2027.2,771.1 1899.7,771.1 1899.7,779.6 1832.1,779.6 1832.1,1006.4 	"/>
</g>
<g id="LWPOLYLINE_7_">
	<rect x="2418.4" y="1213.4" class="st0" width="56.7" height="9.9"/>
</g>
<g id="LWPOLYLINE_8_">
	<polygon class="st0" points="3838.8,1044.6 3555.4,1696.6 3555.4,2178.5 3271.9,2178.5 3271.9,1696.6 2988.5,1044.6 3297.6,1044.6 
		3413.6,1311.7 3529.7,1044.6 	"/>
</g>
<g id="LWPOLYLINE_9_">
	<polygon class="st0" points="3784.8,1080.1 3519.9,1689.2 3519.9,2143.1 3307.3,2143.1 3307.3,1689.2 3042.5,1080.1 3274.3,1080.1 
		3413.6,1400.5 3553,1080.1 	"/>
</g>
<g id="LWPOLYLINE_10_">
	<rect x="3611.3" y="1057.4" class="st0" width="127.6" height="8.5"/>
</g>
<g id="LWPOLYLINE_11_">
	
		<rect x="3400" y="1202" transform="matrix(0.3987 -0.9171 0.9171 0.3987 985.147 3914.9067)" class="st0" width="155.9" height="8.5"/>
</g>
<g id="LWPOLYLINE_12_">
	<rect x="3534.1" y="1812.1" class="st0" width="8.5" height="226.8"/>
</g>
<g id="LWPOLYLINE_13_">
	<rect x="3354.1" y="2157.2" class="st0" width="119.1" height="8.5"/>
</g>
<g id="LWPOLYLINE_14_">
	<polygon class="st0" points="5010.4,1044.6 4726.9,1696.6 4726.9,2178.5 4443.4,2178.5 4443.4,1696.6 4160,1044.6 4469.1,1044.6 
		4585.2,1311.7 4701.3,1044.6 	"/>
</g>
<g id="LWPOLYLINE_16_">
	
		<rect x="3614.9" y="1374.4" transform="matrix(0.3987 -0.9171 0.9171 0.3987 943.8544 4199.5791)" class="st0" width="119.1" height="11.3"/>
</g>
<g id="LWPOLYLINE_17_">
	<rect x="3088.5" y="1057.4" class="st0" width="127.6" height="8.5"/>
</g>
<g id="LWPOLYLINE_18_">
	
		<rect x="3345" y="1128.3" transform="matrix(0.9171 -0.3987 0.3987 0.9171 -203.2337 1435.3479)" class="st0" width="8.5" height="155.9"/>
</g>
<g id="LWPOLYLINE_19_">
	<rect x="3284.7" y="1812.1" class="st0" width="8.5" height="226.8"/>
</g>
<g id="LWPOLYLINE_20_">
	
		<rect x="3147.2" y="1320.5" transform="matrix(0.9171 -0.3987 0.3987 0.9171 -288.8043 1371.4498)" class="st0" width="11.3" height="119.1"/>
</g>
<g id="LWPOLYLINE_21_">
	<rect x="1899.6" y="1057.4" class="st0" width="127.6" height="8.5"/>
</g>
<g id="LWPOLYLINE_22_">
	
		<rect x="1688.4" y="1202.1" transform="matrix(0.3987 -0.9171 0.9171 0.3987 -44.1656 2345.2874)" class="st0" width="155.9" height="8.5"/>
</g>
<g id="LWPOLYLINE_23_">
	<rect x="1822.5" y="1812.1" class="st0" width="8.5" height="226.8"/>
</g>
<g id="LWPOLYLINE_24_">
	<rect x="1642.5" y="2157.2" class="st0" width="119.1" height="8.5"/>
</g>
<g id="LWPOLYLINE_25_">
	<rect x="1376.8" y="1057.4" class="st0" width="127.6" height="8.5"/>
</g>
<g id="LWPOLYLINE_26_">
	
		<rect x="1633.4" y="1128.3" transform="matrix(0.9171 -0.3987 0.3987 0.9171 -345.1346 752.9188)" class="st0" width="8.5" height="155.9"/>
</g>
<g id="LWPOLYLINE_27_">
	<rect x="1573" y="1812.1" class="st0" width="8.5" height="226.8"/>
</g>
<g id="LWPOLYLINE_28_">
	
		<rect x="1436.9" y="1238.3" transform="matrix(0.9171 -0.3987 0.3987 0.9171 -430.7053 689.0208)" class="st0" width="8.5" height="283.5"/>
</g>
<g id="LWPOLYLINE_29_">
	
		<rect x="4786.4" y="1374.4" transform="matrix(0.3987 -0.9171 0.9171 0.3987 1648.293 5273.9082)" class="st0" width="119.1" height="11.3"/>
</g>
<g id="LWPOLYLINE_30_">
	
		<rect x="4318.7" y="1320.6" transform="matrix(0.9171 -0.3987 0.3987 0.9171 -191.6799 1838.5364)" class="st0" width="11.3" height="119.1"/>
</g>
<g id="LWPOLYLINE_31_">
	<path class="st0" d="M1004.1,1202h-93.5c-5.5,0-9.9,4.4-9.9,9.9v32.6h-284v226.8h199v8.5h283.5v-8.5h199v-226.8h-284V1212
		C1014,1206.5,1009.5,1202,1004.1,1202z"/>
</g>
<g id="LWPOLYLINE_32_">
	<polygon class="st0" points="1452.6,701.1 1375.6,701.1 1375.6,474.4 1452.6,474.4 1452.6,465.9 1608.5,465.9 1608.5,474.4 
		1685.5,474.4 1685.5,701.1 1608.5,701.1 1608.5,709.6 1452.6,709.6 	"/>
</g>
<g id="LWPOLYLINE_33_">
	<polygon class="st0" points="1458.9,1812.1 1467.4,1812.1 1467.4,2038.8 1458.9,2038.8 1458.9,2157.2 1232.1,2157.2 1232.1,2038.8 
		1223.6,2038.8 1223.6,1812.1 1232.1,1812.1 1232.1,1693.7 1458.9,1693.7 	"/>
</g>
<g id="LWPOLYLINE_34_">
	<polygon class="st0" points="1504.4,1006.4 1504.4,1014.9 1376.8,1014.9 1376.8,1006.4 1309.2,1006.4 1309.2,779.6 1376.8,779.6 
		1376.8,771.1 1504.4,771.1 1504.4,779.6 1572,779.6 1572,1006.4 	"/>
</g>
<g id="LWPOLYLINE_35_">
	<rect x="928.9" y="1213.4" class="st0" width="56.7" height="9.9"/>
</g>
</svg>
