<?xml version="1.0" encoding="utf-8"?>
<!-- Generator: Adobe Illustrator 22.0.0, SVG Export Plug-In . SVG Version: 6.00 Build 0)  -->
<svg version="1.1" id="_x30_" xmlns="http://www.w3.org/2000/svg" xmlns:xlink="http://www.w3.org/1999/xlink" x="0px" y="0px"
	 viewBox="0 0 8092.5 2659.5" style="enable-background:new 0 0 8092.5 2659.5;" xml:space="preserve">
<style type="text/css">
	.st0{fill:none;stroke:#000000;stroke-width:0.7087;stroke-linecap:round;stroke-linejoin:round;stroke-miterlimit:10;}
</style>
<g id="LWPOLYLINE">
	<path class="st0" d="M1768.4,1483.6l505.4-252.7c7-3.5,9.8-12,6.3-19c-2.4-4.8-7.3-7.8-12.7-7.8h-492.7c-7.8,0-14.2-6.3-14.2-14.2
		V934.8c0-7.8,6.3-14.2,14.2-14.2h1105.5c7.8,0,14.2,6.3,14.2,14.2v260.5c0,5.4-3,10.3-7.8,12.7l-505.4,252.7c-7,3.5-9.8,12-6.3,19
		c2.4,4.8,7.3,7.8,12.7,7.8h492.7c7.8,0,14.2,6.3,14.2,14.2v255.1c0,7.8-6.3,14.2-14.2,14.2H1774.8c-7.8,0-14.2-6.3-14.2-14.2
		v-260.5C1760.5,1490.9,1763.6,1486,1768.4,1483.6z"/>
</g>
<g id="LWPOLYLINE_1_">
	<polygon class="st0" points="3142.8,1569.7 3142.8,1508.7 2916.1,1508.7 2916.1,1569.7 2907.6,1569.7 2907.6,1688.7 2916.1,1688.7 
		2916.1,1749.7 3142.8,1749.7 3142.8,1688.7 3151.3,1688.7 3151.3,1569.7 	"/>
</g>
<g id="LWPOLYLINE_2_">
	<rect x="2044" y="1749.7" class="st0" width="566.9" height="8.5"/>
</g>
<g id="LWPOLYLINE_3_">
	<polygon class="st0" points="3683.3,1742.6 3683.3,1751.1 3399.8,1751.1 3399.8,1742.6 3238.7,1742.6 3238.7,1515.8 3399.8,1515.8 
		3399.8,1507.3 3683.3,1507.3 3683.3,1515.8 3844.4,1515.8 3844.4,1742.6 	"/>
</g>
<g id="LWPOLYLINE_4_">
	<polygon class="st0" points="3162.5,1446.1 3162.5,1454.6 3502.6,1454.6 3502.6,1446.1 3672.9,1446.1 3672.9,1219.3 3502.6,1219.3 
		3502.6,1210.8 3162.5,1210.8 3162.5,1219.3 2992.2,1219.3 2992.2,1446.1 	"/>
</g>
<g id="LWPOLYLINE_5_">
	<rect x="2044" y="933.3" class="st0" width="566.9" height="8.5"/>
</g>
<g id="LWPOLYLINE_6_">
	<polygon class="st0" points="3156.9,1123 3156.9,1190.9 2930.2,1190.9 2930.2,1123 2921.7,1123 2921.7,1009.7 2930.2,1009.7 
		2930.2,941.8 3156.9,941.8 3156.9,1009.7 3165.4,1009.7 3165.4,1123 	"/>
</g>
<g id="LWPOLYLINE_7_">
	<rect x="2299.1" y="617.4" class="st0" width="56.7" height="9.9"/>
</g>
<g id="LWPOLYLINE_8_">
	<path class="st0" d="M2270.8,616c0-5.5,4.4-9.9,9.9-9.9h93.5c5.5,0,9.9,4.4,9.9,9.9v32.6h489v226.8h-262.2v8.5H2044v-8.5h-262.2
		V648.6h489C2270.8,648.6,2270.8,616,2270.8,616z"/>
</g>
<g id="LWPOLYLINE_9_">
	<path class="st0" d="M4278.7,1483.6l505.4-252.7c7-3.5,9.8-12,6.3-19c-2.4-4.8-7.3-7.8-12.7-7.8H4285c-7.8,0-14.2-6.3-14.2-14.2
		V934.8c0-7.8,6.3-14.2,14.2-14.2h1105.5c7.8,0,14.2,6.3,14.2,14.2v260.5c0,5.4-3,10.3-7.8,12.7l-505.4,252.7c-7,3.5-9.8,12-6.3,19
		c2.4,4.8,7.3,7.8,12.7,7.8h492.7c7.8,0,14.2,6.3,14.2,14.2v255.1c0,7.8-6.3,14.2-14.2,14.2H4285c-7.8,0-14.2-6.3-14.2-14.2v-260.5
		C4270.8,1490.9,4273.9,1486,4278.7,1483.6z"/>
</g>
<g id="LWPOLYLINE_10_">
	<path class="st0" d="M4314.1,1505.5l620.1-310c7-3.5,9.8-12,6.3-19c-2.4-4.8-7.3-7.8-12.7-7.8h-607.4c-7.8,0-14.2-6.3-14.2-14.2
		V970.2c0-7.8,6.3-14.2,14.2-14.2H5355c7.8,0,14.2,6.3,14.2,14.2v203.2c0,5.4-3,10.3-7.8,12.7l-620.1,310c-7,3.5-9.8,12-6.3,19
		c2.4,4.8,7.3,7.8,12.7,7.8h607.4c7.8,0,14.2,6.3,14.2,14.2v184.3c0,7.8-6.3,14.2-14.2,14.2H4320.4c-7.8,0-14.2-6.3-14.2-14.2
		v-203.2C4306.3,1512.8,4309.3,1507.9,4314.1,1505.5z"/>
</g>
<g id="LWPOLYLINE_11_">
	<rect x="5383.4" y="1569.7" class="st0" width="8.5" height="119.1"/>
</g>
<g id="LWPOLYLINE_12_">
	<rect x="4938.8" y="1500.2" class="st0" width="283.5" height="8.5"/>
</g>
<g id="LWPOLYLINE_13_">
	
		<rect x="4910.8" y="1342.7" transform="matrix(0.8944 -0.4472 0.4472 0.8944 -65.9785 2414.426)" class="st0" width="340.2" height="8.5"/>
</g>
<g id="LWPOLYLINE_14_">
	<rect x="5383.4" y="1009.7" class="st0" width="8.5" height="113.4"/>
</g>
<g id="LWPOLYLINE_15_">
	<rect x="4778.2" y="1749" class="st0" width="119.1" height="9.9"/>
</g>
<g id="LWPOLYLINE_16_">
	<path class="st0" d="M5659.6,1483.6l505.4-252.7c7-3.5,9.8-12,6.3-19c-2.4-4.8-7.3-7.8-12.7-7.8h-492.7c-7.8,0-14.2-6.3-14.2-14.2
		V934.8c0-7.8,6.3-14.2,14.2-14.2h1105.5c7.8,0,14.2,6.3,14.2,14.2v260.5c0,5.4-3,10.3-7.8,12.7l-505.4,252.7c-7,3.5-9.8,12-6.3,19
		c2.4,4.8,7.3,7.8,12.7,7.8h492.7c7.8,0,14.2,6.3,14.2,14.2v255.1c0,7.8-6.3,14.2-14.2,14.2H5665.9c-7.8,0-14.2-6.3-14.2-14.2
		v-260.5C5651.8,1490.9,5654.8,1486,5659.6,1483.6z"/>
</g>
<g id="LWPOLYLINE_18_">
	<rect x="4283.6" y="1002.8" class="st0" width="8.5" height="119.1"/>
</g>
<g id="LWPOLYLINE_19_">
	<rect x="4453.2" y="1182.8" class="st0" width="283.5" height="8.5"/>
</g>
<g id="LWPOLYLINE_20_">
	
		<rect x="4424.5" y="1340.3" transform="matrix(0.8944 -0.4472 0.4472 0.8944 -116.2275 2196.718)" class="st0" width="340.2" height="8.5"/>
</g>
<g id="LWPOLYLINE_21_">
	<rect x="4283.6" y="1568.5" class="st0" width="8.5" height="113.4"/>
</g>
<g id="LWPOLYLINE_22_">
	<rect x="4778.2" y="932.6" class="st0" width="119.1" height="9.9"/>
</g>
<g id="LWPOLYLINE_23_">
	<rect x="2873.1" y="1569.7" class="st0" width="8.5" height="119.1"/>
</g>
<g id="LWPOLYLINE_24_">
	<rect x="2428.6" y="1500.2" class="st0" width="283.5" height="8.5"/>
</g>
<g id="LWPOLYLINE_25_">
	
		<rect x="2400.5" y="1342.7" transform="matrix(0.8944 -0.4472 0.4472 0.8944 -330.9766 1291.8131)" class="st0" width="340.2" height="8.5"/>
</g>
<g id="LWPOLYLINE_26_">
	<rect x="2873.1" y="1009.7" class="st0" width="8.5" height="113.4"/>
</g>
<g id="LWPOLYLINE_27_">
	<rect x="1773.3" y="1002.8" class="st0" width="8.5" height="119.1"/>
</g>
<g id="LWPOLYLINE_28_">
	<rect x="1942.9" y="1182.8" class="st0" width="283.5" height="8.5"/>
</g>
<g id="LWPOLYLINE_29_">
	
		<rect x="1914.3" y="1340.3" transform="matrix(0.8944 -0.4472 0.4472 0.8944 -381.2256 1074.1051)" class="st0" width="340.2" height="8.5"/>
</g>
<g id="LWPOLYLINE_30_">
	<rect x="1773.3" y="1568.5" class="st0" width="8.5" height="113.4"/>
</g>
<g id="LWPOLYLINE_31_">
	<rect x="6159.2" y="1749" class="st0" width="119.1" height="9.9"/>
</g>
<g id="LWPOLYLINE_32_">
	<rect x="6159.2" y="932.6" class="st0" width="119.1" height="9.9"/>
</g>
<g id="LWPOLYLINE_33_">
	<polygon class="st0" points="1512.1,1121.8 1512.1,1182.8 1738.9,1182.8 1738.9,1121.8 1747.4,1121.8 1747.4,1002.8 1738.9,1002.8 
		1738.9,941.8 1512.1,941.8 1512.1,1002.8 1503.6,1002.8 1503.6,1121.8 	"/>
</g>
<g id="LWPOLYLINE_34_">
	<polygon class="st0" points="971.6,948.9 971.6,940.4 1255.1,940.4 1255.1,948.9 1416.2,948.9 1416.2,1175.7 1255.1,1175.7 
		1255.1,1184.2 971.6,1184.2 971.6,1175.7 810.5,1175.7 810.5,948.9 	"/>
</g>
<g id="LWPOLYLINE_35_">
	<polygon class="st0" points="1492.5,1245.4 1492.5,1236.9 1152.3,1236.9 1152.3,1245.4 982,1245.4 982,1472.2 1152.3,1472.2 
		1152.3,1480.7 1492.5,1480.7 1492.5,1472.2 1662.8,1472.2 1662.8,1245.4 	"/>
</g>
<g id="LWPOLYLINE_36_">
	<polygon class="st0" points="1498,1568.5 1498,1500.6 1724.8,1500.6 1724.8,1568.5 1733.3,1568.5 1733.3,1681.8 1724.8,1681.8 
		1724.8,1749.7 1498,1749.7 1498,1681.8 1489.5,1681.8 1489.5,1568.5 	"/>
</g>
<g id="LWPOLYLINE_37_">
	<rect x="2299.1" y="2064.2" class="st0" width="56.7" height="9.9"/>
</g>
<g id="LWPOLYLINE_38_">
	<path class="st0" d="M2384.2,2075.6c0,5.5-4.4,9.9-9.9,9.9h-93.5c-5.5,0-9.9-4.4-9.9-9.9V2043h-489v-226.8h262.2v-8.5H2611v8.5
		h262.2V2043h-489C2384.2,2043,2384.2,2075.6,2384.2,2075.6z"/>
</g>
</svg>
